<?xml version="1.0" encoding="UTF-8"?>
<svg width="30px" height="30px" viewBox="0 0 30 30" version="1.1" 
    xmlns="http://www.w3.org/2000/svg" 
    xmlns:xlink="http://www.w3.org/1999/xlink">
    <!-- Generator: Sketch 61 (89581) - https://sketch.com -->

    <desc>Created with Sketch.</desc>
    <g id="Icons/30/bell" stroke="none" stroke-width="1" fill="none" fill-rule="evenodd">
        <path class="cls-1" d="M25.52,17.72 L25,17.15 C23.53,15.47 23.1,12.89 22.9,10.85 C22.9,10.29 22.83,9.72999998 22.8,9.15999998 L22.8,8.33999998 C22.8981406,6.62475917 21.6120405,5.14352662 19.9,4.99999997 C19.57,4.88999997 19.14,4.79999997 18.68,4.69999997 L17.93,4.52999997 C17.93,4.46999996 17.93,4.40999996 17.93,4.34999996 C18.0581111,3.77982606 17.9984799,3.18351476 17.76,2.64999996 C17.1,1.39999995 15.1,1.35999995 14.86,1.35999995 C14.62,1.35999995 12.64,1.35999995 11.96,2.66999996 C11.7164718,3.20215982 11.6566723,3.80015451 11.79,4.36999996 C11.7850827,4.42989921 11.7850827,4.49010072 11.79,4.54999997 L11.04,4.71999997 C10.6348081,4.78948754 10.2341023,4.88298557 9.83999998,4.99999997 C8.15857116,5.17843037 6.91080111,6.6414847 6.99999997,8.32999998 L6.99999997,9.16999998 C6.99999997,9.72999998 6.99999997,10.29 6.90999997,10.83 C6.69999997,12.89 6.27999997,15.47 4.80999997,17.15 L4.29999996,17.72 C2.88999996,19.29 1.66999996,20.64 1.99999996,23.55 C2.10711788,24.3594983 2.78389738,24.9728297 3.59999996,25 L9.82999998,25 C10.2414113,27.4574825 12.368318,29.2579193 14.86,29.2579193 C17.351682,29.2579193 19.4785887,27.4574825 19.89,25 L26.14,25 C26.9883005,25.0073012 27.7089404,24.3810307 27.82,23.54 C28.15,20.64 26.93,19.29 25.52,17.72 Z M14.86,27.2700051 C13.4638296,27.2725083 12.237099,26.3442822 11.86,25 L17.86,25 C17.4770162,26.3402607 16.2539,27.265752 14.86,27.2700051 Z M25.86,23.01 L3.85999996,23.01 C3.73999996,21.22 4.44999996,20.43 5.67999997,19.01 L6.20999997,18.42 C8.07999998,16.36 8.57999998,13.39 8.81999998,11 C8.81999998,10.42 8.88999998,9.83999998 8.91999998,9.25999998 L8.91999998,8.43999998 C8.91999998,7.49999997 9.16999998,7.13999997 10.21,6.97999997 L10.42,6.91999997 C10.748574,6.81866874 11.0823965,6.73521311 11.42,6.66999997 C12.62,6.41999997 13.35,6.25999997 13.64,5.60999997 L13.64,5.47999997 C13.7341359,5.03155352 13.7341359,4.56844641 13.64,4.11999996 C13.64,3.93999996 13.58,3.66999996 13.57,3.64999996 C13.9281048,3.44396425 14.3371864,3.34342724 14.75,3.35999996 C15.1787401,3.34054783 15.6062641,3.41921225 16,3.58999996 C16.0224911,3.76595081 16.0224911,3.94404912 16,4.11999996 C15.9105555,4.56892136 15.9105555,5.03107857 16,5.47999997 C16,5.47999997 16,5.56999997 16,5.60999997 C16.29,6.25999997 17,6.41999997 18.22,6.66999997 C18.5573449,6.73637644 18.8911068,6.81981692 19.22,6.91999997 L19.43,6.97999997 C20.43,7.12999997 20.66,7.42999997 20.72,8.43999998 L20.72,9.25999998 C20.72,9.83999998 20.77,10.42 20.82,11.03 C21.05,13.39 21.56,16.36 23.4,18.47 L23.93,19.06 C25.27,20.43 26,21.22 25.86,23 L25.86,23.01 Z" id="bell-30" fill="#000000"></path>
    </g>
</svg>