<?xml version="1.0" encoding="UTF-8"?>
<svg width="30px" height="30px" viewBox="0 0 30 30" version="1.1" 
    xmlns="http://www.w3.org/2000/svg" 
    xmlns:xlink="http://www.w3.org/1999/xlink">
    <!-- Generator: Sketch 61 (89581) - https://sketch.com -->

    <desc>Created with Sketch.</desc>
    <g id="Icons/30/building" stroke="none" stroke-width="1" fill="none" fill-rule="evenodd">
        <path class="cls-1" d="M28.86,26 L27,26 L27,12 L27.71,12 C28.2622848,12 28.71,11.5522847 28.71,11 C28.71,10.4477152 28.2622848,9.99999996 27.71,9.99999996 L22.08,9.99999996 L22,9.99999996 L22,3.99999996 L22.83,3.99999996 C23.3822848,3.99999996 23.83,3.55228471 23.83,2.99999996 C23.83,2.44771521 23.3822848,1.99999996 22.83,1.99999996 L7.19999997,1.99999996 C6.64771522,1.99999996 6.19999997,2.44771521 6.19999997,2.99999996 C6.19999997,3.55228471 6.64771522,3.99999996 7.19999997,3.99999996 L7.99999998,3.99999996 L7.99999998,9.99999996 L2.31999996,9.99999996 C1.76771521,9.99999996 1.31999995,10.4477152 1.31999995,11 C1.31999995,11.5522847 1.76771521,12 2.31999996,12 L2.99999996,12 L2.99999996,26 L1.16999995,26 C0.617715202,26 0.169999951,26.4477153 0.169999951,27 C0.169999951,27.5522848 0.617715202,28 1.16999995,28 L28.86,28 C29.4122848,28 29.86,27.5522848 29.86,27 C29.86,26.4477153 29.4122848,26 28.86,26 Z M22.08,12 L25,12 L25,26 L22,26 L22,12 L22.08,12 Z M14,3.99999996 L14,17 C14,17.5522848 14.4477152,18 15,18 C15.5522848,18 16,17.5522848 16,17 L16,3.99999996 L20,3.99999996 L20,26 L16,26 L16,22.84 C16,22.2877153 15.5522848,21.84 15,21.84 C14.4477152,21.84 14,22.2877153 14,22.84 L14,26 L9.99999998,26 L9.99999998,3.99999996 L14,3.99999996 Z M4.99999997,12 L7.99999997,12 L7.99999997,26 L4.99999997,26 L4.99999997,12 Z" id="building-30" fill="#000000"></path>
    </g>
</svg>