<svg xmlns="http://www.w3.org/2000/svg" preserveAspectRatio="xMidYMid" width="32" height="32" viewBox="0 0 32 32">
  <defs>
    <style>
      .cls-1 {
      fill-rule: evenodd;
      }
    </style>
  </defs>
  <path d="M30.000,32.000 L2.000,32.000 C0.897,32.000 -0.000,31.103 -0.000,30.000 L-0.000,5.000 C-0.000,3.897 0.897,3.000 2.000,3.000 L10.000,3.000 L10.000,1.000 C10.000,0.448 10.447,-0.000 11.000,-0.000 C11.553,-0.000 12.000,0.448 12.000,1.000 L12.000,3.000 L20.000,3.000 L20.000,1.000 C20.000,0.448 20.447,-0.000 21.000,-0.000 C21.553,-0.000 22.000,0.448 22.000,1.000 L22.000,3.000 L30.000,3.000 C31.103,3.000 32.000,3.897 32.000,5.000 L32.000,30.000 C32.000,31.103 31.103,32.000 30.000,32.000 ZM22.000,5.000 L22.000,6.000 C22.000,6.552 21.553,7.000 21.000,7.000 C20.447,7.000 20.000,6.552 20.000,6.000 L20.000,5.000 L12.000,5.000 L12.000,6.000 C12.000,6.552 11.553,7.000 11.000,7.000 C10.447,7.000 10.000,6.552 10.000,6.000 L10.000,5.000 L2.000,5.000 L2.000,30.000 L29.997,30.000 L30.000,5.000 L22.000,5.000 ZM26.707,24.707 C26.512,24.902 26.256,25.000 26.000,25.000 C25.744,25.000 25.488,24.902 25.293,24.707 L24.000,23.414 L22.707,24.707 C22.512,24.902 22.256,25.000 22.000,25.000 C21.744,25.000 21.488,24.902 21.293,24.707 C20.902,24.316 20.902,23.683 21.293,23.293 L22.586,22.000 L21.293,20.707 C20.902,20.316 20.902,19.683 21.293,19.293 C21.684,18.902 22.316,18.902 22.707,19.293 L24.000,20.586 L25.293,19.293 C25.684,18.902 26.316,18.902 26.707,19.293 C27.098,19.683 27.098,20.316 26.707,20.707 L25.414,22.000 L26.707,23.293 C27.098,23.683 27.098,24.316 26.707,24.707 ZM25.000,16.000 L23.000,16.000 C22.447,16.000 22.000,15.552 22.000,15.000 L22.000,13.000 C22.000,12.448 22.447,12.000 23.000,12.000 L25.000,12.000 C25.553,12.000 26.000,12.448 26.000,13.000 L26.000,15.000 C26.000,15.552 25.553,16.000 25.000,16.000 ZM17.000,24.000 L15.000,24.000 C14.447,24.000 14.000,23.552 14.000,23.000 L14.000,21.000 C14.000,20.448 14.447,20.000 15.000,20.000 L17.000,20.000 C17.553,20.000 18.000,20.448 18.000,21.000 L18.000,23.000 C18.000,23.552 17.553,24.000 17.000,24.000 ZM17.000,16.000 L15.000,16.000 C14.447,16.000 14.000,15.552 14.000,15.000 L14.000,13.000 C14.000,12.448 14.447,12.000 15.000,12.000 L17.000,12.000 C17.553,12.000 18.000,12.448 18.000,13.000 L18.000,15.000 C18.000,15.552 17.553,16.000 17.000,16.000 ZM9.000,24.000 L7.000,24.000 C6.447,24.000 6.000,23.552 6.000,23.000 L6.000,21.000 C6.000,20.448 6.447,20.000 7.000,20.000 L9.000,20.000 C9.553,20.000 10.000,20.448 10.000,21.000 L10.000,23.000 C10.000,23.552 9.553,24.000 9.000,24.000 ZM9.000,16.000 L7.000,16.000 C6.447,16.000 6.000,15.552 6.000,15.000 L6.000,13.000 C6.000,12.448 6.447,12.000 7.000,12.000 L9.000,12.000 C9.553,12.000 10.000,12.448 10.000,13.000 L10.000,15.000 C10.000,15.552 9.553,16.000 9.000,16.000 Z" class="cls-1" fill="#000000"/>
</svg>
