<?xml version="1.0" encoding="UTF-8"?>
<svg width="30px" height="30px" viewBox="0 0 30 30" version="1.1" 
    xmlns="http://www.w3.org/2000/svg" 
    xmlns:xlink="http://www.w3.org/1999/xlink">
    <!-- Generator: Sketch 61 (89581) - https://sketch.com -->

    <desc>Created with Sketch.</desc>
    <g id="Icons/30/cart" stroke="none" stroke-width="1" fill="none" fill-rule="evenodd">
        <path class="cls-1" d="M29.51,4.99999997 C29.3191779,4.75850792 29.0277804,4.61834201 28.72,4.61999997 L11.82,4.61999997 C11.2677152,4.61999997 10.82,5.06771522 10.82,5.61999997 C10.82,6.17228472 11.2677152,6.61999997 11.82,6.61999997 L27.46,6.61999997 L25.88,13.31 L10.82,14.71 L5.63999997,2.79999996 C5.48044684,2.43441122 5.11888642,2.19861094 4.71999997,2.19999385 L1.08999995,2.19999385 C0.537715202,2.19999385 0.0899999503,2.64771521 0.0899999503,3.19999385 C0.0899999503,3.75228471 0.537715202,4.19999385 1.08999995,4.19999385 L4.08999995,4.19999385 L9.08999995,15.73 L7.55999998,20.08 C5.88892995,20.2835499 4.54527394,21.5517815 4.24563152,23.2083207 C3.94598909,24.8648599 4.7602331,26.5234224 6.25411037,27.2994625 C7.74798763,28.0755027 9.57314468,27.7880576 10.7561875,26.5904277 C11.9392303,25.3927978 12.204288,23.5642554 11.41,22.08 L20.23,22.08 C19.4196325,23.5867108 19.7160328,25.4491774 20.9540881,26.6298941 C22.1921435,27.8106107 24.0665628,28.0184255 25.5331821,27.1375731 C26.9998013,26.2567208 27.696968,24.5044098 27.2363184,22.8567828 C26.7756688,21.2091557 25.2707942,20.0724996 23.56,20.08 L9.68999998,20.08 L10.85,16.77 L26.78,15.29 C27.2056077,15.2507604 27.559226,14.9453628 27.66,14.53 L29.66,5.89999997 C29.757751,5.59334196 29.7019238,5.25837885 29.51,4.99999997 Z M8.06999998,25.65 C7.07168491,25.6444844 6.26634019,24.8316937 6.26999971,23.8333702 C6.27368424,22.8350466 7.08498628,22.0282023 8.08331491,22.0300276 C9.08164353,22.0318591 9.88999998,22.8416697 9.88999998,23.84 C9.88449852,24.8412508 9.0712659,25.65 8.06999998,25.65 L8.06999998,25.65 Z M25.38,23.84 C25.3689831,24.8424809 24.5493277,25.647276 23.5468131,25.6399515 C22.5442984,25.6326269 21.7364898,24.8159413 21.7401097,23.8134065 C21.7437539,22.8108717 22.5574586,22.0000606 23.56,22 C24.0461793,22 24.5121604,22.1944631 24.8540574,22.5401172 C25.1959544,22.8857713 25.3853427,23.3538501 25.38,23.84 L25.38,23.84 Z" id="cart-30" fill="#000000"></path>
    </g>
</svg>