<?xml version="1.0" encoding="UTF-8"?>
<svg width="30px" height="30px" viewBox="0 0 30 30" version="1.1" 
    xmlns="http://www.w3.org/2000/svg" 
    xmlns:xlink="http://www.w3.org/1999/xlink">
    <!-- Generator: Sketch 61 (89581) - https://sketch.com -->

    <desc>Created with Sketch.</desc>
    <g id="Icons/30/chart" stroke="none" stroke-width="1" fill="none" fill-rule="evenodd">
        <path class="cls-1" d="M2.99999996,1.99999996 C3.55228471,1.99999996 3.99999996,2.44771521 3.99999996,2.99999996 L3.99999996,2.99999996 L3.99999996,26 L27,26 C27.5522848,26 28,26.4477153 28,27 C28,27.5522848 27.5522848,28 27,28 L27,28 L3.74999996,28 C2.78963439,27.9946052 2.01089822,27.2203189 1.99999996,26.26 L1.99999996,26.26 L1.99999996,2.99999996 C1.99999996,2.44771521 2.44771521,1.99999996 2.99999996,1.99999996 Z M22.0087514,3.12770867 C22.7860965,1.5597874 24.5924834,0.795178722 26.2592645,1.32854865 C27.9260455,1.86191858 28.9529535,3.53318164 28.675627,5.26110887 C28.3983006,6.98903609 26.8999764,8.25500798 25.15,8.23999998 L25.15,8.23999998 L25.04,8.23999998 L23.71,12.24 C25.0947627,13.1921666 25.6162825,14.9885484 24.9566863,16.5342268 C24.2970901,18.0799052 22.6392741,18.9462864 20.9936991,18.6052996 C19.3481242,18.2643129 18.1710839,16.8105087 18.18,15.13 C18.1844862,14.5134267 18.3536549,13.9092528 18.67,13.38 L18.67,13.38 L16.99,11.6 C16.5004178,11.8606584 15.9546434,11.9979601 15.4,12 C15.1644664,11.9986216 14.9297712,11.9717993 14.7,11.92 L14.7,11.92 L11.6,17.75 C12.608087,18.7515523 12.9128203,20.2621146 12.3718709,21.5761619 C11.8309215,22.8902091 10.5510362,23.7484368 9.12999998,23.75 L9.12999998,23.75 L9.12999998,23.71 C7.34121898,23.5184983 5.98469985,22.0090026 5.98469985,20.21 C5.98469985,18.4109974 7.34121898,16.9015017 9.12999998,16.71 C9.36492199,16.7129856 9.59913868,16.7364073 9.82999998,16.78 L9.82999998,16.78 L12.94,10.97 C11.7934255,9.84696332 11.5487517,8.09181311 12.3444709,6.69801424 C13.1401902,5.30421536 14.7759954,4.62262986 16.3259744,5.03905448 C17.8759534,5.45547909 18.9499288,6.86508696 18.94,8.46999998 C18.9340736,9.08636925 18.7650084,9.69017366 18.45,10.22 L18.45,10.22 L20.13,11.99 C20.6219828,11.7368438 21.1667147,11.6032304 21.72,11.6 L21.72,11.6 L21.82,11.6 L23.15,7.59999998 C21.7164152,6.59626841 21.2314063,4.69562993 22.0087514,3.12770867 Z M9.12999998,18.71 C8.72687091,18.71 8.34025297,18.8701424 8.05519767,19.1551977 C7.77014237,19.440253 7.60999998,19.826871 7.60999998,20.23 C7.60999998,21.0694728 8.29052716,21.75 9.12999998,21.75 C9.9694728,21.75 10.65,21.0694728 10.65,20.23 C10.65,19.3905272 9.9694728,18.71 9.12999998,18.71 Z M21.698,13.5896038 L21.5580444,13.5955621 C21.2058843,13.6260286 20.8733239,13.7777975 20.618718,14.0274756 C20.3277398,14.3128219 20.1626288,14.702466 20.16,15.11 C20.16,15.9481671 20.8385235,16.6281375 21.6766886,16.6299672 C22.5148537,16.6317895 23.1963153,15.9547819 23.2000003,15.1166228 C23.2036556,14.2784638 22.528149,13.5955143 21.69,13.59 L21.698,13.5896038 Z M15.4,6.93999997 C14.5627968,6.94545424 13.8854543,7.62279679 13.88,8.45999998 C13.88,9.2994728 14.5605272,9.97999998 15.4,9.97999998 C16.2394728,9.97999998 16.92,9.2994728 16.92,8.45999998 C16.92,7.62052716 16.2394728,6.93999997 15.4,6.93999997 Z M25.139,3.18960379 L24.9983965,3.19557134 C24.6470726,3.22609187 24.3154666,3.37813173 24.0622454,3.62806432 C23.7728497,3.91370158 23.6099648,4.30338163 23.61,4.70999997 C23.61,5.54947279 24.2905272,6.22999997 25.13,6.22999997 C25.9694729,6.22999997 26.65,5.54947279 26.65,4.70999997 C26.65,3.87052714 25.9694729,3.18999996 25.13,3.18999996 L25.139,3.18960379 Z" id="chart-30" fill="#000000"></path>
    </g>
</svg>