<?xml version="1.0" encoding="UTF-8"?>
<svg width="30px" height="30px" viewBox="0 0 30 30" version="1.1" 
    xmlns="http://www.w3.org/2000/svg" 
    xmlns:xlink="http://www.w3.org/1999/xlink">
    <!-- Generator: Sketch 61 (89581) - https://sketch.com -->

    <desc>Created with Sketch.</desc>
    <g id="Icons/30/clipboard" stroke="none" stroke-width="1" fill="none" fill-rule="evenodd">
        <path class="cls-1" d="M15.1,0.191748422 C16.6029524,0.191748422 17.9297718,1.17296648 18.37,2.60999996 L18.37,2.60999996 L19.37,2.60999996 C20.2287303,2.61186378 21.008635,3.1110028 21.37,3.88999996 L21.37,3.88999996 L24.1,3.88999996 C25.1928361,3.90639434 26.07,4.79704092 26.07,5.88999997 L26.07,5.88999997 L26.07,27.89 C26.07,28.9945695 25.1745695,29.89 24.07,29.89 L24.07,29.89 L6.06999996,29.89 C4.96543047,29.89 4.06999996,28.9945695 4.06999996,27.89 L4.06999996,27.89 L4.06999996,5.88999997 C4.06999996,4.78543047 4.96543047,3.88999996 6.06999996,3.88999996 L6.06999996,3.88999996 L8.82999998,3.88999996 C9.19136496,3.1110028 9.97126967,2.61186378 10.83,2.60999996 L10.83,2.60999996 L11.83,2.60999996 C12.2702282,1.17296648 13.5970476,0.191748422 15.1,0.191748422 Z M24.1,5.88999997 L21.59,5.88999997 L21.59,8.59999998 L8.58999998,8.59999998 L8.58999998,5.90999997 L6.09999997,5.90999997 L6.09999997,27.91 L24.1,27.91 L24.1,5.88999997 Z M16,21.54 C16.5522848,21.54 17,21.9877153 17,22.54 C17,23.0922848 16.5522848,23.54 16,23.54 L16,23.54 L10.57,23.54 C10.0177152,23.54 9.56999998,23.0922848 9.56999998,22.54 C9.56999998,21.9877153 10.0177152,21.54 10.57,21.54 L10.57,21.54 Z M19.42,16.87 C19.9722848,16.87 20.42,17.3177153 20.42,17.87 C20.42,18.4222848 19.9722848,18.87 19.42,18.87 L19.42,18.87 L10.57,18.87 C10.0177152,18.87 9.56999998,18.4222848 9.56999998,17.87 C9.56999998,17.3177153 10.0177152,16.87 10.57,16.87 L10.57,16.87 Z M19.42,12.2 C19.9722848,12.2 20.42,12.6477152 20.42,13.2 C20.42,13.7522847 19.9722848,14.2 19.42,14.2 L19.42,14.2 L10.57,14.2 C10.0177152,14.2 9.56999998,13.7522847 9.56999998,13.2 C9.56999998,12.6477152 10.0177152,12.2 10.57,12.2 L10.57,12.2 Z M15.09,2.18999996 C14.3057557,2.18999996 13.67,2.82575561 13.67,3.60999996 L13.67,3.60999996 L13.67,4.60999997 L10.81,4.60999997 C10.6922978,4.60987831 10.59535,4.70241939 10.59,4.81999997 L10.59,4.81999997 L10.58,6.59999997 L19.58,6.59999997 L19.58,4.81999997 C19.5749341,4.70618453 19.4838155,4.61506583 19.37,4.60999997 L19.37,4.60999997 L16.51,4.60999997 L16.51,3.60999996 C16.51,2.82575561 15.8742443,2.18999996 15.09,2.18999996 Z M15.09,2.82999996 C15.5042136,2.82999996 15.84,3.1657864 15.84,3.57999996 C15.84,3.99421353 15.5042136,4.32999996 15.09,4.32999996 C14.6757864,4.32999996 14.34,3.99421353 14.34,3.57999996 C14.34,3.1657864 14.6757864,2.82999996 15.09,2.82999996 Z" id="clipboard-30" fill="#000000"></path>
    </g>
</svg>