<?xml version="1.0" encoding="UTF-8"?>
<svg width="30px" height="30px" viewBox="0 0 30 30" version="1.1" 
    xmlns="http://www.w3.org/2000/svg" 
    xmlns:xlink="http://www.w3.org/1999/xlink">
    <!-- Generator: Sketch 61 (89581) - https://sketch.com -->

    <desc>Created with Sketch.</desc>
    <g id="Icons/30/clock-history" stroke="none" stroke-width="1" fill="none" fill-rule="evenodd">
        <path class="cls-1" d="M19.6477405,1.79484842 C26.0817844,4.06057921 29.9463299,10.6336038 28.7976594,17.3575173 C27.6489889,24.0814308 21.8215095,28.9987317 15.0001859,29 C14.4479012,29 14.0001027,28.5524707 14,28.000186 C13.9998973,27.4479012 14.4475293,27.0001028 14.9998141,27.0000001 C20.8466628,26.9989129 25.8416451,22.7840836 26.8262198,17.0207291 C27.8107945,11.2573747 24.498327,5.62335364 18.9834322,3.68129868 C13.4685375,1.73924371 7.35674111,4.05453624 4.51279361,9.16311768 C1.84364707,13.9577043 2.78227846,19.9027255 6.67426832,23.6448466 L6.5907065,21.3875841 C6.57143206,20.8751106 6.9413138,20.4382289 7.43613005,20.3618126 L7.55241593,20.3507065 C8.06488944,20.3314321 8.50177108,20.7013138 8.57818738,21.1961301 L8.58929345,21.312416 L8.75929345,25.832416 C8.77856903,26.3449195 8.40864426,26.7818165 7.91379457,26.8581992 L7.79750117,26.8692966 L3.26750116,27.0392966 C2.71560489,27.060008 2.25141471,26.6293975 2.23070337,26.0775012 C2.21147142,25.5650261 2.58138938,25.1281752 3.07621197,25.0517999 L3.19249876,25.0407035 L5.16441835,24.9662977 C0.726887026,20.5942119 -0.320447611,13.7332824 2.76532876,8.19030393 C6.0832675,2.23029225 13.2136966,-0.470882372 19.6477405,1.79484842 Z M22.3571068,8.5028932 C22.7175908,8.86337716 22.7453203,9.43060822 22.4402954,9.82289943 L22.3571068,9.91710676 L17.0440435,15.2299927 C17.087075,15.3927617 17.11,15.5637037 17.11,15.74 C17.11,16.8390467 16.2190467,17.73 15.12,17.73 C14.0209533,17.73 13.13,16.8390467 13.13,15.74 C13.13,15.5629796 13.1531137,15.3913578 13.1964877,15.2279877 L10.3620218,12.3862343 C9.97197938,11.9952288 9.97276011,11.3620643 10.3637656,10.9720218 C10.7246938,10.6119827 11.2919586,10.5849526 11.6838734,10.8904609 L11.7779781,10.9737656 L14.6135069,13.8150309 C14.7752216,13.7725963 14.944972,13.75 15.12,13.75 C15.2961062,13.75 15.4668696,13.7728756 15.6294807,13.8158174 L20.9428932,8.5028932 C21.3334175,8.1123689 21.9665825,8.1123689 22.3571068,8.5028932 Z" id="clock-history-30" fill="#000000"></path>
    </g>
</svg>