<?xml version="1.0" encoding="UTF-8"?>
<svg width="30px" height="30px" viewBox="0 0 30 30" version="1.1" xmlns="http://www.w3.org/2000/svg" xmlns:xlink="http://www.w3.org/1999/xlink">
    <!-- Generator: Sketch 61.2 (89653) - https://sketch.com -->
    <desc>Created with Sketch.</desc>
    <g id="Icons/30/Close" stroke="none" stroke-width="1" fill="none" fill-rule="evenodd">
        <path class="cls-1" d="M3.66592627,2.21659901 L3.76323084,2.30252258 L15,13.539 L26.2367692,2.30252258 L26.3340737,2.21659901 C26.7392622,1.9015459 27.3251419,1.9301871 27.6974774,2.30252258 C28.1008409,2.70588603 28.1008409,3.35986739 27.6974774,3.76323084 L27.6974774,3.76323084 L16.461,15 L27.6974774,26.2367692 C28.1008409,26.6401326 28.1008409,27.294114 27.6974774,27.6974774 C27.3251419,28.0698129 26.7392622,28.0984541 26.3340737,27.783401 L26.2367692,27.6974774 L15,16.461 L3.76323084,27.6974774 L3.66592627,27.783401 C3.26073782,28.0984541 2.67485807,28.0698129 2.30252258,27.6974774 C1.89915914,27.294114 1.89915914,26.6401326 2.30252258,26.2367692 L2.30252258,26.2367692 L13.539,15 L2.30252258,3.76323084 C1.89915914,3.35986739 1.89915914,2.70588603 2.30252258,2.30252258 C2.67485807,1.9301871 3.26073782,1.9015459 3.66592627,2.21659901 Z" id="Close" fill="#000000"></path>
    </g>
</svg>