<?xml version="1.0" encoding="UTF-8"?>
<svg width="30px" height="30px" viewBox="0 0 30 30" version="1.1" 
    xmlns="http://www.w3.org/2000/svg" 
    xmlns:xlink="http://www.w3.org/1999/xlink">
    <!-- Generator: Sketch 61 (89581) - https://sketch.com -->

    <desc>Created with Sketch.</desc>
    <g id="Icons/30/coverage-shield" stroke="none" stroke-width="1" fill="none" fill-rule="evenodd">
        <path class="cls-1" d="M15,0.30967737 C15.3029471,0.299685501 15.5930752,0.432213173 15.783871,0.667741888 C18.5022891,3.93068554 22.4757582,5.88928934 26.7193549,6.05806449 C27.2115733,6.05450912 27.6280419,6.42100152 27.6870968,6.90967739 C27.8094606,7.86609781 27.8709678,8.82933216 27.8709678,9.79354837 C27.8709678,17.7290323 23.0032258,25.267742 15.4548387,29.0225807 C15.3191949,29.0883132 15.1700718,29.1214516 15.0193548,29.1194485 C14.8719002,29.1199584 14.7262575,29.0868578 14.5935484,29.0225807 C7.01612901,25.2967742 2.17741931,17.7483871 2.17741931,9.81290321 C2.18129573,8.84237843 2.24269371,7.87293656 2.36129028,6.90967739 C2.42034519,6.42100152 2.83681382,6.05450912 3.32903222,6.05806449 C7.56829156,5.8829878 11.5363518,3.92531771 14.2548387,0.667741888 C14.4371807,0.442957709 14.7105646,0.311591411 15,0.30967737 Z M15,2.73870964 C12.1404141,5.71017826 8.31405147,7.56330455 4.20967738,7.96451611 C4.15161287,8.58387095 4.12258061,9.19354837 4.12258061,9.79354837 C4.27625643,17.1270138 8.45805585,23.7792001 15,27.0967742 C21.5562078,23.7904183 25.7514245,17.134653 25.9064516,9.79354837 C25.9064516,9.20322579 25.8870968,8.58387095 25.8290323,7.96451611 C21.7121201,7.56808166 17.8719758,5.71492889 15,2.73870964 Z M15,8.7096774 C15.5344691,8.7096774 15.9677419,9.14295022 15.9677419,9.67741934 L15.9677419,9.67741934 L15.9677419,13.5483871 L19.8387097,13.5483871 C20.3731788,13.5483871 20.8064516,13.9816599 20.8064516,14.516129 C20.8064516,15.0505981 20.3731788,15.483871 19.8387097,15.483871 L19.8387097,15.483871 L15.9677419,15.483871 L15.9677419,19.3548387 C15.9677419,19.8893078 15.5344691,20.3225807 15,20.3225807 C14.4655309,20.3225807 14.0322581,19.8893078 14.0322581,19.3548387 L14.0322581,19.3548387 L14.0322581,15.483871 L10.1612903,15.483871 C9.62682119,15.483871 9.19354837,15.0505981 9.19354837,14.516129 C9.19354837,13.9816599 9.62682119,13.5483871 10.1612903,13.5483871 L10.1612903,13.5483871 L14.0322581,13.5483871 L14.0322581,9.67741934 C14.0322581,9.14295022 14.4655309,8.7096774 15,8.7096774 Z" id="coverage-shield-30" fill="#000000"></path>
    </g>
</svg>