<?xml version="1.0" encoding="UTF-8"?>
<svg width="30px" height="30px" viewBox="0 0 30 30" version="1.1" 
    xmlns="http://www.w3.org/2000/svg" 
    xmlns:xlink="http://www.w3.org/1999/xlink">
    <!-- Generator: Sketch 61 (89581) - https://sketch.com -->

    <desc>Created with Sketch.</desc>
    <g id="Icons/30/coverage-family" stroke="none" stroke-width="1" fill="none" fill-rule="evenodd">
        <path class="cls-1" d="M17.1,11.03 C17.4572656,11.0157094 17.7950166,11.1931032 17.9860254,11.495359 C18.1770343,11.7976147 18.1922822,12.1788126 18.0260254,12.495359 C17.8597687,12.8119054 17.5372656,13.0157094 17.18,13.03 C12.9484091,13.2059091 12.5179649,14.3082283 12.500585,15.7396098 L12.5006821,17.0961653 C12.5105723,17.6027576 12.663871,18.6858065 15.04,19.06 C15.5290578,19.1392284 15.886376,19.5646072 15.88,20.06 L15.88,27.06 L18.12,27.06 C18.6722848,27.06 19.12,27.5077153 19.12,28.06 C19.12,28.6122848 18.6722848,29.06 18.12,29.06 L18.12,29 L14.88,29 C14.3277152,29 13.88,28.5522848 13.88,28 L13.88,20.85 C11,20.09 10.5,18.14 10.5,17 L10.5,15.83 C10.5,11.83 13.84,11.16 17.1,11.03 Z M29.7400033,21.01 L29.7400033,21.77 C29.7420074,23.1117774 28.8171589,24.2771695 27.51,24.58 L27.51,28.04 C27.5153744,28.3086647 27.4123949,28.568187 27.2242729,28.7600715 C27.0361509,28.951956 26.7787184,29.0600001 26.51,29.0600001 L21.73,29.0600001 C21.1777153,29.0600001 20.73,28.6122848 20.73,28.06 L20.73,24.6 C19.4228412,24.2971695 18.4979927,23.1317774 18.4999968,21.79 L18.4999968,21 C18.4999968,17.7095652 21.6981754,17.4949717 23.7163167,17.4809764 L24.5236834,17.4809792 C26.5418246,17.4950142 29.7400033,17.7102174 29.7400033,21.01 Z M7.99999995,11 C8.55228473,11 8.99999995,11.4477152 8.99999995,12 C8.99999995,12.5522847 8.55228473,13 7.99999995,13 C2.43999996,13 1.99999995,14.23 1.99999995,15.83 L1.99999995,17 C1.99999995,17.45 1.99999995,18.66 4.53999997,19.06 C5.02905776,19.1392284 5.38637599,19.5646072 5.37999997,20.06 L5.37999997,27.06 L10.12,27.06 L10.12,24 C10.12,23.4477153 10.5677152,23 11.12,23 C11.6722847,23 12.12,23.4477153 12.12,24 L12.12,28 C12.12,28.2652165 12.0146431,28.5195704 11.8271068,28.7071068 C11.6395704,28.8946432 11.3852165,29 11.12,29 L4.37999996,29 C3.82771521,29 3.37999996,28.5522848 3.37999996,28 L3.37999996,20.85 C0.459999952,20.09 -5.00000645e-08,18.14 -5.00000645e-08,17 L-5.00000645e-08,15.83 C-5.00000645e-08,11.37 4.12999996,11 7.99999995,11 Z M24.12,19.47 C20.681,19.47 20.50905,20.201025 20.5004525,20.8914375 L20.5,21.76 C20.5,22 20.5,22.57 21.89,22.76 C22.3790578,22.8392284 22.736376,23.2646072 22.73,23.76 L22.73,27.06 L25.51,27.06 L25.51,23.8 C25.503624,23.3046072 25.8609422,22.8792284 26.35,22.8 C27.74,22.58 27.74,22.01 27.74,21.8 L27.74,21 C27.74,20.25 27.74,19.47 24.12,19.47 Z M24,9.49999998 C25.9329967,9.49999998 27.5,11.0670034 27.5,13 C27.5,13.9282577 27.1312511,14.8184964 26.4748738,15.4748737 C25.8184964,16.1312511 24.9282577,16.5 24,16.5 C22.0670034,16.5 20.5,14.9329966 20.5,13 C20.5,11.0670034 22.0670034,9.49999998 24,9.49999998 Z M24,11.5 C23.1715729,11.5 22.5,12.1715729 22.5,13 C22.5,13.8284271 23.1715729,14.5 24,14.5 C24.8284272,14.5 25.5,13.8284271 25.5,13 C25.5,12.1715729 24.8284272,11.5 24,11.5 Z M18.5,0.499999952 C20.9852814,0.499999952 23,2.51471858 23,4.99999995 C22.9945006,7.48299983 20.9829999,9.49450052 18.5,9.49999995 C16.0147186,9.49999995 14,7.48528135 14,4.99999995 C14,2.51471858 16.0147186,0.499999952 18.5,0.499999952 Z M7.99999996,0.499999952 C10.4852814,0.499999952 12.5,2.51471858 12.5,4.99999995 C12.4945005,7.48299983 10.4829998,9.49450052 7.99999996,9.49999995 C5.51471859,9.49999995 3.49999996,7.48528135 3.49999996,4.99999995 C3.49999996,2.51471858 5.51471859,0.499999952 7.99999996,0.499999952 Z M18.5,2.49999996 C17.1192881,2.49999996 16,3.61928809 16,4.99999996 C16,6.38071185 17.1192881,7.49999996 18.5,7.49999996 C19.8807119,7.49999996 21,6.38071185 21,4.99999996 C21,4.33695874 20.7366079,3.70107396 20.267767,3.23223301 C19.798926,2.76339206 19.1630412,2.49999996 18.5,2.49999996 Z M7.99999997,2.49999996 C6.6192881,2.49999996 5.49999997,3.61928809 5.49999997,4.99999996 C5.49999997,6.38071185 6.6192881,7.49999996 7.99999997,7.49999996 C9.38071186,7.49999996 10.5,6.38071185 10.5,4.99999996 C10.5,4.33695874 10.2366079,3.70107396 9.76776694,3.23223301 C9.29892599,2.76339206 8.6630412,2.49999996 7.99999997,2.49999996 Z" id="coverage-family-30" fill="#000000"></path>
    </g>
</svg>