<?xml version="1.0" encoding="UTF-8"?>
<svg width="30px" height="30px" viewBox="0 0 30 30" version="1.1" 
    xmlns="http://www.w3.org/2000/svg" 
    xmlns:xlink="http://www.w3.org/1999/xlink">
    <!-- Generator: Sketch 61 (89581) - https://sketch.com -->

    <desc>Created with Sketch.</desc>
    <g id="Icons/30/coverage-individual" stroke="none" stroke-width="1" fill="none" fill-rule="evenodd">
        <path class="cls-1" d="M23.5,15.83 L23.5,17 C23.5,18.15 23.04,20.1 20.12,20.86 L20.12,28 C20.12,28.5522848 19.6722848,29 19.12,29 L11.88,29 C11.3277152,29 10.88,28.5522848 10.88,28 L10.88,20.85 C7.99999997,20.09 7.49999997,18.14 7.49999997,17 L7.49999997,15.83 C7.49999997,11.4525926 11.4784533,11.0151063 15.2847604,11.0004043 L15.5,11 C19.37,11 23.5,11.37 23.5,15.83 Z M15.5,13 C10.0469231,13 9.51881655,14.1831472 9.50052143,15.7381089 L9.50068207,17.0961653 C9.5105723,17.6027576 9.66387095,18.6858065 12.04,19.06 C12.5290578,19.1392284 12.886376,19.5646072 12.88,20.06 L12.88,27 L18.12,27 L18.12,20 C18.113624,19.5046072 18.4709422,19.0792284 18.96,19 C21.5,18.6 21.5,17.39 21.5,16.94 L21.5,15.84 C21.5,14.23 21.06,13 15.5,13 Z M15.5,0.499999952 C17.9852814,0.499999952 20,2.51471858 20,4.99999995 C19.9945006,7.48299983 17.9829999,9.49450052 15.5,9.49999995 C13.0147186,9.49999995 11,7.48528135 11,4.99999995 C11,2.51471858 13.0147186,0.499999952 15.5,0.499999952 Z M15.5,2.49999996 C14.1192881,2.49999996 13,3.61928809 13,4.99999996 C13,6.38071185 14.1192881,7.49999996 15.5,7.49999996 C16.8807119,7.49999996 18,6.38071185 18,4.99999996 C18,4.33695874 17.7366079,3.70107396 17.267767,3.23223301 C16.798926,2.76339206 16.1630412,2.49999996 15.5,2.49999996 Z" id="coverage-individual-30" fill="#000000"></path>
    </g>
</svg>