<?xml version="1.0" encoding="UTF-8"?>
<svg width="30px" height="30px" viewBox="0 0 30 30" version="1.1" 
    xmlns="http://www.w3.org/2000/svg" 
    xmlns:xlink="http://www.w3.org/1999/xlink">
    <!-- Generator: Sketch 61 (89581) - https://sketch.com -->

    <desc>Created with Sketch.</desc>
    <g id="Icons/30/coverage-family-one-parent" stroke="none" stroke-width="1" fill="none" fill-rule="evenodd">
        <path class="cls-1" d="M13.1,11.03 C13.6522847,11.03 14.1,11.4777152 14.1,12.03 C14.1,12.5822847 13.6522847,13.03 13.1,13.03 C8.8662222,13.1962222 8.43752097,14.2993728 8.42055833,15.7318294 L8.42068206,17.0961653 C8.4305723,17.6027576 8.58387095,18.6858065 10.96,19.06 C11.4490578,19.1392284 11.806376,19.5646072 11.8,20.06 L11.8,27.06 L14.04,27.06 C14.5922847,27.06 15.04,27.5077153 15.04,28.06 C15.04,28.6122848 14.5922847,29.06 14.04,29.06 L14.12,29 L10.88,29 C10.3277152,29 9.87999998,28.5522848 9.87999998,28 L9.87999998,20.85 C6.99999997,20.09 6.49999997,18.14 6.49999997,17 L6.49999997,15.83 C6.49999997,11.83 9.83999998,11.16 13.1,11.03 Z M25.7400033,21 L25.7400033,21.76 C25.7420074,23.1017774 24.8171588,24.2671695 23.51,24.57 L23.51,28.03 C23.518115,28.3003754 23.4163515,28.5625052 23.2279284,28.756581 C23.0395053,28.9506568 22.7804971,29.0601218 22.51,29.0600001 L17.73,29.0600001 C17.1777153,29.0600001 16.73,28.6122848 16.73,28.06 L16.73,24.6 C15.4228412,24.2971695 14.4979926,23.1317774 14.4999967,21.79 L14.4999967,21 C14.4999967,17.7002174 17.6981754,17.4850142 19.7163167,17.4709792 L20.5236834,17.4709792 C22.5418246,17.4850142 25.7400033,17.7002174 25.7400033,21 Z M20.12,19.47 C16.681,19.47 16.50905,20.201025 16.5004525,20.8914375 L16.5,21.76 C16.5,22 16.5,22.57 17.89,22.76 C18.3790578,22.8392284 18.736376,23.2646072 18.73,23.76 L18.73,27.06 L21.51,27.06 L21.51,23.8 C21.503624,23.3046072 21.8609422,22.8792284 22.35,22.8 C23.74,22.58 23.74,22.01 23.74,21.8 L23.74,21 C23.74,20.25 23.74,19.47 20.12,19.47 Z M20,9.49999998 C21.9329966,9.49999998 23.5,11.0670034 23.5,13 C23.5,13.9282577 23.1312511,14.8184964 22.4748738,15.4748737 C21.8184964,16.1312511 20.9282577,16.5 20,16.5 C18.0670034,16.5 16.5,14.9329966 16.5,13 C16.5,11.0670034 18.0670034,9.49999998 20,9.49999998 Z M20,11.5 C19.1715729,11.5 18.5,12.1715729 18.5,13 C18.5,13.8284271 19.1715729,14.5 20,14.5 C20.8284271,14.5 21.5,13.8284271 21.5,13 C21.5,12.1715729 20.8284271,11.5 20,11.5 Z M14.5,0.499999952 C16.9852814,0.499999952 19,2.51471858 19,4.99999995 C18.9945005,7.48299983 16.9829999,9.49450052 14.5,9.49999995 C12.0147186,9.49999995 9.99999998,7.48528135 9.99999998,4.99999995 C9.99999998,2.51471858 12.0147186,0.499999952 14.5,0.499999952 Z M14.5,2.49999996 C13.1192881,2.49999996 12,3.61928809 12,4.99999996 C12,6.38071185 13.1192881,7.49999996 14.5,7.49999996 C15.8807119,7.49999996 17,6.38071185 17,4.99999996 C17,4.33695874 16.7366079,3.70107396 16.267767,3.23223301 C15.798926,2.76339206 15.1630412,2.49999996 14.5,2.49999996 Z" id="coverage-family-one-parent-30" fill="#000000"></path>
    </g>
</svg>