<?xml version="1.0" encoding="UTF-8"?>
<svg width="30px" height="30px" viewBox="0 0 30 30" version="1.1" 
    xmlns="http://www.w3.org/2000/svg" 
    xmlns:xlink="http://www.w3.org/1999/xlink">
    <!-- Generator: Sketch 61 (89581) - https://sketch.com -->

    <desc>Created with Sketch.</desc>
    <g id="Icons/30/coverage-individual-spouse" stroke="none" stroke-width="1" fill="none" fill-rule="evenodd">
        <path class="cls-1" d="M28.5,15.83 L28.5,17 C28.5,18.15 28.04,20.1 25.12,20.86 L25.12,28 C25.12,28.5522848 24.6722848,29 24.12,29 L16.88,29 C16.3277153,29 15.88,28.5522848 15.88,28 L15.88,20.85 C13,20.09 12.5,18.14 12.5,17 L12.5,15.83 C12.5,11.4525926 16.4784534,11.0151063 20.2847604,11.0004043 L20.5,11 C24.37,11 28.5,11.37 28.5,15.83 Z M9.49999995,11 C10.0522847,11 10.5,11.4477152 10.5,12 C10.5,12.5522847 10.0522847,13 9.49999995,13 C3.93999996,13 3.49999995,14.23 3.49999995,15.83 L3.49999995,17 C3.49999995,17.45 3.49999995,18.66 6.03999997,19.06 C6.52905777,19.1392284 6.88637599,19.5646072 6.87999997,20.06 L6.87999997,27.06 L12.12,27.06 L12.12,24 C12.12,23.4477153 12.5677152,23 13.12,23 C13.6722847,23 14.12,23.4477153 14.12,24 L14.12,28 C14.12,28.2652165 14.0146432,28.5195704 13.8271068,28.7071068 C13.6395704,28.8946432 13.3852165,29 13.12,29 L5.87999997,29 C5.32771522,29 4.87999997,28.5522848 4.87999997,28 L4.87999997,20.85 C1.99999995,20.09 1.49999995,18.14 1.49999995,17 L1.49999995,15.83 C1.49999995,11.37 5.62999997,11 9.49999995,11 Z M20.5,13 C15.0469231,13 14.5188166,14.1831472 14.5005214,15.7381089 L14.5006821,17.0961653 C14.5105723,17.6027576 14.663871,18.6858065 17.04,19.06 C17.5290578,19.1392284 17.886376,19.5646072 17.88,20.06 L17.88,27 L23.12,27 L23.12,20 C23.113624,19.5046072 23.4709422,19.0792284 23.96,19 C26.5,18.6 26.5,17.39 26.5,16.94 L26.5,15.84 C26.5,14.23 26.06,13 20.5,13 Z M20.5,0.499999952 C22.9852814,0.499999952 25,2.51471858 25,4.99999995 C24.9945006,7.48299983 22.9829999,9.49450052 20.5,9.49999995 C18.0147186,9.49999995 16,7.48528135 16,4.99999995 C16,2.51471858 18.0147186,0.499999952 20.5,0.499999952 Z M9.49999997,0.499999952 C11.9852814,0.499999952 14,2.51471858 14,4.99999995 C13.9945005,7.48299983 11.9829998,9.49450052 9.49999997,9.49999995 C7.0147186,9.49999995 4.99999997,7.48528135 4.99999997,4.99999995 C4.99999997,2.51471858 7.0147186,0.499999952 9.49999997,0.499999952 Z M20.5,2.49999996 C19.1192881,2.49999996 18,3.61928809 18,4.99999996 C18,6.38071185 19.1192881,7.49999996 20.5,7.49999996 C21.8807119,7.49999996 23,6.38071185 23,4.99999996 C23,4.33695874 22.7366079,3.70107396 22.267767,3.23223301 C21.798926,2.76339206 21.1630412,2.49999996 20.5,2.49999996 Z M9.49999997,2.49999996 C8.1192881,2.49999996 6.99999997,3.61928809 6.99999997,4.99999996 C6.99999997,6.38071185 8.1192881,7.49999996 9.49999997,7.49999996 C10.8807119,7.49999996 12,6.38071185 12,4.99999996 C12,4.33695874 11.7366079,3.70107396 11.2677669,3.23223301 C10.798926,2.76339206 10.1630412,2.49999996 9.49999997,2.49999996 Z" id="coverage-individual-spouse-30" fill="#000000"></path>
    </g>
</svg>