<?xml version="1.0" encoding="UTF-8"?>
<svg width="30px" height="30px" viewBox="0 0 30 30" version="1.1" 
    xmlns="http://www.w3.org/2000/svg" 
    xmlns:xlink="http://www.w3.org/1999/xlink">
    <!-- Generator: Sketch 61.2 (89653) - https://sketch.com -->
    <desc>Created with Sketch.</desc>
    <g id="Icons/30/Ellipsis" stroke="none" stroke-width="1" fill="none" fill-rule="evenodd">
        <g id="Elli" transform="translate(3.000000, 12.000000)" fill="#000000">
            <path class="cls-1" d="M6,3 C6,4.656 4.656,6 3,6 C1.3425,6 0,4.656 0,3 C0,1.3425 1.3425,0 3,0 C4.656,0 6,1.3425 6,3" id="Fill-29"></path>
            <path class="cls-1" d="M15,3 C15,4.656 13.656,6 12,6 C10.3425,6 9,4.656 9,3 C9,1.3425 10.3425,0 12,0 C13.656,0 15,1.3425 15,3" id="Fill-31"></path>
            <path class="cls-1" d="M24,3 C24,4.656 22.656,6 21,6 C19.3425,6 18,4.656 18,3 C18,1.3425 19.3425,0 21,0 C22.656,0 24,1.3425 24,3" id="Fill-33"></path>
        </g>
    </g>
</svg>