<?xml version="1.0" encoding="UTF-8"?>
<svg width="30px" height="30px" viewBox="0 0 30 30" version="1.1" 
    xmlns="http://www.w3.org/2000/svg" 
    xmlns:xlink="http://www.w3.org/1999/xlink">
    <!-- Generator: Sketch 61 (89581) - https://sketch.com -->

    <desc>Created with Sketch.</desc>
    <g id="Icons/30/email" stroke="none" stroke-width="1" fill="none" fill-rule="evenodd">
        <path class="cls-1" d="M28.1,4.30999996 L1.90999996,4.30999996 C0.943501641,4.30999996 0.159999951,5.09350165 0.159999951,6.05999997 L0.159999951,23.94 C0.165463121,24.9042264 0.945773626,25.6845369 1.90999996,25.69 L28.1,25.69 C29.0642264,25.6845369 29.8445369,24.9042264 29.85,23.94 L29.85,6.05999997 C29.85,5.09350165 29.0664984,4.30999996 28.1,4.30999996 Z M26.22,6.30999997 L15.74,15.62 C15.3125348,15.9700975 14.6974652,15.9700975 14.27,15.62 L3.78999996,6.30999997 L26.22,6.30999997 Z M27.85,22.36 L23.15,18 C22.7416916,17.6689098 22.1467462,17.7104754 21.7884428,18.0951247 C21.4301393,18.4797741 21.4308197,19.0761693 21.79,19.46 L26.33,23.69 L3.64999996,23.69 L8.20999998,19.47 C8.40746296,19.2903603 8.52490384,19.039226 8.53617334,18.7725144 C8.54744285,18.5058028 8.45160537,18.2456567 8.26999998,18.05 C7.89386564,17.6481066 7.26365682,17.6257587 6.85999997,18 L2.15999996,22.34 L2.15999996,7.52999998 L12.94,17.11 C14.1196658,18.151546 15.8903342,18.151546 17.07,17.11 L27.85,7.53999998 L27.85,22.36 Z" id="email-30" fill="#000000"></path>
    </g>
</svg>