<?xml version="1.0" encoding="UTF-8"?>
<svg width="30px" height="30px" viewBox="0 0 30 30" version="1.1" 
    xmlns="http://www.w3.org/2000/svg" 
    xmlns:xlink="http://www.w3.org/1999/xlink">
    <!-- Generator: Sketch 61 (89581) - https://sketch.com -->

    <desc>Created with Sketch.</desc>
    <g id="Icons/30/file-dollar" stroke="none" stroke-width="1" fill="none" fill-rule="evenodd">
        <path class="cls-1" d="M20.15,-4.99980999e-08 C20.6545332,0.00967088201 21.136762,0.209706533 21.5,0.559999952 L21.5,0.559999952 L26,4.99999995 C26.3327725,5.38558914 26.5109013,5.88078713 26.5,6.38999997 L26.5,6.38999997 L26.5,28.62 C26.5000199,29.3782648 25.8882449,29.9945054 25.13,30 L25.13,30 L4.87999997,30 C4.11784701,30 3.49999996,29.382153 3.49999996,28.62 L3.49999996,28.62 L3.49999996,1.36999995 C3.50549463,0.61175513 4.12173523,-4.99980999e-08 4.87999997,-4.99980999e-08 L4.87999997,-4.99980999e-08 Z M18.39,1.99999996 L5.49999997,1.99999996 L5.49999997,28 L24.49,28 L24.49,8.16999998 L20,7.87999998 C19.2870537,7.81395583 18.7253964,7.24385253 18.67,6.52999997 L18.67,6.52999997 L18.39,1.99999996 Z M16.12,6.99999997 L16.12,9.11999998 C17.2901327,9.36205352 18.3762877,9.90685506 19.27,10.7 L19.27,10.7 L18.56,11.41 L17.86,12.13 C17.0693931,11.4284356 16.0566229,11.0282851 15,11 C14.0278747,10.8902232 13.1383297,11.5562865 12.97,12.52 C12.97,13.51 13.53,13.81 15.44,14.3 C17.1,14.74 19.39,15.34 19.39,18 C19.4376621,19.9125664 18.0118897,21.5426416 16.11,21.75 L16.11,21.75 L16.11,23.75 L14.11,23.75 L14.11,21.75 C12.6529913,21.4606983 11.2996906,20.7875002 10.19,19.8 L10.19,19.8 L11.64,18.35 C12.6487197,19.2487982 13.9312644,19.7808428 15.28,19.86 C16.09,19.86 17.46,19.62 17.46,18.02 C17.46,17.03 16.91,16.74 15,16.24 C13.29,15.8 11,15.2 11,12.52 C11.0720987,10.7546151 12.3760371,9.28350518 14.12,8.99999997 L14.12,8.99999997 L14.12,6.99999997 L16.12,6.99999997 Z M20.41,2.29999996 L20.69,5.86999997 L24.26,6.14999997 L20.41,2.29999996 Z" id="file-dollar-30" fill="#000000"></path>
    </g>
</svg>