<svg width="30" height="30" viewBox="0 0 30 30" fill="none" xmlns="http://www.w3.org/2000/svg">
<path fill-rule="evenodd" clip-rule="evenodd" d="M21.5 0.56L25.94 5.04C26.28 5.37 26.5 5.91 26.5 6.39V28.62C26.5 29.38 25.88 30 25.12 30H4.87C4.12 30 3.5 29.38 3.5 28.62V1.37C3.5 0.61 4.12 0 4.87 0H20.15C20.63 0 21.17 0.22 21.5 0.56ZM20.64 5.91L24.26 6.15L20.41 2.3L20.64 5.91ZM5.5 28H24.5V8.16L20.01 7.87C19.3 7.83 18.72 7.24 18.67 6.54L18.38 2H5.5V28ZM21 24C21.55 24 22 23.55 22 23C22 22.44 21.55 22 21 22H9C8.45 22 8 22.45 8 23C8 23.55 8.45 24 9 24H21ZM22 18C22 18.55 21.55 19 21 19H9C8.45 19 8 18.55 8 18C8 17.45 8.45 17 9 17H21C21.55 17 22 17.44 22 18ZM21 14C21.55 14 22 13.55 22 13C22 12.44 21.55 12 21 12H9C8.45 12 8 12.45 8 13C8 13.55 8.45 14 9 14H21Z" fill="black"/>
</svg>
