<?xml version="1.0" encoding="UTF-8"?>
<svg width="30px" height="30px" viewBox="0 0 30 30" version="1.1" 
    xmlns="http://www.w3.org/2000/svg" 
    xmlns:xlink="http://www.w3.org/1999/xlink">
    <!-- Generator: Sketch 61 (89581) - https://sketch.com -->

    <desc>Created with Sketch.</desc>
    <g id="Icons/30/heart-plus" stroke="none" stroke-width="1" fill="none" fill-rule="evenodd">
        <path class="cls-1" d="M20.5161291,0.706451565 C23.1682685,0.60309262 25.7228056,1.71469032 27.4548388,3.72580641 C28.683871,5.216129 29.9709678,7.93548385 29.1,12.4354839 C28.4419355,15.8419355 25.8387097,18.7354839 23.5451613,21.2903226 L23.5451613,21.2903226 L22.9064516,22.0064516 C20.6734819,24.5193969 18.2710908,26.8765208 15.716129,29.0612904 C15.5420206,29.2055625 15.3228892,29.2843128 15.0967742,29.2838796 C14.8751659,29.2848039 14.6599508,29.2096494 14.4870968,29.0709678 C11.9171594,26.9069566 9.49557311,24.5726638 7.23870965,22.083871 L7.23870965,22.083871 L6.61935481,21.4064516 C4.28709674,18.8709678 1.64516125,15.9967742 0.958064469,12.5806452 C0.0483870469,8.09032256 1.30645157,5.35161287 2.52580641,3.8709677 C4.25607006,1.84211228 6.80847946,0.700993312 9.47419353,0.764516082 L9.47419353,0.764516082 L9.72848432,0.773475293 C11.9248014,0.894119989 13.9161618,2.12735458 15,4.05483867 C16.1133167,2.03803671 18.2131482,0.763402169 20.5161291,0.706451565 Z M20.8923542,2.6383337 L20.6129032,2.64193544 L20.5645161,2.64193544 C17.1,2.66129028 16.016129,6.48387094 15.9677419,6.64838707 C15.8509702,7.08311409 15.449873,7.37992598 15,7.3645161 L15,7.3645161 L14.8794025,7.36149998 C14.4824566,7.32678976 14.1417982,7.04976905 14.0322581,6.65806449 C13.9935484,6.49354836 12.8806452,2.69999996 9.44516127,2.69999996 L9.44516127,2.69999996 L9.16320483,2.69782098 C7.19383168,2.72268234 5.32277088,3.58662543 4.02580642,5.08064513 C2.65161286,6.77419352 2.27419351,9.34838708 2.85483867,12.2419355 C3.43548383,15.1354839 5.88387094,17.7967742 8.04193546,20.1483871 L8.04193546,20.1483871 L8.67096772,20.8354839 C10.6891236,23.0459549 12.8347155,25.1366146 15.0967742,27.0967742 C17.3339157,25.0951581 19.4566274,22.9692155 21.4548387,20.7290323 L21.4548387,20.7290323 L22.1129032,20.0032258 C24.2322581,17.6419355 26.6419355,14.9806452 27.2032258,12.0774193 C27.7741936,9.09677417 27.3483871,6.62903223 26.0032258,4.9645161 C24.642519,3.42549203 22.6660682,2.57387948 20.6129032,2.64193544 Z M15,9.04838708 C15.5344691,9.04838708 15.9677419,9.4816599 15.9677419,10.016129 L15.9677419,10.016129 L15.9677419,13.2870968 L19.2387097,13.2870968 C19.7731788,13.2870968 20.2064516,13.7203696 20.2064516,14.2548387 C20.2064516,14.7893078 19.7731788,15.2225806 19.2387097,15.2225806 L19.2387097,15.2225806 L15.9677419,15.2225806 L15.9677419,18.4935484 C15.9677419,19.0280175 15.5344691,19.4612903 15,19.4612903 C14.4655309,19.4612903 14.0322581,19.0280175 14.0322581,18.4935484 L14.0322581,18.4935484 L14.0322581,15.2225806 L10.7612903,15.2225806 C10.2268212,15.2225806 9.79354837,14.7893078 9.79354837,14.2548387 C9.79354837,13.7203696 10.2268212,13.2870968 10.7612903,13.2870968 L10.7612903,13.2870968 L14.0322581,13.2870968 L14.0322581,10.016129 C14.0322581,9.4816599 14.4655309,9.04838708 15,9.04838708 Z" id="heart-plus-30" fill="#000000"></path>
    </g>
</svg>