<?xml version="1.0" encoding="UTF-8"?>
<svg width="30px" height="30px" viewBox="0 0 30 30" version="1.1" 
    xmlns="http://www.w3.org/2000/svg" 
    xmlns:xlink="http://www.w3.org/1999/xlink">
    <!-- Generator: Sketch 61 (89581) - https://sketch.com -->

    <desc>Created with Sketch.</desc>
    <g id="Icons/30/home" stroke="none" stroke-width="1" fill="none" fill-rule="evenodd">
        <path class="cls-1" d="M29.4,13.78 L15.64,2.19999996 C15.2692189,1.8911665 14.7307811,1.8911665 14.36,2.19999996 L10.36,5.52999997 L10.36,3.99999996 C10.36,3.44771521 9.91228473,2.99999996 9.35999998,2.99999996 L4.99999997,2.99999996 C4.44771521,2.99999996 3.99999996,3.44771521 3.99999996,3.99999996 L3.99999996,11 L0.599999952,13.78 C0.326691763,14.0104363 0.197080888,14.3691764 0.259990492,14.7210864 C0.322900097,15.0729964 0.568772714,15.3646127 0.904990506,15.4860864 C1.2412083,15.6075601 1.61669178,15.5404363 1.88999996,15.31 L3.99999996,13.52 L3.99999996,27 C3.99999996,27.5522848 4.44771521,28 4.99999997,28 L25,28 C25.5522848,28 26,27.5522848 26,27 L26,13.52 L28.12,15.31 C28.5424979,15.6662237 29.1737764,15.6124978 29.53,15.19 C29.8862237,14.7675022 29.8324979,14.1362237 29.41,13.78 L29.4,13.78 Z M5.99999997,4.99999997 L8.39999998,4.99999997 L8.39999998,7.20999997 L5.99999997,9.22999998 L5.99999997,4.99999997 Z M12.55,26 L12.55,18.8 L17.44,18.8 L17.44,26 L12.55,26 Z M24,26 L19.44,26 L19.44,17.8 C19.44,17.2477153 18.9922848,16.8 18.44,16.8 L11.55,16.8 C10.9977152,16.8 10.55,17.2477153 10.55,17.8 L10.55,26 L5.99999997,26 L5.99999997,11.84 L15,4.26999996 L24,11.84 L24,26 Z" id="home-30" fill="#000000"></path>
    </g>
</svg>