<?xml version="1.0" encoding="UTF-8"?>
<svg width="30px" height="30px" viewBox="0 0 30 30" version="1.1" 
    xmlns="http://www.w3.org/2000/svg" 
    xmlns:xlink="http://www.w3.org/1999/xlink">
    <!-- Generator: Sketch 61 (89581) - https://sketch.com -->

    <desc>Created with Sketch.</desc>
    <g id="Icons/30/notebook" stroke="none" stroke-width="1" fill="none" fill-rule="evenodd">
        <path class="cls-1" d="M23,0.14999995 C25.209139,0.14999995 27,1.94086096 27,4.14999995 L27,25.84 C27,28.049139 25.209139,29.84 23,29.84 L4.81999997,29.84 C4.39293019,29.838718 3.96955531,29.760817 3.56999996,29.61 C3.29999996,29.49 3.06999996,28.5 3.06999996,28.09 L3.06999995,25.82 L1.58999995,25.82 C1.0377152,25.82 0.589999952,25.3722848 0.589999952,24.82 C0.589999952,24.2677153 1.0377152,23.82 1.58999995,23.82 L3.06999995,23.82 L3.06999995,21.17 L1.58999995,21.17 C1.0377152,21.17 0.589999952,20.7222848 0.589999952,20.17 C0.589999952,19.6177153 1.0377152,19.17 1.58999995,19.17 L3.06999995,19.17 L3.06999995,10.82 L1.58999995,10.82 C1.0377152,10.82 0.589999952,10.3722847 0.589999952,9.81999998 C0.589999952,9.26771523 1.0377152,8.81999998 1.58999995,8.81999998 L3.06999995,8.81999995 L3.06999995,6.15999995 L1.58999995,6.15999996 C1.0377152,6.15999996 0.589999952,5.71228472 0.589999952,5.15999996 C0.589999952,4.60771522 1.0377152,4.15999996 1.58999995,4.15999996 L3.06999995,4.15999995 L3.06999996,1.89999996 C3.07330349,1.47399764 3.14765755,1.05153143 3.28999996,0.64999995 C3.41999996,0.379999951 4.40999996,0.14999995 4.81999997,0.14999995 L23,0.14999995 Z M23,2.14999995 L5.81999997,2.14999995 C5.4080379,2.15538577 5.07538578,2.48803789 5.06999996,2.89999996 L5.06999995,4.15999995 L5.42999997,4.15999996 C5.98228472,4.15999996 6.42999997,4.60771522 6.42999997,5.15999996 C6.42999997,5.71228472 5.98228472,6.15999996 5.42999997,6.15999996 L5.06999995,6.15999995 L5.06999995,8.81999995 L5.42999997,8.81999998 C5.98228472,8.81999998 6.42999997,9.26771523 6.42999997,9.81999998 C6.42999997,10.3722847 5.98228472,10.82 5.42999997,10.82 L5.06999995,10.82 L5.06999995,19.17 L5.42999997,19.17 C5.98228472,19.17 6.42999997,19.6177153 6.42999997,20.17 C6.42999997,20.7222848 5.98228472,21.17 5.42999997,21.17 L5.06999995,21.17 L5.06999995,23.82 L5.42999997,23.82 C5.98228472,23.82 6.42999997,24.2677153 6.42999997,24.82 C6.42999997,25.3722848 5.98228472,25.82 5.42999997,25.82 L5.06999995,25.82 L5.06999996,27.09 C5.07538578,27.5019621 5.4080379,27.8346142 5.81999997,27.84 L23,27.84 C24.1045695,27.84 25,26.9445695 25,25.84 L25,4.14999995 C25,3.04543046 24.1045695,2.14999995 23,2.14999995 Z M20.48,7.47999997 C21.0322848,7.47999997 21.48,7.92771523 21.48,8.47999997 L21.48,15 C21.48,15.5522848 21.0322848,16 20.48,16 L10.26,16 C9.70771523,16 9.25999998,15.5522848 9.25999998,15 L9.25999998,8.47999997 C9.25999998,7.92771523 9.70771523,7.47999997 10.26,7.47999997 L20.48,7.47999997 Z M19.48,9.47999998 L11.26,9.47999998 L11.26,14 L19.48,14 L19.48,9.47999998 Z" id="notebook-30" fill="#000000"></path>
    </g>
</svg>