<?xml version="1.0" encoding="UTF-8"?>
<svg width="30px" height="30px" viewBox="0 0 30 30" version="1.1" 
    xmlns="http://www.w3.org/2000/svg" 
    xmlns:xlink="http://www.w3.org/1999/xlink">
    <!-- Generator: Sketch 61 (89581) - https://sketch.com -->

    <desc>Created with Sketch.</desc>
    <g id="Icons/30/pencil-plus" stroke="none" stroke-width="1" fill="none" fill-rule="evenodd">
        <path class="cls-1" d="M24,27.8 C24.5522848,27.8 25,28.2477153 25,28.8 C25,29.3522848 24.5522848,29.8 24,29.8 L5.99999997,29.8 C5.44771522,29.8 4.99999997,29.3522848 4.99999997,28.8 C4.99999997,28.2477153 5.44771522,27.8 5.99999997,27.8 L24,27.8 Z M11.5859848,3.62615022 L11.7,3.79999996 L13.4782633,5.98545242 C13.5848151,6.04503954 13.680572,6.12419483 13.76,6.21999997 L22.07,16.22 C22.1397766,16.3083593 22.1969862,16.4059522 22.24,16.51 L25.17,24.35 C25.2891365,24.6587217 25.2478348,25.0063886 25.0596848,25.2786057 C24.8715348,25.5508227 24.5609035,25.7123354 24.23,25.71 L24.21,25.72 C24.0295802,25.7169295 23.853353,25.665098 23.7,25.57 L16.54,21.22 C16.4504543,21.1578136 16.3697237,21.0838105 16.3,21 L10.597779,14.1315891 C10.393479,14.0166172 10.2310576,13.8307697 10.1476292,13.600038 L10.1408955,13.58 L7.99999998,11 L5.99999997,8.52999998 C4.9189605,7.54635674 4.50996886,6.02310915 4.95292432,4.63027362 C5.39587978,3.23743809 6.60960962,2.23025526 8.06024205,2.05174505 C9.44179675,1.88173532 10.7971116,2.49302725 11.5859848,3.62615022 Z M15.2108955,11.138 L12.5168955,13.347 L17.73,19.6 L22.27,22.36 L20.41,17.36 L15.2108955,11.138 Z M12.84,8.29999998 L10.16,10.52 L11.2498955,11.828 L13.9338955,9.60899995 L12.84,8.29999998 Z M23.2,0.319999951 C23.7522848,0.319999951 24.2,0.767715203 24.2,1.31999995 L24.1998955,4.08999995 L27,4.08999996 C27.5522848,4.08999996 28,4.53771522 28,5.08999996 C28,5.64228472 27.5522848,6.08999996 27,6.08999996 L24.1998955,6.08999995 L24.2,8.84999998 C24.2,9.40228473 23.7522848,9.84999998 23.2,9.84999998 C22.6477153,9.84999998 22.2,9.40228473 22.2,8.84999998 L22.1998955,6.08999995 L19.44,6.08999996 C18.8877153,6.08999996 18.44,5.64228472 18.44,5.08999996 C18.44,4.53771522 18.8877153,4.08999996 19.44,4.08999996 L22.1998955,4.08999995 L22.2,1.31999995 C22.2,0.767715203 22.6477153,0.319999951 23.2,0.319999951 Z M8.81999998,4.43999996 C8.14576392,4.43999996 7.53220928,4.82948692 7.24532778,5.43964532 C6.95844629,6.04980372 7.04988387,6.77077517 7.47999997,7.28999997 L8.86389548,8.98099995 L11.5428955,6.75899995 L10.16,5.08999997 C9.83241779,4.68459386 9.34117601,4.44630494 8.81999998,4.43999996 Z" id="pencil-plus-30" fill="#000000"></path>
    </g>
</svg>