<?xml version="1.0" encoding="UTF-8"?>
<svg width="30px" height="30px" viewBox="0 0 30 30" version="1.1" 
    xmlns="http://www.w3.org/2000/svg" 
    xmlns:xlink="http://www.w3.org/1999/xlink">
    <!-- Generator: Sketch 61 (89581) - https://sketch.com -->

    <desc>Created with Sketch.</desc>
    <g id="Icons/30/people-group" stroke="none" stroke-width="1" fill="none" fill-rule="evenodd">
        <path class="cls-1" d="M21.3580645,17.2451613 L21.3580645,18.7741936 C21.3580645,21.067742 20.3129032,21.6774194 18.5516129,22.0064516 C18.6870968,23.8548387 18.9870968,28.0064517 18.9870968,28.0064517 C19.0059165,28.274634 18.9123286,28.5385591 18.7287621,28.7349752 C18.5451956,28.9313914 18.2881959,29.0425951 18.0193548,29.0419384 L18.0193548,29.0322581 L11.8741935,29.0322581 C11.6053524,29.0329176 11.3483527,28.9217139 11.1647862,28.7252978 C10.9812197,28.5288816 10.8876319,28.2649566 10.9064516,27.9967742 C10.9064516,27.9967742 11.2064516,23.8451613 11.3419355,21.9967742 C9.58064514,21.6483871 8.53548385,21.0290323 8.53548385,18.7645161 L8.53548385,17.2451613 C8.53548385,13.1075901 12.841329,12.9453324 14.7325588,12.9389694 L15.1706235,12.9389694 C17.0611527,12.9453324 21.3580645,13.1075901 21.3580645,17.2451613 Z M14.9516129,14.8741935 C10.9249062,14.8741935 10.4896579,15.991331 10.4715915,17.1615018 L10.4716407,18.9852307 C10.4807257,19.9105942 10.6124583,19.9484983 12.5225806,20.2548387 C12.9564222,20.325122 13.2831369,20.6768851 13.3298238,21.1042938 L13.3354839,21.2225807 C13.3354839,21.2225807 13.3354839,21.2903226 12.9193548,27.0967742 L16.983871,27.0967742 C16.5580645,21.2322581 16.5580645,21.2322581 16.5580645,21.1935484 C16.5518942,20.714136 16.897686,20.3024791 17.3709677,20.2258065 C19.3518354,19.8987764 19.4201412,19.8694565 19.4224965,18.8574133 L19.4225807,17.2451613 C19.4225807,16.0451613 19.0741936,14.8741935 14.9516129,14.8741935 Z M7.73225804,8.47741933 C8.26672715,8.47741933 8.69999998,8.91069216 8.69999998,9.44516127 C8.69999998,9.97963039 8.26672715,10.4129032 7.73225804,10.4129032 L7.03548384,10.4129032 C3.28919726,10.4129032 3.11495137,11.5302657 3.10684691,12.3388752 L3.10645157,13.8290323 C3.10645157,14.7967742 3.10645157,14.7967742 4.8677419,15.0677419 C5.30817292,15.1345335 5.64104597,15.4914286 5.68536034,15.9254854 L5.69029839,16.0358171 C5.68971868,16.0438142 5.67522578,16.2437419 5.31290319,21.2419355 L5.93225803,21.2419355 C6.46672715,21.2419355 6.89999997,21.6752083 6.89999997,22.2096774 C6.89999997,22.7441466 6.46672715,23.1774194 5.93225803,23.1774194 L5.93225803,23.167742 L4.27741932,23.167742 C4.00583031,23.1695798 3.74596882,23.0572072 3.56129028,22.8580645 C3.38087611,22.6612038 3.28982132,22.3985458 3.30967738,22.1322581 C3.30967738,22.1322581 3.5709677,18.5225807 3.68709674,16.8193548 C2.10967738,16.4516129 1.1709677,15.9 1.1709677,13.8290323 L1.1709677,12.4548387 C1.1709677,8.64314514 5.08158599,8.48432458 6.82136674,8.47770705 L7.73225804,8.47741933 Z M28.7612904,12.4548387 L28.7612904,13.8290323 C28.7612904,15.9 27.7935484,16.4806452 26.2451613,16.8193548 C26.3709678,18.5225807 26.6225807,22.1322581 26.6225807,22.1322581 C26.6424367,22.3985458 26.551382,22.6612038 26.3709678,22.8580645 C26.1840175,23.0597208 25.9201062,23.172323 25.6451613,23.1678765 L23.9709678,23.1678765 C23.4364987,23.1678765 23.0032258,22.7344691 23.0032258,22.2 C23.0032258,21.6655309 23.4364987,21.2322581 23.9709678,21.2322581 L24.5806452,21.2322581 C24.2129033,16.0548387 24.2129033,16.0548387 24.2129033,16.0258065 C24.2067329,15.5463941 24.5525247,15.1347371 25.0258065,15.0580645 C26.7218638,14.7878136 26.7846808,14.7778043 26.7870073,13.9219267 L26.7870968,12.4548387 C26.7870968,11.6419355 26.7870968,10.4129032 22.8580645,10.4129032 L22.2,10.4129032 C21.6655309,10.4129032 21.2322581,9.97963039 21.2322581,9.44516127 C21.2322581,8.91069216 21.6655309,8.47741933 22.2,8.47741933 L23.1108913,8.47770705 C24.8506721,8.48432458 28.7612904,8.64314514 28.7612904,12.4548387 Z M16.4400945,4.21329944 C17.9106061,4.81699642 18.8708466,6.24910135 18.8709678,7.83870965 C18.8711313,9.98455317 17.14568,11.7315726 15,11.7580645 C13.4105128,11.7776893 11.9665904,10.8353123 11.3446735,9.37241319 C10.7227566,7.90951404 11.0460309,6.21585527 12.1630506,5.08487276 C13.2800704,3.95389025 14.9695828,3.60960247 16.4400945,4.21329944 Z M15,5.85483868 C14.1934871,5.83516181 13.4553783,6.30584137 13.1330091,7.04538744 C12.8106399,7.7849335 12.9682191,8.64604472 13.531594,9.2235039 C14.0949688,9.80096308 14.9519273,9.97975302 15.6992065,9.67573969 C16.4464856,9.37172636 16.9352439,8.64546254 16.935484,7.83870965 C16.9358043,6.76166948 16.0767198,5.88110791 15,5.85483868 Z M7.03548384,0.387096725 C8.89009167,0.387096725 10.3935484,1.89055343 10.3935484,3.74516125 C10.3935484,4.63577534 10.0397533,5.48991219 9.40999404,6.11967145 C8.78023478,6.74943071 7.92609793,7.10322578 7.03548384,7.10322578 C5.18087602,7.10322578 3.67741932,5.59976908 3.67741932,3.74516125 C3.67741932,1.89055343 5.18087602,0.387096725 7.03548384,0.387096725 Z M24.1431402,0.642714167 C25.3979629,1.16247875 26.2161291,2.38695094 26.2161291,3.74516125 C26.2161291,5.59976908 24.7126724,7.10322578 22.8580645,7.10322578 C21.4998542,7.10322578 20.275382,6.28505962 19.7556175,5.03023691 C19.2358529,3.7754142 19.5231546,2.33105078 20.4835543,1.37065105 C21.4439541,0.410251328 22.8883175,0.122949581 24.1431402,0.642714167 Z M7.03548384,2.3225806 C6.24981425,2.3225806 5.61290319,2.95949165 5.61290319,3.74516125 C5.61290319,4.53083085 6.24981425,5.1677419 7.03548384,5.1677419 C7.82115344,5.1677419 8.45806449,4.53083085 8.45806449,3.74516125 C8.45806449,3.36786941 8.30818589,3.00603045 8.04140027,2.73924483 C7.77461465,2.47245921 7.41277569,2.3225806 7.03548384,2.3225806 Z M22.8580645,2.3225806 C22.2826844,2.3225806 21.7639599,2.66918125 21.5437714,3.20076321 C21.3235829,3.73234516 21.4452929,4.34422246 21.8521481,4.75107768 C22.2590033,5.15793289 22.8708806,5.27964285 23.4024626,5.0594544 C23.9340445,4.83926594 24.2806452,4.32054142 24.2806452,3.74516125 C24.2806452,2.95949165 23.6437341,2.3225806 22.8580645,2.3225806 Z" id="people-group-30" fill="#000000"></path>
    </g>
</svg>