<?xml version="1.0" encoding="UTF-8"?>
<svg width="30px" height="30px" viewBox="0 0 30 30" version="1.1" 
    xmlns="http://www.w3.org/2000/svg" 
    xmlns:xlink="http://www.w3.org/1999/xlink">
    <!-- Generator: Sketch 61 (89581) - https://sketch.com -->

    <desc>Created with Sketch.</desc>
    <g id="Icons/30/percentage-arrow" stroke="none" stroke-width="1" fill="none" fill-rule="evenodd">
        <path class="cls-1" d="M26.832851,18.979724 C28.3155001,21.2109731 28.0171419,24.1785526 26.12,26.07 C25.0599326,27.1300368 23.6191014,27.7207776 22.12,27.71 C19.4411033,27.6947284 17.1453929,25.790717 16.6349841,23.1608495 C16.1245754,20.5309819 17.5413775,17.9064404 20.020072,16.8901756 C22.4987665,15.8739109 25.3502019,16.748475 26.832851,18.979724 Z M27.57,2.42999996 C27.7854883,2.64548822 27.8825564,2.93455337 27.8612042,3.21632797 L27.86,9.69999998 C27.86,10.2522847 27.4122848,10.7 26.86,10.7 C26.3077153,10.7 25.86,10.2522847 25.86,9.69999998 L25.8596627,5.56290833 L5.45999997,26 C5.26593984,26.1665664 5.01543804,26.2524527 4.75999997,26.24 C4.50116977,26.2550652 4.24660577,26.1690154 4.04999996,26 C3.66227637,25.6099626 3.66227637,24.9800375 4.04999996,24.59 L24.4446627,4.13990833 L20.3,4.13999996 C19.7477153,4.13999996 19.3,3.69228471 19.3,3.13999996 C19.3,2.58771521 19.7477153,2.13999996 20.3,2.13999996 L26.775652,2.13943569 C27.0599536,2.11561198 27.3524668,2.21246673 27.57,2.42999996 Z M22.12,18.48 C21.1585368,18.4731323 20.2351776,18.8554608 19.56,19.54 C18.8815583,20.2171961 18.5003088,21.136419 18.5003088,22.095 C18.5003088,23.0535811 18.8815583,23.972804 19.56,24.65 C20.9911434,26.0214612 23.2488567,26.0214612 24.68,24.65 C25.7084207,23.6137586 26.0137149,22.0611665 25.4542149,20.712684 C24.8947148,19.3642014 23.5799422,18.4837927 22.12,18.48 Z M11.7272376,3.73487766 L11.91,3.90999996 C13.517875,5.52102948 13.9952638,7.94280155 13.1190592,10.0435022 C12.2428545,12.1442029 10.1860926,13.5089778 7.90999998,13.500044 C5.36844003,13.4899751 3.14993665,11.7754638 2.4993878,9.31855239 C1.84883896,6.86164098 2.92818231,4.27391531 5.13175172,3.0074599 C7.26186882,1.78321967 9.92994866,2.08821858 11.7272376,3.73487766 Z M7.90999998,4.2699455 C6.44531852,4.26401927 5.12219607,5.14363164 4.56087697,6.49649837 C3.99955787,7.84936511 4.31131303,9.40730595 5.34999997,10.44 C6.77777503,11.8102081 9.03222492,11.8102081 10.46,10.44 C11.1384417,9.76280394 11.5196912,8.84358104 11.5196912,7.88499998 C11.5196912,7.00015592 11.1948396,6.14884781 10.6112496,5.49048006 L10.46,5.32999997 C9.78789744,4.64699122 8.86822471,4.26469589 7.90999998,4.2699455 Z" id="percentage-arrow-30" fill="#000000"></path>
    </g>
</svg>