<?xml version="1.0" encoding="UTF-8"?>
<svg width="30px" height="30px" viewBox="0 0 30 30" version="1.1" xmlns="http://www.w3.org/2000/svg" xmlns:xlink="http://www.w3.org/1999/xlink">
    <!-- Generator: Sketch 63.1 (92452) - https://sketch.com -->
    <desc>Created with Sketch.</desc>
    <g id="Icons/30/share" stroke="none" stroke-width="1" fill="none" fill-rule="evenodd">
        <path class="cls-1" d="M7.87999998,15.06 C8.43228473,15.06 8.87999998,15.5077153 8.87999998,16.06 C8.87999998,16.5728358 8.49395979,16.9955072 7.9966211,17.0532723 L7.87999998,17.06 L4.5066007,17.0599782 C4.258571,17.0616154 4.05264395,17.2401655 4.00866618,17.4711613 L3.99999996,17.56 L3.99999996,25.5 C3.99999996,25.7454599 4.17687512,25.9496084 4.41012433,25.9919444 L4.49999996,26 L25.5,26 C25.7454599,26 25.9496084,25.8231249 25.9919444,25.5898757 L26,25.5 L26,17.56 C26,17.3145401 25.8231249,17.1103916 25.5898757,17.0680557 L25.5,17.06 L22.13,17.06 C21.5777153,17.06 21.13,16.6122848 21.13,16.06 C21.13,15.5471642 21.5160402,15.1244928 22.0133789,15.0667277 L22.13,15.06 L25.5,15.06 C26.8254834,15.06 27.9100387,16.0915359 27.9946824,17.3956243 L28,17.56 L28,25.5 C28,26.8254834 26.9684641,27.9100387 25.6643757,27.9946824 L25.5,28 L4.49999996,28 C3.17451656,28 2.08996129,26.9684641 2.00531764,25.6643757 L1.99999996,25.5 L1.99999996,17.5533993 C2.00872401,16.2350485 3.03299788,15.1583887 4.33575784,15.066326 L4.49999996,15.06 L7.87999998,15.06 Z M14.94,0.879999953 C15.258694,0.879999953 15.5425682,1.0290814 15.7256883,1.26131001 L21.6465168,7.17230369 C22.0373667,7.56250214 22.0378948,8.1956669 21.6476963,8.58651677 C21.2875131,8.94730126 20.7203054,8.97550387 20.3277599,8.67080627 L20.2334832,8.58769626 L15.94,4.29999995 L15.94,21.59 C15.94,22.1422848 15.4922848,22.59 14.94,22.59 C14.4271642,22.59 14.0044928,22.2039598 13.9467277,21.7066211 L13.94,21.59 L13.94,4.29999995 L9.64651677,8.58769626 C9.28573228,8.94787944 8.71847829,8.97513588 8.32644162,8.66978392 L8.2323037,8.58651677 C7.87212051,8.22573228 7.84486407,7.65847829 8.15021604,7.26644162 L8.23348319,7.17230369 L14.1543117,1.26131001 C14.3374318,1.0290814 14.621306,0.879999953 14.94,0.879999953 Z" id="Combined-Shape" fill="#000000"></path>
    </g>
</svg>