<?xml version="1.0" encoding="UTF-8"?>
<svg width="30px" height="30px" viewBox="0 0 30 30" version="1.1" 
    xmlns="http://www.w3.org/2000/svg" 
    xmlns:xlink="http://www.w3.org/1999/xlink">
    <!-- Generator: Sketch 61 (89581) - https://sketch.com -->

    <desc>Created with Sketch.</desc>
    <g id="Icons/30/user" stroke="none" stroke-width="1" fill="none" fill-rule="evenodd">
        <path class="cls-1" d="M14.9999943,18.5 C22.9205227,18.5 27.8785938,21.0949881 27.9997216,26.2264015 C28.0118238,26.7390945 27.6358655,27.1707581 27.1400285,27.2402436 L27.0235986,27.2497216 L27.0235986,27.2497216 C26.4714677,27.2627547 26.0133117,26.8257296 26.0002785,26.2735986 C25.9126242,22.5602438 21.9762534,20.5 14.9999943,20.5 C8.02374662,20.5 4.08737578,22.5602438 3.99972148,26.2735986 C3.98761928,26.7862916 3.59171216,27.1997353 3.0931488,27.2457478 L2.97640138,27.2497216 L2.97640138,27.2497216 C2.42427043,27.2366884 1.98724531,26.7785324 2.00027844,26.2264015 C2.12140623,21.0949881 7.07947731,18.5 14.9999943,18.5 Z M15,2.74999996 L15.2406497,2.75405898 C18.9952166,2.88090128 22,5.96454825 22,9.74999996 C22,13.6159932 18.8659933,16.75 15,16.75 C11.1340067,16.75 7.99999998,13.6159932 7.99999998,9.74999996 C7.99999998,5.88400672 11.1340067,2.74999996 15,2.74999996 L15,2.74999996 Z M15,4.74999997 L14.7831104,4.75461948 C12.1223067,4.86818185 9.99999998,7.06124527 9.99999998,9.74999997 C9.99999998,12.5114237 12.2385762,14.75 15,14.75 L15,14.75 L15.2168896,14.7453805 C17.8776933,14.6318181 20,12.4387547 20,9.74999997 C20,6.98857622 17.7614238,4.74999997 15,4.74999997 L15,4.74999997 Z" id="Combined-Shape" fill="#000000"></path>
    </g>
</svg>