<?xml version="1.0" encoding="UTF-8"?>
<svg width="30px" height="30px" viewBox="0 0 30 30" version="1.1" 
    xmlns="http://www.w3.org/2000/svg" 
    xmlns:xlink="http://www.w3.org/1999/xlink">
    <!-- Generator: Sketch 61 (89581) - https://sketch.com -->

    <desc>Created with Sketch.</desc>
    <g id="Icons/30/user-square" stroke="none" stroke-width="1" fill="none" fill-rule="evenodd">
        <path class="cls-1" d="M24.82,2.12999996 C26.4768543,2.12999996 27.82,3.47314571 27.82,5.12999996 L27.82,5.12999996 L27.82,24.88 C27.82,26.5368543 26.4768543,27.88 24.82,27.88 L24.82,27.88 L5.06999996,27.88 C3.41314571,27.88 2.06999996,26.5368543 2.06999996,24.88 L2.06999996,24.88 L2.06999996,5.12999996 C2.06999996,3.47314571 3.41314571,2.12999996 5.06999996,2.12999996 L5.06999996,2.12999996 Z M15.04,22 C9.52194651,22 7.19173212,23.1316093 6.83829678,25.8800884 L23.241644,25.8796282 C22.8952943,23.1881077 20.6529351,22.0473141 15.3770255,22.0014454 L15.04,22 Z M24.82,4.12999996 L5.06999996,4.12999996 C4.51771522,4.12999996 4.06999996,4.57771522 4.06999996,5.12999996 L4.06999996,5.12999996 L4.06999996,24.88 C4.06999996,25.3486385 4.39236774,25.7419839 4.82744925,25.8503823 C5.19555803,21.8214324 8.35805899,20.0660268 14.6756784,20.0018316 L15.04,20 C21.5658479,20 24.8427169,21.7263701 25.2471583,25.7838607 C25.5857142,25.6243135 25.82,25.2795169 25.82,24.88 L25.82,24.88 L25.82,5.12999996 C25.82,4.57771522 25.3722848,4.12999996 24.82,4.12999996 L24.82,4.12999996 Z M14.94,7.62999998 C17.9775661,7.62999998 20.44,10.0924339 20.44,13.13 C20.44,16.1675661 17.9775661,18.63 14.94,18.63 C11.9024339,18.63 9.43999998,16.1675661 9.43999998,13.13 C9.43999998,10.0924339 11.9024339,7.62999998 14.94,7.62999998 Z M14.94,9.62999998 C13.0070034,9.62999998 11.44,11.1970034 11.44,13.13 C11.44,15.0629966 13.0070034,16.63 14.94,16.63 C16.8729966,16.63 18.44,15.0629966 18.44,13.13 C18.44,11.1970034 16.8729966,9.62999998 14.94,9.62999998 Z" id="Combined-Shape" fill="#000000"></path>
    </g>
</svg>