<svg width="16" height="16" viewBox="0 0 16 16" fill="none" xmlns="http://www.w3.org/2000/svg">
  <title id="Aflac icon">Aflac duck, Icon</title>

<g clip-path="url(#clip0_103_2017)">
<path d="M16 8C16 10.925 14.435 13.48 12.095 14.87C10.895 15.59 9.495 16 8 16C7.67 16 7.35 15.98 7.03 15.94C3.075 15.465 0 12.09 0 8C0 3.585 3.585 0 8 0C12.415 0 16 3.585 16 8Z" fill="#00A4E0"/>
<path d="M12.4449 10.955C12.3649 12.61 12.2799 13.6 12.0949 14.87C10.8949 15.59 9.49494 16 7.99994 16C7.66994 16 7.34994 15.98 7.02994 15.94C7.03494 15.92 7.03994 15.9 7.04994 15.88C7.67494 14.365 8.24994 12.865 8.24994 10.55C8.24994 10.505 8.24994 10.175 8.22994 9.835C7.66994 10.25 6.35494 11.47 5.31494 11.47C4.27494 11.47 3.88494 11.075 3.88494 10.655C3.88494 10.235 4.20494 9.935 4.53994 9.695C4.29494 9.56 4.02494 9.39501 3.70994 9.39501C3.43494 9.39501 3.29994 9.54 3.11994 9.54C2.93994 9.54 2.81494 9.38 2.81494 9.045C2.81494 8.71 2.98494 8.515 3.23994 8.355C3.96494 7.905 4.73994 7.435 5.32494 6.835C5.91994 6.215 6.03994 5.285 6.16994 4.595C6.29994 3.905 6.62494 3.33 6.98994 2.915C7.44494 2.395 8.04994 2.13 8.78994 2.13H8.88994C8.94494 2.13 8.99994 2.13 9.06494 2.135H9.08494C9.39494 2.155 9.70494 2.265 10.0149 2.455C10.3049 2.635 10.6149 2.93 10.8599 3.26C11.2849 3.86 11.5999 4.52 11.8349 5.33C11.9299 5.65 11.9749 5.815 12.0199 6.015C12.0649 6.22 12.1099 6.45 12.1849 6.83C12.3799 7.84 12.4999 9.77 12.4449 10.955Z" fill="white"/>
<path d="M10.0551 5.19504C9.79508 5.19504 9.70508 5.01004 9.70508 4.78504C9.70508 4.46504 9.82508 4.17004 10.0451 4.17004C10.2351 4.17004 10.3651 4.42504 10.3701 4.79504C10.3701 5.04004 10.2401 5.19504 10.0551 5.19504Z" fill="#005B8E"/>
<path d="M8.75 9.00998C9.175 8.63998 9.315 8.32498 9.315 7.91498C9.315 7.38498 8.36 7.23498 8.28 5.94498C8.23 5.08998 8.16 4.82998 8.04 4.82998C7.825 4.82998 7.63 5.35998 7 5.35998C6.525 5.35998 6.64 4.72998 6.53 4.72998C6.305 4.72998 6.32 6.28498 5.55 7.01998C4.655 7.87998 3.855 8.33998 3.41 8.61998C3.21 8.74498 3.13 8.82998 3.13 9.06498C3.13 9.11998 3.155 9.15998 3.195 9.15998C3.28 9.15998 3.415 9.03998 3.66 9.03998C4.325 9.03998 5.01 9.79998 5.805 9.79998C6.79 9.79998 8.265 8.62998 8.63 8.35498L8.705 8.43998C8.145 9.05998 6.015 10.765 5.225 10.765C4.765 10.765 4.505 10.64 4.505 10.485C4.505 10.265 4.85 10.01 5.03 9.86998C5.005 9.85498 4.9 9.80498 4.865 9.78998C4.725 9.88998 4.19 10.265 4.19 10.605C4.19 11.005 4.73 11.14 5.21 11.14C5.64 11.14 6.07 10.905 6.29 10.78C6.87 10.445 8.3 9.39498 8.75 9.00498V9.00998Z" fill="#FF9700"/>
</g>
<defs>
<clipPath id="clip0_103_2017">
<rect width="16" height="16" fill="white"/>
</clipPath>
</defs>
</svg>
