<svg xmlns="http://www.w3.org/2000/svg" xmlns:xlink="http://www.w3.org/1999/xlink" width="20" height="20" viewBox="0 0 20 20">
  <defs>
    <path id="circle-check-a" d="M10.0459188,1 C15.036234,1.01279368 19.0140898,5.0440228 19,10.0748302 C18.9858351,15.0794389 14.9608882,19.0300569 9.90531806,19 C5.00582141,18.9702703 0.954637981,14.8476818 1.00038366,9.9377912 C1.04680207,5.01513714 5.12287652,0.987266818 10.0459188,1 Z M10.0357146,3 C6.20668174,2.99009641 3.03640161,6.12288445 3.0002984,9.95161538 C2.96471843,13.7704192 6.11563887,16.9768769 9.92635849,17 C13.8584686,17.0233776 16.9889829,13.9506747 17,10.0582012 C17.0109588,6.14535107 13.9170709,3.00995064 10.0357146,3 Z M13.8490666,6 L15,7.20741289 L8.52515186,14 L5,10.3018591 L6.15093337,9.09444616 L8.52439279,11.5846338 L13.8490666,6 Z"/>
  </defs>
  <use fill-rule="evenodd" xlink:href="#circle-check-a"/>
</svg>
