<?xml version="1.0" encoding="UTF-8"?>
<svg width="60px" height="60px" viewBox="0 0 60 60" version="1.1" 
    xmlns="http://www.w3.org/2000/svg" 
    xmlns:xlink="http://www.w3.org/1999/xlink">
    <!-- Generator: Sketch 61 (89581) - https://sketch.com -->

    <desc>Created with Sketch.</desc>
    <g id="Icons/60/bell" stroke="none" stroke-width="1" fill="none" fill-rule="evenodd">
        <path class="cls-1" d="M51.15,36.27 C50.67,35.77 50.15,35.27 49.64,34.63 C46.64,31.17 45.73,25.91 45.32,21.74 C45.23,20.61 45.18,19.47 45.13,18.34 C45.13,17.79 45.08,17.24 45.05,16.7 C44.92,14.41 44.23,11.3 39.67,10.53 C38.8760373,10.2818586 38.0679234,10.0814998 37.25,9.92999997 C36.69,9.80999997 35.86,9.62999997 35.32,9.47999997 C35.32,9.22999997 35.32,8.94999996 35.41,8.67999996 C35.6425876,7.64108027 35.5374871,6.55504146 35.11,5.57999996 C33.93,3.35999996 30.44,3.21999996 29.78,3.21999996 L29.72,3.21999996 C29.3,3.21999996 25.58,3.27999996 24.36,5.57999996 C23.9358653,6.55613284 23.8342713,7.64213792 24.07,8.67999996 C24.07,8.94999996 24.14,9.22999997 24.15,9.47999997 C23.61,9.62999997 22.78,9.80999997 22.22,9.92999997 C21.4020766,10.0814998 20.5939627,10.2818586 19.8,10.53 C15.24,11.3 14.55,14.41 14.43,16.7 L14.35,18.29 C14.29,19.44 14.24,20.59 14.16,21.71 C13.74,25.9 12.87,31.16 9.82999997,34.63 C9.30999997,35.23 8.82999996,35.77 8.31999996,36.28 C5.75999996,39.01 3.73999996,41.17 4.31999996,46.46 C4.49838687,47.8925885 5.72650442,48.9612662 7.16999996,48.94 L20.08,48.94 C20.0750835,48.979849 20.0750835,49.0201511 20.08,49.06 C20.7560388,53.8623391 24.8653104,57.4336539 29.715,57.4336539 C34.5646896,57.4336539 38.6739612,53.8623391 39.35,49.06 L39.35,48.94 L52.28,48.94 C53.7222562,48.9624289 54.9522521,47.9001597 55.14,46.47 C55.74,41.16 53.71,39 51.15,36.27 Z M29.72,54.46 C26.4780768,54.443063 23.7046362,52.1269673 23.11,48.94 L36.33,48.94 C35.7390069,52.1290991 32.9633713,54.4470278 29.72,54.46 L29.72,54.46 Z M52.18,45.94 L7.29999996,45.94 C6.90999996,42.16 8.12999996,40.87 10.51,38.33 C11.01,37.8 11.51,37.23 12.09,36.6 C15.69,32.5 16.68,26.6 17.15,21.97 C17.23,20.79 17.29,19.61 17.34,18.43 L17.42,16.86 C17.54,14.59 18.24,13.8 20.42,13.47 C20.5293797,13.4506526 20.6365709,13.420505 20.74,13.38 C21.4322187,13.1643295 22.1368358,12.9906798 22.85,12.86 C25.19,12.37 26.47,12.09 26.94,11.02 C26.9736409,10.9574007 26.9972609,10.8899149 27.01,10.82 C27.1809358,9.98834346 27.1775308,9.13027367 27,8.29999996 C26.917376,7.87060513 26.917376,7.4293948 27,6.99999996 C27.7980479,6.43679853 28.7654001,6.16495137 29.74,6.22999996 L29.79,6.22999996 C30.7414067,6.1778767 31.6824515,6.44926415 32.46,6.99999996 C32.543912,7.4326354 32.543912,7.87736453 32.46,8.30999996 C32.2857681,9.14096522 32.2857681,9.99903471 32.46,10.83 C32.4772882,10.898631 32.500716,10.9655675 32.53,11.03 C33,12.1 34.28,12.38 36.62,12.87 C37.3331642,13.0006798 38.0377813,13.1743295 38.73,13.39 C38.8334291,13.430505 38.9406203,13.4606526 39.05,13.48 C41.22,13.81 41.92,14.6 42.05,16.87 C42.05,17.41 42.11,17.95 42.13,18.49 C42.19,19.65 42.24,20.82 42.33,22.02 C42.79,26.66 43.79,32.51 47.38,36.61 C47.93,37.24 48.46,37.81 48.96,38.34 C51.34,40.87 52.56,42.16 52.18,45.94 Z" id="bell-60" fill="#000000"></path>
    </g>
</svg>