<?xml version="1.0" encoding="UTF-8"?>
<svg width="60px" height="60px" viewBox="0 0 60 60" version="1.1" 
    xmlns="http://www.w3.org/2000/svg" 
    xmlns:xlink="http://www.w3.org/1999/xlink">
    <!-- Generator: Sketch 61 (89581) - https://sketch.com -->

    <desc>Created with Sketch.</desc>
    <g id="Icons/60/building" stroke="none" stroke-width="1" fill="none" fill-rule="evenodd">
        <path class="cls-1" d="M57.71,54 L54,54 L54,24 L55.42,24 C56.2484272,24 56.92,23.3284271 56.92,22.5 C56.92,21.6715729 56.2484272,21 55.42,21 L52.74,21 L52.5,21 L43.89,21 L43.89,5.99999995 L45.67,5.99999995 C46.4984272,5.99999995 47.17,5.32842708 47.17,4.49999995 C47.17,3.67157283 46.4984272,2.99999995 45.67,2.99999995 L14.39,2.99999995 C13.5615728,2.99999995 12.89,3.67157283 12.89,4.49999995 C12.89,5.32842708 13.5615728,5.99999995 14.39,5.99999995 L15.89,5.99999995 L15.89,21 L7.49999996,21 L7.25999996,21 L4.63999996,21 C3.81157283,21 3.13999996,21.6715729 3.13999996,22.5 C3.13999996,23.3284271 3.81157283,24 4.63999996,24 L5.99999996,24 L5.99999996,54 L2.34999995,54 C1.52157283,54 0.849999951,54.6715729 0.849999951,55.5 C0.849999951,56.3284272 1.52157283,57 2.34999995,57 L57.71,57 C58.5384272,57 59.21,56.3284272 59.21,55.5 C59.21,54.6715729 58.5384272,54 57.71,54 L57.71,54 Z M51,53.91 L44,53.91 L44,24 L51,24 L51,53.91 Z M15.89,24 L15.89,53.91 L8.99999996,53.91 L8.99999996,24 L15.89,24 Z M31.53,54 L31.53,46.27 C31.53,45.4415729 30.8584271,44.77 30.03,44.77 C29.2015729,44.77 28.53,45.4415729 28.53,46.27 L28.53,54 L19,54 L19,22.5 C18.9992247,22.3112803 18.9618688,22.1245009 18.89,21.95 L18.89,5.99999996 L28.53,5.99999996 L28.53,35.52 C28.53,36.3484271 29.2015729,37.02 30.03,37.02 C30.8584271,37.02 31.53,36.3484271 31.53,35.52 L31.53,5.99999996 L40.89,5.99999996 L40.89,54 L31.53,54 Z" id="building-60" fill="#000000"></path>
    </g>
</svg>