<?xml version="1.0" encoding="UTF-8"?>
<svg width="60px" height="60px" viewBox="0 0 60 60" version="1.1" 
    xmlns="http://www.w3.org/2000/svg" 
    xmlns:xlink="http://www.w3.org/1999/xlink">
    <!-- Generator: Sketch 61 (89581) - https://sketch.com -->

    <desc>Created with Sketch.</desc>
    <g id="Icons/60/cart" stroke="none" stroke-width="1" fill="none" fill-rule="evenodd">
        <path class="cls-1" d="M2.31147536,7.57377045 L8.69508193,7.57377045 L19.0918033,31.4655738 L15.8360656,40.8196721 C11.9618857,41.1450626 9.0527675,44.498589 9.27771987,48.3798961 C9.50267224,52.2612032 12.779737,55.2561915 16.6655679,55.1318282 C20.5513989,55.0074648 23.6302483,51.8090598 23.6065574,47.9213115 C23.6101403,46.3991722 23.1238862,44.9162696 22.2196721,43.6918033 L42.0688525,43.6918033 C41.1617593,44.9153772 40.6720919,46.3981729 40.6721312,47.9213115 C40.6721312,50.825483 42.4215619,53.4436911 45.1046665,54.5550695 C47.7877712,55.6664478 50.8761582,55.0521294 52.9297176,52.99857 C54.983277,50.9450107 55.5975953,47.8566236 54.486217,45.173519 C53.3748387,42.4904143 50.7566306,40.7409836 47.852459,40.7409836 L18.9737705,40.7409836 L21.6885246,32.9508197 L54.3147541,30 C54.9455075,29.9408059 55.4680638,29.4855485 55.6131148,28.8688525 L59.7344263,11.3114754 C59.8450773,10.8718343 59.7431208,10.4057474 59.4590164,10.052459 C59.1785423,9.69752064 58.750739,9.49086991 58.2983607,9.49180324 L24.0491803,9.49180324 C23.234334,9.49180324 22.5737705,10.1523667 22.5737705,10.9672131 C22.5737705,11.7820594 23.234334,12.4426229 24.0491803,12.4426229 L56.4393443,12.4426229 L52.9868853,27.1081967 L21.6393442,30 L11.0163934,5.50819668 C10.7824148,4.97207633 10.2538033,4.62481328 9.66885243,4.62295078 L2.31147536,4.62295078 C1.49662902,4.62295078 0.836065556,5.28351427 0.836065556,6.09836062 C0.836065556,6.91320696 1.49662902,7.57377044 2.31147536,7.57377045 Z M16.4655737,52.1409836 C14.7505127,52.1569339 13.1956187,51.1355553 12.5291303,49.5552129 C11.8626418,47.9748705 12.2165304,46.1484881 13.4250513,44.9314565 C14.6335723,43.7144248 16.4574262,43.3477284 18.0424068,44.0031105 C19.6273873,44.6584925 20.6596522,46.2061807 20.6557488,47.9213115 C20.6557488,50.2402969 18.7845024,52.124767 16.4655737,52.1409836 Z M52.0721427,47.9213115 C52.0721427,49.632882 51.0405725,51.1757328 49.4589057,51.8297998 C47.8772389,52.4838668 46.0572828,52.1202015 44.8484295,50.9085304 C43.6395761,49.6968592 43.2801492,47.8760613 43.937897,46.2959217 C44.5956448,44.715782 46.1408932,43.6878229 47.852459,43.6917918 C48.973292,43.6917918 50.0480754,44.1377215 50.8397008,44.9311922 C51.6313262,45.7246629 52.0747438,46.8004816 52.0721427,47.9213115 Z" id="cart-60" fill="#000000"></path>
    </g>
</svg>