<?xml version="1.0" encoding="UTF-8"?>
<svg width="60px" height="60px" viewBox="0 0 60 60" version="1.1" 
    xmlns="http://www.w3.org/2000/svg" 
    xmlns:xlink="http://www.w3.org/1999/xlink">
    <!-- Generator: Sketch 61 (89581) - https://sketch.com -->

    <desc>Created with Sketch.</desc>
    <g id="Icons/60/chart" stroke="none" stroke-width="1" fill="none" fill-rule="evenodd">
        <path class="cls-1" d="M5.99999996,4.49999996 C6.82842709,4.49999996 7.49999996,5.17157283 7.49999996,5.99999996 L7.49999996,5.99999996 L7.49999996,52.51 L54,52.51 C54.8284272,52.51 55.5,53.1815729 55.5,54.01 C55.5,54.8384272 54.8284272,55.51 54,55.51 L54,55.51 L6.74999996,55.51 C5.50735927,55.51 4.49999996,54.5026407 4.49999996,53.26 L4.49999996,53.26 L4.49999996,5.99999996 C4.49999996,5.17157283 5.17157283,4.49999996 5.99999996,4.49999996 Z M44.4740944,6.69626451 C45.8140319,3.71343948 49.1486133,2.1757971 52.2871633,3.09350176 C55.4257132,4.01120642 57.4066324,7.10308878 56.9285429,10.3379161 C56.4504534,13.5727435 53.6598337,15.9594189 50.39,15.93 C50.1968018,15.9402196 50.0031983,15.9402196 49.81,15.93 L49.81,15.93 L46.92,24.65 C49.5885388,26.3137024 50.695216,29.6410754 49.554725,32.5716531 C48.414234,35.5022307 45.3495047,37.2062202 42.2583618,36.628431 C39.1672189,36.0506418 36.9249191,33.354675 36.92,30.21 C36.9203843,28.936466 37.2960275,27.6912783 38,26.63 L38,26.63 L34.09,22.55 C33.0951332,23.1327537 31.9629796,23.439954 30.81,23.44 C30.2462144,23.4384045 29.6849641,23.3644673 29.14,23.22 L29.14,23.22 L22.57,35.55 C24.6231893,37.3417414 25.3478586,40.2201029 24.3878555,42.7704592 C23.4278523,45.3208155 20.985046,47.0068783 18.26,47.0002606 C15.7082449,47.0227115 13.3763327,45.5591306 12.2872777,43.2513332 C11.1982227,40.9435357 11.5509527,38.213066 13.1907242,36.2577862 C14.8304958,34.3025064 17.4577869,33.4795697 19.92,34.15 L19.92,34.15 L26.5,21.82 C23.8702384,19.5162047 23.5174541,15.5515376 25.6991267,12.8196109 C27.8807993,10.0876842 31.8252926,9.55475371 34.6537181,11.6097787 C37.4821437,13.6648037 38.1941151,17.5809419 36.27,20.5 L36.27,20.5 L40.14,24.6 C41.1321453,24.0096513 42.2655036,23.6986689 43.42,23.7 L43.42,23.7 L44,23.7 L46.97,14.93 C44.1993978,13.1932095 43.1341569,9.67908954 44.4740944,6.69626451 Z M18.26,36.9199858 C16.3032955,36.9255119 14.72,38.5132878 14.72,40.47 C14.72,41.9067498 15.5860214,43.2018367 16.9137936,43.7507182 C18.2415658,44.2995997 19.7692655,43.9940394 20.7837671,42.976672 C21.7982687,41.9593046 22.0995183,40.430749 21.5468935,39.1045304 C20.9942688,37.7783118 19.696744,36.9159528 18.26,36.9199858 Z M43.46,26.67 C42.0282037,26.67 40.7373912,27.5324933 40.1894665,28.8553006 C39.6415417,30.178108 39.9444091,31.7007251 40.956842,32.713158 C41.9692749,33.7255909 43.491892,34.0284583 44.8146994,33.4805336 C46.1375067,32.9326088 47,31.6417963 47,30.21 C46.9945069,28.2571919 45.4128082,26.6754932 43.46,26.67 Z M30.81,13.37 C28.8571919,13.3754931 27.2754932,14.9571918 27.27,16.91 C27.27,18.865088 28.854912,20.45 30.81,20.45 C32.765088,20.45 34.35,18.865088 34.35,16.91 C34.35,14.954912 32.765088,13.37 30.81,13.37 Z M50.26,5.86999996 L50.3,5.87999996 C49.3567508,5.87201377 48.4491056,6.23975851 47.7774298,6.90205335 C47.105754,7.5643482 46.7252805,8.46673174 46.72,9.40999997 C46.72,10.8417963 47.5824933,12.1326088 48.9053007,12.6805335 C50.228108,13.2284583 51.7507251,12.9255909 52.763158,11.913158 C53.775591,10.9007251 54.0784583,9.37810795 53.5305336,8.05530061 C52.9826088,6.73249327 51.6917964,5.86999996 50.26,5.86999996 L50.26,5.86999996 Z" id="chart-60" fill="#000000"></path>
    </g>
</svg>