<?xml version="1.0" encoding="UTF-8"?>
<svg width="60px" height="60px" viewBox="0 0 60 60" version="1.1" 
    xmlns="http://www.w3.org/2000/svg" 
    xmlns:xlink="http://www.w3.org/1999/xlink">
    <!-- Generator: Sketch 61 (89581) - https://sketch.com -->

    <desc>Created with Sketch.</desc>
    <g id="Icons/60/clipboard" stroke="none" stroke-width="1" fill="none" fill-rule="evenodd">
        <path class="cls-1" d="M30.005,0.203443957 C32.997455,0.203443957 35.5981944,2.25860988 36.29,5.16999996 L36.29,5.16999996 L38.78,5.16999996 C39.6937861,5.17346208 40.5778046,5.49524484 41.28,6.07999996 L41.28,6.07999996 L48.53,6.07999996 C50.4512707,6.0964686 52,7.65865872 52,9.57999997 L52,9.57999997 L52,56.5 C52,58.4213413 50.4512707,59.9835314 48.53,60 L48.53,60 L11.5,60 C9.56700334,60 7.99999996,58.4329967 7.99999996,56.5 L7.99999996,56.5 L7.99999996,9.57999997 C7.99999996,7.65865872 9.5487293,6.0964686 11.47,6.07999996 L11.47,6.07999996 L18.73,6.07999996 C19.435092,5.50030184 20.3172459,5.17919781 21.23,5.16999996 L21.23,5.16999996 L23.72,5.16999996 C24.4118056,2.25860988 27.012545,0.203443957 30.005,0.203443957 Z M17.26,9.07999997 L11.47,9.07999997 C11.1960915,9.08532007 10.9753201,9.30609151 10.97,9.57999997 L10.97,9.57999997 L10.97,56.5 C10.9753201,56.7739085 11.1960915,56.9946799 11.47,57 L11.47,57 L48.5,57 C48.7739085,56.9946799 48.9946799,56.7739085 49,56.5 L49,56.5 L49.04,9.57999997 C49.0346799,9.30609151 48.8139085,9.08532007 48.54,9.07999997 L48.54,9.07999997 L42.76,9.07999997 C42.7648893,9.10644253 42.7648893,9.1335574 42.76,9.15999997 L42.76,9.15999997 L42.76,15.06 L17.26,15.06 L17.26,9.07999997 Z M31.89,41.13 C32.7184271,41.13 33.39,41.8015729 33.39,42.63 C33.39,43.4584271 32.7184271,44.13 31.89,44.13 L31.89,44.13 L20.75,44.13 C19.9215729,44.13 19.25,43.4584271 19.25,42.63 C19.25,41.8015729 19.9215729,41.13 20.75,41.13 L20.75,41.13 Z M38.89,33.1 C39.7184271,33.1 40.39,33.7715729 40.39,34.6 C40.39,35.4284271 39.7184271,36.1 38.89,36.1 L38.89,36.1 L20.75,36.1 C19.9215729,36.1 19.25,35.4284271 19.25,34.6 C19.25,33.7715729 19.9215729,33.1 20.75,33.1 L20.75,33.1 Z M38.89,25.06 C39.7184271,25.06 40.39,25.7315729 40.39,26.56 C40.39,27.3884271 39.7184271,28.06 38.89,28.06 L38.89,28.06 L20.75,28.06 C19.9215729,28.06 19.25,27.3884271 19.25,26.56 C19.25,25.7315729 19.9215729,25.06 20.75,25.06 L20.75,25.06 Z M30.03,3.20999996 C28.1190948,3.20999996 26.57,4.75909472 26.57,6.66999996 L26.57,6.66999996 L26.57,8.15999996 L21.25,8.15999996 C20.6977152,8.15999996 20.25,8.60771521 20.25,9.15999997 L20.25,9.15999997 L20.25,12.07 L39.8,12.07 L39.8,9.16999997 C39.8,8.61771521 39.3522848,8.16999996 38.8,8.16999996 L38.8,8.16999996 L33.49,8.16999996 L33.49,6.66999996 C33.49,4.75909472 31.9409052,3.20999996 30.03,3.20999996 Z M30,4.99997068 C30.9366125,5.00546139 31.6945386,5.76338741 31.7000293,6.69999996 C31.7040435,7.39343377 31.2889047,8.02065347 30.6490209,8.28789032 C30.0091372,8.55512717 29.2712166,8.40946357 28.7808765,7.91912349 C28.2905364,7.42878341 28.1448728,6.6908628 28.4121096,6.05097901 C28.6793465,5.41109523 29.3065662,4.99595651 30,4.99997068 Z" id="clipboard-60" fill="#000000"></path>
    </g>
</svg>