<?xml version="1.0" encoding="UTF-8"?>
<svg width="60px" height="60px" viewBox="0 0 60 60" version="1.1" 
    xmlns="http://www.w3.org/2000/svg" 
    xmlns:xlink="http://www.w3.org/1999/xlink">
    <!-- Generator: Sketch 61 (89581) - https://sketch.com -->

    <desc>Created with Sketch.</desc>
    <g id="Icons/60/clock-history" stroke="none" stroke-width="1" fill="none" fill-rule="evenodd">
        <path class="cls-1" d="M39.390417,3.60612625 C52.3721804,8.18109474 60.1671144,21.4461711 57.8462254,35.0134107 C55.5253616,48.580504 43.7644387,58.5 30,58.5 C29.1715729,58.5 28.5,57.8284272 28.5,57 C28.5,56.1715729 29.1715729,55.5 30,55.5 C42.3027951,55.5 52.8147813,46.6338926 54.8891801,34.5075618 C56.963603,22.381091 49.9964496,10.5246953 38.3932806,6.43556418 C26.7901116,2.34643305 13.9288331,7.21499141 7.94205508,17.9626895 C2.06912818,28.5059976 4.48893017,41.6959733 13.6311593,49.4751455 L13.4010188,43.245277 C13.372286,42.4661105 13.9431575,41.8038707 14.7006142,41.7032043 L14.844723,41.6910189 C15.6238895,41.6622861 16.2861293,42.2331575 16.3867957,42.9906142 L16.3989811,43.1347231 L16.7389811,52.3547231 C16.7677352,53.134465 16.1960277,53.7969939 15.4379366,53.8969898 L15.2937114,53.9090381 L6.08371142,54.2390381 C5.25581556,54.2687021 4.56062593,53.6216074 4.53096191,52.7937115 C4.50304283,52.0145154 5.07460557,51.3528722 5.83216701,51.2529969 L5.9762885,51.240962 L10.8991891,51.0641762 C1.3225607,42.2860074 -1.07762737,27.9902795 5.32122413,16.502811 C12.0193025,4.47815871 26.4086537,-0.968842232 39.390417,3.60612625 Z M44.6106602,17.3893398 C45.159835,17.9385146 45.1941584,18.807577 44.7136305,19.3967377 L44.6106602,19.5106602 L33.5552691,30.565935 C33.6878029,30.9358538 33.76,31.3344956 33.76,31.75 C33.76,33.6885195 32.1885195,35.26 30.25,35.26 C28.3114805,35.26 26.74,33.6885195 26.74,31.75 C26.74,31.335247 26.8119362,30.9372956 26.9440125,30.5679421 L20.9199817,24.5513016 C20.333841,23.9658697 20.3332664,23.0161224 20.9186983,22.4299817 C21.4675408,21.8804748 22.3365823,21.8456256 22.9260336,22.325797 L23.0400183,22.4286984 L29.0639285,28.4454505 C29.4344121,28.3124585 29.8337443,28.24 30.25,28.24 C30.6655044,28.24 31.0641462,28.3121971 31.434065,28.4447309 L42.4893398,17.3893398 C43.0751263,16.8035534 44.0248738,16.8035534 44.6106602,17.3893398 Z" id="clock-history-60" fill="#000000"></path>
    </g>
</svg>