<?xml version="1.0" encoding="UTF-8"?>
<svg width="60px" height="60px" viewBox="0 0 60 60" version="1.1" xmlns="http://www.w3.org/2000/svg" xmlns:xlink="http://www.w3.org/1999/xlink">
    <!-- Generator: Sketch 61.2 (89653) - https://sketch.com -->
    <desc>Created with Sketch.</desc>
    <g id="Icons/60/Close" stroke="none" stroke-width="1" fill="none" fill-rule="evenodd">
        <path class="cls-1" d="M51.5532622,6.33636956 C52.142423,5.85584162 53.0114854,5.89016504 53.5606602,6.43933983 C54.1464466,7.02512627 54.1464466,7.97487373 53.5606602,8.56066017 L53.5606602,8.56066017 L32.121,30 L53.5606602,51.4393398 C54.1464466,52.0251263 54.1464466,52.9748737 53.5606602,53.5606602 C53.0114854,54.109835 52.142423,54.1441584 51.5532622,53.6636304 L51.4393398,53.5606602 L30,32.121 L8.56066017,53.5606602 L8.44673776,53.6636304 C7.85757702,54.1441584 6.98851461,54.109835 6.43933983,53.5606602 C5.85355339,52.9748737 5.85355339,52.0251263 6.43933983,51.4393398 L6.43933983,51.4393398 L27.879,30 L6.43933983,8.56066017 C5.85355339,7.97487373 5.85355339,7.02512627 6.43933983,6.43933983 C6.98851461,5.89016504 7.85757702,5.85584162 8.44673776,6.33636956 L8.56066017,6.43933983 L30,27.879 L51.4393398,6.43933983 Z" id="Combined-Shape" fill="#000000"></path>
    </g>
</svg>