<?xml version="1.0" encoding="UTF-8"?>
<svg width="60px" height="60px" viewBox="0 0 60 60" version="1.1" 
    xmlns="http://www.w3.org/2000/svg" 
    xmlns:xlink="http://www.w3.org/1999/xlink">
    <!-- Generator: Sketch 61 (89581) - https://sketch.com -->

    <desc>Created with Sketch.</desc>
    <g id="Icons/60/coverage-family-one-parent" stroke="none" stroke-width="1" fill="none" fill-rule="evenodd">
        <path class="cls-1" d="M47.36,41.81 L47.36,43.33 C47.36,44.89 46.75,47.51 42.9,48.57 L42.9,55.87 C42.9,56.2678248 42.7419648,56.6493556 42.4606602,56.9306602 C42.1793556,57.2119648 41.7978248,57.37 41.4,57.37 L31.85,57.37 C31.0215729,57.37 30.35,56.6984272 30.35,55.87 L30.35,48.57 C26.5,47.51 25.89,44.89 25.89,43.33 L25.89,41.8 C25.89,35.8952381 31.2555228,35.2688335 36.3726162,35.2504353 L36.62,35.25 C41.81,35.25 47.36,35.76 47.36,41.81 Z M22.6,22.3 C23.4284329,22.2716095 24.126859,22.9122041 24.17,23.74 C24.1862352,24.1379095 24.0435708,24.5259427 23.7734522,24.8185712 C23.5033335,25.1111998 23.127935,25.2844014 22.73,25.3 C14.45,25.64 12.89,27.71 12.89,31.42 L12.8909956,33.8953947 C12.9075899,34.9629975 13.2007547,37.5192453 18.38,38.34 C19.1060569,38.4576852 19.6396687,39.0844673 19.64,39.82 L19.64,54.25 L24.64,54.25 C25.4684271,54.25 26.14,54.9215729 26.14,55.75 C26.14,56.5784272 25.4684271,57.25 24.64,57.25 L18.14,57.25 C17.3115729,57.25 16.64,56.5784272 16.64,55.75 L16.64,41.06 C10.9101886,39.7060378 9.92609466,36.0706657 9.89099884,33.8467128 L9.88999997,31.41 L9.88999997,31.41 C9.88999997,23.87 16,22.58 22.6,22.3 Z M36.62,38.25 C29.5596667,38.25 28.910175,39.6810778 28.8904865,41.7065041 L28.8905952,43.4342902 C28.9004163,44.0516653 29.0722857,45.3614286 32.08,45.88 C32.8100301,45.9932767 33.3488859,46.6212346 33.35,47.36 L33.4,54.37 L39.9,54.37 L39.9,47.37 C39.9011141,46.6312346 40.4399699,46.0032767 41.17,45.89 C44.36,45.38 44.36,43.89 44.36,43.34 L44.36,41.82 C44.36,39.73 43.8,38.25 36.62,38.25 Z M36.38,19.25 C39.9698509,19.25 42.88,22.1601491 42.88,25.75 C42.8744934,29.3375675 39.9675675,32.2444934 36.38,32.25 C32.7901491,32.25 29.88,29.3398509 29.88,25.75 C29.88,22.1601491 32.7901491,19.25 36.38,19.25 Z M36.38,22.25 C34.4470034,22.25 32.88,23.8170034 32.88,25.75 C32.88,27.6829966 34.4470034,29.25 36.38,29.25 C38.3129966,29.25 39.88,27.6829966 39.88,25.75 C39.88,23.8170034 38.3129966,22.25 36.38,22.25 Z M25.38,1.24999995 C30.0744204,1.24999995 33.88,5.05557958 33.88,9.74999995 C33.8744896,14.442136 30.072136,18.2444895 25.38,18.25 C20.6855796,18.25 16.88,14.4444203 16.88,9.74999995 C16.88,5.05557958 20.6855796,1.24999995 25.38,1.24999995 Z M25.38,4.24999996 C22.3424339,4.24999996 19.88,6.71243384 19.88,9.74999996 C19.88,12.7875661 22.3424339,15.25 25.38,15.25 C28.4175661,15.25 30.88,12.7875661 30.88,9.74999996 C30.8744963,6.71471647 28.4152835,4.25550366 25.38,4.24999996 Z" id="coverage-family-one-parent-60" fill="#000000"></path>
    </g>
</svg>