<?xml version="1.0" encoding="UTF-8"?>
<svg width="60px" height="60px" viewBox="0 0 60 60" version="1.1" 
    xmlns="http://www.w3.org/2000/svg" 
    xmlns:xlink="http://www.w3.org/1999/xlink">
    <!-- Generator: Sketch 61 (89581) - https://sketch.com -->

    <desc>Created with Sketch.</desc>
    <g id="Icons/60/coverage-shield" stroke="none" stroke-width="1" fill="none" fill-rule="evenodd">
        <path class="cls-1" d="M30.07,-4.99974426e-08 C30.5195481,-4.99974426e-08 30.9452862,0.202103939 31.23,0.549999951 C36.88,7.47999996 46.39,12.18 54.88,12.18 C55.6336229,12.1889903 56.2652202,12.7523068 56.36,13.5 C56.6061404,15.5105266 56.7263748,17.5344724 56.7202408,19.56 C56.7202408,36.18 46.53,51.97 30.72,59.79 C30.2991935,59.9898691 29.8108065,59.9898691 29.39,59.79 C13.6,51.97 3.38999996,36.18 3.38999996,19.56 C3.39451891,17.5341908 3.52141671,15.5105047 3.76999996,13.5 C3.86940385,12.7507449 4.50422579,12.1883523 5.25999996,12.18 C13.75,12.16 23.25,7.47999996 28.9,0.549999951 C29.1887135,0.201681543 29.6175829,-4.99974426e-08 30.07,-4.99974426e-08 Z M30.07,3.78999996 C23.9435196,10.3741433 15.5744585,14.426681 6.60999996,15.15 C6.46314179,16.6154093 6.38999914,18.0872503 6.38999914,19.56 C6.38999914,34.81 15.66,49.33 30.07,56.76 C44.48,49.33 53.75,34.81 53.75,19.56 C53.75,18.15 53.67,16.65 53.53,15.15 C44.5655415,14.426681 36.1964804,10.3741433 30.07,3.78999996 Z M30.07,18.69 C30.8984271,18.69 31.57,19.3615729 31.57,20.19 L31.57,20.19 L31.57,27.91 L39.29,27.91 C40.1184271,27.91 40.79,28.5815729 40.79,29.41 C40.79,30.2384271 40.1184271,30.91 39.29,30.91 L39.29,30.91 L31.57,30.91 L31.57,38.63 C31.57,39.4584271 30.8984271,40.13 30.07,40.13 C29.2415729,40.13 28.57,39.4584271 28.57,38.63 L28.57,38.63 L28.57,30.91 L20.85,30.91 C20.0215729,30.91 19.35,30.2384271 19.35,29.41 C19.35,28.5815729 20.0215729,27.91 20.85,27.91 L20.85,27.91 L28.57,27.91 L28.57,20.19 C28.57,19.3615729 29.2415729,18.69 30.07,18.69 Z" id="coverage-shield-60" fill="#000000"></path>
    </g>
</svg>