<?xml version="1.0" encoding="UTF-8"?>
<svg width="60px" height="60px" viewBox="0 0 60 60" version="1.1" 
    xmlns="http://www.w3.org/2000/svg" 
    xmlns:xlink="http://www.w3.org/1999/xlink">
    <!-- Generator: Sketch 61 (89581) - https://sketch.com -->

    <desc>Created with Sketch.</desc>
    <g id="Icons/60/coverage-family" stroke="none" stroke-width="1" fill="none" fill-rule="evenodd">
        <path class="cls-1" d="M58.86,41.81 L58.86,43.33 C58.86,44.89 58.25,47.51 54.4,48.57 L54.4,55.87 C54.4,56.6984272 53.7284272,57.37 52.9,57.37 L43.35,57.37 C42.5215729,57.37 41.85,56.6984272 41.85,55.87 L41.85,48.57 C38,47.51 37.39,44.89 37.39,43.33 L37.39,41.8 C37.39,35.8952381 42.7555228,35.2688335 47.8726162,35.2504353 L48.12,35.25 C53.31,35.25 58.86,35.76 58.86,41.81 Z M34.1,22.3 C34.9264412,22.2769725 35.6216877,22.9146508 35.67,23.74 C35.6862352,24.1379095 35.5435708,24.5259427 35.2734522,24.8185712 C35.0033335,25.1111998 34.627935,25.2844014 34.23,25.3 C25.95,25.64 24.39,27.71 24.39,31.42 L24.3909956,33.8953947 C24.4075899,34.9629975 24.7007547,37.5192453 29.88,38.34 C30.606057,38.4576852 31.1396687,39.0844673 31.14,39.82 L31.14,54.25 L36.14,54.25 C36.9684271,54.25 37.64,54.9215729 37.64,55.75 C37.64,56.5784272 36.9684271,57.25 36.14,57.25 L29.64,57.25 C28.8115729,57.25 28.14,56.5784272 28.14,55.75 L28.14,41.06 C22.4101887,39.7060378 21.4260947,36.0706657 21.3909989,33.8467128 L21.39,31.41 L21.39,31.41 C21.39,23.87 27.5,22.58 34.1,22.3 Z M15.88,22.25 C16.7084271,22.25 17.38,22.9215729 17.38,23.75 C17.38,24.5784271 16.7084271,25.25 15.88,25.25 C5.31999996,25.25 3.38999995,27.33 3.38999995,31.42 L3.3909956,33.8953947 C3.40758984,34.9629975 3.70075467,37.5192453 8.87999996,38.34 C9.60605692,38.4576852 10.1396687,39.0844673 10.14,39.82 L10.14,54.25 L20.62,54.25 L20.62,47.82 C20.62,46.9915729 21.2915729,46.32 22.12,46.32 C22.9484271,46.32 23.62,46.9915729 23.62,47.82 L23.62,55.75 C23.62,56.5784272 22.9484271,57.25 22.12,57.25 L8.63999996,57.25 C7.81157284,57.25 7.13999996,56.5784272 7.13999996,55.75 L7.13999996,41.06 C1.41018863,39.7060378 0.426094646,36.0706657 0.390998829,33.8467128 L0.389999951,31.41 L0.389999951,31.41 C0.389999951,22.96 8.38999995,22.25 15.88,22.25 Z M48.12,38.25 C41.0596667,38.25 40.410175,39.6810778 40.3904865,41.7065041 L40.3905952,43.4342902 C40.4004163,44.0516653 40.5722857,45.3614286 43.58,45.88 C44.3100301,45.9932767 44.8488859,46.6212346 44.85,47.36 L44.9,54.37 L51.4,54.37 L51.4,47.37 C51.4011141,46.6312346 51.9399699,46.0032767 52.67,45.89 C55.86,45.38 55.86,43.89 55.86,43.34 L55.86,41.82 C55.86,39.73 55.3,38.25 48.12,38.25 Z M50.3674423,19.744783 C52.7963259,20.7508595 54.38,23.1209954 54.38,25.75 C54.3744934,29.3375675 51.4675675,32.2444934 47.88,32.25 C45.2509954,32.25 42.8808596,30.6663258 41.8747831,28.2374423 C40.8687066,25.8085588 41.424819,23.0127929 43.2838059,21.1538059 C45.1427929,19.2948189 47.9385588,18.7387065 50.3674423,19.744783 Z M47.88,22.25 C45.9470034,22.25 44.38,23.8170034 44.38,25.75 C44.38,27.6829966 45.9470034,29.25 47.88,29.25 C49.8129967,29.25 51.38,27.6829966 51.38,25.75 C51.38,23.8170034 49.8129967,22.25 47.88,22.25 Z M36.88,1.24999995 C41.5744204,1.24999995 45.38,5.05557958 45.38,9.74999995 C45.3744896,14.442136 41.572136,18.2444895 36.88,18.25 C32.1855796,18.25 28.38,14.4444203 28.38,9.74999995 C28.38,5.05557958 32.1855796,1.24999995 36.88,1.24999995 Z M15.88,1.24999995 C20.5744204,1.24999995 24.38,5.05557958 24.38,9.74999995 C24.3744895,14.442136 20.572136,18.2444895 15.88,18.25 C11.1855796,18.25 7.37999996,14.4444203 7.37999996,9.74999995 C7.37999996,5.05557958 11.1855796,1.24999995 15.88,1.24999995 Z M36.88,4.24999996 C33.8424339,4.24999996 31.38,6.71243384 31.38,9.74999996 C31.38,12.7875661 33.8424339,15.25 36.88,15.25 C39.9175661,15.25 42.38,12.7875661 42.38,9.74999996 C42.3744963,6.71471647 39.9152835,4.25550366 36.88,4.24999996 Z M15.88,4.24999996 C12.8424338,4.24999996 10.38,6.71243384 10.38,9.74999996 C10.38,12.7875661 12.8424338,15.25 15.88,15.25 C18.9175661,15.25 21.38,12.7875661 21.38,9.74999996 C21.3744963,6.71471647 18.9152835,4.25550366 15.88,4.24999996 Z" id="coverage-family-60" fill="#000000"></path>
    </g>
</svg>