<?xml version="1.0" encoding="UTF-8"?>
<svg width="60px" height="60px" viewBox="0 0 60 60" version="1.1" 
    xmlns="http://www.w3.org/2000/svg" 
    xmlns:xlink="http://www.w3.org/1999/xlink">
    <!-- Generator: Sketch 61 (89581) - https://sketch.com -->

    <desc>Created with Sketch.</desc>
    <g id="Icons/60/coverage-individual" stroke="none" stroke-width="1" fill="none" fill-rule="evenodd">
        <path class="cls-1" d="M45.3764366,31.607399 L45.38,31.92 L45.38,34.22 C45.38,39.4 41.9,40.85 38,41.59 L38,57.5 C38,58.3284272 37.3284271,59 36.5,59 L23.5,59 C22.6715729,59 22,58.3284272 22,57.5 L22,41.59 C16.78,40.67 14.62,39.47 14.62,34.22 L14.62,31.91 C14.62,23.2851807 22.6431209,22.0783321 29.7407594,22.0505034 L30,22.05 C37.073735,22.05 45.1820816,23.1529351 45.3764366,31.607399 Z M30,25.05 C19.73,25.05 17.62,27.8 17.62,31.92 L17.62,34.22 C17.62,37.46 17.85,37.91 23.73,38.84 C24.4600301,38.9532767 24.9988859,39.5812346 25,40.32 L25,56 L35,56 L35,40.32 C35.0011141,39.5812346 35.5399699,38.9532767 36.27,38.84 C41.12,38.07 42.38,37.12 42.38,34.22 L42.38,31.92 C42.38,27.8 40.27,25.05 30,25.05 Z M33.389742,1.24575854 C36.7129352,2.62117363 38.88,5.86342108 38.88,9.45999997 C38.88,14.3659088 34.9059057,18.3444815 30,18.3500056 C26.4034234,18.3540456 23.158739,16.1906336 21.7795845,12.8689905 C20.4004301,9.54734743 21.1585504,5.72196089 23.7002842,3.17736481 C26.2420179,0.63276874 30.0665488,-0.129656564 33.389742,1.24575854 Z M30,3.57999142 C27.6159022,3.57595568 25.4644957,5.0095237 24.5502718,7.2113714 C23.6360478,9.4132191 24.1393354,11.9490363 25.8251495,13.6348504 C27.5109637,15.3206646 30.0467809,15.8239521 32.2486286,14.9097282 C34.4504763,13.9955043 35.8840443,11.8440978 35.8800085,9.45999997 C35.8744951,6.21484858 33.2451514,3.58550489 30,3.57999142 Z" id="coverage-individual-60" fill="#000000"></path>
    </g>
</svg>