<?xml version="1.0" encoding="UTF-8"?>
<svg width="60px" height="60px" viewBox="0 0 60 60" version="1.1" 
    xmlns="http://www.w3.org/2000/svg" 
    xmlns:xlink="http://www.w3.org/1999/xlink">
    <!-- Generator: Sketch 61 (89581) - https://sketch.com -->

    <desc>Created with Sketch.</desc>
    <g id="Icons/60/coverage-individual-spouse" stroke="none" stroke-width="1" fill="none" fill-rule="evenodd">
        <path class="cls-1" d="M55.3764367,31.607399 L55.38,31.92 L55.38,34.22 C55.38,39.4 51.9,40.85 48,41.59 L48,57.5 C48,58.3284272 47.3284272,59 46.5,59 L33.5,59 C32.6715729,59 32,58.3284272 32,57.5 L32,41.59 C26.78,40.67 24.62,39.47 24.62,34.22 L24.62,31.91 C24.62,23.2851807 32.6431209,22.0783321 39.7407595,22.0505034 L40,22.05 C47.073735,22.05 55.1820816,23.1529351 55.3764367,31.607399 Z M19.51,22.05 C20.3384271,22.05 21.01,22.7215729 21.01,23.55 C21.01,24.3784271 20.3384271,25.05 19.51,25.05 C9.44999997,25.05 7.38999996,27.8 7.38999996,31.92 L7.38999996,34.22 C7.38999996,37.53 7.57999996,37.93 13.3,38.85 C14.0282563,38.9637686 14.563886,39.592921 14.56,40.33 L14.56,56 L24.46,56 L24.46,47.82 C24.46,46.9915729 25.1315729,46.32 25.96,46.32 C26.7884271,46.32 27.46,46.9915729 27.46,47.82 L27.46,57.5 C27.4550737,58.3109265 26.8104972,58.9731626 26,59.0000028 L13.05,59.0000028 C12.6569872,59.000754 12.2795927,58.8462019 12,58.57 C11.7198416,58.284075 11.5620263,57.9002971 11.56,57.5 L11.56,41.6 C6.47999996,40.68 4.38999996,39.47 4.38999996,34.22 L4.38999996,31.91 C4.38999996,23.18 12.47,22.05 19.51,22.05 Z M40,25.05 C29.73,25.05 27.62,27.8 27.62,31.92 L27.62,34.22 C27.62,37.46 27.85,37.91 33.73,38.84 C34.4600301,38.9532767 34.9988859,39.5812346 35,40.32 L35,56 L45,56 L45,40.32 C45.0011141,39.5812346 45.5399699,38.9532767 46.27,38.84 C51.12,38.07 52.38,37.12 52.38,34.22 L52.38,31.92 C52.38,27.8 50.27,25.05 40,25.05 Z M43.389742,1.24575854 C46.7129352,2.62117363 48.88,5.86342108 48.88,9.45999997 C48.88,14.3659088 44.9059058,18.3444815 40,18.3500056 C36.4034234,18.3540456 33.158739,16.1906336 31.7795845,12.8689905 C30.4004301,9.54734743 31.1585504,5.72196089 33.7002842,3.17736481 C36.242018,0.63276874 40.0665488,-0.129656564 43.389742,1.24575854 Z M22.889742,1.24575854 C26.2129352,2.62117363 28.38,5.86342108 28.38,9.45999997 C28.38,14.3659088 24.4059057,18.3444815 19.5,18.3500056 C15.9034234,18.3540456 12.658739,16.1906336 11.2795845,12.8689905 C9.90043006,9.54734743 10.6585504,5.72196089 13.2002842,3.17736481 C15.7420179,0.63276874 19.5665488,-0.129656564 22.889742,1.24575854 Z M40,3.57999142 C37.6159022,3.57595568 35.4644957,5.0095237 34.5502718,7.2113714 C33.6360479,9.4132191 34.1393354,11.9490363 35.8251495,13.6348504 C37.5109637,15.3206646 40.0467809,15.8239521 42.2486286,14.9097282 C44.4504763,13.9955043 45.8840443,11.8440978 45.8800086,9.45999997 C45.8744951,6.21484858 43.2451514,3.58550489 40,3.57999142 Z M19.5,3.57999142 C17.1159022,3.57595568 14.9644957,5.0095237 14.0502718,7.2113714 C13.1360478,9.4132191 13.6393354,11.9490363 15.3251495,13.6348504 C17.0109637,15.3206646 19.5467809,15.8239521 21.7486286,14.9097282 C23.9504763,13.9955043 25.3840443,11.8440978 25.3800085,9.45999997 C25.3744951,6.21484858 22.7451514,3.58550489 19.5,3.57999142 Z" id="coverage-individual-spouse-60" fill="#000000"></path>
    </g>
</svg>