<?xml version="1.0" encoding="UTF-8"?>
<svg width="60px" height="60px" viewBox="0 0 60 60" version="1.1" 
    xmlns="http://www.w3.org/2000/svg" 
    xmlns:xlink="http://www.w3.org/1999/xlink">
    <!-- Generator: Sketch 61.2 (89653) - https://sketch.com -->
    <desc>Created with Sketch.</desc>
    <g id="Icons/60/Ellipsis" stroke="none" stroke-width="1" fill="none" fill-rule="evenodd">
        <g id="Elli" transform="translate(6.000000, 24.000000)" fill="#000000">
            <path class="cls-1" d="M12,6 C12,9.312 9.312,12 6,12 C2.685,12 0,9.312 0,6 C0,2.685 2.685,0 6,0 C9.312,0 12,2.685 12,6" id="Fill-29"></path>
            <path class="cls-1" d="M30,6 C30,9.312 27.312,12 24,12 C20.685,12 18,9.312 18,6 C18,2.685 20.685,0 24,0 C27.312,0 30,2.685 30,6" id="Fill-31"></path>
            <path class="cls-1" d="M48,6 C48,9.312 45.312,12 42,12 C38.685,12 36,9.312 36,6 C36,2.685 38.685,0 42,0 C45.312,0 48,2.685 48,6" id="Fill-33"></path>
        </g>
    </g>
</svg>