<?xml version="1.0" encoding="UTF-8"?>
<svg width="60px" height="60px" viewBox="0 0 60 60" version="1.1" 
    xmlns="http://www.w3.org/2000/svg" 
    xmlns:xlink="http://www.w3.org/1999/xlink">
    <!-- Generator: Sketch 61 (89581) - https://sketch.com -->

    <desc>Created with Sketch.</desc>
    <g id="Icons/60/email" stroke="none" stroke-width="1" fill="none" fill-rule="evenodd">
        <path class="cls-1" d="M57,9.50999997 L3.04999995,9.50999997 C1.3931457,9.50999997 0.0499999501,10.8531457 0.0499999501,12.51 L0.0499999501,49.34 C0.0499999501,50.9968543 1.3931457,52.34 3.04999995,52.34 L57,52.34 C58.6568543,52.34 60,50.9968543 60,49.34 L60,12.51 C60,10.8531457 58.6568543,9.50999997 57,9.50999997 Z M46.42,37.51 C45.8018022,37.0833518 44.9633431,37.1797337 44.4580779,37.7355254 C43.9528128,38.291317 43.9365396,39.1351407 44.42,39.71 L54.8,49.35 L5.28999996,49.35 L15.67,39.7 C16.1506217,39.3682997 16.3950465,38.7878142 16.2964566,38.2122255 C16.1978668,37.6366368 15.774186,37.170588 15.21057,37.0177502 C14.6469541,36.8649125 14.0458693,37.0530721 13.67,37.5 L3.04999996,47.33 L3.04999996,14.33 L3.35999996,14.64 L26.21,34.93 C28.3999141,36.795471 31.6200859,36.795471 33.81,34.93 L56.66,14.62 C56.78,14.51 56.87,14.41 56.97,14.31 L56.97,47.31 L46.42,37.51 Z M5.49999996,12.51 L54.5,12.51 L31.82,32.69 C30.7696729,33.5586765 29.2503271,33.5586765 28.2,32.69 L5.49999996,12.51 Z" id="email-60" fill="#000000"></path>
    </g>
</svg>