<?xml version="1.0" encoding="UTF-8"?>
<svg width="60px" height="60px" viewBox="0 0 60 60" version="1.1" 
    xmlns="http://www.w3.org/2000/svg" 
    xmlns:xlink="http://www.w3.org/1999/xlink">
    <!-- Generator: Sketch 61 (89581) - https://sketch.com -->

    <desc>Created with Sketch.</desc>
    <g id="Icons/60/file-dollar" stroke="none" stroke-width="1" fill="none" fill-rule="evenodd">
        <path class="cls-1" d="M40.32,-4.99980821e-08 C41.6165395,0.0535546784 42.8236865,0.67541827 43.62,1.69999995 L43.62,1.69999995 L51.32,9.41999997 C52.342952,10.2197647 52.9583207,11.4321875 53,12.73 L53,12.73 L53,56.5 C53,58.4329967 51.4329967,60 49.5,60 L49.5,60 L10.5,60 C8.57478697,60 7.01100118,58.4451816 6.99994274,56.52 L6.99994274,56.52 L6.99994274,3.51999996 C6.99467577,2.58828182 7.36107295,1.69289647 8.01802824,1.03218715 C8.67498352,0.371477842 9.56826662,-4.99980821e-08 10.5,-4.99980821e-08 L10.5,-4.99980821e-08 Z M37.5,2.99999996 L10.5,2.99999996 C10.2260915,3.00532006 10.0053201,3.2260915 9.99999997,3.49999996 L9.99999997,3.49999996 L9.99999997,56.5 C10.0053201,56.7739085 10.2260915,56.9946799 10.5,57 L10.5,57 L49.5,57 C49.7664878,56.995233 49.9843644,56.7860714 50,56.52 L50,56.52 L50,15.63 L40.27,15 C39.1014694,14.8885735 38.1886804,13.9418202 38.12,12.77 L38.12,12.77 L37.5,2.99999996 Z M31.67,13.66 L31.67,18.37 C34.1362019,18.7630258 36.4337424,19.8683478 38.28,21.55 L38.28,21.55 L37.28,22.62 L36.23,23.69 C34.4987096,22.1652267 32.286283,21.2979555 29.98,21.24 C26.93,21.24 25.31,23.4 25.31,24.97 C25.31,27.45 26.96,28.12 30.75,29.12 C34,30 38.44,31.12 38.44,36.18 C38.44,40.18 35.84,42.9 31.72,43.36 L31.72,43.36 L31.72,47.92 L28.72,47.92 L28.72,43.31 C25.6738992,42.8114594 22.8329532,41.4551591 20.53,39.4 L20.53,39.4 L22.6,37.21 C22.63,37.23 26.07,40.42 30.44,40.42 C33.62,40.42 35.44,38.87 35.44,36.16 C35.44,33.68 33.78,33 30,32 C26.75,31.18 22.31,30 22.31,25 C22.4987737,21.5140837 25.1970049,18.6843349 28.67,18.33 L28.67,18.33 L28.67,13.66 L31.67,13.66 Z M40.42,2.99999996 L41,12 L49.99,12.55 C49.95,12.34 49.8,12.14 49.21,11.55 L49.21,11.55 L41.42,3.77999996 C40.88,3.18999996 40.68,2.99999996 40.42,2.99999996 L40.42,2.99999996 Z" id="file-dollar-60" fill="#000000"></path>
    </g>
</svg>