<svg width="60" height="60" viewBox="0 0 60 60" fill="none" xmlns="http://www.w3.org/2000/svg">
<path fill-rule="evenodd" clip-rule="evenodd" d="M43.62 1.70002L51.33 9.43002L51.3441 9.44412C52.1207 10.2206 53 11.0999 53 12.73V56.52C53 58.45 51.43 60.02 49.5 60.02H10.5C8.57 60.02 7 58.45 7 56.52V3.52002C7 1.59002 8.57 0.0200195 10.5 0.0200195H40.32C41.96 0.0200195 42.88 0.95002 43.62 1.70002ZM49.21 11.56L41.49 3.81002C40.9 3.21002 40.71 3.06002 40.45 3.03002L41.03 12.03L49.99 12.61C49.97 12.34 49.81 12.15 49.21 11.56ZM49.5 57.02C49.77 57.02 50 56.79 50 56.52V15.61L40.27 14.98C39.11 14.91 38.14 13.94 38.07 12.79L37.45 3.02002H10.5C10.23 3.02002 10 3.25002 10 3.52002V56.52C10 56.79 10.23 57.02 10.5 57.02H49.5ZM18 26.5H42C42.83 26.5 43.5 25.83 43.5 25C43.5 24.17 42.83 23.5 42 23.5H18C17.17 23.5 16.5 24.17 16.5 25C16.5 25.83 17.17 26.5 18 26.5ZM42 37.5H18C17.17 37.5 16.5 36.83 16.5 36C16.5 35.17 17.17 34.5 18 34.5H42C42.83 34.5 43.5 35.17 43.5 36C43.5 36.83 42.83 37.5 42 37.5ZM18 48.5H42C42.83 48.5 43.5 47.83 43.5 47C43.5 46.17 42.83 45.5 42 45.5H18C17.17 45.5 16.5 46.17 16.5 47C16.5 47.83 17.17 48.5 18 48.5Z" fill="black"/>
</svg>
