<?xml version="1.0" encoding="UTF-8"?>
<svg width="60px" height="60px" viewBox="0 0 60 60" version="1.1" 
    xmlns="http://www.w3.org/2000/svg" 
    xmlns:xlink="http://www.w3.org/1999/xlink">
    <!-- Generator: Sketch 61 (89581) - https://sketch.com -->

    <desc>Created with Sketch.</desc>
    <g id="Icons/60/folder" stroke="none" stroke-width="1" fill="none" fill-rule="evenodd">
        <path class="cls-1" d="M1.77049176,53.8622951 C2.29028535,54.5042586 3.07919251,54.8678103 3.90491798,54.8459017 L52.347541,54.8459017 C53.9350743,54.8194058 55.2823057,53.6740532 55.5639345,52.1114754 L59.7836066,26.252459 C59.92114,25.4511808 59.6949909,24.6302548 59.1665267,24.012446 C58.6380625,23.3946371 57.8620917,23.0440201 57.0491804,23.0557377 L55.337705,23.0557377 L55.337705,13.8885246 C55.337705,11.9546226 53.7699676,10.3868852 51.8360656,10.3868852 L27.757377,10.3868852 C25.6229508,10.3868852 25.3377049,9.58032783 24.8065574,8.11475406 C24.2754098,6.64918029 23.5278688,4.57377045 20.5180328,4.57377045 L4.40655733,4.57377045 C2.47489786,4.57917372 0.910321259,6.14375032 0.904917984,8.0754098 L0.904917984,51.3540984 C0.906592935,51.9821907 1.08006777,52.5978563 1.40655733,53.1344263 C1.48677173,53.3955099 1.60975351,53.6414734 1.77049176,53.8622951 Z M52.9180328,50.2819672 C52.6076358,50.5562315 52.4287703,50.9497355 52.4262295,51.3639345 C52.4262295,51.6681438 52.1796192,51.9147541 51.8754099,51.9147541 L4.40655733,51.9147541 L4.30819668,51.9147541 L11.1245901,26.4098361 C11.2138083,26.2075736 11.3984953,26.0635177 11.6163934,26.0262295 L56.8622951,26.0262295 L52.9180328,50.2819672 Z M4.40655733,7.52459013 L20.5180328,7.52459013 C21.3934426,7.52459013 21.5016393,7.72131144 22.0327869,9.11803275 C22.6032787,10.6918032 23.557377,13.3377049 27.757377,13.3377049 L51.8360656,13.3377049 C52.1380721,13.3429584 52.3816318,13.5865181 52.3868853,13.8885246 L52.3868853,23.0557377 L11.6163934,23.0557377 C10.0603762,23.0886203 8.70601802,24.1282894 8.27213111,25.6229508 L3.85573766,42.1573771 L3.85573766,8.0754098 C3.86099113,7.77340332 4.10455085,7.5298436 4.40655733,7.52459013 Z" id="folder-60" fill="#000000"></path>
    </g>
</svg>