<?xml version="1.0" encoding="UTF-8"?>
<svg width="60px" height="60px" viewBox="0 0 60 60" version="1.1" 
    xmlns="http://www.w3.org/2000/svg" 
    xmlns:xlink="http://www.w3.org/1999/xlink">
    <!-- Generator: Sketch 61 (89581) - https://sketch.com -->

    <desc>Created with Sketch.</desc>
    <g id="Icons/60/heart-plus" stroke="none" stroke-width="1" fill="none" fill-rule="evenodd">
        <path class="cls-1" d="M41.71,1.20999995 C47.1713909,1.06127232 52.4144565,3.35648849 56.01,7.46999996 C58.55,10.47 61.2000001,16.1 59.39,25.47 C58,32.56 52.56,38.63 47.74,44 L47.74,44 L46.36,45.53 C42.185404,50.3213628 37.6882611,54.8218468 32.9,59 C31.3229548,60.2455949 29.0970453,60.2455949 27.52,59 C22.6956621,54.877598 18.1584425,50.4305883 13.94,45.69 L13.94,45.69 L12.61,44.24 C7.71999996,38.92 2.15999995,32.88 0.719999951,25.77 C-1.17000005,16.42 1.42999995,10.78 3.93999996,7.68999996 C7.49894113,3.53865391 12.733385,1.20407728 18.2,1.32999995 L18.2,1.32999995 L18.3,1.32999995 C23.1602422,1.17484778 27.6905054,3.78071716 30,8.05999996 C32.2817812,3.73435429 36.8211802,1.07894154 41.71,1.20999995 Z M53.74,9.37999997 C50.7096588,5.96090043 46.3052396,4.08168155 41.74,4.25999996 C37.3665049,4.0879874 33.4102012,6.83984363 32.05,11 C31.61,12.73 30.61,13 30.05,13 C29.49,13 28.48,12.74 28,11 C26.6414945,6.83862656 22.6617119,4.10483147 18.29,4.32999996 L18.29,4.32999996 L18.2,4.32999996 C13.6378376,4.20540597 9.25996529,6.13196336 6.26999996,9.57999997 C3.24999996,13.29 2.34999995,18.68 3.67999996,25.25 C4.95999996,31.5 10.21,37.25 14.84,42.25 L14.84,42.25 L16.18,43.71 C20.3090881,48.3270302 24.7351651,52.6695963 29.43,56.71 C29.9032334,57.0338454 30.5267666,57.0338454 31,56.71 C35.656178,52.6075898 40.0388773,48.2048477 44.12,43.53 L44.12,43.53 L45.51,41.99 C50.07,36.9 55.24,31.17 56.45,24.9 C57.71,18.39 56.76,13 53.74,9.37999997 Z M30,18.92 C30.8284271,18.92 31.5,19.5915729 31.5,20.42 L31.5,20.42 L31.5,27.92 L39,27.92 C39.8284271,27.92 40.5,28.5915729 40.5,29.42 C40.5,30.2484271 39.8284271,30.92 39,30.92 L39,30.92 L31.5,30.92 L31.5,38.42 C31.5,39.2484271 30.8284271,39.92 30,39.92 C29.1715729,39.92 28.5,39.2484271 28.5,38.42 L28.5,38.42 L28.5,30.92 L21,30.92 C20.1715729,30.92 19.5,30.2484271 19.5,29.42 C19.5,28.5915729 20.1715729,27.92 21,27.92 L21,27.92 L28.5,27.92 L28.5,20.42 C28.5,19.5915729 29.1715729,18.92 30,18.92 Z" id="heart-plus-60" fill="#000000"></path>
    </g>
</svg>