<?xml version="1.0" encoding="UTF-8"?>
<svg width="60px" height="60px" viewBox="0 0 60 60" version="1.1" 
    xmlns="http://www.w3.org/2000/svg" 
    xmlns:xlink="http://www.w3.org/1999/xlink">
    <!-- Generator: Sketch 61 (89581) - https://sketch.com -->

    <desc>Created with Sketch.</desc>
    <g id="Icons/60/help" stroke="none" stroke-width="1" fill="none" fill-rule="evenodd">
        <path class="cls-1" d="M30,1.49999995 C45.7401154,1.49999995 58.5,14.2598846 58.5,30 C58.4834648,45.7332612 45.7332612,58.4834648 30,58.5 C14.2598846,58.5 1.49999995,45.7401154 1.49999995,30 C1.49999995,14.2598846 14.2598846,1.49999995 30,1.49999995 Z M30,4.49999996 C15.9167389,4.49999996 4.49999996,15.9167389 4.49999996,30 C4.49999996,44.0832611 15.9167389,55.5 30,55.5 C44.0832611,55.5 55.5,44.0832611 55.5,30 C55.4834687,15.923592 44.076408,4.51653128 30,4.49999996 Z M30.6790616,40.9632118 C31.493478,41.3093024 32.0161639,42.1152449 32,43 C31.9492828,44.1547066 31.0247066,45.0792828 29.87,45.13 C28.9852449,45.146164 28.1793024,44.623478 27.8332118,43.8090616 C27.4871212,42.9946451 27.6702196,42.0516611 28.2959403,41.4259404 C28.921661,40.8002196 29.8646451,40.6171213 30.6790616,40.9632118 Z M30.53,14.3 C36.27,14.3 39.7,18.19 39.7,21.94 C39.7,26.26 37.46,27.94 35.3,29.56 C33.14,31.18 31.16,32.66 31.16,36.18 L31.16,36.57 L28.16,36.57 L28.16,36.14 C28.16,31.14 31.37,28.71 33.5,27.14 C35.63,25.57 36.7,24.74 36.7,21.92 C36.7,19.64 34.39,17.28 30.53,17.28 C27.5971713,17.0696215 24.9003824,18.8908832 24,21.69 L21.12,21 C22.3463479,16.8710619 26.2270735,14.1079522 30.53,14.3 Z" id="help-60" fill="#000000"></path>
    </g>
</svg>