<?xml version="1.0" encoding="UTF-8"?>
<svg width="60px" height="60px" viewBox="0 0 60 60" version="1.1" 
    xmlns="http://www.w3.org/2000/svg" 
    xmlns:xlink="http://www.w3.org/1999/xlink">
    <!-- Generator: Sketch 61 (89581) - https://sketch.com -->

    <desc>Created with Sketch.</desc>
    <g id="Icons/60/home" stroke="none" stroke-width="1" fill="none" fill-rule="evenodd">
        <path class="cls-1" d="M2.46885241,30.1967213 L7.70163931,25.7901639 L7.70163931,54.5016394 C7.70163931,55.3164857 8.36220279,55.9770492 9.17704915,55.9770492 L49.8393443,55.9770492 C50.6541906,55.9770492 51.3147541,55.3164857 51.3147541,54.5016394 L51.3147541,25.7901639 L56.547541,30.1967213 C56.8207385,30.4305865 57.1717388,30.5534366 57.5311476,30.5409836 C58.1583703,30.5566657 58.726906,30.1739529 58.9484208,29.5869388 C59.1699355,28.9999248 58.9959712,28.3370233 58.5147541,27.9344262 L30.4918033,4.36721307 C29.9398621,3.9045745 29.1355478,3.9045745 28.5836066,4.36721307 L19.6131147,11.9311475 L19.6131147,7.504918 C19.6131147,6.69007164 18.9525513,6.02950816 18.1377049,6.02950816 L9.17704915,6.02950816 C8.36220279,6.02950816 7.70163931,6.69007164 7.70163931,7.504918 L7.70163931,21.9344262 L0.570491754,27.9344262 C-0.0387647237,28.4610841 -0.117301123,29.3773421 0.393442574,30 C0.912589959,30.6267483 1.84119369,30.7147676 2.46885241,30.1967213 Z M23.9704918,53.0262295 L23.9704918,37.2885246 L35.0459016,37.2885246 L35.0459016,53.0262295 L23.9704918,53.0262295 Z M29.5081967,7.42622947 L48.3639345,23.3114754 L48.3639345,53.0262295 L37.9967213,53.0262295 L37.9967213,35.7836066 C37.9967213,34.9687602 37.3361578,34.3081967 36.5213115,34.3081967 L22.495082,34.3081967 C21.6802356,34.3081967 21.0196721,34.9687602 21.0196721,35.7836066 L21.0196721,53.0262295 L10.652459,53.0262295 L10.652459,23.3114754 L29.5081967,7.42622947 Z M10.652459,8.98032783 L16.6327869,8.98032783 L16.6327869,14.4196721 L10.652459,19.4557377 L10.652459,8.98032783 Z" id="home-60" fill="#000000"></path>
    </g>
</svg>