<?xml version="1.0" encoding="UTF-8"?>
<svg width="60px" height="60px" viewBox="0 0 60 60" version="1.1" 
    xmlns="http://www.w3.org/2000/svg" 
    xmlns:xlink="http://www.w3.org/1999/xlink">
    <!-- Generator: Sketch 62 (91390) - https://sketch.com -->
    <desc>Created with Sketch.</desc>
    <g id="Icons/60/left" stroke="none" stroke-width="1" fill="none" fill-rule="evenodd">
        <path class="cls-1" d="M41.2358931,5.36748156 C41.2653638,5.77101853 41.1524296,6.16252032 40.9092525,6.48777047 L17.7815062,29.9999172 L40.7755662,53.3541033 C41.0813278,53.8218863 41.2121523,54.259554 41.2121493,54.6455578 C41.2121458,55.0832967 41.047056,55.4610506 40.757752,55.754899 C40.465738,56.0515001 40.0908956,56.2158836 39.7074224,56.2453192 C39.3152882,56.2754196 38.9138534,56.1643964 38.5818457,55.908181 L13.0520932,30.0000756 L38.4169393,4.23711665 C38.795902,3.913941 39.2194756,3.76386845 39.6215615,3.76386845 C40.0441386,3.76386845 40.4462472,3.92870295 40.757752,4.24510097 C41.0594666,4.61050282 41.208683,4.99489883 41.2358931,5.36748156 Z" id="Path" stroke="#000000" stroke-width="0.5" fill="#000000"></path>
    </g>
</svg>