<?xml version="1.0" encoding="UTF-8"?>
<svg width="60px" height="60px" viewBox="0 0 60 60" version="1.1" 
    xmlns="http://www.w3.org/2000/svg" 
    xmlns:xlink="http://www.w3.org/1999/xlink">
    <!-- Generator: Sketch 61 (89581) - https://sketch.com -->

    <desc>Created with Sketch.</desc>
    <g id="Icons/60/notbook" stroke="none" stroke-width="1" fill="none" fill-rule="evenodd">
        <path class="cls-1" d="M46.73,-4.99980821e-08 C48.7235125,0.00264735585 50.6341765,0.797793228 52.0409876,2.21023151 C53.4477986,3.62266979 54.2353108,5.53649276 54.2300267,7.52999996 L54.2300267,7.52999996 L54.2300267,52.5 C54.2190104,56.6375751 50.8675751,59.9890104 46.73,60 L46.73,60 L9.09999997,60 C7.44314571,60 6.09999996,58.6568543 6.09999996,57 L6.09999996,57 L6.09999996,51.7 L2.48999995,51.7 C1.66157283,51.7 0.989999952,51.0284272 0.989999952,50.2 C0.989999952,49.3715729 1.66157283,48.7 2.48999995,48.7 L2.48999995,48.7 L6.09999996,48.7 L6.09999996,42.13 L2.48999995,42.13 C1.66157283,42.13 0.989999952,41.4584271 0.989999952,40.63 C0.989999952,39.8015729 1.66157283,39.13 2.48999995,39.13 L2.48999995,39.13 L6.09999996,39.13 L6.09999996,20.85 L2.48999995,20.85 C1.66157283,20.85 0.989999952,20.1784271 0.989999952,19.35 C0.989999952,18.5215729 1.66157283,17.85 2.48999995,17.85 L2.48999995,17.85 L6.09999996,17.85 L6.09999996,11.28 L2.48999995,11.28 C1.66157283,11.28 0.989999952,10.6084271 0.989999952,9.77999997 C0.989999952,8.95157284 1.66157283,8.27999996 2.48999995,8.27999996 L2.48999995,8.27999996 L6.09999996,8.27999996 L6.09999996,2.99999995 C6.09999996,1.3431457 7.44314571,-4.99980821e-08 9.09999997,-4.99980821e-08 L9.09999997,-4.99980821e-08 Z M46.73,2.99999996 L9.09999997,2.99999996 L9.09999997,8.27999996 L10.39,8.27999996 C11.2184271,8.27999996 11.89,8.95157284 11.89,9.77999997 C11.89,10.6084271 11.2184271,11.28 10.39,11.28 L10.39,11.28 L9.09999997,11.28 L9.09999997,17.85 L10.39,17.85 C11.2184271,17.85 11.89,18.5215729 11.89,19.35 C11.89,20.1784271 11.2184271,20.85 10.39,20.85 L10.39,20.85 L9.09999997,20.85 L9.09999997,39.13 L10.39,39.13 C11.2184271,39.13 11.89,39.8015729 11.89,40.63 C11.89,41.4584271 11.2184271,42.13 10.39,42.13 L10.39,42.13 L9.09999997,42.13 L9.09999997,48.7 L10.39,48.7 C11.2184271,48.7 11.89,49.3715729 11.89,50.2 C11.89,51.0284272 11.2184271,51.7 10.39,51.7 L10.39,51.7 L9.09999997,51.7 L9.09999997,56.95 L46.73,56.95 C49.2129999,56.9445006 51.2245006,54.9329999 51.23,52.45 L51.23,52.45 L51.23,7.49999996 C51.2245006,5.01700011 49.2129999,3.00549942 46.73,2.99999996 L46.73,2.99999996 Z M41.33,15.1 C42.1584271,15.1 42.83,15.7715729 42.83,16.6 L42.83,16.6 L42.83,29.95 C42.83,30.7784271 42.1584271,31.4500002 41.33,31.4500002 L41.33,31.4500002 L20.33,31.4500002 C19.5207127,31.4504497 18.8569761,30.8088377 18.83,30 L18.83,30 L18.83,16.6 C18.83,15.7715729 19.5015729,15.1 20.33,15.1 L20.33,15.1 Z M39.83,18.1 L21.83,18.1 L21.83,28.45 L39.83,28.45 L39.83,18.1 Z" id="notbook-60" fill="#000000"></path>
    </g>
</svg>