<?xml version="1.0" encoding="UTF-8"?>
<svg width="60px" height="60px" viewBox="0 0 60 60" version="1.1" 
    xmlns="http://www.w3.org/2000/svg" 
    xmlns:xlink="http://www.w3.org/1999/xlink">
    <!-- Generator: Sketch 61 (89581) - https://sketch.com -->

    <desc>Created with Sketch.</desc>
    <g id="Icons/60/pencil-plus" stroke="none" stroke-width="1" fill="none" fill-rule="evenodd">
        <path class="cls-1" d="M48.47,57.06 C49.2984272,57.06 49.97,57.7315729 49.97,58.56 C49.97,59.3396962 49.3751119,59.9804487 48.61446,60.0531335 L48.47,60.06 L11.32,60.06 C10.4915728,60.06 9.81999997,59.3884272 9.81999997,58.56 C9.81999997,57.7803039 10.4148881,57.1395514 11.17554,57.0668666 L11.32,57.06 L48.47,57.06 Z M12.7902549,6.00577471 C14.215178,4.93535029 15.9890799,4.43330229 17.7657935,4.59986919 C19.6641862,4.7778435 21.4135051,5.70463856 22.6202917,7.16728038 L22.6202917,7.16728038 L26.8802917,12.2572804 C26.9474909,12.3375724 27.0048514,12.4228184 27.0525068,12.5115566 L44.0525148,32.9199429 C44.160506,33.0495825 44.2458507,33.1965131 44.3049557,33.3545483 L44.3049557,33.3545483 L50.3749557,49.5845483 C50.873814,50.9183984 49.4073971,52.1315587 48.1906291,51.3916322 L48.1906291,51.3916322 L33.3906291,42.3916322 C33.2494997,42.3058102 33.1235143,42.1972675 33.0177595,42.0703863 L33.0177595,42.0703863 L21.0348173,27.6965041 C20.8864984,27.6101313 20.750595,27.4966433 20.6347448,27.3567577 C20.5211762,27.2196272 20.436122,27.0682897 20.3789059,26.9099406 L15.7977595,21.4103863 C15.7263949,21.3247654 15.66619,21.2335482 15.6169817,21.1384991 L11.5418726,16.308448 L11.3447583,16.0575804 C10.2776476,14.6321687 9.77759328,12.8597044 9.94400982,11.0845946 C10.1218221,9.18793011 11.046079,7.43967158 12.5133106,6.22468809 L12.5133106,6.22468809 Z M30.399,21.217 L23.975,26.537 L35.163,39.958 L46.047,46.577 L41.585,34.645 L30.399,21.217 Z M25.51,15.349 L19.085,20.67 L22.055,24.232 L28.478,18.912 L25.51,15.349 Z M46.5,0.17999995 C47.2796961,0.17999995 47.9204487,0.774888035 47.9931335,1.53553994 L48,1.67999995 L48,7.97999995 L54.3,7.97999996 C55.1284272,7.97999996 55.8,8.65157284 55.8,9.47999996 C55.8,10.2596961 55.205112,10.9004486 54.4444601,10.9731334 L54.3,10.98 L48,10.98 L48,17.28 C48,18.1084271 47.3284272,18.78 46.5,18.78 C45.7203039,18.78 45.0795513,18.1851119 45.0068666,17.42446 L45,17.28 L45,10.98 L38.7,10.98 C37.8715729,10.98 37.2,10.3084271 37.2,9.47999996 C37.2,8.70030385 37.7948881,8.05955129 38.55554,7.98686654 L38.7,7.97999996 L45,7.97999995 L45,1.67999995 C45,0.851572827 45.6715729,0.17999995 46.5,0.17999995 Z M17.4857714,7.58677187 C16.4524682,7.4898997 15.4207488,7.78189592 14.6216484,8.38161306 L14.6216484,8.38161306 L14.421,8.53899996 L14.2485318,8.69155286 C13.5556004,9.33487133 13.1011257,10.1945233 12.9597031,11.1294095 L12.9597031,11.1294095 L12.9309125,11.3646168 C12.8340308,12.3980218 13.1251588,13.4299376 13.723673,14.230183 L13.723673,14.230183 L13.8661934,14.4124047 L17.167,18.322 L20.3646778,15.6735573 L23.594,13.005 L20.3130002,9.08464722 C19.7080661,8.35148787 18.8741795,7.85074002 17.9529872,7.65744871 L17.7209522,7.61557466 Z" id="pencil-plus-60" fill="#000000"></path>
    </g>
</svg>