<?xml version="1.0" encoding="UTF-8"?>
<svg width="60px" height="60px" viewBox="0 0 60 60" version="1.1" 
    xmlns="http://www.w3.org/2000/svg" 
    xmlns:xlink="http://www.w3.org/1999/xlink">
    <!-- Generator: Sketch 61 (89581) - https://sketch.com -->

    <desc>Created with Sketch.</desc>
    <g id="Icons/60/people-famiily-circle" stroke="none" stroke-width="1" fill="none" fill-rule="evenodd">
        <path class="cls-1" d="M30.0000004,1.99999995 L30.4630316,2.00375115 C45.7134403,2.25101329 58.0000157,14.6906667 58.0000157,30 C58.0078926,37.4493097 55.0374994,44.5926552 49.75,49.84 L49.75,49.84 L49.4056642,50.1780375 C44.2014343,55.1995351 37.2443963,58.0086804 30.0000004,58.0000201 L30.0000004,58.0000201 L29.5369692,57.9962689 C14.2865602,57.7490064 2.00000037,45.3093331 2.00000037,30 C2.00000037,14.5360271 14.5360271,1.99999995 30.0000004,1.99999995 L30.0000004,1.99999995 Z M40.32,42.93 L38.49,42.93 C32.9,42.93 30.49,43.89 29.49,45.18 C28.9662185,45.9112674 28.7150183,46.802851 28.78,47.7 L28.78,47.7 L28.78,50.84 C28.7584392,52.17551 28.8152033,53.5111353 28.95,54.84 L28.95,54.84 L31.74,54.84 L32.65,54.76 L33.09,54.76 L33.93,54.65 L34.36,54.57 L35.19,54.41 L35.6,54.32 L36.43,54.12 L36.81,54.01 L37.65,53.76 L38,53.64 C38.28,53.55 38.57,53.45 38.85,53.34 L38.85,53.34 L39.15,53.22 C39.45,53.1133334 39.74,52.9933334 40.02,52.86 L40.02,52.86 L40.28,52.75 L41.17,52.33 L41.39,52.21 C41.69,52.0633334 41.99,51.9033334 42.29,51.73 L42.29,51.73 L42.46,51.63 L43.37,51.08 L43.51,50.99 C43.82,50.8 44.12,50.59 44.42,50.38 L44.42,50.38 L44.52,50.31 L45.44,49.63 L45.5,49.57 C45.81,49.33 46.11,49.08 46.41,48.82 L46.41,48.82 L46.7144445,48.5496297 C46.9144445,48.3688889 47.11,48.1866667 47.31,48 L47.31,48 L47.26,47.95 C47.56,47.67 47.85,47.37 48.13,47.07 L48.13,47.07 L48.13,46.71 C48.1253215,46.6902736 48.1253215,46.6697264 48.13,46.65 C48.06,46.54 48.06,46.42 48.06,46.31 C48.055664,46.290235 48.055664,46.269765 48.06,46.25 C47.96828,45.8933891 47.8160733,45.555152 47.61,45.25 L47.61,45.25 L47.53,45.13 L47.36,44.95 L47.2,44.77 L47.01,44.61 C46.9372069,44.5452086 46.8603867,44.4850885 46.78,44.43 L46.78,44.43 L46.56,44.28 L46.27,44.11 L46.01,43.98 L45.65,43.82 L45.34,43.7 L44.9,43.56 L44.56,43.46 L44.03,43.34 L43.65,43.26 L43,43.15 L42.6,43.09 L41.79,43 L41.4,43 L40.32,42.93 Z M30,4.99999996 C16.1928812,4.99999996 4.99999996,16.1928812 4.99999996,30 L4.99999996,30 L5.00087996,30.352 C5.00439996,30.8192 5.02199996,31.28 5.10999996,31.76 L5.10999996,31.76 L5.10999996,32.18 C5.15999996,32.75 5.21999996,33.31 5.29999996,33.87 C5.38999996,34.42 5.49999996,34.96 5.61999996,35.49 C5.63999996,35.62 5.69999996,35.74 5.69999996,35.86 C5.82999996,36.4 5.99999996,37 6.16999996,37.52 L6.16999996,37.52 L6.29531246,37.9282813 C6.42562496,38.32625 6.56999996,38.6975 6.71999996,39.08 L6.71999996,39.08 L6.83999996,39.37 C7.04999996,39.92 7.27999996,40.42 7.51999996,40.92 L7.51999996,40.92 L7.76925922,41.4103704 C7.94111107,41.7422222 8.1233333,42.08 8.30999996,42.4 L8.30999996,42.4 L8.42999996,42.62 C8.71999996,43.07 9.02999997,43.6 9.34999997,44.07 L9.34999997,44.07 L9.34999997,40.93 C9.34999997,36 11.91,33.51 15.41,32.3 C18.3458133,31.4002941 21.411459,30.9980759 24.48,31.11 L24.48,31.11 L25.48,31.11 C26.12,31.12 26.74,31.18 27.31,31.18 L27.31,31.18 L27.43,31.18 C27.4899045,31.1752136 27.5500955,31.1752136 27.61,31.18 L27.61,31.18 L27.7751575,31.2357147 C27.9902552,31.3222145 28.1836306,31.4567834 28.34,31.63 C28.3641393,31.6684398 28.3908677,31.7051915 28.42,31.74 C28.450098,31.777603 28.4768657,31.8177546 28.5,31.86 C28.6555101,32.1187714 28.7287432,32.4186783 28.71,32.72 C28.6923337,33.11929 28.5128432,33.4941729 28.2128725,33.7582981 C27.9129018,34.0224232 27.5183144,34.1530176 27.12,34.12 L27.12,34.12 L26.7,34.12 L25.51,34.07 L24.45,34.07 C20.34,34.07 17.58,34.53 15.74,35.36 C13.07,36.55 12.33,38.49 12.33,40.93 L12.33,40.93 L12.33,47.38 C12.3261821,47.5152632 12.3060362,47.6495696 12.27,47.78 C12.6833333,48.2 13.1133333,48.6 13.56,48.98 L13.56,48.98 L13.78,49.18 C14.22,49.56 14.68,49.92 15.15,50.27 L15.15,50.27 L15.23,50.33 C15.67,50.69 16.18,51.02 16.67,51.33 L16.67,51.33 L16.81,51.42 C17.32,51.73 17.84,52.03 18.38,52.32 L18.38,52.32 L18.52,52.39 C19.6249402,52.9623383 20.7715355,53.4503934 21.95,53.85 L21.95,53.85 L22.06,53.85 C23.2948382,54.2570117 24.5583531,54.5712191 25.84,54.79 L25.84,54.79 L25.7912,54.40848 C25.74,53.9032 25.74,53.412 25.74,52.94 L25.74,52.94 L25.74,47.84 C25.7148618,46.7135097 25.9438661,45.5958322 26.41,44.57 C28.26,40.65 33.66,40.07 38.48,40.07 L42,40.07 L42.74,40.16 L43.12,40.21 L43.93,40.34 L44.39,40.43 L44.87,40.53 L45.37,40.66 C45.5059589,40.6906599 45.639616,40.730757 45.77,40.78 L45.77,40.78 L46.28,40.94 L46.6,41.06 C46.9731802,41.2043054 47.3371921,41.3712833 47.69,41.56 L47.69,41.56 L47.82,41.62 L48.29,41.92 L48.54,42.09 C48.6884615,42.1887823 48.8288973,42.2991247 48.96,42.42 L48.96,42.42 L49.19,42.62 C49.32,42.74 49.45,42.87 49.57,43 L49.57,43 L49.84,43.25 C50.1109923,43.5575821 50.3489619,43.8927505 50.55,44.25 L50.55,44.25 L50.55,44.31 C51.2653931,43.292338 51.9038331,42.2227002 52.46,41.11 L52.46,41.11 L52.7237037,40.5566667 C52.8955556,40.1855555 53.06,39.81 53.22,39.43 L53.22,39.43 L53.22,39.35 C53.44,38.8 53.65,38.24 53.83,37.67 C53.8343361,37.650235 53.8343361,37.629765 53.83,37.61 C54.01,37.05 54.17,36.48 54.31,35.91 L54.31,35.91 L54.37,35.64 C54.5033334,35.0866667 54.6133334,34.5366667 54.7,33.99 C54.6944054,33.9569014 54.6944054,33.9230986 54.7,33.89 C54.79,33.32 54.9,32.74 54.9,32.16 L54.9,32.16 L54.93,31.77 C55,31.18 55,30.6 55,30 C55,16.1928812 43.8071188,4.99999996 30,4.99999996 Z M38.48,23.1098625 C39.8095813,23.1019565 41.1174634,23.4470441 42.27,24.11 C45.5832967,26.0017721 46.9804659,30.0568684 45.5356254,33.58804 C44.0907849,37.1192116 40.2518131,39.0318494 36.5627366,38.0584783 C32.8736601,37.0851072 30.478036,33.5274573 30.9634069,29.7431275 C31.4487779,25.9587977 34.6646863,23.1208723 38.48,23.1098625 Z M38.48,26.09 C38.1671245,26.0958127 37.8555981,26.1326599 37.55,26.2 C35.4111394,26.636301 33.8794601,28.5243342 33.8935077,30.7071961 C33.9075552,32.890058 35.463407,34.7582217 37.6077058,35.166959 C39.7520045,35.5756963 41.8859915,34.4108743 42.7020536,32.3862444 C43.5181157,30.3616146 42.7883815,28.0425202 40.96,26.85 C40.2231313,26.3668818 39.3611235,26.1096698 38.48,26.11 L38.48,26.11 Z M24.47,9.60999997 C25.0710077,9.61342181 25.6703441,9.67369027 26.26,9.78999997 L26.26,9.78999997 L26.47,9.84999997 L27.11,10.01 C27.33,10.08 27.53,10.16 27.74,10.25 L27.74,10.25 L27.93,10.31 L28.59,10.63 L28.7,10.69 L29.22,11 L29.44,11.11 L29.55,11.2 C31.9364888,12.855483 33.36,15.5755288 33.36,18.48 L33.36,18.48 L33.36,18.5 C33.3489536,23.3935412 29.3769007,27.353657 24.4833484,27.3499775 C19.5897961,27.3462927 15.6237072,23.3802039 15.6200225,18.4866516 C15.6163429,13.5930993 19.5764588,9.62104638 24.47,9.60999997 Z M26.22,12.86 C24.4335735,12.2985334 22.4864645,12.6230819 20.9787326,13.7336262 C19.4710006,14.8441706 18.5835964,16.6074287 18.5899656,18.48 C18.5984604,21.2483548 20.5336736,23.6371987 23.24,24.22 C23.628156,24.3004985 24.0235853,24.3407116 24.42,24.3400093 C27.6690559,24.3400093 30.3044838,21.7090512 30.310001,18.46 C30.3111028,16.534922 29.3650301,14.7325227 27.78,13.64 L27.78,13.64 L27.71,13.58 L27.57,13.5 C27.4592522,13.4205772 27.3421955,13.3503432 27.22,13.29 L27.22,13.29 L26.9788613,13.1626263 C26.7345025,13.0417626 26.4807496,12.9405436 26.22,12.86 Z" id="people-famiily-circle-60" fill="#000000"></path>
    </g>
</svg>