<?xml version="1.0" encoding="UTF-8"?>
<svg width="60px" height="60px" viewBox="0 0 60 60" version="1.1" 
    xmlns="http://www.w3.org/2000/svg" 
    xmlns:xlink="http://www.w3.org/1999/xlink">
    <!-- Generator: Sketch 61 (89581) - https://sketch.com -->

    <desc>Created with Sketch.</desc>
    <g id="Icons/60/people-group" stroke="none" stroke-width="1" fill="none" fill-rule="evenodd">
        <path class="cls-1" d="M29.89,27.19 C38.773719,27.19 42.99,29.7459983 42.99,35.81 L42.99,35.81 L42.99,39.05 C42.99,43.1835087 41.7500485,44.5332764 37.0904491,45.4586358 L37.0904491,45.4586358 L36.974,45.481 L37.9360783,58.7616034 C37.9957161,59.5847173 37.3814516,60.2917941 36.57594,60.3639431 L36.57594,60.3639431 L36.44,60.3700001 L23.4,60.3700001 C22.5312788,60.3700001 21.844215,59.6343361 21.9034966,58.76764 L21.9034966,58.76764 L22.811,45.493 L22.4085358,45.4123159 C18.0671692,44.5076844 16.8388782,43.1609645 16.791445,39.2903545 L16.791445,39.2903545 L16.79,35.81 C16.79,29.7194599 20.9808048,27.19 29.89,27.19 Z M29.89,30.19 C22.4227917,30.19 19.79,31.7790841 19.79,35.81 L19.79,35.81 L19.7903538,39.2167994 C19.8012422,41.6168095 20.0852607,41.9931424 23.5980685,42.5970323 L23.5980685,42.5970323 L24.6383802,42.7690629 C25.40396,42.892295 25.949419,43.5787332 25.8965034,44.35236 L25.8965034,44.35236 L25.006,57.37 L34.826,57.37 L33.8839217,44.3483967 C33.8312551,43.6214981 34.3074104,42.9698024 34.9994809,42.7889826 L34.9994809,42.7889826 L35.1406811,42.7592143 C39.5455918,42.0473095 39.9618006,41.8312652 39.9884384,39.375835 L39.9884384,39.375835 L39.99,35.81 C39.99,31.9377075 37.5083761,30.3020307 30.630326,30.195587 L30.630326,30.195587 Z M14.48,17.6999588 C15.3084271,17.6999588 15.98,18.3715317 15.98,19.1999588 C15.98,19.9796549 15.3851119,20.6204075 14.62446,20.6930922 L14.48,20.6999588 L12.9979367,20.6999588 C6.51487876,20.6910398 4.18487226,22.0302361 4.10228792,25.4101245 L4.09999995,25.6 L4.10030684,28.6793612 C4.10990175,30.967654 4.36972497,31.1192847 8.32412221,31.7168381 C9.05292713,31.8269686 9.58655333,32.4473474 9.59980053,33.1711717 L9.5961068,33.3080016 L8.76199996,44.86 L10.68,44.86 C11.4596961,44.86 12.1004486,45.4548881 12.1731334,46.21554 L12.18,46.36 C12.18,47.1396961 11.5851119,47.7804487 10.82446,47.8531335 L10.68,47.86 L7.14999996,47.86 C6.32487718,47.86 5.66409578,47.1964738 5.65014615,46.3879976 L5.65389313,46.2519984 L6.50499996,34.45 L6.46548331,34.4431148 C2.36068814,33.6479884 1.15019986,32.3818435 1.10154444,28.7547417 L1.09999995,25.6 C1.09999995,20.1129085 4.8316728,17.7650274 12.6139956,17.7012573 L13,17.6999588 L14.48,17.6999588 Z M46.7479396,17.699921 C54.6818472,17.689062 58.5638115,19.9501098 58.6869722,25.3327591 L58.69,25.6 L58.69,28.52 C58.69,32.1621974 57.6164605,33.5130045 53.8543484,34.3342445 L53.289,34.45 L54.1856881,46.2463459 C54.2483686,47.0712209 53.633609,47.7814406 52.8262586,47.8539156 L52.69,47.86 L49.11,47.86 C48.2815729,47.86 47.61,47.1884272 47.61,46.36 C47.61,45.5803039 48.2048881,44.9395513 48.96554,44.8668666 L49.11,44.86 L51.071,44.86 L50.194312,33.3136541 C50.1383085,32.5766483 50.6262498,31.9164077 51.3312303,31.7434559 L51.4658778,31.7168381 L52.2242979,31.6000117 C55.2969693,31.1136182 55.651535,30.8392199 55.6865103,28.9783999 L55.69,28.52 L55.69,25.6 C55.69,22.150525 53.4562708,20.7423187 47.1069842,20.7008602 L45.3,20.6999588 C44.4715729,20.6999588 43.8,20.0283859 43.8,19.1999588 C43.8,18.4202627 44.3948881,17.7795101 45.15554,17.7068254 L45.3,17.699921 L46.7479396,17.699921 Z M29.89,7.96999996 C34.1922982,7.96999996 37.68,11.4577018 37.68,15.76 C37.68,20.0622982 34.1922982,23.55 29.89,23.55 C25.5877018,23.55 22.1,20.0622982 22.1,15.76 C22.1,11.4577018 25.5877018,7.96999996 29.89,7.96999996 Z M29.89,10.97 C27.244556,10.97 25.1,13.114556 25.1,15.76 C25.1,18.4054439 27.244556,20.55 29.89,20.55 C32.535444,20.55 34.68,18.4054439 34.68,15.76 C34.68,13.114556 32.535444,10.97 29.89,10.97 Z M13.04,0.449999951 C16.6795565,0.449999951 19.63,3.40044345 19.63,7.03999996 C19.63,10.6795565 16.6795565,13.63 13.04,13.63 C9.40044346,13.63 6.44999996,10.6795565 6.44999996,7.03999996 C6.44999996,3.40044345 9.40044346,0.449999951 13.04,0.449999951 Z M46.75,0.449999951 C50.3895565,0.449999951 53.34,3.40044345 53.34,7.03999996 C53.34,10.6795565 50.3895565,13.63 46.75,13.63 C43.1104435,13.63 40.16,10.6795565 40.16,7.03999996 C40.16,3.40044345 43.1104435,0.449999951 46.75,0.449999951 Z M13.04,3.44999996 C11.0572977,3.44999996 9.44999997,5.05729771 9.44999997,7.03999996 C9.44999997,9.02270222 11.0572977,10.63 13.04,10.63 C15.0227022,10.63 16.63,9.02270222 16.63,7.03999996 C16.63,5.05729771 15.0227022,3.44999996 13.04,3.44999996 Z M46.75,3.44999996 C44.7672978,3.44999996 43.16,5.05729771 43.16,7.03999996 C43.16,9.02270222 44.7672978,10.63 46.75,10.63 C48.7327023,10.63 50.34,9.02270222 50.34,7.03999996 C50.34,5.05729771 48.7327023,3.44999996 46.75,3.44999996 Z" id="people-group-60" fill="#000000"></path>
    </g>
</svg>