<?xml version="1.0" encoding="UTF-8"?>
<svg width="60px" height="60px" viewBox="0 0 60 60" version="1.1" 
    xmlns="http://www.w3.org/2000/svg" 
    xmlns:xlink="http://www.w3.org/1999/xlink">
    <!-- Generator: Sketch 61 (89581) - https://sketch.com -->

    <desc>Created with Sketch.</desc>
    <g id="Icons/60/percentage-arrow" stroke="none" stroke-width="1" fill="none" fill-rule="evenodd">
        <path class="cls-1" d="M35.3065295,38.2163829 C38.1524899,33.9537928 43.6138208,32.2961342 48.3489648,34.2576582 C53.0841089,36.2191822 55.7734152,41.2532262 54.7714111,46.2796716 C53.769407,51.306117 49.3553437,54.9241294 44.23,54.9200036 C41.3866981,54.9210018 38.6596914,53.7913447 36.65,51.78 C33.0231278,48.1585413 32.460569,42.478973 35.3065295,38.2163829 Z M53.74,4.77999996 C53.9287197,4.78077521 54.1154991,4.8181311 54.29,4.88999996 L54.29,4.88999996 L54.424372,4.95569825 C54.7291998,5.1231786 54.9711622,5.38803225 55.11,5.70999996 L55.11,5.70999996 L55.11,5.72999996 C55.1818689,5.90450087 55.2192248,6.09128032 55.22,6.27999996 L55.22,6.27999996 L55.22,19.4 C55.22,20.2284271 54.5484272,20.9 53.72,20.9 C52.8915729,20.9 52.22,20.2284271 52.22,19.4 L52.22,19.4 L52.22,9.89999997 L10.57,51.56 C10.2895932,51.842322 9.90791085,52.0007562 9.50999997,52.0000027 C9.11154633,51.9937673 8.73124702,51.8323194 8.44999996,51.55 C7.8705425,50.9621203 7.8705425,50.0178798 8.44999996,49.43 L8.44999996,49.43 L50.1,7.77999996 L40.6,7.77999996 C39.7715729,7.77999996 39.1,7.10842707 39.1,6.27999996 C39.1,5.45157285 39.7715729,4.77999996 40.6,4.77999996 L40.6,4.77999996 Z M48.5301755,37.7683618 C45.4661971,35.7171997 41.3800518,36.1156077 38.77,38.72 C37.3152995,40.1684258 36.4982863,42.1371757 36.4999973,44.19 C36.4991106,47.8771709 39.1025257,51.0516853 42.718523,51.7726521 C46.3345203,52.4936189 49.9563465,50.5603089 51.3696249,47.1547438 C52.7829033,43.7491787 51.5941539,39.8195239 48.5301755,37.7683618 Z M8.21999996,8.17999996 C11.2895406,5.10291513 15.9110726,4.17921183 19.9275722,5.84001337 C23.9440718,7.50081492 26.5636422,11.4186762 26.5636422,15.765 C26.5636422,20.1113238 23.9440718,24.029185 19.9275722,25.6899866 C15.9110726,27.3507881 11.2895406,26.4270848 8.21999996,23.35 C6.19180275,21.3471469 5.05021858,18.6154393 5.05021858,15.765 C5.05021858,12.9145607 6.19180275,10.182853 8.21999996,8.17999996 Z M18.7644025,8.6731581 C15.8755747,7.47685601 12.5505563,8.13868691 10.34,10.35 L10.34,10.35 L10.34,10.3 C8.86554857,11.746196 8.03479337,13.7246937 8.03479337,15.79 C8.03479337,17.8553062 8.86554857,19.833804 10.34,21.28 C12.5505563,23.491313 15.8755747,24.1531439 18.7644025,22.9568418 C21.6532304,21.7605398 23.5368707,18.9417339 23.5368707,15.815 C23.5368707,12.6882661 21.6532304,9.8694602 18.7644025,8.6731581 Z" id="percentage-arrow-60" fill="#000000"></path>
    </g>
</svg>