<?xml version="1.0" encoding="UTF-8"?>
<svg width="60px" height="60px" viewBox="0 0 60 60" version="1.1" 
    xmlns="http://www.w3.org/2000/svg" 
    xmlns:xlink="http://www.w3.org/1999/xlink">
    <!-- Generator: Sketch 62 (91390) - https://sketch.com -->
    <desc>Created with Sketch.</desc>
    <g id="Icons/60/right" stroke="none" stroke-width="1" fill="none" fill-rule="evenodd">
        <path class="cls-1" d="M42.2358931,5.36748156 C42.2653638,5.77101853 42.1524296,6.16252032 41.9092525,6.48777047 L18.7815062,29.9999172 L41.7755662,53.3541033 C42.0813278,53.8218863 42.2121523,54.259554 42.2121493,54.6455578 C42.2121458,55.0832967 42.047056,55.4610506 41.757752,55.754899 C41.465738,56.0515001 41.0908956,56.2158836 40.7074224,56.2453192 C40.3152882,56.2754196 39.9138534,56.1643964 39.5818457,55.908181 L14.0520932,30.0000756 L39.4169393,4.23711665 C39.795902,3.913941 40.2194756,3.76386845 40.6215615,3.76386845 C41.0441386,3.76386845 41.4462472,3.92870295 41.757752,4.24510097 C42.0594666,4.61050282 42.208683,4.99489883 42.2358931,5.36748156 Z" id="Path" stroke="#000000" stroke-width="0.5" fill="#000000" transform="translate(28.205568, 30.000062) scale(-1, 1) translate(-28.205568, -30.000062) "></path>
    </g>
</svg>