<?xml version="1.0" encoding="UTF-8"?>
<svg width="60px" height="60px" viewBox="0 0 60 60" version="1.1" xmlns="http://www.w3.org/2000/svg" xmlns:xlink="http://www.w3.org/1999/xlink">
    <!-- Generator: Sketch 63.1 (92452) - https://sketch.com -->
    <title>Icons/60/share</title>
    <desc>Created with Sketch.</desc>
    <g id="Icons/60/share" stroke="none" stroke-width="1" fill="none" fill-rule="evenodd">
        <path class="cls-1" d="M17.25,32 C18.0784271,32 18.75,32.6715729 18.75,33.5 C18.75,34.2796961 18.1551119,34.9204487 17.39446,34.9931334 L17.25,35 L8.49999996,35 C7.72030385,35 7.07955128,35.5948881 7.00686654,36.35554 L6.99999996,36.5 L6.99999996,52.5 C6.99999996,53.2796962 7.59488805,53.9204487 8.35553995,53.9931335 L8.49999996,54 L51.5,54 C52.2796962,54 52.9204487,53.405112 52.9931335,52.64446 L53,52.5 L53,36.5 C53,35.7203039 52.405112,35.0795513 51.64446,35.0068666 L51.5,35 L42.75,35 C41.9215729,35 41.25,34.3284271 41.25,33.5 C41.25,32.7203039 41.8448881,32.0795513 42.60554,32.0068666 L42.75,32 L51.5,32 C53.9142734,32 55.8844891,33.9012365 55.9951021,36.2881643 L56,36.5 L56,52.5 C56,54.9142734 54.0987635,56.8844891 51.7118357,56.9951021 L51.5,57 L8.49999996,57 C6.08572663,57 4.11551087,55.0987635 4.00489795,52.7118357 L3.99999996,52.5 L3.99999996,36.5 C3.99999996,34.0857267 5.90123648,32.1155109 8.28816426,32.004898 L8.49999996,32 L17.25,32 Z M30,1.49999995 C30.4615389,1.49999995 30.8743917,1.70844956 31.14955,2.03634022 L43.0606602,13.9493398 C43.6464466,14.5351262 43.6464466,15.4848737 43.0606602,16.0706601 C42.5114854,16.6198349 41.642423,16.6541584 41.0532623,16.1736304 L40.9393398,16.0706601 L31.5,6.63099995 L31.5,44.42 C31.5,45.2484272 30.8284271,45.92 30,45.92 C29.2203039,45.92 28.5795513,45.3251119 28.5068666,44.56446 L28.5,44.42 L28.5,6.63099995 L19.0606602,16.0706601 C18.5114854,16.6198349 17.642423,16.6541584 17.0532622,16.1736304 L16.9393398,16.0706601 C16.390165,15.5214854 16.3558416,14.652423 16.8363695,14.0632622 L16.9393398,13.9493398 L28.85045,2.03634022 C29.1256083,1.70844956 29.5384611,1.49999995 30,1.49999995 Z" id="Combined-Shape" fill="#000000"></path>
    </g>
</svg>