<?xml version="1.0" encoding="UTF-8"?>
<svg width="60px" height="60px" viewBox="0 0 60 60" version="1.1" 
    xmlns="http://www.w3.org/2000/svg" 
    xmlns:xlink="http://www.w3.org/1999/xlink">
    <!-- Generator: Sketch 61 (89581) - https://sketch.com -->

    <desc>Created with Sketch.</desc>
    <g id="Icons/60/user-square" stroke="none" stroke-width="1" fill="none" fill-rule="evenodd">
        <path class="cls-1" d="M49.66,4.99999996 C52.6092006,4.99999996 55,7.3907994 55,10.34 L55,10.34 L55,49.66 C55,52.6092006 52.6092006,55 49.66,55 L49.66,55 L10.34,55 C7.3907994,55 4.99999996,52.6092006 4.99999996,49.66 L4.99999996,49.66 L4.99999996,10.34 C4.99999996,7.3907994 7.3907994,4.99999996 10.34,4.99999996 L10.34,4.99999996 Z M30.19,43.5 L29.3245591,43.5048636 C18.4709037,43.6289149 13.8380949,46.1345311 13.2540315,52.0002197 L47.1259932,52.0004684 C46.5267454,45.981007 41.663859,43.5 30.19,43.5 Z M49.66,7.99999996 L10.34,7.99999996 C9.04765365,7.99999996 7.99999996,9.04765365 7.99999996,10.34 L7.99999996,10.34 L7.99999996,49.66 C7.99999996,50.9523463 9.04765365,52 10.34,52 L10.2396836,51.996345 C10.8454902,44.0082127 17.0096686,40.5806027 29.7348057,40.5014069 L30.19,40.5 C43.1993405,40.5 49.5039911,43.900929 50.1368571,51.9515493 C51.2004177,51.7312875 52,50.78902 52,49.66 L52,49.66 L52,10.34 C52,9.04765365 50.9523463,7.99999996 49.66,7.99999996 L49.66,7.99999996 Z M30,16.5 C35.7989899,16.5 40.5,21.2010101 40.5,27 C40.5,32.7989899 35.7989899,37.5 30,37.5 C24.2010101,37.5 19.5,32.7989899 19.5,27 C19.5,21.2010101 24.2010101,16.5 30,16.5 Z M30,19.5 C25.8578644,19.5 22.5,22.8578644 22.5,27 C22.5,31.1421356 25.8578644,34.5 30,34.5 C34.1421356,34.5 37.5,31.1421356 37.5,27 C37.5,22.8578644 34.1421356,19.5 30,19.5 Z" id="Combined-Shape" fill="#000000"></path>
    </g>
</svg>