<?xml version="1.0" encoding="UTF-8"?>
<svg width="60px" height="60px" viewBox="0 0 60 60" version="1.1" 
    xmlns="http://www.w3.org/2000/svg" 
    xmlns:xlink="http://www.w3.org/1999/xlink">
    <!-- Generator: Sketch 61 (89581) - https://sketch.com -->

    <desc>Created with Sketch.</desc>
    <g id="Icons/60/user" stroke="none" stroke-width="1" fill="none" fill-rule="evenodd">
        <path class="cls-1" d="M30,37.5 C45.5933281,37.5 55.2549211,42.561107 55.4995449,52.4629544 C55.5187989,53.2424127 54.9399168,53.8976618 54.181292,53.9891103 L54.0370457,53.9995425 L54.0370457,53.9995425 C53.2088712,54.0200022 52.5209173,53.3652201 52.5004576,52.5370457 C52.3104618,44.8463475 44.3597127,40.5961511 30.4756173,40.501612 L30,40.5 C15.8219883,40.5 7.69169724,44.7589532 7.49954486,52.5370457 C7.48028636,53.316504 6.86975487,53.9423691 6.10753987,53.9962458 L5.96295433,53.9995425 L5.96295433,53.9995425 C5.1347799,53.9790828 4.47999775,53.2911289 4.50045749,52.4629544 C4.74255698,42.6631879 14.2084647,37.6048672 29.5196272,37.5016135 L30,37.5 Z M30,5.99999996 L30.3098308,6.00348532 C37.6225714,6.1681655 43.5,12.1477092 43.5,19.5 C43.5,26.9558441 37.4558441,33 30,33 C22.5441559,33 16.5,26.9558441 16.5,19.5 C16.5,12.0441558 22.5441559,5.99999996 30,5.99999996 L30,5.99999996 Z M30,8.99999996 L29.7157049,9.00377421 C24.048142,9.15442652 19.5,13.7960755 19.5,19.5 C19.5,25.2989899 24.2010101,30 30,30 L30,30 L30.2842951,29.9962257 C35.951858,29.8455734 40.5,25.2039245 40.5,19.5 C40.5,13.7010101 35.7989899,8.99999996 30,8.99999996 L30,8.99999996 Z" id="Combined-Shape" fill="#000000"></path>
    </g>
</svg>