<?xml version="1.0" encoding="UTF-8"?>
<svg width="20px" height="20px" viewBox="0 0 20 20" version="1.1" 
    xmlns="http://www.w3.org/2000/svg" 
    xmlns:xlink="http://www.w3.org/1999/xlink">
    <!-- Generator: Sketch 61 (89581) - https://sketch.com -->

    <desc>Created with Sketch.</desc>
    <g id="Icons/20/bell" stroke="none" stroke-width="1" fill="none" fill-rule="evenodd">
        <path class="cls-1" d="M17,11.2 L16.71,10.88 C15.8536289,9.8533165 15.370671,8.56660385 15.34,7.22999999 C15.34,6.85999998 15.34,6.47999998 15.27,6.10999998 L15.27,5.54999998 C15.3278741,4.37480159 14.442722,3.36572811 13.27,3.26999997 C13.04,3.18999997 12.75,3.12999997 12.45,3.05999997 L12,2.99999996 L12,2.91999996 C12.0855387,2.52385952 12.0435338,2.11081101 11.88,1.73999996 C11.4,0.849999954 10.02,0.819999954 9.88,0.819999954 C9.74,0.819999954 8.34999999,0.819999954 7.87999999,1.73999996 C7.71376921,2.10990645 7.66828344,2.52277724 7.74999999,2.91999996 L7.74999999,2.99999996 L7.32999999,3.08999997 C7.05289333,3.14433949 6.77911463,3.21445355 6.50999998,3.29999997 C5.33727802,3.39572811 4.45212585,4.40480159 4.50999997,5.57999998 L4.50999997,6.13999998 C4.50999997,6.50999998 4.50999997,6.88999998 4.44999997,7.23999999 C4.41943585,8.58441937 3.93282278,9.87852803 3.06999997,10.91 L2.77999996,11.24 C1.77999996,12.34 0.949999955,13.24 1.17999996,15.24 C1.27463467,15.8259545 1.786586,16.2525806 2.37999996,16.24 L6.23999998,16.24 C6.66242839,17.9737336 8.21554551,19.1938669 10,19.1938669 C11.7844545,19.1938669 13.3375716,17.9737336 13.76,16.24 L17.43,16.24 C18.021896,16.2482698 18.5313989,15.823684 18.63,15.24 C18.85,13.26 18,12.31 17,11.2 Z M10,17.75 C9.05127417,17.7474058 8.19470469,17.1815985 7.81999999,16.31 L12.18,16.31 C11.8052953,17.1815985 10.9487258,17.7474058 10,17.75 L10,17.75 Z M2.65999996,14.81 C2.60999996,13.67 3.08999997,13.13 3.91999997,12.2 L4.21999997,11.87 C5.30646665,10.6034929 5.93364964,9.00734746 5.99999998,7.33999999 C5.99999998,6.99999998 5.99999998,6.56999998 5.99999998,6.17999998 L5.99999998,5.62999998 C5.99999998,4.99999997 6.17999998,4.82999997 6.77999998,4.73999997 L6.93999998,4.73999997 C7.08999999,4.68999997 7.34999999,4.63999997 7.60999999,4.57999997 C8.49999999,4.34999997 8.99999999,4.24999997 9.21,3.77999997 L9.21,3.66999997 C9.2793346,3.36050224 9.2793346,3.0394977 9.21,2.72999996 C9.21,2.61999996 9.21,2.46999996 9.14,2.48999996 C9.36471547,2.37163426 9.61611077,2.31309015 9.87,2.31999996 C10.0953728,2.33211984 10.319418,2.36221547 10.54,2.40999996 C10.5526867,2.5162894 10.5526867,2.62371053 10.54,2.72999996 C10.4805634,3.04051465 10.4805634,3.35948528 10.54,3.66999997 C10.5344053,3.70309855 10.5344053,3.73690139 10.54,3.76999997 C10.74,4.24999997 11.25,4.34999997 12.08,4.52999997 C12.34,4.58999997 12.6,4.63999997 12.74,4.68999997 L12.9,4.68999997 C13.51,4.77999997 13.65,4.94999997 13.69,5.57999998 L13.69,6.12999998 C13.69,6.51999998 13.69,6.90999998 13.76,7.30999999 C13.8177163,8.96773375 14.434473,10.5572039 15.51,11.82 L15.8,12.15 C16.63,13.08 17.11,13.62 17.06,14.76 L2.65999996,14.81 Z" id="bell-20" fill="#000000"></path>
    </g>
</svg>