<?xml version="1.0" encoding="UTF-8"?>
<svg width="20px" height="20px" viewBox="0 0 20 20" version="1.1" 
    xmlns="http://www.w3.org/2000/svg" 
    xmlns:xlink="http://www.w3.org/1999/xlink">
    <!-- Generator: Sketch 61 (89581) - https://sketch.com -->

    <desc>Created with Sketch.</desc>
    <g id="Icons/20/building" stroke="none" stroke-width="1" fill="none" fill-rule="evenodd">
        <path class="cls-1" d="M19.24,17.56 L18.24,17.56 L18.24,8.25999999 L18.49,8.25999999 C18.9042136,8.25999999 19.24,7.92421355 19.24,7.50999999 C19.24,7.09578642 18.9042136,6.75999998 18.49,6.75999998 L15,6.75999998 L15,2.43999995 L15.25,2.43999995 C15.6642136,2.43999995 16,2.10421352 16,1.68999996 C16,1.2757864 15.6642136,0.939999955 15.25,0.939999955 L4.79999997,0.939999955 C4.38578642,0.939999955 4.04999995,1.2757864 4.04999995,1.68999996 C4.04999995,2.10421352 4.38578642,2.43999995 4.79999997,2.43999995 L5.04999995,2.43999995 L5.04999995,6.75999998 L1.54999995,6.75999998 C1.13578639,6.75999998 0.799999954,7.09578642 0.799999954,7.50999999 C0.799999954,7.92421355 1.13578639,8.25999999 1.54999995,8.25999999 L1.79999996,8.25999999 L1.79999996,17.56 L0.799999954,17.56 C0.38578639,17.56 0.0499999502,17.8957865 0.0499999502,18.31 C0.0499999502,18.7242136 0.38578639,19.06 0.799999954,19.06 L19.24,19.06 C19.6542136,19.06 19.99,18.7242136 19.99,18.31 C19.99,17.8957865 19.6542136,17.56 19.24,17.56 L19.24,17.56 Z M3.29999997,8.25999999 L5.04999998,8.25999999 L5.04999998,17.56 L3.29999997,17.56 L3.29999997,8.25999999 Z M6.54999998,7.50999999 L6.54999998,2.43999996 L9.26,2.43999996 L9.26,11.84 C9.26,12.2542136 9.59578644,12.59 10.01,12.59 C10.4242136,12.59 10.76,12.2542136 10.76,11.84 L10.76,2.43999996 L13.47,2.43999996 L13.47,17.56 L10.76,17.56 L10.76,15.42 C10.76,15.0057865 10.4242136,14.67 10.01,14.67 C9.59578644,14.67 9.26,15.0057865 9.26,15.42 L9.26,17.56 L6.54999998,17.56 L6.54999998,7.50999999 Z M14.97,17.51 L14.97,8.25999999 L16.72,8.25999999 L16.72,17.56 L14.97,17.51 Z" id="building-20" fill="#000000"></path>
    </g>
</svg>