<?xml version="1.0" encoding="UTF-8"?>
<svg width="20px" height="20px" viewBox="0 0 20 20" version="1.1" 
    xmlns="http://www.w3.org/2000/svg" 
    xmlns:xlink="http://www.w3.org/1999/xlink">
    <!-- Generator: Sketch 61 (89581) - https://sketch.com -->

    <desc>Created with Sketch.</desc>
    <g id="Icons/20/cart" stroke="none" stroke-width="1" fill="none" fill-rule="evenodd">
        <path class="cls-1" d="M19.752381,3.59999997 C19.6147651,3.43106568 19.4083681,3.33311458 19.1904762,3.3333333 L8.45714285,3.3333333 C8.06265374,3.3333333 7.74285713,3.65312991 7.74285713,4.04761902 C7.74285713,4.44210813 8.06265374,4.76190474 8.45714285,4.76190474 L18.2857143,4.76190474 L17.3333334,8.85714285 L7.88571428,9.73333333 L4.59999997,2.21904758 C4.48742468,1.96106778 4.23383972,1.79325421 3.95238092,1.79047615 L1.64761901,1.79047615 C1.2531299,1.79047615 0.933333288,2.11027276 0.933333288,2.50476187 C0.933333288,2.89925098 1.2531299,3.21904759 1.64761901,3.21904759 L3.47619044,3.21904759 L6.66666665,10.4666667 L5.71428569,13.152381 C4.64600221,13.3166246 3.80356069,14.1475946 3.62468663,15.2135259 C3.44581257,16.2794573 3.97085509,17.3399049 4.92700652,17.8438692 C5.88315795,18.3478335 7.05473659,18.1816339 7.83300007,17.4316262 C8.61126355,16.6816185 8.82065683,15.5169841 8.35238094,14.5428572 L13.6857143,14.5428572 C13.5181256,14.8735445 13.4300735,15.2387978 13.4285714,15.6095238 C13.4247161,16.6234632 14.0325314,17.5397092 14.9681849,17.9304013 C15.9038385,18.3210934 16.9827396,18.1091538 17.7010726,17.3935522 C18.4194056,16.6779505 18.6354537,15.5998646 18.2483288,14.6627295 C17.8612039,13.7255943 16.9472801,13.1142931 15.9333333,13.1142857 L7.21904761,13.1142857 L7.89523808,11.2095238 L17.9619048,10.2571429 C18.2674181,10.2250583 18.5194,10.0036196 18.5904762,9.7047619 L19.8857143,4.2285714 C19.9388729,4.00966909 19.8898308,3.77847021 19.752381,3.59999997 Z M6.07619046,16.6666667 C5.48182687,16.6666667 4.99999998,16.1848398 4.99999998,15.5904762 C4.99999998,14.9961126 5.48182687,14.5142857 6.07619046,14.5142857 C6.67055405,14.5142857 7.15238094,14.9961126 7.15238094,15.5904762 C7.15238094,16.1848398 6.67055405,16.6666667 6.07619046,16.6666667 L6.07619046,16.6666667 Z M16.9809524,15.5904762 C16.9848028,16.027464 16.7240193,16.4233931 16.3210202,16.5924046 C15.918021,16.7614161 15.4528312,16.6699489 15.1438221,16.3609398 C14.8348131,16.0519308 14.7433458,15.5867409 14.9123573,15.1837418 C15.0813688,14.7807427 15.4772979,14.5199592 15.9142857,14.5238095 C16.1997127,14.5263243 16.4724491,14.6421272 16.6724903,14.8457406 C16.8725315,15.0493539 16.9834895,15.324097 16.9809524,15.6095238 L16.9809524,15.5904762 Z" id="cart-20" fill="#000000"></path>
    </g>
</svg>