<?xml version="1.0" encoding="UTF-8"?>
<svg width="20px" height="20px" viewBox="0 0 20 20" version="1.1" 
    xmlns="http://www.w3.org/2000/svg" 
    xmlns:xlink="http://www.w3.org/1999/xlink">
    <!-- Generator: Sketch 61 (89581) - https://sketch.com -->

    <desc>Created with Sketch.</desc>
    <g id="Icons/20/chart" stroke="none" stroke-width="1" fill="none" fill-rule="evenodd">
        <path class="cls-1" d="M1.99999996,1.24999996 C2.41421352,1.24999996 2.74999996,1.5857864 2.74999996,1.99999996 L2.74999996,1.99999996 L2.74999996,17.25 L18,17.25 C18.4142136,17.25 18.75,17.5857865 18.75,18 C18.75,18.4142136 18.4142136,18.75 18,18.75 L18,18.75 L2.74999996,18.75 C1.92157283,18.75 1.24999996,18.0784272 1.24999996,17.25 L1.24999996,17.25 L1.24999996,1.99999996 C1.24999996,1.5857864 1.5857864,1.24999996 1.99999996,1.24999996 Z M14.5826378,1.8703749 C15.1381496,0.801323141 16.388463,0.294801465 17.5314059,0.675782435 C18.6743488,1.0567634 19.3706865,2.21216876 19.1736648,3.40071723 C18.9766432,4.5892657 17.9447398,5.4581864 16.74,5.44999998 L16.74,5.44999998 L15.9,7.99999999 C16.8182347,8.67580158 17.143164,9.89911912 16.6812994,10.9414932 C16.2194348,11.9838674 15.0949824,12.5649797 13.9775294,12.3387904 C12.8600765,12.112601 12.0501318,11.1399375 12.03,10 C12.0345064,9.59790883 12.1375124,9.20305258 12.33,8.84999999 L12.33,8.84999999 L11.33,7.74999999 C11.0197515,7.90758951 10.6779085,7.99305025 10.33,7.99999999 C10.1902093,8.01082497 10.0497907,8.01082497 9.91,7.99999999 L9.91,7.99999999 L7.88999999,11.81 C8.32938293,12.2591846 8.57682722,12.8616577 8.57999999,13.49 C8.57449311,14.8336679 7.48367917,15.9200113 6.13999998,15.92 L6.13999998,15.92 L6.14999998,15.96 C4.80794803,15.96 3.71999997,14.872052 3.71999997,13.53 C3.71999997,12.1879481 4.80794803,11.1 6.14999998,11.1 C6.2931488,11.0897146 6.43685117,11.0897146 6.57999998,11.1 L6.57999998,11.1 L8.57999999,7.31999999 C7.83251226,6.54150905 7.68805406,5.36328844 8.22533155,4.42727618 C8.76260905,3.49126393 9.85286297,3.02177659 10.9020828,3.27460819 C11.9513026,3.52743978 12.7080414,4.44199888 12.76,5.51999998 C12.7571353,5.92359375 12.650373,6.31964758 12.45,6.66999998 L12.45,6.66999998 L13.45,7.75999999 C13.7624976,7.60986508 14.1034016,7.5280481 14.45,7.51999999 L14.45,7.51999999 L15.3,4.96999997 C14.3312963,4.25370524 14.0271261,2.93942667 14.5826378,1.8703749 Z M6.13999998,12.56 C5.62863355,12.5654118 5.21541171,12.9786336 5.20999998,13.49 C5.20999998,14.0036248 5.62637516,14.42 6.13999998,14.42 C6.6536248,14.42 7.06999999,14.0036248 7.06999999,13.49 C7.06999999,12.9763752 6.6536248,12.56 6.13999998,12.56 Z M14.53,9.14 C14.0163752,9.14 13.6,9.55637518 13.6,10.07 C13.6,10.5836248 14.0163752,11 14.53,11 C15.0436248,11 15.46,10.5836248 15.46,10.07 C15.46,9.55637518 15.0436248,9.14 14.53,9.14 Z M10.33,4.70999997 C10.0833487,4.70999997 9.84679952,4.80798184 9.67239069,4.98239067 C9.49798186,5.1567995 9.4,5.39334864 9.4,5.63999998 C9.4,6.01614987 9.62658722,6.35526162 9.97410441,6.49920795 C10.3216216,6.64315428 10.7216312,6.56358743 10.9876093,6.29760929 C11.2535874,6.03163115 11.3331543,5.63162157 11.189208,5.28410438 C11.0452616,4.9365872 10.7061499,4.70999997 10.33,4.70999997 Z M16.83,2.20999996 C16.3163752,2.20999996 15.9,2.62637515 15.9,3.13999997 C15.9,3.65362479 16.3163752,4.06999997 16.83,4.06999997 C17.3436249,4.06999997 17.76,3.65362479 17.76,3.13999997 C17.76,2.62637515 17.3436249,2.20999996 16.83,2.20999996 Z" id="chart-20" fill="#000000"></path>
    </g>
</svg>