<?xml version="1.0" encoding="UTF-8"?>
<svg width="20px" height="20px" viewBox="0 0 20 20" version="1.1" 
    xmlns="http://www.w3.org/2000/svg" 
    xmlns:xlink="http://www.w3.org/1999/xlink">
    <!-- Generator: Sketch 61 (89581) - https://sketch.com -->

    <desc>Created with Sketch.</desc>
    <g id="Icons/20/clipboard" stroke="none" stroke-width="1" fill="none" fill-rule="evenodd">
        <path class="cls-1" d="M10.0571429,0.945682836 C11.0258169,0.945682836 11.8855216,1.56629479 12.1904762,2.48571425 L12.1904762,2.48571425 L12.7714286,2.48571425 C13.3291393,2.48755244 13.8394743,2.79962779 14.0952381,3.29523806 L14.0952381,3.29523806 L15.7809524,3.29523806 C16.4995401,3.33549119 17.0627603,3.92791541 17.0666667,4.64761902 L17.0666667,4.64761902 L17.0666667,18.6476191 C17.0666667,19.0062928 16.9241841,19.3502762 16.6705635,19.6038968 C16.4169429,19.8575175 16.0729595,20.0000001 15.7142857,20.0000001 L15.7142857,20.0000001 L4.28571426,20.0000001 C3.92951841,19.9900386 3.59188645,19.8389135 3.34716593,19.5799027 C3.10244541,19.3208919 2.97070428,18.9752354 2.98095235,18.6190477 L2.98095235,18.6190477 L2.98095235,4.64761902 C2.98039624,3.91892764 3.5574746,3.32089607 4.28571426,3.29523806 L4.28571426,3.29523806 L6.0190476,3.29523806 C6.27159085,2.801132 6.77843832,2.48894334 7.33333332,2.48571425 L7.33333332,2.48571425 L7.92380951,2.48571425 C8.22876413,1.56629479 9.08846878,0.945682836 10.0571429,0.945682836 Z M5.85714284,4.76190474 L4.40952378,4.76190474 L4.40952378,18.5428572 L15.7142857,18.5428572 L15.7142857,4.76190474 L14.2571429,4.76190474 L14.2571429,6.44761903 L5.85714284,6.44761903 L5.85714284,4.76190474 Z M10.6380952,14.5047619 C11.0325844,14.5047619 11.352381,14.8245585 11.352381,15.2190476 C11.352381,15.6135368 11.0325844,15.9333334 10.6380952,15.9333334 L10.6380952,15.9333334 L7.19047618,15.9333334 C6.79598707,15.9333334 6.47619046,15.6135368 6.47619046,15.2190476 C6.47619046,14.8245585 6.79598707,14.5047619 7.19047618,14.5047619 L7.19047618,14.5047619 Z M12.8571429,11.5333333 C13.251632,11.5333333 13.5714286,11.8531299 13.5714286,12.2476191 C13.5714286,12.6421082 13.251632,12.9619048 12.8571429,12.9619048 L12.8571429,12.9619048 L7.19047618,12.9619048 C6.79598707,12.9619048 6.47619046,12.6421082 6.47619046,12.2476191 C6.47619046,11.8531299 6.79598707,11.5333333 7.19047618,11.5333333 L7.19047618,11.5333333 Z M12.8571429,8.57142856 C13.251632,8.57142856 13.5714286,8.89122517 13.5714286,9.28571428 C13.5714286,9.68020339 13.251632,10 12.8571429,10 L12.8571429,10 L7.19047618,10 C6.79598707,10 6.47619046,9.68020339 6.47619046,9.28571428 C6.47619046,8.89122517 6.79598707,8.57142856 7.19047618,8.57142856 L7.19047618,8.57142856 Z M10.0571429,2.38095234 C9.60479535,2.38095234 9.23809523,2.74765245 9.23809523,3.19999997 L9.23809523,3.19999997 L9.23809523,3.91428568 L7.33333332,3.91428568 L7.30476189,5.01904759 L12.8380953,5.01904759 L12.8380953,3.97142854 L12.7809524,3.91428568 L10.8761905,3.91428568 L10.8761905,3.19999997 C10.8761905,2.74765245 10.5094904,2.38095234 10.0571429,2.38095234 Z" id="clipboard-20" fill="#000000"></path>
    </g>
</svg>