<?xml version="1.0" encoding="UTF-8"?>
<svg width="20px" height="20px" viewBox="0 0 20 20" version="1.1" 
    xmlns="http://www.w3.org/2000/svg" 
    xmlns:xlink="http://www.w3.org/1999/xlink">
    <!-- Generator: Sketch 61 (89581) - https://sketch.com -->

    <desc>Created with Sketch.</desc>
    <g id="Icons/20/clock-history" stroke="none" stroke-width="1" fill="none" fill-rule="evenodd">
        <path class="cls-1" d="M13.0784404,1.27673539 C17.3285112,2.77582226 19.8796447,7.11964684 19.118788,11.5616576 C18.3579313,16.0036684 14.5065637,19.2508306 9.9998618,19.2500003 C9.58564824,19.2500003 9.24992368,18.9140755 9.25000001,18.499862 C9.25007633,18.0856484 9.58592464,17.7499239 10.0001382,17.7500002 C13.7760236,17.750696 17.0028451,15.0301006 17.6403197,11.3084159 C18.2777942,7.58673116 16.140358,3.94731056 12.5794879,2.69131886 C9.01861782,1.43532716 5.07085545,2.92837377 3.23232662,6.22642209 C1.43779116,9.44555282 2.16263067,13.4696952 4.93300269,15.8628528 L4.85055694,13.6988989 C4.83592659,13.3194851 5.10577985,12.995051 5.46966998,12.9313199 L5.57110115,12.920557 C5.95051494,12.9059266 6.274949,13.1757799 6.33868008,13.53967 L6.34944301,13.6411012 L6.49944301,17.5311012 C6.51409993,17.9112039 6.24327267,18.2359943 5.87861059,18.2989823 L5.7769748,18.3095148 L1.88697478,18.4495148 C1.47302922,18.4644126 1.12538299,18.1409204 1.11048521,17.7269749 C1.0968289,17.3475248 1.36751414,17.0237845 1.73156667,16.9609878 L1.83302514,16.9504853 L3.81688731,16.8785939 C0.622178894,14.0092562 -0.190242589,9.28537353 1.92215115,5.49605214 C4.11652427,1.55967189 8.82836967,-0.222351483 13.0784404,1.27673539 Z M14.8803301,5.67966989 C15.1465967,5.94593646 15.1708027,6.36260014 14.9529483,6.65621164 L14.8803301,6.74033007 L11.4382919,10.1834271 C11.4590601,10.2789885 11.47,10.3782167 11.47,10.48 C11.47,11.2476758 10.8476758,11.87 10.08,11.87 C9.31232419,11.87 8.68999999,11.2476758 8.68999999,10.48 C8.68999999,10.3782167 8.70093992,10.2789885 8.72170807,10.1834271 L6.8996699,8.36033008 C6.60677668,8.06743686 6.60677668,7.59256312 6.8996699,7.2996699 C7.16593646,7.03340334 7.58260015,7.00919729 7.87621164,7.22705175 L7.96033008,7.2996699 L9.78443672,9.12148905 C9.87968729,9.10086302 9.97857505,9.09 10.08,9.09 C10.1817833,9.09 10.2810115,9.10093992 10.3765729,9.12170807 L13.8196699,5.67966989 C14.1125632,5.38677667 14.5874369,5.38677667 14.8803301,5.67966989 Z" id="clock-history-20" fill="#000000"></path>
    </g>
</svg>