<?xml version="1.0" encoding="UTF-8"?>
<svg width="20px" height="20px" viewBox="0 0 20 20" version="1.1" xmlns="http://www.w3.org/2000/svg" xmlns:xlink="http://www.w3.org/1999/xlink">
    <!-- Generator: Sketch 61.2 (89653) - https://sketch.com -->
    <desc>Created with Sketch.</desc>
    <g id="Icons/20/Close" stroke="none" stroke-width="1" fill="none" fill-rule="evenodd">
        <path class="cls-1" d="M17.0537883,1.89705176 C17.3473998,1.6791973 17.7640635,1.70340335 18.0303301,1.96966991 C18.3232233,2.26256313 18.3232233,2.73743687 18.0303301,3.03033009 L18.0303301,3.03033009 L11.061,10 L18.0303301,16.9696699 C18.3232233,17.2625631 18.3232233,17.7374369 18.0303301,18.0303301 C17.7640635,18.2965966 17.3473998,18.3208027 17.0537883,18.1029482 L16.9696699,18.0303301 L10,11.061 L3.03033009,18.0303301 L2.94621165,18.1029482 C2.65260016,18.3208027 2.23593648,18.2965966 1.96966991,18.0303301 C1.6767767,17.7374369 1.6767767,17.2625631 1.96966991,16.9696699 L1.96966991,16.9696699 L8.939,10 L1.96966991,3.03033009 C1.6767767,2.73743687 1.6767767,2.26256313 1.96966991,1.96966991 C2.23593648,1.70340335 2.65260016,1.6791973 2.94621165,1.89705176 L3.03033009,1.96966991 L10,8.939 L16.9696699,1.96966991 Z" id="Combined-Shape" fill="#000000"></path>
    </g>
</svg>