<?xml version="1.0" encoding="UTF-8"?>
<svg width="20px" height="20px" viewBox="0 0 20 20" version="1.1" 
    xmlns="http://www.w3.org/2000/svg" 
    xmlns:xlink="http://www.w3.org/1999/xlink">
    <!-- Generator: Sketch 61 (89581) - https://sketch.com -->

    <desc>Created with Sketch.</desc>
    <g id="Icons/20/coverage-individual-spouse" stroke="none" stroke-width="1" fill="none" fill-rule="evenodd">
        <path class="cls-1" d="M6.34999998,7.28999999 C6.76421355,7.28999999 7.09999999,7.62578643 7.09999999,8.03999999 C7.09999999,8.45421355 6.76421355,8.78999999 6.34999998,8.78999999 C2.81307689,8.78999999 2.45656085,9.50203156 2.44060337,10.5190804 L2.44093685,11.4407697 C2.45124935,11.7654861 2.5749994,12.385 4.05999997,12.66 C4.42302845,12.7188426 4.68983434,13.0322337 4.68999997,13.4 L4.68999997,18 L7.68999999,18 L7.68999999,16.07 C7.68999999,15.6557865 8.02578643,15.32 8.43999935,15.32 C8.85421356,15.32 9.19,15.6557865 9.19,16.07 L9.19,18.71 C9.19,18.9106572 9.10962897,19.1029539 8.96680641,19.2438972 C8.82398386,19.3848405 8.63063932,19.4626755 8.42999999,19.4600668 L3.93999935,19.4600668 C3.5280379,19.4546142 3.19538578,19.1219621 3.18999997,18.71 L3.18999997,14 C1.89421527,13.7978585 0.939118623,12.6814566 0.939999345,11.37 L0.939999345,10.59 C0.939999345,7.58999999 3.72999997,7.28999999 6.34999998,7.28999999 Z M18.7700265,10.59 L18.7700265,11.36 C18.7758265,12.6752427 17.81954,13.7972856 16.52,14 L16.52,18.7 C16.520036,19.115862 16.185826,19.4545282 15.77,19.46 L10.94,19.46 C10.5280379,19.4546142 10.1953858,19.1219621 10.19,18.71 L10.19,14 C8.89046002,13.7972856 7.9341735,12.6752427 7.93997351,11.36 L7.93997351,10.58 C7.93997351,7.65142856 10.5987232,7.29581631 13.162608,7.28054258 L13.35,7.27999999 C15.97,7.27999999 18.7700265,7.53999999 18.7700265,10.59 Z M13.33,8.78999999 C9.78333333,8.78999999 9.4360618,9.50203156 9.4205848,10.5190804 L9.4209375,11.4407697 C9.43125,11.7654861 9.555,12.385 11.04,12.66 C11.4030285,12.7188426 11.6698344,13.0322337 11.67,13.4 L11.69,18 L15,18 L15,13.4 C14.9959,13.0306767 15.2647539,12.71488 15.63,12.66 C17.25,12.4 17.25,11.66 17.25,11.37 L17.25,10.6 C17.25,9.54 16.97,8.78999999 13.33,8.78999999 Z M6.34999998,0.279999951 C8.05655987,0.279999951 9.44,1.66344008 9.44,3.36999997 C9.44,5.07655985 8.05655987,6.45999998 6.34999998,6.45999998 C4.6434401,6.45999998 3.25999997,5.07655985 3.25999997,3.36999997 C3.25999997,1.66344008 4.6434401,0.279999951 6.34999998,0.279999951 Z M13.35,0.279999951 C15.0565599,0.279999951 16.44,1.66344008 16.44,3.36999997 C16.44,4.18951892 16.1144474,4.97547252 15.53496,5.55495993 C14.9554726,6.13444734 14.169519,6.45999998 13.35,6.45999998 C11.6434401,6.45999998 10.26,5.07655985 10.26,3.36999997 C10.26,1.66344008 11.6434401,0.279999951 13.35,0.279999951 Z M6.34999998,1.78996827 C5.70599774,1.7900127 5.12560342,2.17849468 4.88009907,2.77386558 C4.63459473,3.36923647 4.7724713,4.05390126 5.2292839,4.50784083 C5.68609651,4.9617804 6.37161755,5.09533461 6.96542769,4.84607891 C7.55923782,4.59682321 7.94405032,4.01398947 7.94003166,3.36999997 C7.94003166,2.94921953 7.7721726,2.54581742 7.47369878,2.2492208 C7.17522496,1.95262417 6.77077199,1.78733679 6.34999998,1.78996827 Z M13.35,1.78996827 C12.7059978,1.7900127 12.1256035,2.17849468 11.8800991,2.77386558 C11.6345948,3.36923647 11.7724713,4.05390126 12.2292839,4.50784083 C12.6860965,4.9617804 13.3716176,5.09533461 13.9654277,4.84607891 C14.5592379,4.59682321 14.9440504,4.01398947 14.9400317,3.36999997 C14.9400317,2.94921953 14.7721726,2.54581742 14.4736988,2.2492208 C14.175225,1.95262417 13.770772,1.78733679 13.35,1.78996827 Z" id="coverage-individual-spouse-20" fill="#000000"></path>
    </g>
</svg>