<?xml version="1.0" encoding="UTF-8"?>
<svg width="20px" height="20px" viewBox="0 0 20 20" version="1.1" 
    xmlns="http://www.w3.org/2000/svg" 
    xmlns:xlink="http://www.w3.org/1999/xlink">
    <!-- Generator: Sketch 61 (89581) - https://sketch.com -->

    <desc>Created with Sketch.</desc>
    <g id="Icons/20/coverage-family-one-parent" stroke="none" stroke-width="1" fill="none" fill-rule="evenodd">
        <path class="cls-1" d="M7.91999999,7.29999999 C8.11700633,7.28632603 8.31114765,7.35305201 8.45812085,7.48495104 C8.60509404,7.61685006 8.69235834,7.80266758 8.69999999,7.99999999 C8.72868635,8.41641335 8.41617446,8.77803426 7.99999999,8.80999999 C5.26545452,8.91666666 5.01333331,9.6063269 5.0005643,10.5142536 L5.00093748,11.4486632 C5.01124998,11.7670139 5.13499998,12.3941667 6.61999998,12.66 C6.98302846,12.7188426 7.24983436,13.0322337 7.24999999,13.4 L7.24999999,18 L8.59999999,18 C9.01421356,18 9.35,18.3357865 9.35,18.75 C9.35,19.1642136 9.01421356,19.5 8.59999999,19.5 L8.59999999,19.46 L6.43999998,19.46 C6.02803792,19.4546142 5.69538579,19.1219621 5.68999998,18.71 L5.68999998,14 C4.39046,13.7972856 3.43417348,12.6752427 3.43997349,11.36 L3.43997349,10.58 C3.43997349,7.84999999 5.69999998,7.38999999 7.91999999,7.29999999 Z M16.3,14 L16.3,14.52 C16.3353488,15.4411669 15.7364961,16.2671707 14.85,16.52 L14.85,18.83 C14.8063334,19.1994541 14.5016366,19.4829913 14.13,19.5 L11,19.5 C10.5857864,19.5 10.25,19.1642136 10.25,18.75 L10.25,16.44 C9.41565077,16.202043 8.83609976,15.4563605 8.80027484,14.6014737 L8.79999999,14 C8.79999999,11.6752941 11.0411073,11.5385467 12.3218889,11.5305028 L12.7781111,11.5305028 C14.0588928,11.5385467 16.3,11.6752941 16.3,14 Z M12.58,13 C10.4851724,13 10.3407015,13.4074079 10.330738,13.8913355 L10.33,14.52 C10.33,14.69 10.33,15.01 11.15,15.15 C11.5130285,15.2088426 11.7798344,15.5222337 11.78,15.89 L11.78,18 L13.38,18 L13.38,15.86 C13.3801656,15.4922337 13.6469715,15.1788426 14.01,15.12 C14.83,14.98 14.83,14.66 14.83,14.49 L14.83,14 C14.83,13.5 14.83,13 12.58,13 Z M12.58,6.24999998 C13.8226407,6.24999998 14.83,7.2573593 14.83,8.49999999 C14.83,9.0967371 14.5929471,9.6690334 14.1709903,10.0909903 C13.7490334,10.5129471 13.1767371,10.75 12.58,10.75 C11.3373593,10.75 10.33,9.74264069 10.33,8.49999999 C10.33,7.2573593 11.3373593,6.24999998 12.58,6.24999998 Z M12.58,7.74999999 C12.1657864,7.74999999 11.83,8.08578643 11.83,8.49999999 C11.83,8.91421356 12.1657864,9.24999999 12.58,9.24999999 C12.9942136,9.24999999 13.33,8.91421356 13.33,8.49999999 C13.3246142,8.08803793 12.9919621,7.7553858 12.58,7.74999999 Z M8.84999999,0.279999951 C10.5565599,0.279999951 11.9400163,1.66344008 11.9400163,3.36999997 C11.9426678,4.19033385 11.6179719,4.97783843 11.0379052,5.55790515 C10.4578385,6.13797187 9.67033388,6.46266776 8.84999999,6.46001629 C7.14344011,6.46001629 5.75999998,5.07655985 5.75999998,3.36999997 C5.75999998,1.66344008 7.14344011,0.279999951 8.84999999,0.279999951 Z M8.84999999,1.78996827 C8.20599775,1.7900127 7.62560343,2.17849468 7.38009909,2.77386558 C7.13459474,3.36923647 7.27247131,4.05390126 7.72928392,4.50784083 C8.18609652,4.9617804 8.87161756,5.09533461 9.4654277,4.84607891 C10.0592378,4.59682321 10.4440503,4.01398947 10.4400317,3.36999997 C10.4400317,2.94921953 10.2721726,2.54581742 9.97369879,2.2492208 C9.67522498,1.95262417 9.270772,1.78733679 8.84999999,1.78996827 Z" id="coverage-family-one-parent-20" fill="#000000"></path>
    </g>
</svg>