<?xml version="1.0" encoding="UTF-8"?>
<svg width="20px" height="20px" viewBox="0 0 20 20" version="1.1" 
    xmlns="http://www.w3.org/2000/svg" 
    xmlns:xlink="http://www.w3.org/1999/xlink">
    <!-- Generator: Sketch 61 (89581) - https://sketch.com -->

    <desc>Created with Sketch.</desc>
    <g id="Icons/20/coverage-shield" stroke="none" stroke-width="1" fill="none" fill-rule="evenodd">
        <path class="cls-1" d="M10,-4.99997618e-08 C10.2335982,-0.00961742775 10.4573225,0.0947872149 10.6,0.279999951 C12.4559798,2.52085398 15.1731549,3.87217637 18.08,3.99999997 C18.4468782,3.99854938 18.7624196,4.25939695 18.83,4.61999997 C18.9260087,5.28273649 18.9827743,5.95056692 19,6.61999998 C18.8568122,12.3330643 15.5068242,17.477965 10.34,19.92 C10.2338333,19.9710757 10.1178026,19.9983771 10,20.0000001 C9.90832357,20.0030697 9.81684865,19.9895179 9.73,19.96 C4.58811536,17.4991892 1.26426709,12.3588192 1.12998658,6.65999998 C1.1291109,5.99119373 1.17253936,5.3230635 1.25999996,4.65999997 C1.30531255,4.28506445 1.6223433,4.0023073 1.99999996,3.99999997 C4.88625004,3.8580085 7.57945374,2.507777 9.42,0.279999951 C9.56044969,0.10301647 9.77405917,-0.000105346493 10,-4.99997618e-08 Z M10,1.87999996 C8.03751568,3.88791692 5.43309006,5.14412765 2.63999996,5.42999998 C2.58999996,5.82999998 2.58999996,6.22999998 2.58999996,6.61999998 C2.71026126,11.6117292 5.55427475,16.1368195 10,18.41 C14.4643011,16.1510275 17.3263041,11.6217637 17.45,6.61999998 C17.45,6.22999998 17.4,5.82999998 17.4,5.42999998 C14.593919,5.14905029 11.9752601,3.8928018 10,1.87999996 Z M10.02,6.06999998 C10.4342136,6.06999998 10.77,6.40578642 10.77,6.81999998 L10.77,6.81999998 L10.77,9.06999998 L13,9.06999998 C13.4142136,9.06999998 13.75,9.40578643 13.75,9.82 C13.75,10.2342136 13.4142136,10.57 13,10.57 L13,10.57 L10.77,10.57 L10.77,12.81 C10.77,13.2242136 10.4342136,13.56 10.02,13.56 C9.60578644,13.56 9.27,13.2242136 9.27,12.81 L9.27,12.81 L9.27,10.57 L6.99999999,10.57 C6.58578642,10.57 6.24999998,10.2342136 6.24999998,9.82 C6.24999998,9.40578643 6.58578642,9.06999998 6.99999999,9.06999998 L6.99999999,9.06999998 L9.27,9.06999998 L9.27,6.81999998 C9.27,6.40578642 9.60578644,6.06999998 10.02,6.06999998 Z" id="coverage-shield-20" fill="#000000"></path>
    </g>
</svg>