<?xml version="1.0" encoding="UTF-8"?>
<svg width="20px" height="20px" viewBox="0 0 20 20" version="1.1" 
    xmlns="http://www.w3.org/2000/svg" 
    xmlns:xlink="http://www.w3.org/1999/xlink">
    <!-- Generator: Sketch 61 (89581) - https://sketch.com -->

    <desc>Created with Sketch.</desc>
    <g id="Icons/20/coverage-family" stroke="none" stroke-width="1" fill="none" fill-rule="evenodd">
        <path class="cls-1" d="M12.3439116,7.60154611 C12.484526,7.72773848 12.5668422,7.9063575 12.5714286,8.09523809 C12.5823024,8.4879042 12.2779944,8.8175712 11.8857143,8.83809523 C9.28392857,8.93958333 9.04174107,9.59521949 9.02914515,10.4586612 L9.02857142,11.2666667 C9.02857142,11.5428572 9.02857142,12.2190476 10.5714286,12.5047619 C10.91717,12.5608025 11.1712708,12.8592701 11.1714286,13.2095238 L11.1714286,17.6190477 L12.4761905,17.6190477 C12.8706796,17.6190477 13.1904762,17.9388443 13.1904762,18.3333334 C13.1904762,18.7278225 12.8706796,19.0476191 12.4761905,19.0476191 L12.4761905,19.0095239 L10.4190476,19.0095239 C10.0267028,19.0043945 9.70989125,18.687583 9.7047619,18.2952381 L9.7047619,13.8095238 C8.46710478,13.6164624 7.55635571,12.5478502 7.56187953,11.2952381 L7.56187953,10.552381 C7.56187953,7.95238094 9.71428571,7.5142857 11.8285714,7.42857142 C12.0168459,7.41277105 12.2032973,7.47535374 12.3439116,7.60154611 Z M19.8380953,13.8095238 L19.8380953,14.3047619 C19.8717608,15.1820637 19.3014249,15.968734 18.4571429,16.2095238 L18.4571429,18.4095239 C18.4139367,18.771867 18.1077604,19.0453845 17.7428572,19.0476191 L14.7904762,19.0476191 C14.3959871,19.0476191 14.0761905,18.7278225 14.0761905,18.3333334 L14.0761905,16.1333334 C13.2815722,15.9067076 12.7296188,15.1965338 12.6954999,14.3823559 L12.6952381,13.8095238 C12.6952381,11.5997114 14.8215488,11.4657834 16.0424775,11.4576665 L16.4908559,11.4576665 C17.7117846,11.4657834 19.8380953,11.5997114 19.8380953,13.8095238 Z M6.04761903,7.41904761 C6.44210814,7.41904761 6.76190475,7.73884421 6.76190475,8.13333332 C6.76190475,8.52782243 6.44210814,8.84761904 6.04761903,8.84761904 C2.59047615,8.84761904 2.32380949,9.56190476 2.32380949,10.5714286 L2.32380949,11.2952381 C2.32380949,11.5714286 2.32380949,12.2476191 3.86666664,12.5333333 C4.21240805,12.5893739 4.4665089,12.8878416 4.46666664,13.2380953 L4.46666664,17.6190477 L7.32380951,17.6190477 L7.32380951,15.7809524 C7.32380951,15.3864633 7.64360612,15.0666667 8.03809523,15.0666667 C8.43258434,15.0666667 8.75238095,15.3864633 8.75238095,15.7809524 L8.75238095,18.2952381 C8.75238095,18.4863402 8.67583711,18.6694799 8.53981563,18.8037116 C8.40379415,18.9379434 8.21965649,19.0120719 8.02857142,19.0095874 L3.75238092,19.0095874 C3.3600361,19.0043945 3.04322455,18.687583 3.0380952,18.2952381 L3.0380952,13.8095238 C1.80401454,13.6170081 0.894398686,12.5537682 0.895237469,11.3047619 L0.895237469,10.5619048 C0.895237469,7.70476189 3.55238092,7.41904761 6.04761903,7.41904761 Z M16.2666667,12.8571429 C14.1977012,12.8571429 14.1263575,13.2744239 14.1238974,13.7575269 L14.1238095,14.3047619 C14.1238095,14.4666667 14.1238095,14.7714286 14.9047619,14.9047619 C15.2505033,14.9608025 15.5046042,15.2592702 15.5047619,15.6095238 L15.5047619,17.6190477 L17.0285715,17.6190477 L17.0285715,15.5809524 C17.0246667,15.2292159 17.2807181,14.9284572 17.6285715,14.8761905 C18.3574604,14.7517461 18.406053,14.4779683 18.4092925,14.3103831 L18.4095239,13.8095238 C18.4095239,13.3333333 18.4095239,12.8571429 16.2666667,12.8571429 Z M17.0867026,6.5916867 C17.8874335,6.92336027 18.4095239,7.70472375 18.4095239,8.57142856 C18.4095239,9.75489589 17.450134,10.7142857 16.2666667,10.7142857 C15.3999619,10.7142857 14.6185984,10.1921953 14.2869248,9.39146449 C13.9552513,8.59073366 14.138585,7.66905259 14.7514379,7.05619974 C15.3642907,6.44334689 16.2859718,6.26001313 17.0867026,6.5916867 Z M16.2666667,7.85714285 C15.8721776,7.85714285 15.552381,8.17693946 15.552381,8.57142856 C15.552381,8.96591767 15.8721776,9.28571428 16.2666667,9.28571428 C16.6611558,9.28571428 16.9809524,8.96591767 16.9809524,8.57142856 C16.9758231,8.17908374 16.6590115,7.86227219 16.2666667,7.85714285 Z M12.7142857,0.742857097 C14.3395809,0.742857097 15.6571429,2.06041913 15.6571429,3.68571425 C15.6571429,5.31100938 14.3395809,6.62857141 12.7142857,6.62857141 C11.0889906,6.62857141 9.77142857,5.31100938 9.77142857,3.68571425 C9.77142857,2.06041913 11.0889906,0.742857097 12.7142857,0.742857097 Z M6.04761903,0.742857097 C7.67291416,0.742857097 8.99047619,2.06041913 8.99047619,3.68571425 C8.99047619,5.31100938 7.67291416,6.62857141 6.04761903,6.62857141 C4.4223239,6.62857141 3.10476187,5.31100938 3.10476187,3.68571425 C3.10476187,2.06041913 4.4223239,0.742857097 6.04761903,0.742857097 Z M12.7142857,2.18092216 C12.1009503,2.18096447 11.5481938,2.55094731 11.3143801,3.11796721 C11.0805664,3.68498712 11.2118775,4.33704882 11.6469371,4.76937222 C12.0819967,5.20169562 12.7348739,5.32889011 13.3004074,5.09150373 C13.8659408,4.85411734 14.2324289,4.29903759 14.2286016,3.68571425 C14.2286016,3.28497098 14.0687358,2.90077849 13.7844751,2.61830552 C13.5002143,2.33583255 13.115021,2.17841599 12.7142857,2.18092216 Z M6.04761903,2.18092216 C5.43428356,2.18096447 4.88152706,2.55094731 4.6477134,3.11796721 C4.41389974,3.68498712 4.54521076,4.33704882 4.98027038,4.76937222 C5.41533,5.20169562 6.06820718,5.32889011 6.63374065,5.09150373 C7.19927412,4.85411734 7.56576221,4.29903759 7.56193491,3.68571425 C7.56193491,3.28497098 7.40206914,2.90077849 7.11780836,2.61830552 C6.83354758,2.33583255 6.44835427,2.17841599 6.04761903,2.18092216 Z" id="coverage-family-20" fill="#000000"></path>
    </g>
</svg>