<?xml version="1.0" encoding="UTF-8"?>
<svg width="20px" height="20px" viewBox="0 0 20 20" version="1.1" 
    xmlns="http://www.w3.org/2000/svg" 
    xmlns:xlink="http://www.w3.org/1999/xlink">
    <!-- Generator: Sketch 61 (89581) - https://sketch.com -->

    <desc>Created with Sketch.</desc>
    <g id="Icons/20/coverage-individual" stroke="none" stroke-width="1" fill="none" fill-rule="evenodd">
        <path class="cls-1" d="M16.2700146,10.59 L16.2700146,11.36 C16.2743447,12.6817658 15.3074902,13.8062134 14,14 L14,18.7 C14.0003182,19.1082945 13.6779763,19.4438833 13.27,19.46 L8.43999999,19.46 C8.02803793,19.4546142 7.6953858,19.1219621 7.68999999,18.71 L7.68999999,14 C6.39046001,13.7972856 5.43417349,12.6752427 5.4399735,11.36 L5.4399735,10.58 C5.4399735,7.65142856 8.09872323,7.29581631 10.6626079,7.28054258 L10.85,7.27999999 C13.47,7.27999999 16.2700146,7.53999999 16.2700146,10.59 Z M10.85,8.78999999 C7.30333332,8.78999999 6.95606179,9.50203156 6.94058479,10.5190804 L6.94093748,11.4407697 C6.95124998,11.7654861 7.07499999,12.385 8.55999999,12.66 C8.92302847,12.7188426 9.18983437,13.0322337 9.19,13.4 L9.19,18 L12.52,18 L12.52,13.4 C12.5159,13.0306767 12.7847539,12.71488 13.15,12.66 C14.77,12.4 14.77,11.66 14.77,11.37 L14.77,10.6 C14.77,9.54 14.49,8.78999999 10.85,8.78999999 Z M10.85,0.279999951 C12.5565599,0.279999951 13.94,1.66344008 13.94,3.36999997 C13.94,4.18951892 13.6144474,4.97547252 13.03496,5.55495993 C12.4554726,6.13444734 11.669519,6.45999998 10.85,6.45999998 C9.14344012,6.45999998 7.75999999,5.07655985 7.75999999,3.36999997 C7.75999999,1.66344008 9.14344012,0.279999951 10.85,0.279999951 Z M10.85,1.78996827 C10.2059978,1.7900127 9.62560344,2.17849468 9.3800991,2.77386558 C9.13459475,3.36923647 9.27247132,4.05390126 9.72928393,4.50784083 C10.1860965,4.9617804 10.8716176,5.09533461 11.4654277,4.84607891 C12.0592378,4.59682321 12.4440503,4.01398947 12.4400317,3.36999997 C12.4400317,2.94921953 12.2721726,2.54581742 11.9736988,2.2492208 C11.675225,1.95262417 11.270772,1.78733679 10.85,1.78996827 Z" id="coverage-individual-20" fill="#000000"></path>
    </g>
</svg>