<svg xmlns="http://www.w3.org/2000/svg" xmlns:xlink="http://www.w3.org/1999/xlink" preserveAspectRatio="xMidYMid" width="32" height="32" viewBox="0 0 32 32">
  <defs>
    <style>
      .cls-1 {
        fill: #000;
        fill-rule: evenodd;
      }
    </style>
  </defs>
  <path d="M30.000,32.000 L2.000,32.000 C0.897,32.000 -0.000,31.103 -0.000,30.000 L-0.000,22.000 C-0.000,21.448 0.448,21.000 1.000,21.000 C1.552,21.000 2.000,21.448 2.000,22.000 L2.000,30.000 L30.000,30.000 L30.000,22.000 C30.000,21.448 30.448,21.000 31.000,21.000 C31.552,21.000 32.000,21.448 32.000,22.000 L32.000,30.000 C32.000,31.103 31.103,32.000 30.000,32.000 ZM16.790,23.584 C16.608,23.830 16.330,24.000 16.000,24.000 C15.670,24.000 15.392,23.830 15.210,23.584 L8.295,16.710 C7.903,16.319 7.901,15.687 8.291,15.294 C8.681,14.904 9.314,14.902 9.705,15.291 L15.000,20.554 L15.000,1.000 C15.000,0.447 15.448,0.000 16.000,0.000 C16.552,0.000 17.000,0.447 17.000,1.000 L17.000,20.555 L22.295,15.291 C22.687,14.901 23.319,14.903 23.709,15.294 C24.099,15.687 24.097,16.319 23.705,16.710 L16.790,23.584 Z" class="cls-1"/>
</svg>
