<?xml version="1.0" encoding="UTF-8"?>
<svg width="20px" height="20px" viewBox="0 0 20 20" version="1.1" 
    xmlns="http://www.w3.org/2000/svg" 
    xmlns:xlink="http://www.w3.org/1999/xlink">
    <!-- Generator: Sketch 61.2 (89653) - https://sketch.com -->
    <desc>Created with Sketch.</desc>
    <g id="Icons/20/ellipsis" stroke="none" stroke-width="1" fill="none" fill-rule="evenodd">
        <g id="Elli" transform="translate(2.000000, 8.000000)" fill="#000000">
            <path class="cls-1" d="M4,2 C4,3.104 3.104,4 2,4 C0.895,4 0,3.104 0,2 C0,0.895 0.895,0 2,0 C3.104,0 4,0.895 4,2" id="Fill-29"></path>
            <path class="cls-1" d="M10,2 C10,3.104 9.104,4 8,4 C6.895,4 6,3.104 6,2 C6,0.895 6.895,0 8,0 C9.104,0 10,0.895 10,2" id="Fill-31"></path>
            <path class="cls-1" d="M16,2 C16,3.104 15.104,4 14,4 C12.895,4 12,3.104 12,2 C12,0.895 12.895,0 14,0 C15.104,0 16,0.895 16,2" id="Fill-33"></path>
        </g>
    </g>
</svg>