<?xml version="1.0" encoding="UTF-8"?>
<svg width="20px" height="20px" viewBox="0 0 20 20" version="1.1" 
    xmlns="http://www.w3.org/2000/svg" 
    xmlns:xlink="http://www.w3.org/1999/xlink">
    <!-- Generator: Sketch 61 (89581) - https://sketch.com -->

    <desc>Created with Sketch.</desc>
    <g id="Icons/20/email" stroke="none" stroke-width="1" fill="none" fill-rule="evenodd">
        <path class="cls-1" d="M18.73,2.78999996 L1.27999996,2.78999996 C0.593362363,2.77317053 0.0217727387,3.31350135 -5.00000006e-08,3.99999997 L-5.00000006e-08,16 C-5.00000006e-08,16.690356 0.559644016,17.25 1.24999996,17.25 L18.73,17.25 C19.0649723,17.2553603 19.3880769,17.1260344 19.626841,16.8910304 C19.865605,16.6560264 19.9999999,16.3350151 19.9999999,16 L19.9999999,3.99999997 C19.9782413,3.31747726 19.4127764,2.77872731 18.73,2.78999996 L18.73,2.78999996 Z M15.49,11.94 C15.1971825,11.6475466 14.7228176,11.6475466 14.43,11.94 C14.1429357,12.2350273 14.1429357,12.7049728 14.43,13 L17.29,15.67 L2.67999996,15.67 L5.53999998,13 C5.83245336,12.7071825 5.83245336,12.2328176 5.53999998,11.94 C5.24718243,11.6475466 4.77281752,11.6475466 4.47999996,11.94 L1.47999996,14.73 L1.47999996,5.20999998 L8.47999996,11.47 C8.89837823,11.8377588 9.44366475,12.0278916 10,12 C10.5298276,12.0018324 11.0420197,11.8097604 11.44,11.46 L18.44,5.19999998 L18.44,14.72 L15.49,11.94 Z M17.26,4.28999997 L10.44,10.35 C10.1839619,10.5484837 9.82603813,10.5484837 9.57,10.35 L2.74999996,4.28999997 L17.26,4.28999997 Z" id="email-20" fill="#000000"></path>
    </g>
</svg>