<?xml version="1.0" encoding="UTF-8"?>
<svg width="20px" height="20px" viewBox="0 0 20 20" version="1.1" 
    xmlns="http://www.w3.org/2000/svg" 
    xmlns:xlink="http://www.w3.org/1999/xlink">
    <!-- Generator: Sketch 61 (89581) - https://sketch.com -->

    <desc>Created with Sketch.</desc>
    <g id="Icons/20/file-dollar" stroke="none" stroke-width="1" fill="none" fill-rule="evenodd">
        <path class="cls-1" d="M13.2,0.933246319 C13.5553627,0.929291349 13.8978369,1.06628105 14.152381,1.31428567 L14.152381,1.31428567 L17.0095238,4.17142854 C17.2402023,4.42100553 17.3722199,4.74597173 17.3809524,5.08571426 L17.3809524,5.08571426 L17.3809524,19.0476191 C17.3809524,19.5736046 16.9545569,20.0000001 16.4285715,20.0000001 L16.4285715,20.0000001 L3.57142854,20.0000001 C3.04544306,20.0000001 2.61904758,19.5736046 2.61904758,19.0476191 L2.61904758,19.0476191 L2.61904758,1.88571425 C2.61904758,1.35972877 3.04544306,0.933246319 3.57142854,0.933246319 L3.57142854,0.933246319 Z M12.0952381,2.38095234 L4.04761902,2.38095234 L4.04761902,18.5714286 L15.9904762,18.5714286 L15.9904762,6.30476189 L13.2285714,6.13333331 C12.702586,6.13333331 12.2761905,5.70693784 12.2761905,5.18095236 L12.2761905,5.18095236 L12.0952381,2.38095234 Z M10.7809524,5.44761902 L10.7809524,6.67619046 C11.5210594,6.8335532 12.2072098,7.18155295 12.7714286,7.68571427 L12.7714286,7.68571427 L12.2761905,8.19047618 L11.7714286,8.7047619 C11.2752278,8.27537939 10.6463498,8.02988156 9.99047619,8.0095238 C9.39755756,7.95268641 8.86477987,8.37219641 8.78095237,8.96190476 C8.78095237,9.52380952 9.1047619,9.7047619 10.2952381,10.0190476 C11.3238095,10.2857143 12.8571429,10.6857143 12.8571429,12.447619 C12.8984049,13.6462264 12.048518,14.6913027 10.8666667,14.8952381 L10.8666667,14.8952381 L10.8666667,16.1047619 L9.43809524,16.1047619 L9.43809524,14.8857143 C8.58874819,14.7327408 7.79606488,14.3544894 7.14285713,13.7904762 L7.14285713,13.7904762 L8.09523809,12.7619048 C8.6685938,13.2371739 9.38862462,13.4996151 10.1333333,13.5047619 C10.7333333,13.5047619 11.4571429,13.3142857 11.4571429,12.4190476 C11.4571429,11.8476191 11.1333333,11.6761905 9.93333333,11.3714286 C8.9047619,11.1047619 7.35238094,10.7047619 7.35238094,8.93333333 C7.41026659,7.80438926 8.23942999,6.86467074 9.35238095,6.66666665 L9.35238095,6.66666665 L9.35238095,5.44761902 L10.7809524,5.44761902 Z M13.5428572,2.71428568 L13.6761905,4.70476188 L15.6476191,4.8285714 L13.5428572,2.71428568 Z" id="file-dollar-20" fill="#000000"></path>
    </g>
</svg>