<svg width="20" height="20" viewBox="0 0 20 20" fill="none" xmlns="http://www.w3.org/2000/svg">
<path fill-rule="evenodd" clip-rule="evenodd" d="M14.39 0.39L17.36 3.38C17.59 3.61 17.75 4 17.75 4.33V19C17.75 19.55 17.3 20 16.75 20H3.25C2.7 20 2.25 19.55 2.25 19V1C2.25 0.44 2.7 0 3.25 0H13.44C13.77 0 14.16 0.16 14.39 0.39ZM13.86 3.93L15.93 4.06L13.72 1.85L13.86 3.93ZM3.75 18.5H16.25V5.59L13.35 5.4C12.83 5.37 12.42 4.96 12.39 4.44L12.2 1.5H3.75V18.5ZM6.5 9.25H13.5C13.91 9.25 14.25 8.91 14.25 8.5C14.25 8.09 13.91 7.75 13.5 7.75H6.5C6.09 7.75 5.75 8.09 5.75 8.5C5.75 8.91 6.09 9.25 6.5 9.25ZM13.5 12.75H6.5C6.09 12.75 5.75 12.41 5.75 12C5.75 11.59 6.09 11.25 6.5 11.25H13.5C13.91 11.25 14.25 11.59 14.25 12C14.25 12.41 13.91 12.75 13.5 12.75ZM6.5 16.25H13.5C13.91 16.25 14.25 15.91 14.25 15.5C14.25 15.09 13.91 14.75 13.5 14.75H6.5C6.09 14.75 5.75 15.09 5.75 15.5C5.75 15.91 6.09 16.25 6.5 16.25Z" fill="black"/>
</svg>
