<?xml version="1.0" encoding="UTF-8"?>
<svg width="20px" height="20px" viewBox="0 0 20 20" version="1.1" 
    xmlns="http://www.w3.org/2000/svg" 
    xmlns:xlink="http://www.w3.org/1999/xlink">
    <!-- Generator: Sketch 61 (89581) - https://sketch.com -->

    <desc>Created with Sketch.</desc>
    <g id="Icons/20/folder" stroke="none" stroke-width="1" fill="none" fill-rule="evenodd">
        <path class="cls-1" d="M19.65,7.80999999 C19.3824387,7.49887165 18.990293,7.32295578 18.58,7.32999999 L18.58,7.32999999 L18.58,3.90999997 C18.5746142,3.4980379 18.2419621,3.16538578 17.83,3.15999997 L9.21,3.15999997 C8.68999999,3.15999997 8.64999999,3.05999997 8.47999999,2.58999996 C8.32124454,1.80205269 7.62370561,1.2389791 6.81999998,1.24984097 L0.749999954,1.24984097 C0.338037888,1.25538577 0.00538576234,1.58803789 -5.00000006e-08,1.99999996 L-5.00000006e-08,17.56 C-5.00000006e-08,17.9742136 0.335786389,18.31 0.749999954,18.31 L16.9999999,18.31 C17.7927378,18.2905315 18.463916,17.7194047 18.61,16.94 L19.91,8.93999999 C19.9934584,8.54342879 19.8983834,8.13021824 19.65,7.80999999 Z M1.49999996,12.27 L1.49999996,2.74999996 L6.91999998,2.74999996 C6.98892065,2.85400613 7.03964433,2.96897982 7.06999999,3.08999997 C7.28328308,4.07945128 8.20215745,4.75357874 9.21,4.65999997 L17,4.65999997 L17,7.32999999 L4.14999997,7.32999999 C3.3726231,7.34357366 2.6951203,7.86285725 2.47999996,8.60999999 L1.49999996,12.27 Z M17.17,16.7 C17.1478488,16.7561425 17.0990346,16.7974469 17.04,16.81 L1.83999996,16.81 L3.92999997,8.99999999 C3.97221881,8.91344687 4.05464958,8.85349722 4.14999997,8.83999999 L18.46,8.78999999 L17.17,16.7 Z M18.47,8.69999999 L18.47,8.69999999 L19.21,8.81999999 L18.47,8.69999999 Z" id="folder-20" fill="#000000"></path>
    </g>
</svg>