<?xml version="1.0" encoding="UTF-8"?>
<svg width="20px" height="20px" viewBox="0 0 20 20" version="1.1" 
    xmlns="http://www.w3.org/2000/svg" 
    xmlns:xlink="http://www.w3.org/1999/xlink">
    <!-- Generator: Sketch 61 (89581) - https://sketch.com -->

    <desc>Created with Sketch.</desc>
    <g id="Icons/20/heart-plus" stroke="none" stroke-width="1" fill="none" fill-rule="evenodd">
        <path class="cls-1" d="M13.6190476,0.390476142 C15.3754265,0.344163623 17.0625411,1.07617615 18.2285715,2.39047615 C19.0476191,3.38095235 19.904762,5.19047617 19.3238096,8.18095237 C18.8952381,10.4761905 17.1809524,12.3809524 15.7142857,14.0285714 L15.7142857,14.0285714 L15.2952381,14.4952381 C13.8136038,16.1461738 12.2227194,17.6956952 10.5333333,19.1333334 C10.405761,19.2411841 10.2432058,19.2987557 10.0761905,19.2953903 C9.91099522,19.2973884 9.74991367,19.2436945 9.61904762,19.1428572 C7.93020486,17.7216547 6.33928258,16.1880056 4.85714283,14.552381 L4.85714283,14.552381 L4.44761902,14.1047619 C2.90476187,12.4380953 1.17142853,10.5428571 0.704761858,8.27619047 C0.104761855,5.28571426 0.942857098,3.47619044 1.75238091,2.47619044 C2.90572729,1.13257719 4.60118075,0.377488643 6.37142855,0.419047571 L6.37142855,0.419047571 L6.6059227,0.428479375 C8.00617091,0.523182361 9.2777303,1.29940668 10,2.51428568 C10.752198,1.22243513 12.1244015,0.417168331 13.6190476,0.390476142 Z M13.8489057,1.8191088 L13.6,1.81904758 C11.3809524,1.82857139 10.6666667,4.38095235 10.6666667,4.38095235 C10.5878593,4.69521378 10.304943,4.91525978 9.98095238,4.91428569 L9.98095238,4.91428569 L9.87593406,4.90616038 C9.60095996,4.8643371 9.3711184,4.66473135 9.29523809,4.39047616 C9.26666666,4.28571426 8.55238095,1.84761901 6.35238093,1.84761901 L6.35238093,1.84761901 L6.10284103,1.84852036 C4.8591795,1.88744562 3.68241189,2.43987421 2.85714282,3.38095235 C1.92828628,4.72708708 1.65215077,6.41885397 2.10476187,7.99047618 C2.48571425,9.86666667 4.08571426,11.6 5.49523807,13.1333333 L5.49523807,13.1333333 L5.91428569,13.5904762 C7.21687956,15.0206187 8.60008386,16.375205 10.0571429,17.6476191 C11.5111102,16.36148 12.8880958,14.9908546 14.1809524,13.5428572 L14.1809524,13.5428572 L14.6,13.0666667 C16.0190476,11.5238095 17.5619048,9.80952381 17.9238096,7.90476189 C18.3611134,6.32779108 18.0636846,4.63769597 17.1142857,3.30476187 C16.2124193,2.32520047 14.931029,1.78347451 13.6,1.81904758 Z M10,5.85714284 C10.3944891,5.85714284 10.7142857,6.17693945 10.7142857,6.57142855 L10.7142857,6.57142855 L10.7142857,8.63809523 L12.7809524,8.63809523 C13.1754415,8.63809523 13.4952381,8.95789184 13.4952381,9.35238095 C13.4952381,9.74687006 13.1754415,10.0666667 12.7809524,10.0666667 L12.7809524,10.0666667 L10.7142857,10.0666667 L10.7142857,12.1333333 C10.7142857,12.5278225 10.3944891,12.8476191 10,12.8476191 C9.60551089,12.8476191 9.28571428,12.5278225 9.28571428,12.1333333 L9.28571428,12.1333333 L9.28571428,10.0666667 L7.21904761,10.0666667 C6.8245585,10.0666667 6.50476189,9.74687006 6.50476189,9.35238095 C6.50476189,8.95789184 6.8245585,8.63809523 7.21904761,8.63809523 L7.21904761,8.63809523 L9.28571428,8.63809523 L9.28571428,6.57142855 C9.28571428,6.17693945 9.60551089,5.85714284 10,5.85714284 Z" id="heart-plus-20" fill="#000000"></path>
    </g>
</svg>