<?xml version="1.0" encoding="UTF-8"?>
<svg width="20px" height="20px" viewBox="0 0 20 20" version="1.1" 
    xmlns="http://www.w3.org/2000/svg" 
    xmlns:xlink="http://www.w3.org/1999/xlink">
    <!-- Generator: Sketch 61 (89581) - https://sketch.com -->

    <desc>Created with Sketch.</desc>
    <g id="Icons/20/help" stroke="none" stroke-width="1" fill="none" fill-rule="evenodd">
        <path class="cls-1" d="M10,0.579999953 C15.2025224,0.579999953 19.42,4.79747763 19.42,10 C19.408999,15.1979588 15.1979588,19.408999 10,19.42 C4.79747763,19.42 0.579999953,15.2025224 0.579999953,10 C0.579999953,4.79747763 4.79747763,0.579999953 10,0.579999953 Z M10,2.07999996 C5.62590476,2.07999996 2.07999996,5.62590476 2.07999996,10 C2.07999996,14.3740952 5.62590476,17.92 10,17.92 C14.3740952,17.92 17.92,14.3740952 17.92,10 C17.9144905,5.62818892 14.3718111,2.0855095 10,2.07999996 Z M9.99999999,13.7 C10.5522848,13.7 11,14.1477153 11,14.7 C11,15.2522848 10.5522848,15.7 9.99999999,15.7 C9.44771525,15.7 8.99999999,15.2522848 8.99999999,14.7 C8.99999999,14.1477153 9.44771525,13.7 9.99999999,13.7 Z M12.4716953,5.34272835 C13.1084637,5.87994299 13.5039316,6.64951306 13.57,7.47999999 C13.6030689,8.63407181 13.0001391,9.71320093 12,10.29 C11.2140972,10.6979135 10.7066687,11.4953012 10.67,12.38 L10.63,12.53 L9.13,12.53 L9.13,12.38 C9.15851037,11.0226325 9.88910497,9.77721478 11.06,9.09 C11.75,8.56999999 12.06,8.33999999 12.06,7.47999999 C12.06,6.81999998 11.35,6.11999998 10.17,6.11999998 C9.27369528,6.07321705 8.45598784,6.62925811 8.16999999,7.47999999 L6.71999998,7.09999999 C7.16815291,5.57769787 8.5944174,4.55540424 10.18,4.61999997 C11.0097533,4.54528 11.8349268,4.80551371 12.4716953,5.34272835 Z" id="help-20" fill="#000000"></path>
    </g>
</svg>