<?xml version="1.0" encoding="UTF-8"?>
<svg width="20px" height="20px" viewBox="0 0 20 20" version="1.1" 
    xmlns="http://www.w3.org/2000/svg" 
    xmlns:xlink="http://www.w3.org/1999/xlink">
    <!-- Generator: Sketch 61 (89581) - https://sketch.com -->

    <desc>Created with Sketch.</desc>
    <g id="Icons/20/home" stroke="none" stroke-width="1" fill="none" fill-rule="evenodd">
        <path class="cls-1" d="M19.59,9.1 L10.44,1.39999996 C10.1590002,1.13584455 9.72099977,1.13584455 9.44,1.39999996 L6.99999998,3.49999997 L6.99999998,2.62999996 C7.00271782,2.43026681 6.92457324,2.23791818 6.7833275,2.09667244 C6.64208176,1.9554267 6.44973313,1.87728212 6.24999998,1.87999996 L3.30999997,1.87999996 C2.8957864,1.87999996 2.55999996,2.2157864 2.55999996,2.62999996 L2.55999996,7.21999999 L0.329999952,9.1 C0.0124362338,9.37614238 -0.0211424021,9.85743626 0.254999968,10.175 C0.531142339,10.4925637 1.01243622,10.5261424 1.32999996,10.25 L2.55999996,9.18 L2.55999996,18 C2.56538578,18.4119621 2.8980379,18.7446142 3.30999997,18.75 L16.61,18.75 C17.0219621,18.7446142 17.3546142,18.4119621 17.36,18 L17.36,9.18 L18.63,10.25 C18.763951,10.3632432 18.934634,10.4236934 19.11,10.42 C19.4226548,10.4169152 19.7005927,10.220189 19.8074455,9.9263438 C19.9142983,9.63249857 19.8276445,9.30319366 19.59,9.1 L19.59,9.1 Z M4.05999997,3.37999997 L5.47999998,3.37999997 L5.47999998,4.75999997 L4.05999997,5.99999998 L4.05999997,3.37999997 Z M8.41999999,17.24 L8.41999999,12.62 L11.5,12.62 L11.5,17.24 L8.41999999,17.24 Z M15.86,17.24 L13,17.24 L13,11.87 C13,11.4557864 12.6642136,11.12 12.25,11.12 L7.66999999,11.12 C7.25578642,11.12 6.91999998,11.4557864 6.91999998,11.87 L6.91999998,17.24 L4.05999997,17.24 L4.05999997,7.91999999 L10,2.99999996 L15.9,7.99999996 L15.86,17.24 Z" id="home-20" fill="#000000"></path>
    </g>
</svg>