<svg width="15" height="16" viewBox="0 0 15 16" fill="none" xmlns="http://www.w3.org/2000/svg">
<path fill-rule="evenodd" clip-rule="evenodd" d="M7.5 3.875C7.18934 3.875 6.9375 3.62316 6.9375 3.3125C6.9375 3.00184 7.18934 2.75 7.5 2.75H12.1875C12.2638 2.75 12.3365 2.76518 12.4028 2.79268C12.4682 2.81973 12.5295 2.85962 12.5829 2.91237C12.5845 2.91395 12.586 2.91555 12.5876 2.91715C12.6404 2.97052 12.6803 3.03182 12.7073 3.09718C12.7348 3.16351 12.75 3.23623 12.75 3.3125V8C12.75 8.31066 12.4982 8.5625 12.1875 8.5625C11.8768 8.5625 11.625 8.31066 11.625 8V4.67049L6.96025 9.33525C6.74058 9.55492 6.38442 9.55492 6.16475 9.33525C5.94508 9.11558 5.94508 8.75942 6.16475 8.53975L10.8295 3.875H7.5ZM2.25 3.5C2.25 3.18934 2.50184 2.9375 2.8125 2.9375H4.2225C4.53316 2.9375 4.785 3.18934 4.785 3.5C4.785 3.81066 4.53316 4.0625 4.2225 4.0625H3.375V12.125H11.4375V11.285C11.4375 10.9743 11.6893 10.7225 12 10.7225C12.3107 10.7225 12.5625 10.9743 12.5625 11.285V12.6875C12.5625 12.9982 12.3107 13.25 12 13.25H2.8125C2.50184 13.25 2.25 12.9982 2.25 12.6875V3.5Z" fill="white"/>
</svg>
