<svg width="12" height="12" viewBox="0 0 12 12" fill="none" xmlns="http://www.w3.org/2000/svg">
<path fill-rule="evenodd" clip-rule="evenodd" d="M6.00005 2.69999C5.75152 2.69999 5.55005 2.49852 5.55005 2.24999C5.55005 2.00146 5.75152 1.79999 6.00005 1.79999H9.75005C9.81106 1.79999 9.86924 1.81213 9.9223 1.83413C9.97459 1.85577 10.0236 1.88769 10.0663 1.92989C10.0676 1.93115 10.0689 1.93242 10.0702 1.9337C10.1124 1.9764 10.1443 2.02544 10.1659 2.07774C10.1879 2.13079 10.2 2.18897 10.2 2.24999V5.99999C10.2 6.24852 9.99858 6.44999 9.75005 6.44999C9.50152 6.44999 9.30005 6.24852 9.30005 5.99999V3.33638L5.56825 7.06819C5.39251 7.24392 5.10759 7.24392 4.93185 7.06819C4.75611 6.89245 4.75611 6.60753 4.93185 6.43179L8.66365 2.69999H6.00005ZM1.80005 2.39999C1.80005 2.15146 2.00152 1.94999 2.25005 1.94999H3.37805C3.62658 1.94999 3.82805 2.15146 3.82805 2.39999C3.82805 2.64852 3.62658 2.84999 3.37805 2.84999H2.70005V9.29999H9.15005V8.62799C9.15005 8.37946 9.35152 8.17799 9.60005 8.17799C9.84858 8.17799 10.05 8.37946 10.05 8.62799V9.74999C10.05 9.99852 9.84858 10.2 9.60005 10.2H2.25005C2.00152 10.2 1.80005 9.99852 1.80005 9.74999V2.39999Z" fill="#C6C6C6"/>
</svg>
