<svg width="20" height="20" viewBox="0 0 20 20" fill="none" xmlns="http://www.w3.org/2000/svg">
<path class="cls-1" fill-rule="evenodd" clip-rule="evenodd" d="M10.7888 6.12625C10.5747 6.12625 10.37 6.08609 10.1748 6.00577C9.9796 5.92545 9.80643 5.81116 9.65529 5.66288C9.50416 5.5146 9.38451 5.3447 9.29635 5.15317C9.20819 4.96165 9.16411 4.75468 9.16411 4.53226C9.16411 4.30984 9.20819 4.10288 9.29635 3.91135C9.38451 3.71982 9.50416 3.55301 9.65529 3.41091C9.80643 3.26881 9.9796 3.15452 10.1748 3.06802C10.37 2.98153 10.5747 2.93828 10.7888 2.93828C11.0155 2.93828 11.2265 2.98153 11.4217 3.06802C11.6169 3.15452 11.7869 3.26881 11.9318 3.41091C12.0766 3.55301 12.1931 3.71982 12.2813 3.91135C12.3694 4.10288 12.4135 4.30984 12.4135 4.53226C12.4135 4.75468 12.3694 4.96165 12.2813 5.15317C12.1931 5.3447 12.0766 5.5146 11.9318 5.66288C11.7869 5.81116 11.6169 5.92545 11.4217 6.00577C11.2265 6.08609 11.0155 6.12625 10.7888 6.12625ZM12.4892 13.9108C12.464 14.3557 12.3727 14.7727 12.2153 15.1619C12.0578 15.5511 11.8532 15.8848 11.6013 16.1628C11.3494 16.4408 11.0629 16.6601 10.7417 16.8208C10.4205 16.9814 10.0899 17.0617 9.74987 17.0617C9.49798 17.0617 9.26498 17.0061 9.05088 16.8949C8.83677 16.7837 8.6573 16.6107 8.51246 16.3759C8.36762 16.1412 8.27631 15.8446 8.23853 15.4863C8.20074 15.1279 8.23853 14.7078 8.35188 14.2259L9.10755 10.2039C9.13274 10.0927 9.15163 9.99073 9.16423 9.89806C9.17682 9.80538 9.18312 9.7158 9.18312 9.6293C9.18312 9.41924 9.08866 9.25552 8.89974 9.13813C8.71082 9.02075 8.38966 8.96205 7.93626 8.96205L7.8418 8.33187L11.7524 7.34953L11.8469 7.42367L10.5433 14.6151C10.43 15.1835 10.5685 15.4677 10.959 15.4677C11.0597 15.4677 11.1668 15.4245 11.2801 15.338C11.3935 15.2515 11.5005 15.1341 11.6013 14.9858C11.702 14.8376 11.7933 14.6677 11.8752 14.4761C11.9571 14.2846 12.0106 14.0838 12.0358 13.8737L12.4892 13.9108Z"/>
<mask id="mask0_2387:12772" style="mask-type:alpha" maskUnits="userSpaceOnUse" x="7" y="2" width="6" height="16">
<path class="cls-1" fill-rule="evenodd" clip-rule="evenodd" d="M10.7888 6.12625C10.5747 6.12625 10.37 6.08609 10.1748 6.00577C9.9796 5.92545 9.80643 5.81116 9.65529 5.66288C9.50416 5.5146 9.38451 5.3447 9.29635 5.15317C9.20819 4.96165 9.16411 4.75468 9.16411 4.53226C9.16411 4.30984 9.20819 4.10288 9.29635 3.91135C9.38451 3.71982 9.50416 3.55301 9.65529 3.41091C9.80643 3.26881 9.9796 3.15452 10.1748 3.06802C10.37 2.98153 10.5747 2.93828 10.7888 2.93828C11.0155 2.93828 11.2265 2.98153 11.4217 3.06802C11.6169 3.15452 11.7869 3.26881 11.9318 3.41091C12.0766 3.55301 12.1931 3.71982 12.2813 3.91135C12.3694 4.10288 12.4135 4.30984 12.4135 4.53226C12.4135 4.75468 12.3694 4.96165 12.2813 5.15317C12.1931 5.3447 12.0766 5.5146 11.9318 5.66288C11.7869 5.81116 11.6169 5.92545 11.4217 6.00577C11.2265 6.08609 11.0155 6.12625 10.7888 6.12625ZM12.4892 13.9108C12.464 14.3557 12.3727 14.7727 12.2153 15.1619C12.0578 15.5511 11.8532 15.8848 11.6013 16.1628C11.3494 16.4408 11.0629 16.6601 10.7417 16.8208C10.4205 16.9814 10.0899 17.0617 9.74987 17.0617C9.49798 17.0617 9.26498 17.0061 9.05088 16.8949C8.83677 16.7837 8.6573 16.6107 8.51246 16.3759C8.36762 16.1412 8.27631 15.8446 8.23853 15.4863C8.20074 15.1279 8.23853 14.7078 8.35188 14.2259L9.10755 10.2039C9.13274 10.0927 9.15163 9.99073 9.16423 9.89806C9.17682 9.80538 9.18312 9.7158 9.18312 9.6293C9.18312 9.41924 9.08866 9.25552 8.89974 9.13813C8.71082 9.02075 8.38966 8.96205 7.93626 8.96205L7.8418 8.33187L11.7524 7.34953L11.8469 7.42367L10.5433 14.6151C10.43 15.1835 10.5685 15.4677 10.959 15.4677C11.0597 15.4677 11.1668 15.4245 11.2801 15.338C11.3935 15.2515 11.5005 15.1341 11.6013 14.9858C11.702 14.8376 11.7933 14.6677 11.8752 14.4761C11.9571 14.2846 12.0106 14.0838 12.0358 13.8737L12.4892 13.9108Z"/>
</mask>
<g mask="url(#mask0_2387:12772)">
</g>
</svg>
