<?xml version="1.0" encoding="UTF-8"?>
<svg width="20px" height="20px" viewBox="0 0 20 20" version="1.1" 
    xmlns="http://www.w3.org/2000/svg" 
    xmlns:xlink="http://www.w3.org/1999/xlink">
    <!-- Generator: Sketch 61 (89581) - https://sketch.com -->

    <desc>Created with Sketch.</desc>
    <g id="Icons/20/notebook" stroke="none" stroke-width="1" fill="none" fill-rule="evenodd">
        <path class="cls-1" d="M15.6,-4.99980999e-08 C16.3328239,-4.99980999e-08 17.0353452,0.292455699 17.5516491,0.81251447 C18.0679529,1.33257324 18.3553297,2.03719551 18.3500729,2.76999996 L18.3500729,2.76999996 L18.3500729,17.25 C18.3500729,17.9793454 18.0602687,18.6788187 17.5445437,19.1945437 C17.0288186,19.7102687 16.3293454,20 15.6,20 L15.6,20 L2.99999996,20 C2.79577897,20 2.60032231,19.9170411 2.45877491,19.7698318 C2.31722752,19.6226225 2.24183105,19.4240577 2.24999996,19.22 L2.24999996,19.22 L2.24999996,17.3 L1.34999996,17.3 C0.935786392,17.3 0.599999953,16.9642136 0.599999953,16.55 C0.599999953,16.1357865 0.935786392,15.8 1.34999996,15.8 L1.34999996,15.8 L2.24999996,15.8 L2.24999996,14.2 L1.34999996,14.2 C0.935786392,14.2 0.599999953,13.8642136 0.599999953,13.45 C0.599999953,13.0357865 0.935786392,12.7 1.34999996,12.7 L1.34999996,12.7 L2.24999996,12.7 L2.24999996,7.29999999 L1.34999996,7.29999999 C0.935786392,7.29999999 0.599999953,6.96421355 0.599999953,6.54999998 C0.599999953,6.13578642 0.935786392,5.79999998 1.34999996,5.79999998 L1.34999996,5.79999998 L2.24999996,5.79999998 L2.24999996,4.18999997 L1.34999996,4.18999997 C0.935786398,4.18999996 0.599999953,3.85421353 0.599999953,3.43999997 C0.599999953,3.02578641 0.935786398,2.68999997 1.34999996,2.68999996 L1.34999996,2.68999996 L2.24999996,2.68999996 L2.24999996,0.749999954 C2.24999996,0.335786389 2.5857864,-4.99980999e-08 2.99999996,-4.99980999e-08 L2.99999996,-4.99980999e-08 Z M15.6,1.51999996 L3.70999997,1.51999996 L3.70999997,2.68999996 L4.61999997,2.68999996 C5.03421354,2.68999996 5.36999998,3.0257864 5.36999998,3.43999997 C5.36999998,3.85421353 5.03421354,4.18999997 4.61999997,4.18999997 L4.61999997,4.18999997 L3.70999997,4.18999997 L3.70999997,5.79999998 L4.61999997,5.79999998 C5.03421354,5.79999998 5.36999998,6.13578642 5.36999998,6.54999998 C5.36999998,6.96421355 5.03421354,7.29999999 4.61999997,7.29999999 L4.61999997,7.29999999 L3.70999997,7.29999999 L3.70999997,12.7 L4.61999997,12.7 C5.03421354,12.7 5.36999998,13.0357865 5.36999998,13.45 C5.36999998,13.8642136 5.03421354,14.2 4.61999997,14.2 L4.61999997,14.2 L3.70999997,14.2 L3.70999997,15.8 L4.61999997,15.8 C5.03421354,15.8 5.36999998,16.1357865 5.36999998,16.55 C5.36999998,16.9642136 5.03421354,17.3 4.61999997,17.3 L4.61999997,17.3 L3.70999997,17.3 L3.70999997,18.45 L15.6,18.45 C16.290356,18.45 16.85,17.890356 16.85,17.2 L16.85,17.2 L16.85,2.76999996 C16.85,2.07964402 16.290356,1.51999996 15.6,1.51999996 L15.6,1.51999996 Z M13.65,4.89999997 C14.0642136,4.89999997 14.4000686,5.23578641 14.4000686,5.64999998 L14.4000686,5.64999998 L14.4000686,10 C14.4027179,10.1997332 14.3245733,10.3920818 14.1833275,10.5333275 C14.0420818,10.6745733 13.8497332,10.7527178 13.65,10.75 L13.65,10.75 L7.83999999,10.75 C7.42578642,10.75 7.08999999,10.4142136 7.08999999,10 L7.08999999,10 L7.08999999,5.64999998 C7.0953858,5.23803791 7.42803792,4.90538579 7.83999999,4.89999997 L7.83999999,4.89999997 Z M12.9,6.39999998 L8.58999999,6.39999998 L8.58999999,9.23 L12.9,9.23 L12.9,6.39999998 Z" id="notebook-20" fill="#000000"></path>
    </g>
</svg>