<?xml version="1.0" encoding="UTF-8"?>
<svg width="20px" height="20px" viewBox="0 0 20 20" version="1.1" 
    xmlns="http://www.w3.org/2000/svg" 
    xmlns:xlink="http://www.w3.org/1999/xlink">
    <!-- Generator: Sketch 61 (89581) - https://sketch.com -->

    <desc>Created with Sketch.</desc>
    <g id="Icons/20/pencil-plus" stroke="none" stroke-width="1" fill="none" fill-rule="evenodd">
        <path class="cls-1" d="M16,18.45 L16,18.5 C16.4142136,18.5 16.75,18.8357865 16.75,19.25 C16.75,19.6642136 16.4142136,20.0000001 16,20.0000001 L16,20.0000001 L3.99999997,20.0000001 C3.57197929,20.0000001 3.22499997,19.6530207 3.22499997,19.225 C3.22499997,18.7969794 3.57197929,18.45 3.99999997,18.45 L3.99999997,18.45 L16,18.45 Z M5.91714137,1.54473206 L6.12084518,1.55570694 C6.80062567,1.61955373 7.42673575,1.95230684 7.85999999,2.47999996 L7.85999999,2.47999996 L9.22,4.11999997 L14.77,10.78 C14.8215959,10.8463864 14.8621188,10.9206784 14.89,11 L14.89,11 L16.85,16.21 C16.9588911,16.5135419 16.8670961,16.8527841 16.62,17.06 C16.4835234,17.1687689 16.3145126,17.2286269 16.14,17.23 C16.0026474,17.2278646 15.8682253,17.1899507 15.75,17.12 L15.75,17.12 L10.99,14.22 C10.918104,14.1777531 10.8538658,14.1236578 10.8,14.06 L10.8,14.06 L6.91999998,9.4 L6.80999998,9.32 C6.73999998,9.28 6.73999998,9.19 6.73999998,9.19 L6.73999998,9.19 L5.24999998,7.39999999 L3.89999997,5.75999998 C3.45888597,5.23837277 3.24944144,4.5594836 3.31999997,3.87999997 C3.37698631,3.19893577 3.70923163,2.57055874 4.23999997,2.13999996 C4.7639449,1.70221046 5.44106469,1.49186016 6.12084518,1.55570694 Z M10.13,7.54999999 L8.46999999,8.91999999 L11.87,13 L14.68,14.71 L13.53,11.63 L10.13,7.54999999 Z M8.54999999,5.62999998 L7.71999999,6.31999998 L7.46999999,6.52999998 L6.88999998,6.99999999 L7.50999999,7.76999999 L9.17,6.37999998 L8.54999999,5.62999998 Z M15.47,0.129999951 C15.8842136,0.129999951 16.22,0.46578639 16.22,0.879999954 L16.22,0.879999954 L16.22,2.63999996 L18,2.63999996 C18.4142136,2.63999996 18.75,2.9757864 18.75,3.38999997 C18.75,3.80421353 18.4142136,4.13999997 18,4.13999997 L18,4.13999997 L16.26,4.13999997 L16.26,5.89999998 C16.26,6.16794918 16.1170509,6.41554447 15.885,6.54951907 C15.6529492,6.68349368 15.3670508,6.68349368 15.135,6.54951907 C14.9029492,6.41554447 14.76,6.16794918 14.76,5.89999998 L14.76,5.89999998 L14.76,4.13999997 L13,4.13999997 C12.5857865,4.13999997 12.25,3.80421353 12.25,3.38999997 C12.25,2.9757864 12.5857865,2.63999996 13,2.63999996 L13,2.63999996 L14.72,2.63999996 L14.72,0.879999954 C14.72,0.46578639 15.0557865,0.129999951 15.47,0.129999951 Z M5.87999998,3.04999997 C5.62977085,3.05139468 5.38708227,3.1358081 5.18999998,3.28999997 C4.73714482,3.67397618 4.67490113,4.34976484 5.04999998,4.80999997 L5.04999998,4.80999997 L5.92999998,5.86999998 L7.33999999,4.70999997 L7.58999999,4.49999997 L6.70999998,3.43999997 C6.50679489,3.19085475 6.20149476,3.04740047 5.87999998,3.04999997 Z" id="pencil-plus-20" fill="#000000"></path>
    </g>
</svg>