<?xml version="1.0" encoding="UTF-8"?>
<svg width="20px" height="20px" viewBox="0 0 20 20" version="1.1" 
    xmlns="http://www.w3.org/2000/svg" 
    xmlns:xlink="http://www.w3.org/1999/xlink">
    <!-- Generator: Sketch 61 (89581) - https://sketch.com -->

    <desc>Created with Sketch.</desc>
    <g id="Icons/20/people-group" stroke="none" stroke-width="1" fill="none" fill-rule="evenodd">
        <path class="cls-1" d="M10.1893006,8.40992197 C11.4445572,8.41728812 14.2476191,8.56092795 14.2476191,11.3619048 L14.2476191,11.3619048 L14.2476191,12.3142857 C14.2476191,13.8285714 13.5714286,14.2476191 12.4190476,14.5047619 L12.4190476,14.5047619 L12.6952381,18.3619048 C12.7072365,18.5610958 12.6385901,18.7567381 12.5047619,18.9047619 C12.3689031,19.049577 12.1795167,19.1322184 11.9809524,19.1333334 L11.9809524,19.1333334 L7.95238094,19.1333334 C7.75381668,19.1322184 7.56443019,19.049577 7.42857142,18.9047619 C7.29075086,18.759142 7.22147771,18.5617135 7.23809522,18.3619048 L7.23809522,18.3619048 L7.55238094,14.4571429 C6.39999998,14.1714286 5.71428569,13.7809524 5.71428569,12.2666667 L5.71428569,12.2666667 L5.71428569,11.3142857 C5.71428569,8.55848595 8.5173476,8.41716289 9.80513398,8.40991555 Z M10,9.88571429 C7.14285713,9.88571429 7.14285713,10.7714286 7.14285713,11.3619048 L7.14285713,11.3619048 L7.14285713,12.3142857 C7.14285713,13 7.14285713,13 8.39047618,13.2095238 C8.73621759,13.2655644 8.99031844,13.5640321 8.99047619,13.9142857 C8.99047619,13.9619048 8.99047619,13.9619048 8.71428571,17.7238096 L8.71428571,17.7238096 L11.2476191,17.7238096 C10.9809524,13.9142857 10.9809524,13.9142857 10.9809524,13.9142857 L10.9884557,13.8109539 C11.0328467,13.5067628 11.2697851,13.2599603 11.5809524,13.2095238 C12.8571429,13 12.8571429,13 12.8571429,12.3142857 L12.8570634,11.3074446 C12.8545192,10.7185622 12.7705628,9.88571429 10,9.88571429 Z M5.23809521,5.48571426 C5.62885566,5.49610161 5.93868333,5.81866192 5.93333331,6.20952379 C5.92835554,6.59298853 5.62145674,6.90409142 5.23809521,6.9142857 L5.23809521,6.9142857 L4.81904759,6.9142857 C2.32380949,6.9142857 2.32380949,7.63809523 2.32380949,8.17142856 L2.32380949,9.04761904 C2.32380949,9.44761904 2.38095234,9.52380952 2.38095234,9.52380952 C2.67984044,9.67255064 3.00192702,9.76917661 3.3333333,9.80952381 C3.69418706,9.84822504 3.96865897,10.1513731 3.97142854,10.5142857 C3.97142854,10.5333333 3.97142854,10.5333333 3.7333333,13.8476191 L3.7333333,13.8476191 L4.04761902,13.8476191 C4.44210813,13.8476191 4.76190474,14.1674157 4.76190474,14.5619048 C4.76190474,14.9563939 4.44210813,15.2761905 4.04761902,15.2761905 L4.04761902,15.2761905 L2.96190473,15.2761905 C2.76235818,15.2798591 2.57111499,15.1964076 2.4380952,15.0476191 C2.3048029,14.9030895 2.23604052,14.7105549 2.24761901,14.5142857 L2.24761901,14.5142857 L2.49523806,11.0952381 C1.99798559,11.0687829 1.53514741,10.8331499 1.22120853,10.446624 C0.907269646,10.0600981 0.771549483,9.55877775 0.847619002,9.06666666 L0.847619002,9.06666666 L0.847619002,8.17142856 C0.847619002,5.63492061 3.3961199,5.4940035 4.5778692,5.48617478 Z M15.3474345,5.48617478 C16.5370959,5.4940035 19.0835979,5.63492061 19.0476191,8.17142856 L19.0476191,8.17142856 L19.0476191,9.07619047 C19.123824,9.56733082 18.9878873,10.0677284 18.6736521,10.4528028 C18.3594169,10.8378771 17.8964453,11.0714019 17.4,11.0952381 L17.4,11.0952381 L17.6476191,14.5142857 C17.6591976,14.7105549 17.5904352,14.9030895 17.4571429,15.0476191 C17.3241231,15.1964076 17.1328799,15.2798591 16.9333334,15.2761905 L16.9333334,15.2761905 L15.8476191,15.2761905 C15.45313,15.2761905 15.1333334,14.9563939 15.1333334,14.5619048 C15.1333334,14.1674157 15.45313,13.8476191 15.8476191,13.8476191 L15.8476191,13.8476191 L16.1619048,13.8476191 C15.9238096,10.5142857 15.9238096,10.5142857 15.9238096,10.5142857 L15.9313129,10.4109538 C15.9757039,10.1067628 16.2126423,9.85996031 16.5238096,9.80952381 C16.8830097,9.78346441 17.2346162,9.69314348 17.5619048,9.54285714 C17.5619048,9.54285714 17.6190477,9.46666666 17.6190477,9.06666666 L17.6190477,9.06666666 L17.6189645,8.11752542 C17.616471,7.57431246 17.5391705,6.9142857 15.1428572,6.9142857 L15.1428572,6.9142857 L14.7047619,6.9142857 C14.3102728,6.9142857 13.9904762,6.59448909 13.9904762,6.19999998 C13.9904762,5.80551087 14.3102728,5.48571426 14.7047619,5.48571426 L14.7047619,5.48571426 Z M9.94938866,2.49551151 C11.4066196,2.48865288 12.5954745,3.66064456 12.6094029,5.11782523 C12.6233312,6.5750059 11.4570964,7.76950859 10,7.79047618 C9.29199247,7.79809401 8.61022572,7.52282021 8.10599649,7.02574317 C7.60176726,6.52866613 7.31678253,5.85090123 7.3142857,5.14285712 C7.31443655,3.68560989 8.49215771,2.50243057 9.94938866,2.49551151 Z M10,3.92380949 C9.67013964,3.91349628 9.35019228,4.03736384 9.11326969,4.26710696 C8.87634709,4.49685008 8.74269595,4.81283562 8.74285699,5.14285712 C8.7431835,5.81108658 9.28140571,6.35450307 9.94960122,6.36124727 C10.6177967,6.36799146 11.1668777,5.83554927 11.1806917,5.16746253 C11.1945057,4.49937579 10.6679032,3.94469175 10,3.92380949 Z M3.90846131,0.363569935 C4.76374402,0.0103500858 5.74761323,0.207658015 6.40056711,0.86334392 C7.05352099,1.51902982 7.2467192,2.50371429 6.88993133,3.35751473 C6.53314346,4.21131516 5.6967706,4.76576036 4.77142855,4.76192472 C3.51278427,4.75666034 2.49523806,3.73484564 2.49523806,2.47619044 C2.49523806,1.55084036 3.0531786,0.716789785 3.90846131,0.363569935 Z M15.1522885,0.190495893 C16.4109121,0.195753281 17.4284919,1.2175299 17.4284919,2.47616437 C17.4284919,3.73479884 16.4110043,4.75661663 15.152381,4.76190474 C14.5419923,4.76190474 13.9567415,4.51878405 13.5260261,4.08628138 C13.0953106,3.65377872 12.8546101,3.06752626 12.8571231,2.45714282 C12.8676426,1.19855214 13.8936649,0.185278924 15.1522885,0.190495893 Z M4.77142855,1.60952374 C4.54328653,1.60946616 4.32475367,1.70137856 4.1652352,1.86448172 C4.00571673,2.02758488 3.9186827,2.24810603 3.92380949,2.47619044 C3.91995958,2.82457569 4.12737126,3.14062843 4.44851534,3.27573426 C4.76965942,3.41084008 5.14063094,3.33811406 5.38699155,3.09175345 C5.63335217,2.84539283 5.70607819,2.47442132 5.57097237,2.15327723 C5.43586654,1.83213315 5.1198138,1.62472147 4.77142855,1.62857139 L4.77142855,1.62857139 Z M15.152381,1.60952374 C14.924239,1.60946616 14.7057061,1.70137856 14.5461876,1.86448172 C14.3866692,2.02758488 14.2996351,2.24810603 14.3047619,2.47619044 C14.300912,2.82457569 14.5083237,3.14062843 14.8294678,3.27573426 C15.1506119,3.41084008 15.5215834,3.33811406 15.767944,3.09175345 C16.0143046,2.84539283 16.0870306,2.47442132 15.9519248,2.15327723 C15.816819,1.83213315 15.5007662,1.62472147 15.152381,1.62857139 L15.152381,1.62857139 Z" id="people-group-20" fill="#000000"></path>
    </g>
</svg>