<?xml version="1.0" encoding="UTF-8"?>
<svg width="20px" height="20px" viewBox="0 0 20 20" version="1.1" 
    xmlns="http://www.w3.org/2000/svg" 
    xmlns:xlink="http://www.w3.org/1999/xlink">
    <!-- Generator: Sketch 61 (89581) - https://sketch.com -->

    <desc>Created with Sketch.</desc>
    <g id="Icons/20/people-family-circle" stroke="none" stroke-width="1" fill="none" fill-rule="evenodd">
        <path class="cls-1" d="M9.99999995,0.499999953 C15.2467051,0.499999953 19.5,4.75329485 19.5,9.99999995 C19.5,15.2467051 15.2467051,19.5 9.99999995,19.5 C4.75329485,19.5 0.499999952,15.2467051 0.499999952,9.99999995 C0.499999952,4.75329485 4.75329485,0.499999953 9.99999995,0.499999953 Z M13.5133799,16.0565684 L13.14,16.06 C10.64625,16.06 10.4903906,16.6049219 10.4806494,17.2662989 L10.48,18 C12.1271992,17.8928588 13.7016443,17.2819322 14.99,16.25 C14.3851867,16.100845 13.762505,16.0368939 13.14,16.06 Z M16.1226087,4.81333474 C13.6038929,1.84456426 9.31367842,1.12007871 5.9597631,3.09714202 C2.60584777,5.07420533 1.16220513,9.17868037 2.53999996,12.82 C3.26999997,11.06 5.29999998,10.64 8.06999999,10.64 C8.48421355,10.64 8.81999999,10.9757864 8.81999999,11.39 C8.81999999,11.8042136 8.48421355,12.14 8.06999999,12.14 C4.05999997,12.14 3.74999997,13.12 3.74999997,14.5 L3.74999997,14.93 C5.04013882,16.5783165 6.92491839,17.6553334 9,17.93 L9,17.93 L9,17.32 C9,14.9 11,14.56 13.14,14.58 C14.1719339,14.4979452 15.2071614,14.6911877 16.14,15.14 L16.14,15.14 L16.16,15.12 C18.6571091,12.1330327 18.6413245,7.78210521 16.1226087,4.81333474 Z M13,8.24999999 C14.5187831,8.24999999 15.75,9.48121694 15.75,11 C15.75,12.5187831 14.5187831,13.75 13,13.75 C11.4812169,13.75 10.25,12.5187831 10.25,11 C10.25,9.48121694 11.4812169,8.24999999 13,8.24999999 Z M13,9.75 C12.3096441,9.75 11.75,10.3096441 11.75,11 C11.75,11.6903559 12.3096441,12.25 13,12.25 C13.690356,12.25 14.25,11.6903559 14.25,11 C14.25,10.3096441 13.690356,9.75 13,9.75 Z M7.70999997,3.81999997 C8.50564946,3.81999997 9.2687112,4.13607049 9.83132034,4.69867963 C10.3939295,5.26128877 10.71,6.02435051 10.71,6.81999997 C10.71,8.47685424 9.36685425,9.81999997 7.70999997,9.81999997 C6.05314573,9.81999997 4.70999997,8.47685424 4.70999997,6.81999997 C4.70999997,5.16314573 6.05314573,3.81999997 7.70999997,3.81999997 Z M7.70999998,5.31999998 C6.88157286,5.31999998 6.20999998,5.99157286 6.20999998,6.81999998 C6.20999998,7.64842711 6.88157286,8.31999998 7.70999998,8.31999998 C8.10782473,8.31999998 8.4893556,8.16196473 8.77066017,7.88066016 C9.05196473,7.59935559 9.20999998,7.21782472 9.20999998,6.81999998 C9.20999998,5.99157286 8.53842712,5.31999998 7.70999998,5.31999998 Z" id="people-family-circle-20" fill="#000000"></path>
    </g>
</svg>