<?xml version="1.0" encoding="UTF-8"?>
<svg width="20px" height="20px" viewBox="0 0 20 20" version="1.1" 
    xmlns="http://www.w3.org/2000/svg" 
    xmlns:xlink="http://www.w3.org/1999/xlink">
    <!-- Generator: Sketch 61 (89581) - https://sketch.com -->

    <desc>Created with Sketch.</desc>
    <g id="Icons/20/percentage-arrow" stroke="none" stroke-width="1" fill="none" fill-rule="evenodd">
        <path class="cls-1" d="M12,12 C13.5163674,10.5612571 15.8936327,10.5612571 17.41,12 C18.507259,13.0946552 18.8366061,14.7427198 18.2443286,16.1750098 C17.652051,17.6072998 16.2549185,18.5414342 14.705,18.5414342 C13.1550815,18.5414342 11.757949,17.6072998 11.1656715,16.1750098 C10.573394,14.7427198 10.902741,13.0946552 12,12 Z M17.91,1.33999996 C18.0064397,1.34077549 18.1017104,1.36119064 18.19,1.39999996 C18.3761052,1.47617512 18.5238249,1.62389478 18.6,1.80999996 C18.6388094,1.89828956 18.6592245,1.99356026 18.66,2.08999996 L18.66,2.08999996 L18.66,6.46999998 C18.66,6.88421355 18.3242136,7.21999999 17.91,7.21999999 C17.4957865,7.21999999 17.16,6.88421355 17.16,6.46999998 L17.16,6.46999998 L17.16,3.89999997 L3.69999997,17.36 C3.40718242,17.6524534 2.93281751,17.6524534 2.63999996,17.36 C2.34754658,17.0671825 2.34754658,16.5928176 2.63999996,16.3 L2.63999996,16.3 L16.1,2.83999996 L13.53,2.83999996 C13.1157865,2.83999996 12.78,2.50421352 12.78,2.08999996 C12.78,1.6757864 13.1157865,1.33999996 13.53,1.33999996 L13.53,1.33999996 Z M16.35,13.06 C15.4258459,12.1900835 13.9841542,12.1900835 13.06,13.06 C12.1615877,13.9707033 12.1654519,15.4354343 13.0686569,16.3413846 C13.9718618,17.2473348 15.4365744,17.2556443 16.35,16.36 C17.2576709,15.4472424 17.2576709,13.9727576 16.35,13.06 Z M2.01108008,3.16868761 C3.00491934,1.6337092 4.94524099,1.01540567 6.64394137,1.69237851 C8.34264175,2.36935136 9.32582999,4.1527437 8.99147727,5.95054332 C8.65712455,7.74834294 7.09850613,9.05901299 5.26999998,9.08 C4.25936193,9.09268988 3.28488536,8.70433759 2.55999996,7.99999999 C1.24713786,6.72710239 1.01724081,4.70366603 2.01108008,3.16868761 Z M6.91999998,3.60999997 C6.00724236,2.70232905 4.53275759,2.70232905 3.61999997,3.60999997 C2.71206363,4.5206329 2.71352075,5.99465081 3.62325571,6.9034869 C4.53299066,7.81232299 6.00700929,7.81232299 6.91674425,6.9034869 C7.8264792,5.99465081 7.82793632,4.5206329 6.91999998,3.60999997 Z" id="percentage-arrow-20" fill="#000000"></path>
    </g>
</svg>