<svg xmlns="http://www.w3.org/2000/svg" xmlns:xlink="http://www.w3.org/1999/xlink" preserveAspectRatio="xMidYMid" width="32" height="32" viewBox="0 0 32 32">
  <defs>
    <style>
      .cls-1 {
        fill: #000;
        fill-rule: evenodd;
      }
    </style>
  </defs>
  <path d="M30.000,26.007 L25.916,26.007 L25.916,30.992 C25.916,31.545 25.468,31.993 24.916,31.993 L6.916,31.993 C6.364,31.993 6.000,31.553 6.000,31.000 L6.000,26.007 L2.000,26.007 C0.897,26.007 0.000,25.108 0.000,24.005 L0.000,9.993 C0.000,8.889 0.897,7.990 2.000,7.990 L6.000,7.990 L6.000,0.996 C6.000,0.442 6.448,-0.006 7.000,-0.006 L25.000,-0.006 C25.552,-0.006 26.000,0.442 26.000,0.996 L26.000,7.990 L30.000,7.990 C31.103,7.990 32.000,8.889 32.000,9.993 L32.000,24.005 C32.000,25.108 31.103,26.007 30.000,26.007 ZM7.916,24.996 C7.916,25.000 7.918,25.003 7.918,25.006 C7.918,25.010 7.916,25.013 7.916,25.016 L7.916,29.990 L24.000,29.999 L24.000,25.404 C23.947,25.282 23.916,25.148 23.916,25.006 C23.916,24.864 23.947,24.730 24.000,24.608 L24.000,19.000 L7.916,18.981 L7.916,24.996 ZM24.000,1.996 L8.000,1.996 L8.000,7.990 L24.000,7.990 L24.000,1.996 ZM30.000,9.993 L25.054,9.993 C25.035,9.994 25.019,10.004 25.000,10.004 L7.000,10.004 C6.981,10.004 6.965,9.994 6.946,9.993 L2.000,9.993 L2.000,24.005 L6.000,24.005 L6.000,18.000 C6.000,17.446 6.364,16.979 6.916,16.979 L24.916,16.979 C25.468,16.979 25.916,17.426 25.916,17.980 L25.916,24.005 L30.000,24.005 L30.000,9.993 ZM24.000,13.007 C24.000,12.453 24.448,12.006 25.000,12.006 L26.000,12.006 C26.552,12.006 27.000,12.453 27.000,13.007 C27.000,13.560 26.552,14.007 26.000,14.007 L25.000,14.007 C24.448,14.007 24.000,13.560 24.000,13.007 Z" class="cls-1"/>
</svg>
