<?xml version="1.0" encoding="UTF-8"?>
<svg width="20px" height="20px" viewBox="0 0 20 20" version="1.1" xmlns="http://www.w3.org/2000/svg" xmlns:xlink="http://www.w3.org/1999/xlink">
    <!-- Generator: Sketch 63.1 (92452) - https://sketch.com -->
    <desc>Created with Sketch.</desc>
    <g id="Icons/20/share" stroke="none" stroke-width="1" fill="none" fill-rule="evenodd">
        <path class="cls-1" d="M4.99999998,10.23 C5.42525923,10.23 5.76999998,10.5747407 5.76999998,11 C5.76999998,11.389821 5.48032199,11.7119841 5.10448441,11.7629708 L4.99999998,11.77 L2.74999996,11.77 C2.64414539,11.77 2.55499288,11.8415101 2.52821578,11.9388569 L2.51999996,12 L2.51999996,17.25 C2.51999996,17.3558546 2.59151004,17.4450071 2.68885685,17.4717842 L2.74999996,17.48 L17.25,17.48 C17.3558546,17.48 17.4450071,17.40849 17.4717842,17.3111431 L17.48,17.25 L17.48,12 C17.48,11.8941454 17.40849,11.8049929 17.3111431,11.7782158 L17.25,11.77 L15,11.77 C14.5747408,11.77 14.23,11.4252593 14.23,11 C14.23,10.610179 14.519678,10.2880159 14.8955156,10.2370292 L15,10.23 L17.25,10.23 C18.1786668,10.23 18.9402917,10.9451915 19.0141325,11.8548325 L19.02,12 L19.02,17.25 C19.02,18.1786668 18.3048085,18.9402917 17.3951676,19.0141325 L17.25,19.02 L2.74999996,19.02 C1.82133315,19.02 1.05970827,18.3048085 0.985867454,17.3951676 L0.979999955,17.25 L0.979999955,12 C0.979999955,11.0713332 1.69519149,10.3097083 2.60483244,10.2358675 L2.74999996,10.23 L4.99999998,10.23 Z M10.1017706,0.256846567 L10.1127744,0.258477346 C10.1245181,0.260253798 10.1362278,0.262309444 10.1478927,0.264644284 C10.1728958,0.26958791 10.1971921,0.275761134 10.2209837,0.283086125 C10.2326435,0.286712683 10.2446929,0.290744595 10.256654,0.295090682 C10.2799516,0.303574942 10.3020202,0.312876807 10.3235218,0.323173087 C10.3351229,0.328665278 10.3474599,0.334968236 10.359651,0.341634963 C10.3836668,0.354870193 10.4063902,0.368975383 10.4282634,0.38421617 C10.4340051,0.388137464 10.4401347,0.392542742 10.4462117,0.397051713 C10.4538569,0.402854877 10.4560847,0.404557299 10.4583026,0.406271873 L10.5303301,0.469669866 L14.5303301,4.46966989 C14.8232233,4.76256311 14.8232233,5.23743684 14.5303301,5.53033006 C14.2640635,5.79659663 13.8473999,5.82080268 13.5537884,5.60294822 L13.4696699,5.53033006 L10.75,2.81099995 L10.75,14.81 C10.75,15.2242136 10.4142136,15.56 10,15.56 C9.62030423,15.56 9.30650904,15.2778461 9.25684661,14.9117706 L9.25,14.81 L9.24999995,2.81099995 L6.53033007,5.53033006 C6.2640635,5.79659663 5.84739982,5.82080268 5.55378832,5.60294822 L5.46966989,5.53033006 C5.20340333,5.2640635 5.17919728,4.84739981 5.39705174,4.55378832 L5.46966989,4.46966989 L9.46966991,0.469669866 L9.54169735,0.406271873 C9.54581642,0.403087664 9.54996953,0.399945366 9.55415605,0.396845619 L9.46966991,0.469669866 C9.50672319,0.432616591 9.54668892,0.400250843 9.58883021,0.372572624 C9.60898514,0.359407778 9.62997246,0.347027619 9.65158175,0.335670911 C9.66070362,0.330837372 9.66943437,0.326480768 9.67822959,0.32230503 C9.70660552,0.308800679 9.73676261,0.296732155 9.76780866,0.286633939 C9.77310765,0.284965797 9.77747119,0.28359987 9.78184445,0.282274748 C9.85032314,0.26135312 9.92383573,0.249999951 10,0.249999951 L10.0058164,0.250022364 L10.1017706,0.256846567 L10.1017706,0.256846567 Z" id="Combined-Shape" fill="#000000"></path>
    </g>
</svg>