<?xml version="1.0" encoding="UTF-8"?>
<svg width="20px" height="20px" viewBox="0 0 20 20" version="1.1" 
    xmlns="http://www.w3.org/2000/svg" 
    xmlns:xlink="http://www.w3.org/1999/xlink">
    <!-- Generator: Sketch 61 (89581) - https://sketch.com -->

    <desc>Created with Sketch.</desc>
    <g id="Icons/20/user-square" stroke="none" stroke-width="1" fill="none" fill-rule="evenodd">
        <path class="cls-1" d="M16.69,1.24999996 C17.8277066,1.24999996 18.75,2.17229338 18.75,3.30999997 L18.75,3.30999997 L18.75,16.69 C18.75,17.8277066 17.8277066,18.75 16.69,18.75 L16.69,18.75 L3.30999997,18.75 C2.17229338,18.75 1.24999996,17.8277066 1.24999996,16.69 L1.24999996,16.69 L1.24999996,3.30999997 C1.24999996,2.17229338 2.17229338,1.24999996 3.30999997,1.24999996 L3.30999997,1.24999996 Z M10.06,14.75 C6.42438365,14.75 4.91552224,15.4745916 4.68257582,17.2498019 L15.4472067,17.249769 C15.2195672,15.5260237 13.7819073,14.7915826 10.3612445,14.7517226 L10.06,14.75 Z M16.69,2.74999996 L3.30999997,2.74999996 C3.00072051,2.74999996 2.74999996,3.00072051 2.74999996,3.30999997 L2.74999996,3.30999997 L2.74999996,16.69 C2.74999996,16.9523543 2.93041143,17.1725712 3.17393977,17.2333562 C3.41556812,14.5011451 5.53596037,13.3068966 9.75038352,13.2519901 L10.06,13.25 C14.4581815,13.25 16.6828244,14.4228506 16.9521137,17.1844025 C17.1290627,17.0913555 17.25,16.904801 17.25,16.69 L17.25,16.69 L17.25,3.30999997 C17.25,3.00072051 16.9992795,2.74999996 16.69,2.74999996 L16.69,2.74999996 Z M10,4.74999997 C12.0710678,4.74999997 13.75,6.42893217 13.75,8.49999999 C13.75,10.5710678 12.0710678,12.25 10,12.25 C7.92893218,12.25 6.24999998,10.5710678 6.24999998,8.49999999 C6.24999998,6.42893217 7.92893218,4.74999997 10,4.74999997 Z M10,6.24999998 C8.75735931,6.24999998 7.74999999,7.2573593 7.74999999,8.49999999 C7.74999999,9.74264069 8.75735931,10.75 10,10.75 C11.2426407,10.75 12.25,9.74264069 12.25,8.49999999 C12.25,7.2573593 11.2426407,6.24999998 10,6.24999998 Z" id="Combined-Shape" fill="#000000"></path>
    </g>
</svg>