<?xml version="1.0" encoding="UTF-8"?>
<svg width="20px" height="20px" viewBox="0 0 20 20" version="1.1" 
    xmlns="http://www.w3.org/2000/svg" 
    xmlns:xlink="http://www.w3.org/1999/xlink">
    <!-- Generator: Sketch 61 (89581) - https://sketch.com -->

    <desc>Created with Sketch.</desc>
    <g id="Icons/20/user" stroke="none" stroke-width="1" fill="none" fill-rule="evenodd">
        <path class="cls-1" d="M10,12.25 C15.3014603,12.25 18.6601418,14.0083159 18.7497504,17.4806516 C18.7595458,17.860221 18.485581,18.1811908 18.1209085,18.2402806 L18.0193484,18.2497504 L18.0193484,18.2497504 C17.6052727,18.2604363 17.2609355,17.9334241 17.2502497,17.5193484 C17.1880173,15.1078454 14.5943024,13.75 10,13.75 C5.40569756,13.75 2.81198268,15.1078454 2.74975035,17.5193484 C2.73995501,17.8989178 2.44979979,18.2053296 2.08256488,18.2455316 L1.98065156,18.2497504 L1.98065156,18.2497504 C1.56657586,18.2390646 1.23956375,17.8947273 1.25024957,17.4806516 C1.33985823,14.0083159 4.69853968,12.25 10,12.25 Z M10,1.74999996 L10.217428,1.75488782 C12.7398587,1.8685303 14.75,3.94951831 14.75,6.49999998 C14.75,9.12335256 12.6233526,11.25 10,11.25 C7.37664743,11.25 5.24999998,9.12335256 5.24999998,6.49999998 C5.24999998,3.87664741 7.37664743,1.74999996 10,1.74999996 L10,1.74999996 Z M10,3.24999997 L9.81557609,3.25514476 C8.10645476,3.35075404 6.74999998,4.76696852 6.74999998,6.49999998 C6.74999998,8.29492543 8.20507455,9.74999997 10,9.74999997 L10,9.74999997 L10.1844239,9.74485518 C11.8935452,9.64924589 13.25,8.23303145 13.25,6.49999998 C13.25,4.70507454 11.7949254,3.24999997 10,3.24999997 L10,3.24999997 Z" id="Combined-Shape" fill="#000000"></path>
    </g>
</svg>