<svg xmlns="http://www.w3.org/2000/svg">
  <defs>
    <svg id="close" class="icon" xmlns="http://www.w3.org/2000/svg" preserveAspectRatio="xMidYMid" width="23.813"
         height="23.906" viewBox="0 0 23.813 23.906">
      <path
        d="M13.305,11.946 L23.521,22.201 C23.909,22.590 23.909,23.221 23.521,23.610 C23.328,23.804 23.074,23.901 22.820,23.901 C22.566,23.901 22.312,23.804 22.118,23.610 L11.901,13.355 L1.685,23.610 C1.492,23.804 1.238,23.901 0.984,23.901 C0.730,23.901 0.476,23.804 0.282,23.610 C-0.106,23.221 -0.106,22.590 0.282,22.201 L10.498,11.946 L0.282,1.692 C-0.106,1.303 -0.106,0.672 0.282,0.283 C0.670,-0.106 1.298,-0.106 1.685,0.283 L11.901,10.537 L22.117,0.283 C22.505,-0.106 23.133,-0.106 23.521,0.283 C23.908,0.672 23.908,1.303 23.521,1.692 L13.305,11.946 Z"/>
    </svg>

    <svg id="danger" class="icon" xmlns="http://www.w3.org/2000/svg" preserveAspectRatio="xMidYMid" width="23.907"
         height="21" viewBox="0 0 23.907 21">
      <path
        d="M23.756,11.001 L18.275,20.501 C18.097,20.810 17.769,21.000 17.413,21.000 L6.451,21.000 C6.095,21.000 5.767,20.810 5.589,20.501 L0.107,11.001 C-0.072,10.691 -0.072,10.309 0.107,9.999 L5.589,0.499 C5.767,0.190 6.095,0.000 6.451,0.000 L17.413,0.000 C17.769,0.000 18.097,0.190 18.275,0.499 L23.756,9.999 C23.935,10.309 23.935,10.691 23.756,11.001 ZM16.838,2.000 L7.026,2.000 L2.121,10.500 L7.026,19.000 L16.838,19.000 L21.743,10.500 L16.838,2.000 ZM11.932,16.000 C11.672,16.000 11.414,15.890 11.224,15.710 C11.045,15.520 10.935,15.260 10.935,15.000 C10.935,14.740 11.045,14.480 11.224,14.290 C11.603,13.920 12.271,13.920 12.639,14.290 C12.818,14.480 12.928,14.740 12.928,15.000 C12.928,15.260 12.818,15.520 12.639,15.710 C12.450,15.890 12.191,16.000 11.932,16.000 ZM11.932,13.000 C11.382,13.000 10.935,12.552 10.935,12.000 L10.935,6.000 C10.935,5.448 11.382,5.000 11.932,5.000 C12.482,5.000 12.928,5.448 12.928,6.000 L12.928,12.000 C12.928,12.552 12.482,13.000 11.932,13.000 Z"/>
    </svg>

    <svg id="warning" class="icon" xmlns="http://www.w3.org/2000/svg" preserveAspectRatio="xMidYMid" width="23.938"
         height="21.844" viewBox="0 0 23.938 21.844">
      <path
        d="M22.940,21.835 C22.933,21.835 22.927,21.835 22.920,21.835 L0.976,21.835 C0.624,21.835 0.297,21.649 0.118,21.346 C-0.062,21.044 -0.068,20.668 0.102,20.360 L11.074,0.460 C11.424,-0.175 12.472,-0.175 12.822,0.460 L23.709,20.206 C23.852,20.378 23.938,20.599 23.938,20.840 C23.938,21.389 23.491,21.835 22.940,21.835 ZM11.948,3.005 L2.663,19.845 L21.233,19.845 L11.948,3.005 ZM11.948,7.905 C12.499,7.905 12.946,8.350 12.946,8.900 L12.946,13.875 C12.946,14.424 12.499,14.870 11.948,14.870 C11.397,14.870 10.951,14.424 10.951,13.875 L10.951,8.900 C10.951,8.350 11.397,7.905 11.948,7.905 ZM12.659,16.153 C12.838,16.342 12.948,16.601 12.948,16.860 C12.948,17.119 12.838,17.377 12.649,17.566 C12.469,17.745 12.210,17.855 11.951,17.855 C11.681,17.855 11.432,17.745 11.243,17.566 C11.053,17.377 10.953,17.119 10.953,16.860 C10.953,16.601 11.053,16.342 11.243,16.153 C11.611,15.785 12.290,15.785 12.659,16.153 Z"/>
    </svg>

    <svg id="success" class="icon" xmlns="http://www.w3.org/2000/svg" preserveAspectRatio="xMidYMid" width="24"
         height="24" viewBox="0 0 24 24">
      <path
        d="M12.000,24.000 C5.383,24.000 0.000,18.617 0.000,12.000 C0.000,5.383 5.383,0.000 12.000,0.000 C18.617,0.000 24.000,5.383 24.000,12.000 C24.000,18.617 18.617,24.000 12.000,24.000 ZM12.000,2.000 C6.486,2.000 2.000,6.486 2.000,12.000 C2.000,17.514 6.486,22.000 12.000,22.000 C17.514,22.000 22.000,17.514 22.000,12.000 C22.000,6.486 17.514,2.000 12.000,2.000 ZM11.752,16.658 C11.555,16.884 11.278,17.000 11.000,17.000 C10.780,17.000 10.559,16.928 10.376,16.781 L5.375,12.781 C4.944,12.436 4.874,11.807 5.219,11.375 C5.565,10.944 6.195,10.874 6.624,11.219 L10.877,14.621 L17.248,7.342 C17.612,6.926 18.243,6.884 18.659,7.247 C19.074,7.611 19.116,8.243 18.752,8.658 L11.752,16.658 Z"/>
    </svg>

    <svg id="info" class="icon" xmlns="http://www.w3.org/2000/svg" preserveAspectRatio="xMidYMid" width="23.844"
         height="24" viewBox="0 0 23.844 24">
      <path
        d="M20.334,20.486 C18.082,22.752 15.087,24.000 11.900,24.000 C8.714,24.000 5.719,22.752 3.466,20.485 C-1.183,15.806 -1.183,8.193 3.466,3.515 C5.719,1.248 8.714,-0.000 11.900,-0.000 C15.087,-0.000 18.082,1.248 20.334,3.515 C22.588,5.781 23.829,8.795 23.829,12.000 C23.829,15.205 22.588,18.219 20.334,20.486 ZM18.929,4.929 C17.052,3.040 14.556,2.000 11.900,2.000 C9.245,2.000 6.749,3.040 4.872,4.929 C0.997,8.828 0.997,15.172 4.872,19.071 C6.749,20.960 9.245,22.000 11.900,22.000 C14.556,22.000 17.052,20.960 18.929,19.071 C20.807,17.183 21.841,14.671 21.841,12.000 C21.841,9.329 20.807,6.818 18.929,4.929 ZM13.889,19.000 L9.913,19.000 C9.365,19.000 8.919,18.552 8.919,18.000 C8.919,17.448 9.365,17.000 9.913,17.000 L10.907,17.000 L10.907,13.000 L9.913,13.000 C9.365,13.000 8.919,12.552 8.919,12.000 C8.919,11.448 9.365,11.000 9.913,11.000 L11.901,11.000 C12.450,11.000 12.895,11.448 12.895,12.000 L12.895,17.000 L13.889,17.000 C14.438,17.000 14.883,17.448 14.883,18.000 C14.883,18.552 14.438,19.000 13.889,19.000 ZM11.901,9.000 C10.805,9.000 9.913,8.102 9.913,6.999 C9.913,5.897 10.805,5.000 11.901,5.000 C12.998,5.000 13.889,5.897 13.889,6.999 C13.889,8.102 12.998,9.000 11.901,9.000 Z"/>
    </svg>

    <svg id="arrowUp" class="icon" xmlns="http://www.w3.org/2000/svg" preserveAspectRatio="xMidYMid" width="23.844"
         height="13.81" viewBox="0 0 23.844 13.81">
      <path
        d="M22.835,13.799 C22.566,13.799 22.299,13.692 22.103,13.479 L11.927,2.421 L1.751,13.479 C1.381,13.881 0.754,13.909 0.350,13.539 C-0.054,13.171 -0.081,12.546 0.289,12.144 L11.196,0.292 C11.572,-0.116 12.283,-0.116 12.658,0.292 L23.566,12.144 C23.936,12.546 23.908,13.171 23.505,13.539 C23.314,13.714 23.074,13.799 22.835,13.799 Z"
        class="cls-1"/>
    </svg>

    <svg id="refresh" class="icon" xmlns="http://www.w3.org/2000/svg" xmlns:xlink="http://www.w3.org/1999/xlink" preserveAspectRatio="xMidYMid" width="23.719" height="20" viewBox="0 0 23.719 20">
      <path d="M23.183,15.895 C23.041,15.966 22.889,16.000 22.741,16.000 C22.378,16.000 22.029,15.797 21.855,15.447 L21.027,13.772 C19.559,17.496 16.030,20.000 11.859,20.000 C7.327,20.000 3.277,17.043 2.009,12.810 C1.851,12.281 2.146,11.723 2.669,11.563 C3.189,11.402 3.744,11.701 3.902,12.230 C4.920,15.627 8.192,18.000 11.859,18.000 C15.299,18.000 18.093,15.970 19.224,12.895 L17.247,13.894 C16.757,14.142 16.164,13.941 15.920,13.447 C15.676,12.953 15.874,12.353 16.362,12.106 L20.319,10.105 C20.810,9.858 21.403,10.059 21.647,10.553 L23.625,14.553 C23.870,15.047 23.671,15.648 23.183,15.895 ZM21.049,8.438 C20.527,8.597 19.973,8.299 19.815,7.770 C18.796,4.373 15.525,2.000 11.859,2.000 C8.416,2.000 5.621,4.031 4.491,7.106 L6.470,6.105 C6.960,5.858 7.554,6.059 7.797,6.553 C8.042,7.047 7.844,7.648 7.355,7.895 L3.398,9.894 C3.256,9.966 3.105,10.000 2.957,10.000 C2.593,10.000 2.244,9.798 2.071,9.448 L0.092,5.447 C-0.152,4.953 0.046,4.352 0.535,4.105 C1.026,3.858 1.618,4.059 1.862,4.553 L2.690,6.226 C4.156,2.503 7.685,-0.000 11.859,-0.000 C16.389,-0.000 20.439,2.957 21.708,7.190 C21.867,7.719 21.571,8.277 21.049,8.438 Z" />
    </svg>

    <svg id="arrowRight" class="icon" xmlns="http://www.w3.org/2000/svg" preserveAspectRatio="xMidYMid" width="13.938"
         height="23.91" viewBox="0 0 13.938 23.91">
      <path
        d="M1.017,23.910 C0.748,23.910 0.480,23.802 0.284,23.588 C-0.086,23.183 -0.059,22.552 0.345,22.181 L11.465,11.961 L0.345,1.742 C-0.059,1.370 -0.086,0.740 0.284,0.335 C0.655,-0.070 1.284,-0.098 1.688,0.274 L13.606,11.227 C13.811,11.416 13.928,11.683 13.928,11.961 C13.928,12.240 13.811,12.507 13.606,12.695 L1.688,23.649 C1.497,23.824 1.257,23.910 1.017,23.910 Z"/>
    </svg>

    <svg id="arrowDown" class="icon" xmlns="http://www.w3.org/2000/svg" preserveAspectRatio="xMidYMid" width="23.844"
         height="13.91" viewBox="0 0 23.844 13.91">
      <path
        d="M11.923,13.916 C11.645,13.916 11.379,13.800 11.191,13.594 L0.284,1.677 C-0.086,1.272 -0.059,0.644 0.345,0.274 C0.749,-0.097 1.376,-0.069 1.746,0.335 L11.923,11.453 L22.099,0.335 C22.468,-0.069 23.097,-0.097 23.500,0.274 C23.904,0.644 23.931,1.272 23.561,1.677 L12.654,13.594 C12.466,13.800 12.201,13.916 11.923,13.916 Z"/>
    </svg>

    <svg id="arrowLeft" class="icon" xmlns="http://www.w3.org/2000/svg" preserveAspectRatio="xMidYMid" width="13.937"
         height="23.91" viewBox="0 0 13.937 23.91">
      <path
        d="M12.918,23.910 C12.678,23.910 12.438,23.824 12.247,23.648 L0.330,12.695 C0.125,12.507 0.007,12.240 0.007,11.961 C0.007,11.682 0.125,11.416 0.330,11.227 L12.247,0.274 C12.652,-0.098 13.281,-0.070 13.651,0.335 C14.021,0.740 13.994,1.370 13.590,1.742 L2.471,11.961 L13.590,22.181 C13.994,22.552 14.021,23.182 13.651,23.588 C13.455,23.802 13.187,23.910 12.918,23.910 Z"
        class="cls-1"/>
    </svg>

    <svg id="hamburgerMenu" class="icon" xmlns="http://www.w3.org/2000/svg" preserveAspectRatio="xMidYMid" width="24"
         height="18" viewBox="0 0 24 18">
      <path
        d="M23.000,10.000 L1.000,10.000 C0.448,10.000 0.000,9.552 0.000,9.000 C0.000,8.448 0.448,8.000 1.000,8.000 L23.000,8.000 C23.552,8.000 24.000,8.448 24.000,9.000 C24.000,9.552 23.552,10.000 23.000,10.000 ZM23.000,2.000 L1.000,2.000 C0.448,2.000 0.000,1.552 0.000,1.000 C0.000,0.448 0.448,-0.000 1.000,-0.000 L23.000,-0.000 C23.552,-0.000 24.000,0.448 24.000,1.000 C24.000,1.552 23.552,2.000 23.000,2.000 ZM1.000,16.000 L23.000,16.000 C23.552,16.000 24.000,16.448 24.000,17.000 C24.000,17.552 23.552,18.000 23.000,18.000 L1.000,18.000 C0.448,18.000 0.000,17.552 0.000,17.000 C0.000,16.448 0.448,16.000 1.000,16.000 Z"/>
    </svg>

    <svg id="notification" class="icon" xmlns="http://www.w3.org/2000/svg" preserveAspectRatio="xMidYMid" width="19.876"
         height="24" viewBox="0 0 19.876 24">
      <path
        d="M19.633,19.263 C19.346,19.731 18.829,20.000 18.217,20.000 L13.894,20.000 C13.894,22.205 12.111,24.000 9.920,24.000 C7.729,24.000 5.947,22.205 5.947,20.000 L1.626,20.000 C1.014,20.000 0.497,19.731 0.210,19.263 C-0.077,18.795 -0.085,18.209 0.188,17.658 L2.969,12.735 L2.969,7.000 C2.969,3.140 6.087,0.000 9.920,0.000 C13.754,0.000 16.874,3.140 16.874,7.000 L16.874,12.735 L19.630,17.611 C19.928,18.209 19.921,18.795 19.633,19.263 ZM9.920,22.000 C11.016,22.000 11.908,21.103 11.908,20.000 L7.933,20.000 C7.933,21.103 8.824,22.000 9.920,22.000 ZM15.018,13.494 C14.876,13.244 14.859,12.960 14.938,12.705 L14.938,7.251 C14.916,7.169 14.888,7.089 14.888,7.000 C14.888,4.243 12.659,2.000 9.920,2.000 C7.183,2.000 4.956,4.243 4.956,7.000 L4.956,13.000 C4.956,13.020 4.945,13.036 4.944,13.056 C4.941,13.123 4.922,13.185 4.905,13.251 C4.888,13.317 4.873,13.381 4.843,13.440 C4.835,13.458 4.835,13.477 4.826,13.494 L2.279,18.000 L17.565,18.000 L15.018,13.494 Z"/>
    </svg>

    <svg id="user" class="icon" xmlns="http://www.w3.org/2000/svg" preserveAspectRatio="xMidYMid" width="24" height="24"
         viewBox="0 0 24 24">
      <path
        d="M21.533,24.000 L2.467,24.000 C1.106,24.000 -0.000,22.894 -0.000,21.533 L-0.000,2.467 C-0.000,1.107 1.106,0.000 2.467,0.000 L21.533,0.000 C22.894,0.000 24.000,1.107 24.000,2.467 L24.000,21.533 C24.000,22.894 22.894,24.000 21.533,24.000 ZM22.000,2.467 C22.000,2.214 21.786,2.000 21.533,2.000 L2.467,2.000 C2.214,2.000 2.000,2.214 2.000,2.467 L2.000,21.533 C2.000,21.786 2.214,22.000 2.467,22.000 L21.533,22.000 C21.786,22.000 22.000,21.786 22.000,21.533 L22.000,2.467 ZM18.020,20.000 C18.013,20.000 18.006,20.000 18.000,20.000 L6.000,20.000 C5.448,20.000 5.000,19.552 5.000,19.000 C5.000,16.313 6.871,14.166 9.602,13.360 C8.060,12.508 7.000,10.883 7.000,9.000 C7.000,6.243 9.243,4.000 12.000,4.000 C14.757,4.000 17.000,6.243 17.000,9.000 C17.000,10.882 15.942,12.505 14.402,13.358 C17.057,14.142 18.898,16.196 18.996,18.781 C19.012,18.851 19.020,18.925 19.020,19.000 C19.020,19.552 18.572,20.000 18.020,20.000 ZM12.000,6.000 C10.346,6.000 9.000,7.346 9.000,9.000 C9.000,10.654 10.346,12.000 12.000,12.000 C13.654,12.000 15.000,10.654 15.000,9.000 C15.000,7.346 13.654,6.000 12.000,6.000 ZM12.000,15.000 C9.539,15.000 7.651,16.214 7.139,18.000 L16.861,18.000 C16.349,16.214 14.461,15.000 12.000,15.000 Z"/>
    </svg>

    <svg id="question" class="icon" xmlns="http://www.w3.org/2000/svg" preserveAspectRatio="xMidYMid" width="24"
         height="24" viewBox="0 0 24 24">
      <path
        d="M12.000,24.000 C5.383,24.000 -0.000,18.617 -0.000,12.000 C-0.000,5.383 5.383,-0.000 12.000,-0.000 C18.617,-0.000 24.000,5.383 24.000,12.000 C24.000,18.617 18.617,24.000 12.000,24.000 ZM12.000,2.000 C6.486,2.000 2.000,6.486 2.000,12.000 C2.000,17.514 6.486,22.000 12.000,22.000 C17.514,22.000 22.000,17.514 22.000,12.000 C22.000,6.486 17.514,2.000 12.000,2.000 ZM14.389,12.344 C12.940,13.517 12.994,14.816 12.997,14.870 C13.028,15.415 12.616,15.892 12.072,15.932 C12.046,15.934 12.022,15.935 11.997,15.935 C11.484,15.935 11.050,15.551 11.004,15.032 C10.996,14.936 10.821,12.659 13.130,10.789 C13.772,10.270 14.000,9.814 14.000,9.051 C14.000,7.889 13.103,6.943 12.000,6.943 C10.860,6.943 10.000,7.803 10.000,8.943 C10.000,9.496 9.552,9.943 9.000,9.943 C8.448,9.943 8.000,9.496 8.000,8.943 C8.000,6.701 9.757,4.944 12.000,4.944 C14.206,4.944 16.000,6.786 16.000,9.051 C16.000,10.426 15.503,11.442 14.389,12.344 ZM12.165,16.986 C12.709,17.080 13.079,17.569 12.985,18.114 L12.976,18.170 C12.892,18.656 12.469,19.000 11.991,19.000 C11.935,19.000 11.878,18.995 11.820,18.985 C11.276,18.891 10.911,18.374 11.005,17.830 C11.099,17.286 11.618,16.891 12.165,16.986 Z"/>
    </svg>

    <svg id="placeholder" class="icon" xmlns="http://www.w3.org/2000/svg" preserveAspectRatio="xMidYMid" width="31.88"
         height="31.91" viewBox="0 0 31.88 31.91">
      <path
        d="M31.869,10.013 C31.867,10.049 31.853,10.080 31.848,10.116 C31.828,10.249 31.785,10.370 31.717,10.480 C31.704,10.502 31.707,10.529 31.692,10.550 L16.746,31.490 C16.744,31.493 16.741,31.494 16.739,31.496 C16.657,31.609 16.548,31.695 16.428,31.765 C16.399,31.782 16.371,31.796 16.341,31.809 C16.214,31.867 16.080,31.908 15.934,31.908 C15.789,31.908 15.655,31.867 15.528,31.809 C15.497,31.796 15.470,31.782 15.441,31.765 C15.321,31.695 15.212,31.609 15.130,31.496 C15.128,31.494 15.125,31.493 15.123,31.490 L0.176,10.550 C0.162,10.529 0.165,10.503 0.153,10.482 C0.080,10.364 0.034,10.234 0.016,10.091 C0.012,10.061 -0.001,10.035 -0.002,10.004 C-0.002,9.992 -0.008,9.983 -0.008,9.971 C-0.008,9.800 0.040,9.653 0.109,9.520 C0.115,9.510 0.111,9.497 0.117,9.486 L5.099,0.541 C5.110,0.521 5.133,0.512 5.146,0.493 C5.216,0.385 5.305,0.294 5.414,0.219 C5.456,0.190 5.496,0.168 5.542,0.146 C5.581,0.126 5.612,0.095 5.655,0.081 C5.732,0.055 5.809,0.059 5.886,0.052 C5.915,0.049 5.940,0.029 5.970,0.029 L26.223,0.009 C26.224,0.009 26.224,0.009 26.225,0.009 C26.596,0.009 26.938,0.216 27.109,0.546 L31.765,9.512 C31.768,9.518 31.766,9.525 31.769,9.531 C31.833,9.662 31.877,9.805 31.877,9.971 C31.877,9.986 31.869,9.998 31.869,10.013 ZM28.945,10.967 L23.634,10.967 L18.978,24.933 L28.945,10.967 ZM15.934,2.648 L10.970,9.030 L20.899,9.030 L15.934,2.648 ZM15.934,27.761 L21.534,10.967 L10.335,10.967 L15.934,27.761 ZM12.891,24.933 L8.235,10.967 L2.924,10.967 L12.891,24.933 ZM5.741,3.486 L2.653,9.030 L7.589,9.030 L5.741,3.486 ZM7.352,2.021 L9.316,7.911 L13.903,2.014 L7.352,2.021 ZM17.963,2.010 L22.553,7.911 L24.523,2.004 L17.963,2.010 ZM26.231,3.178 L24.280,9.030 L29.269,9.030 L26.231,3.178 Z"/>
    </svg>

    <svg id="check" xmlns="http://www.w3.org/2000/svg" preserveAspectRatio="xMidYMid" width="23.813" height="17.906"
         viewBox="0 0 23.813 17.906">
      <path
        d="M8.985,17.892 C8.724,17.892 8.473,17.788 8.287,17.604 L0.287,9.650 C-0.102,9.263 -0.105,8.634 0.281,8.244 C0.666,7.854 1.294,7.852 1.684,8.238 L8.933,15.445 L22.057,0.338 C22.415,-0.076 23.042,-0.120 23.456,0.241 C23.869,0.602 23.912,1.230 23.552,1.644 L9.733,17.550 C9.553,17.758 9.296,17.881 9.022,17.891 C9.010,17.892 8.998,17.892 8.985,17.892 Z"/>
    </svg>

    <svg id="more" class="icon" xmlns="http://www.w3.org/2000/svg" preserveAspectRatio="xMidYMid" width="24" height="6"
         viewBox="0 0 24 6">
      <path
        d="M21.000,6.000 C19.346,6.000 18.000,4.654 18.000,3.000 C18.000,1.346 19.346,0.000 21.000,0.000 C22.654,0.000 24.000,1.346 24.000,3.000 C24.000,4.654 22.654,6.000 21.000,6.000 ZM21.000,2.000 C20.449,2.000 20.000,2.448 20.000,3.000 C20.000,3.552 20.449,4.000 21.000,4.000 C21.551,4.000 22.000,3.552 22.000,3.000 C22.000,2.448 21.551,2.000 21.000,2.000 ZM12.000,6.000 C10.346,6.000 9.000,4.654 9.000,3.000 C9.000,1.346 10.346,0.000 12.000,0.000 C13.654,0.000 15.000,1.346 15.000,3.000 C15.000,4.654 13.654,6.000 12.000,6.000 ZM12.000,2.000 C11.449,2.000 11.000,2.448 11.000,3.000 C11.000,3.552 11.449,4.000 12.000,4.000 C12.551,4.000 13.000,3.552 13.000,3.000 C13.000,2.448 12.551,2.000 12.000,2.000 ZM3.000,6.000 C1.346,6.000 -0.000,4.654 -0.000,3.000 C-0.000,1.346 1.346,0.000 3.000,0.000 C4.654,0.000 6.000,1.346 6.000,3.000 C6.000,4.654 4.654,6.000 3.000,6.000 ZM3.000,2.000 C2.449,2.000 2.000,2.448 2.000,3.000 C2.000,3.552 2.449,4.000 3.000,4.000 C3.551,4.000 4.000,3.552 4.000,3.000 C4.000,2.448 3.551,2.000 3.000,2.000 Z"/>
    </svg>

    <svg id="exit" class="icon" xmlns="http://www.w3.org/2000/svg" preserveAspectRatio="xMidYMid" width="59.906" height="60" viewBox="0 0 59.906 60">
        <path d="M57.910,59.999 L23.964,59.999 C22.862,59.999 21.967,59.103 21.967,57.999 L21.967,38.999 C21.967,38.447 22.414,37.999 22.965,37.999 C23.517,37.999 23.964,38.447 23.964,38.999 L23.964,57.999 L57.910,57.999 L57.910,1.999 L23.964,1.999 L23.964,20.999 C23.964,21.552 23.517,21.999 22.965,21.999 C22.414,21.999 21.967,21.552 21.967,20.999 L21.967,1.999 C21.967,0.897 22.862,-0.001 23.964,-0.001 L57.910,-0.001 C59.012,-0.001 59.907,0.897 59.907,1.999 L59.907,57.999 C59.907,59.103 59.012,59.999 57.910,59.999 ZM3.410,28.999 L42.934,28.999 C43.485,28.999 43.932,29.447 43.932,29.998 C43.932,30.552 43.485,30.999 42.934,30.999 L3.410,30.999 L13.687,41.291 C14.077,41.682 14.077,42.315 13.687,42.706 C13.492,42.901 13.236,42.999 12.981,42.999 C12.726,42.999 12.470,42.901 12.275,42.706 L0.294,30.706 C0.293,30.706 0.293,30.705 0.293,30.704 C0.202,30.612 0.129,30.503 0.079,30.382 C0.028,30.259 0.001,30.129 0.002,29.999 C0.002,29.999 0.001,29.999 0.001,29.998 C0.001,29.993 0.004,29.989 0.005,29.983 C0.007,29.859 0.030,29.734 0.078,29.617 C0.129,29.494 0.203,29.383 0.295,29.291 L12.275,17.292 C12.665,16.901 13.297,16.901 13.687,17.292 C14.077,17.682 14.077,18.316 13.687,18.706 L3.410,28.999 Z"/>
    </svg>

	  <svg id="home" class="icon" xmlns="http://www.w3.org/2000/svg" xmlns:xlink="http://www.w3.org/1999/xlink" preserveAspectRatio="xMidYMid" width="31.813" height="31.88" viewBox="0 0 31.813 31.88">
		    <path d="M31.469,18.660 C31.280,18.827 31.045,18.910 30.812,18.910 C30.537,18.910 30.263,18.795 30.067,18.572 L28.938,17.287 L28.938,29.880 C28.938,30.980 27.934,31.875 26.839,31.875 L21.872,31.875 C20.777,31.875 19.938,30.980 19.938,29.880 L19.938,20.880 L11.940,20.904 L11.940,29.879 C11.940,30.980 11.049,31.875 9.953,31.875 L4.987,31.875 C3.891,31.875 3.000,30.980 3.000,29.879 L3.000,17.159 L1.759,18.572 C1.396,18.984 0.767,19.025 0.356,18.660 C-0.055,18.296 -0.094,17.665 0.269,17.253 L15.168,0.298 C15.545,-0.131 16.280,-0.131 16.658,0.298 L31.557,17.253 C31.919,17.665 31.880,18.296 31.469,18.660 ZM15.913,2.465 L4.938,14.954 L4.938,29.880 L9.938,29.880 L9.938,20.880 C9.938,19.780 10.844,18.910 11.940,18.910 L19.886,18.910 C20.981,18.910 21.872,19.804 21.872,20.904 L21.872,29.879 L26.938,29.880 L26.938,15.011 L15.913,2.465 Z" class="cls-1"/>
	  </svg>

    <svg id="copy" class="icon" xmlns="http://www.w3.org/2000/svg" width="12" height="12" viewBox="0 0 12 12" fill="none">
        <path fill-rule="evenodd" clip-rule="evenodd" d="M10.5 9.15078H3.30005C3.05287 9.14755 2.85328 8.94796 2.85005 8.70078V1.50078C2.85328 1.2536 3.05287 1.05401 3.30005 1.05078H10.5C10.7472 1.05401 10.9468 1.2536 10.95 1.50078V8.70078C10.9468 8.94796 10.7472 9.14755 10.5 9.15078ZM3.75005 8.25078H10.05V1.95078H3.75005V8.25078ZM1.50005 10.9508H8.10005C8.34858 10.9508 8.55005 10.7493 8.55005 10.5008C8.55005 10.2523 8.34858 10.0508 8.10005 10.0508H1.95005V3.90078C1.95005 3.65225 1.74858 3.45078 1.50005 3.45078C1.25152 3.45078 1.05005 3.65225 1.05005 3.90078V10.5008C1.05328 10.748 1.25287 10.9475 1.50005 10.9508Z" fill="#0C6CD7"/>
    </svg>

    <svg id="icon-left" class="icon" xmlns="http://www.w3.org/2000/svg" width="12" height="12" viewBox="0 0 12 12" fill="none">
        <path fill-rule="evenodd" clip-rule="evenodd" d="M11.2072 1.94252C11.3847 1.75753 11.6769 1.75303 11.8598 1.93248C12.0261 2.09562 12.0449 2.35462 11.9136 2.53935L11.8697 2.59237L4.70652 10.059C4.5417 10.2308 4.27884 10.2465 4.09618 10.1059L4.04397 10.0591L0.130278 5.98021C-0.0472142 5.79523 -0.04279 5.49978 0.14016 5.32032C0.306478 5.15717 0.563083 5.14604 0.741717 5.28434L0.792799 5.33031L4.37477 9.06336L11.2072 1.94252Z" fill="#3D862F"/>
    </svg>

  </defs>
</svg>
