<svg width="48" height="48" viewBox="0 0 48 48" fill="none" xmlns="http://www.w3.org/2000/svg">
<path d="M23.9957 43.68C12.3789 43.68 2.86308 34.2274 2.7915 22.6063C2.75361 16.9432 4.92624 11.6 8.90519 7.57055C12.8841 3.54108 18.1978 1.30108 23.861 1.26318H23.9999C35.6168 1.26318 45.1326 10.7158 45.2041 22.3369C45.242 28 43.0694 33.3432 39.0904 37.3727C35.1115 41.4021 29.7978 43.6421 24.1347 43.68H23.9957Z" fill="#BDE9F9"/>
<path d="M24.0041 2.10523C35.162 2.10523 44.2947 11.1831 44.3662 22.341C44.4378 33.5705 35.3599 42.7663 24.1304 42.8379H23.9957C12.8378 42.8379 3.70519 33.76 3.63361 22.6021C3.56203 11.3726 12.6399 2.17681 23.8694 2.10523H24.0041ZM24.0041 0.421021C23.9578 0.421021 23.9073 0.421021 23.861 0.421021C11.6841 0.501021 1.87361 10.4337 1.95361 22.6147C2.0294 34.7452 11.8862 44.5263 23.9999 44.5263C24.0462 44.5263 24.0968 44.5263 24.1431 44.5263C36.3199 44.4463 46.1304 34.5137 46.0504 22.3326C45.9704 10.2021 36.1178 0.421021 24.0041 0.421021Z" fill="#0070A9"/>
<path d="M12.9138 40.0674C10.2654 36.4758 9.25483 27.5663 9.85272 24.9811L13.0527 24.9095C13.0527 24.9095 12.4843 20.6611 14.8169 17.0316C17.6169 12.6737 26.0927 3.94527 43.3811 1.44421C37.3811 9.52421 33.8948 23.3895 33.1454 24.8379C30.9264 26.6653 28.2106 26.6442 28.2106 26.6442L29.9496 29.9832C29.9496 29.9832 20.1643 41.3811 12.9138 40.0632V40.0674Z" fill="white"/>
<path d="M14.1095 41.0105C13.6548 41.0105 13.2043 40.9726 12.7622 40.8926C12.5516 40.8547 12.3622 40.7368 12.2359 40.5642C9.43586 36.7663 8.3706 27.6547 9.03165 24.7873C9.12007 24.4126 9.44849 24.1431 9.83586 24.1347L12.1516 24.0842C12.1095 22.5557 12.2864 19.4105 14.1095 16.5768C15.0359 15.1368 17.7727 11.4021 23.2043 7.83574C28.8127 4.15574 35.558 1.72205 43.259 0.610475C43.5916 0.564159 43.9285 0.719949 44.1011 1.01469C44.2738 1.30521 44.2569 1.67574 44.0548 1.94942C39.478 8.11363 36.3538 17.8147 34.8548 22.4757C34.3411 24.0757 34.0843 24.8589 33.8948 25.2294C33.8443 25.3305 33.7685 25.4231 33.6801 25.4947C32.2401 26.6778 30.6274 27.1621 29.5243 27.36L30.6906 29.6042C30.8506 29.9073 30.8085 30.2821 30.5811 30.5431C30.1938 30.9978 21.4948 41.0231 14.1011 41.0231L14.1095 41.0105ZM13.398 39.2842C16.0759 39.6042 19.5916 38.0842 23.6043 34.8757C26.1138 32.8673 28.1306 30.741 28.9348 29.8568L27.4653 27.0357C27.3306 26.7747 27.339 26.4589 27.4948 26.2063C27.6464 25.9578 27.9201 25.8021 28.2148 25.8021H28.219C28.2401 25.8021 30.5516 25.7852 32.4674 24.3031C32.6274 23.9073 32.9222 22.9894 33.259 21.9536C34.6611 17.6042 37.4485 8.9389 41.558 2.60626C35.878 3.68837 22.0801 7.29258 15.5327 17.4863C13.3938 20.8168 13.8906 24.7578 13.8948 24.7957C13.9285 25.0315 13.8569 25.2715 13.7011 25.4568C13.5453 25.6421 13.318 25.7473 13.078 25.7515L10.5811 25.8063C10.2738 28.7873 11.259 36.0463 13.4022 39.2884L13.398 39.2842Z" fill="#0070A9"/>
<path d="M11.3137 47.722C11.2674 47.722 11.2211 47.722 11.1748 47.7094C10.7158 47.6336 10.4085 47.1999 10.4843 46.741C11.6674 39.7094 18.9137 21.9663 31.0485 10.8673C31.3895 10.5515 31.9243 10.5768 32.24 10.922C32.5558 11.2631 32.5306 11.7978 32.1853 12.1136C20.3537 22.9347 13.2927 40.1894 12.1432 47.0231C12.0716 47.4357 11.7179 47.7262 11.3137 47.7262V47.722Z" fill="#0070A9"/>
<path d="M13.0443 10.7158C12.5811 10.7158 12.2021 10.3368 12.2021 9.87366V8.14313C12.2021 7.67997 12.5811 7.30103 13.0443 7.30103C13.5074 7.30103 13.8864 7.67997 13.8864 8.14313V9.87366C13.8864 10.3368 13.5074 10.7158 13.0443 10.7158Z" fill="#0070A9"/>
<path d="M13.0443 15.7684C12.5811 15.7684 12.2021 15.3895 12.2021 14.9263V13.2084C12.2021 12.7453 12.5811 12.3663 13.0443 12.3663C13.5074 12.3663 13.8864 12.7453 13.8864 13.2084V14.9263C13.8864 15.3895 13.5074 15.7684 13.0443 15.7684Z" fill="#0070A9"/>
<path d="M16.4379 12.3663H14.7032C14.24 12.3663 13.8611 11.9874 13.8611 11.5242C13.8611 11.0611 14.24 10.6821 14.7032 10.6821H16.4379C16.9011 10.6821 17.28 11.0611 17.28 11.5242C17.28 11.9874 16.9011 12.3663 16.4379 12.3663Z" fill="#0070A9"/>
<path d="M11.3979 12.3663H9.66321C9.20005 12.3663 8.82111 11.9874 8.82111 11.5242C8.82111 11.0611 9.20005 10.6821 9.66321 10.6821H11.3979C11.8611 10.6821 12.2401 11.0611 12.2401 11.5242C12.2401 11.9874 11.8611 12.3663 11.3979 12.3663Z" fill="#0070A9"/>
<path d="M36.6147 29.28C36.1516 29.28 35.7726 28.901 35.7726 28.4379V26.7073C35.7726 26.2442 36.1516 25.8652 36.6147 25.8652C37.0779 25.8652 37.4569 26.2442 37.4569 26.7073V28.4379C37.4569 28.901 37.0779 29.28 36.6147 29.28Z" fill="#0070A9"/>
<path d="M36.6147 34.3326C36.1516 34.3326 35.7726 33.9537 35.7726 33.4905V31.7726C35.7726 31.3095 36.1516 30.9305 36.6147 30.9305C37.0779 30.9305 37.4569 31.3095 37.4569 31.7726V33.4905C37.4569 33.9537 37.0779 34.3326 36.6147 34.3326Z" fill="#0070A9"/>
<path d="M40.0126 30.9347H38.2779C37.8147 30.9347 37.4358 30.5558 37.4358 30.0926C37.4358 29.6294 37.8147 29.2505 38.2779 29.2505H40.0126C40.4758 29.2505 40.8547 29.6294 40.8547 30.0926C40.8547 30.5558 40.4758 30.9347 40.0126 30.9347Z" fill="#0070A9"/>
<path d="M34.9684 30.9347H33.2337C32.7705 30.9347 32.3916 30.5558 32.3916 30.0926C32.3916 29.6294 32.7705 29.2505 33.2337 29.2505H34.9684C35.4316 29.2505 35.8105 29.6294 35.8105 30.0926C35.8105 30.5558 35.4316 30.9347 34.9684 30.9347Z" fill="#0070A9"/>
</svg>
