<?xml version="1.0" encoding="UTF-8"?>
<svg width="50px" height="50px" viewBox="0 0 50 50" version="1.1" 
    xmlns="http://www.w3.org/2000/svg" 
    xmlns:xlink="http://www.w3.org/1999/xlink">
    <!-- Generator: Sketch 63.1 (92452) - https://sketch.com -->

    <desc>Created with Sketch.</desc>
    <g id="Icons/50/coverage-family" stroke="none" stroke-width="1" fill="none" fill-rule="evenodd">
        <path class="cls-1" d="M48.76,34.84 L48.76,36.11 C48.76,37.36 48.25,39.47 45.04,40.28 L45.04,46.56 C45.0404298,47.0970336 44.616604,47.5385189 44.08,47.56 L36.08,47.56 C35.5277153,47.56 35.08,47.1122848 35.08,46.56 L35.08,40.28 C31.87,39.47 31.36,37.36 31.36,36.11 L31.36,34.84 C31.36,30.1158929 35.6910746,29.645692 39.8342236,29.6304055 L40.06,29.63 C44.27,29.63 48.76,30.03 48.76,34.84 Z M28.43,18.84 C28.9822848,18.8179086 29.4479086,19.2477152 29.47,19.8 C29.4920914,20.3522847 29.0622848,20.8179086 28.51,20.84 C21.45,21.14 20.07,23.03 20.07,26.19 L20.0703465,28.2122519 C20.078316,29.1361285 20.2695833,31.4716667 24.86,32.2 C25.3490578,32.2792284 25.706376,32.7046072 25.7,33.2 L25.7,45.46 L30.1,45.46 C30.6522848,45.46 31.1,45.9077153 31.1,46.46 C31.1,47.0122848 30.6522848,47.46 30.1,47.46 L24.7,47.46 C24.1477152,47.46 23.7,47.0122848 23.7,46.46 L23.7,34 C20.06,33.2 18.07,31.12 18.07,28.09 L18.07,26.18 C18.07,20.1 23.07,19.06 28.43,18.84 Z M13.23,18.79 C13.7822847,18.79 14.23,19.2377152 14.23,19.79 C14.23,20.3422847 13.7822847,20.79 13.23,20.79 C4.22999996,20.79 2.56999995,22.69 2.56999995,26.18 L2.57034645,28.2122519 C2.57831592,29.1361285 2.76958329,31.4716667 7.35999996,32.2 C7.84905776,32.2792284 8.20637598,32.7046072 8.19999997,33.2 L8.19999997,45.46 L17.43,45.46 L17.43,39.85 C17.43,39.2977153 17.8777152,38.85 18.43,38.85 C18.9822847,38.85 19.43,39.2977153 19.43,39.85 L19.43,46.46 C19.43,47.0122848 18.9822847,47.46 18.43,47.46 L7.19999996,47.46 C6.64771521,47.46 6.19999996,47.0122848 6.19999996,46.46 L6.19999996,34 C2.55999996,33.21 0.569999951,31.13 0.569999951,28.1 L0.569999951,26.18 C0.569999951,20.03 5.41999996,18.79 13.23,18.79 Z M40.1,31.63 C34.4,31.63 33.4,32.71 33.4,34.84 L33.4006411,36.2137316 C33.4105785,36.7950689 33.5745455,38.0478788 36.28,38.48 C36.7690578,38.5592284 37.126376,38.9846072 37.12,39.48 L37.08,45.56 L43.08,45.56 L43.08,39.47 C43.0743629,38.9713567 43.436962,38.5447694 43.93,38.47 C46.8,38.01 46.8,36.62 46.8,36.1 L46.8,34.85 C46.8,32.71 45.8,31.63 40.1,31.63 Z M39.9,16.29 C42.7553122,16.29 45.07,18.6046878 45.07,21.46 C45.0644976,24.3130298 42.7530299,26.6244975 39.9,26.63 C37.0446879,26.63 34.73,24.3153122 34.73,21.46 C34.73,18.6046878 37.0446879,16.29 39.9,16.29 Z M39.9,18.29 C38.1492574,18.29 36.73,19.7092573 36.73,21.46 C36.73,23.2107427 38.1492574,24.63 39.9,24.63 C41.6507427,24.63 43.07,23.2107427 43.07,21.46 C43.0645103,19.7115363 41.6484637,18.2954897 39.9,18.29 Z M33.3544912,1.84353858 C35.9101011,2.90539215 37.574046,5.40257179 37.5700074,8.16999997 C37.5589925,11.9414382 34.5014503,14.9945103 30.73,15 C27.9625689,15 25.4678264,13.3324005 24.4097129,10.7752397 C23.3515995,8.21807897 23.938636,5.27529004 25.8969363,3.31985275 C27.8552366,1.36441545 30.7988813,0.781685006 33.3544912,1.84353858 Z M15.8544912,1.84353858 C18.4101011,2.90539215 20.0740459,5.40257179 20.0700074,8.16999997 C20.0589924,11.9414382 17.0014503,14.9945103 13.23,15 C10.4625688,15 7.96782632,13.3324005 6.90971289,10.7752397 C5.85159946,8.21807897 6.438636,5.27529004 8.39693631,3.31985275 C10.3552366,1.36441545 13.2988813,0.781685006 15.8544912,1.84353858 Z M30.73,3.28999996 L30.73,3.32999996 C28.0569418,3.32999996 25.89,5.49694177 25.89,8.16999997 C25.89,10.8430582 28.0569418,13.01 30.73,13.01 C33.4030582,13.01 35.57,10.8430582 35.57,8.16999997 C35.5806662,6.87943563 35.0754517,5.63806168 34.166617,4.72171593 C33.2577823,3.80537019 32.0206084,3.28999996 30.73,3.28999996 Z M13.23,3.28999996 L13.23,3.32999996 C10.5569418,3.32999996 8.38999997,5.49694177 8.38999997,8.16999997 C8.38999997,10.8430582 10.5569418,13.01 13.23,13.01 C15.9030582,13.01 18.07,10.8430582 18.07,8.16999997 C18.0806662,6.87943563 17.5754517,5.63806168 16.6666169,4.72171593 C15.7577822,3.80537019 14.5206084,3.28999996 13.23,3.28999996 Z" id="coverage-family-50" fill="#000000"></path>
    </g>
</svg>