<?xml version="1.0" encoding="UTF-8"?>
<svg width="50px" height="50px" viewBox="0 0 50 50" version="1.1" 
    xmlns="http://www.w3.org/2000/svg" 
    xmlns:xlink="http://www.w3.org/1999/xlink">
    <!-- Generator: Sketch 63.1 (92452) - https://sketch.com -->

    <desc>Created with Sketch.</desc>
    <g id="Icons/50/coverage-individual" stroke="none" stroke-width="1" fill="none" fill-rule="evenodd">
        <path class="cls-1" d="M37.9,26.59 L37.9,28.51 C37.9,32.73 34.97,33.85 31.75,34.44 L31.75,47.91 C31.75,48.4622848 31.3022848,48.91 30.75,48.91 L19.91,48.91 C19.3577152,48.91 18.91,48.4622848 18.91,47.91 L18.91,34.45 C14.47,33.69 12.77,32.8 12.77,28.52 L12.77,26.59 C12.77,19.6914493 18.9372758,18.6202457 25.0599315,18.5906453 L25.33,18.59 C31.54,18.59 37.9,19.54 37.9,26.59 Z M25.33,20.6 C16.56,20.6 14.77,23 14.77,26.6 L14.77,28.52 C14.77,31.41 15.06,31.82 20.07,32.61 C20.5590578,32.6892284 20.916376,33.1146072 20.91,33.61 L20.91,46.91 L29.75,46.91 L29.75,33.6 C29.7443628,33.1013566 30.106962,32.6747694 30.6,32.6 C34.76,31.95 35.9,31.07 35.9,28.51 L35.9,26.6 C35.9,23.01 34.1,20.6 25.33,20.6 Z M28.0769496,1.22789692 C30.7521354,2.33928038 32.4940459,4.95314371 32.490007,7.84999997 C32.4844826,11.800453 29.2804569,15 25.33,15 C22.4331409,15 19.8217147,13.2544352 18.7140712,10.5776986 C17.6064277,7.9009621 18.220842,4.8205354 20.2706617,2.77357863 C22.3204813,0.726621871 25.4017637,0.116513465 28.0769496,1.22789692 Z M25.33,2.68999996 C22.4802107,2.68999996 20.17,5.00021065 20.17,7.84999997 C20.17,10.6997893 22.4802107,13.01 25.33,13.01 C28.1797893,13.01 30.49,10.6997893 30.49,7.84999997 C30.4680292,5.01584398 28.1642411,2.7299148 25.33,2.72999996 L25.33,2.68999996 Z" id="coverage-individual-50" fill="#000000"></path>
    </g>
</svg>