<?xml version="1.0" encoding="UTF-8"?>
<svg width="50px" height="50px" viewBox="0 0 50 50" version="1.1" 
    xmlns="http://www.w3.org/2000/svg" 
    xmlns:xlink="http://www.w3.org/1999/xlink">
    <!-- Generator: Sketch 63.1 (92452) - https://sketch.com -->

    <desc>Created with Sketch.</desc>
    <g id="Icons/50/coverage-family-one-parent" stroke="none" stroke-width="1" fill="none" fill-rule="evenodd">
        <path class="cls-1" d="M40.76,34.84 L40.76,36.11 C40.76,37.36 40.25,39.47 37.04,40.28 L37.04,46.56 C37.0404298,47.0970336 36.6166039,47.5385189 36.08,47.56 L28.08,47.56 C27.5277153,47.56 27.08,47.1122848 27.08,46.56 L27.08,40.28 C23.87,39.47 23.36,37.36 23.36,36.11 L23.36,34.84 C23.36,30.1158929 27.6910746,29.645692 31.8342236,29.6304055 L32.06,29.63 C36.27,29.63 40.76,30.03 40.76,34.84 Z M20.43,18.84 C20.9822847,18.8179086 21.4479086,19.2477152 21.47,19.8 C21.4920914,20.3522847 21.0622847,20.8179086 20.51,20.84 C13.45,21.14 12.07,23.03 12.07,26.19 L12.0703465,28.2122519 C12.0783159,29.1361285 12.2695833,31.4716667 16.86,32.2 C17.3490578,32.2792284 17.706376,32.7046072 17.7,33.2 L17.7,45.46 L22.1,45.46 C22.6522847,45.46 23.1,45.9077153 23.1,46.46 C23.1,47.0122848 22.6522847,47.46 22.1,47.46 L16.7,47.46 C16.1477152,47.46 15.7,47.0122848 15.7,46.46 L15.7,34 C12.06,33.2 10.07,31.12 10.07,28.09 L10.07,26.18 C10.07,20.1 15.07,19.06 20.43,18.84 Z M32.1,31.63 C26.4,31.63 25.4,32.71 25.4,34.84 L25.4006411,36.2137316 C25.4105785,36.7950689 25.5745455,38.0478788 28.28,38.48 C28.7690578,38.5592284 29.126376,38.9846072 29.12,39.48 L29.08,45.56 L35.08,45.56 L35.08,39.47 C35.0743628,38.9713567 35.436962,38.5447694 35.93,38.47 C38.8,38.01 38.8,36.62 38.8,36.1 L38.8,34.85 C38.8,32.71 37.8,31.63 32.1,31.63 Z M31.9,16.29 C34.7553122,16.29 37.07,18.6046878 37.07,21.46 C37.0644975,24.3130298 34.7530299,26.6244975 31.9,26.63 C29.0446879,26.63 26.73,24.3153122 26.73,21.46 C26.73,18.6046878 29.0446879,16.29 31.9,16.29 Z M31.9,18.29 C30.1492574,18.29 28.73,19.7092573 28.73,21.46 C28.73,23.2107427 30.1492574,24.63 31.9,24.63 C33.6507427,24.63 35.07,23.2107427 35.07,21.46 C35.0645103,19.7115363 33.6484637,18.2954897 31.9,18.29 Z M25.3544912,1.84353858 C27.9101011,2.90539215 29.574046,5.40257179 29.5700074,8.16999997 C29.5589925,11.9414382 26.5014503,14.9945103 22.73,15 C19.9625689,15 17.4678263,13.3324005 16.4097129,10.7752397 C15.3515995,8.21807897 15.938636,5.27529004 17.8969363,3.31985275 C19.8552366,1.36441545 22.7988813,0.781685006 25.3544912,1.84353858 Z M22.73,3.28999996 L22.73,3.32999996 C20.0569418,3.32999996 17.89,5.49694177 17.89,8.16999997 C17.89,10.8430582 20.0569418,13.01 22.73,13.01 C25.4030582,13.01 27.57,10.8430582 27.57,8.16999997 C27.5806662,6.87943563 27.0754517,5.63806168 26.166617,4.72171593 C25.2577822,3.80537019 24.0206084,3.28999996 22.73,3.28999996 Z" id="coverage-family-one-parent-50" fill="#000000"></path>
    </g>
</svg>