<?xml version="1.0" encoding="UTF-8"?>
<svg width="50px" height="50px" viewBox="0 0 50 50" version="1.1" 
    xmlns="http://www.w3.org/2000/svg" 
    xmlns:xlink="http://www.w3.org/1999/xlink">
    <!-- Generator: Sketch 63.1 (92452) - https://sketch.com -->

    <desc>Created with Sketch.</desc>
    <g id="Icons/50/coverage-individual-spouse" stroke="none" stroke-width="1" fill="none" fill-rule="evenodd">
        <path class="cls-1" d="M16.23,18.59 C16.7822847,18.59 17.23,19.0377152 17.23,19.59 C17.23,20.1422847 16.7822847,20.59 16.23,20.59 C7.65999997,20.63 5.89999996,23 5.89999996,26.6 L5.89999996,28.52 C5.89999996,31.42 6.17999996,31.84 11.03,32.62 C11.523038,32.6947694 11.8856372,33.1213566 11.88,33.62 L11.88,46.92 L20.62,46.92 L20.62,39.85 C20.62,39.2977153 21.0677152,38.85 21.62,38.85 C22.1722847,38.85 22.62,39.2977153 22.62,39.85 L22.62,47.91 C22.62,48.4622848 22.1722847,48.91 21.62,48.91 L10.88,48.92 C10.3277152,48.92 9.87999996,48.4722848 9.87999996,47.92 L9.87999996,34.45 C5.54999996,33.7 3.87999996,32.8 3.87999996,28.52 L3.87999996,26.59 C3.87999996,19.53 10.48,18.59 16.23,18.59 Z M45.9,26.59 L45.9,28.51 C45.9,32.73 42.97,33.85 39.75,34.44 L39.75,47.91 C39.75,48.4622848 39.3022848,48.91 38.75,48.91 L27.91,48.91 C27.3577153,48.91 26.91,48.4622848 26.91,47.91 L26.91,34.45 C22.47,33.69 20.77,32.8 20.77,28.52 L20.77,26.59 C20.77,19.6914493 26.9372758,18.6202457 33.0599316,18.5906453 L33.33,18.59 C39.54,18.59 45.9,19.54 45.9,26.59 Z M33.33,20.6 C24.56,20.6 22.77,23 22.77,26.6 L22.77,28.52 C22.77,31.41 23.06,31.82 28.07,32.61 C28.5590578,32.6892284 28.916376,33.1146072 28.91,33.61 L28.91,46.91 L37.75,46.91 L37.75,33.6 C37.7443628,33.1013566 38.106962,32.6747694 38.6,32.6 C42.76,31.95 43.9,31.07 43.9,28.51 L43.9,26.6 C43.9,23.01 42.1,20.6 33.33,20.6 Z M36.0769496,1.22789692 C38.7521354,2.33928038 40.4940459,4.95314371 40.4900071,7.84999997 C40.4844826,11.800453 37.2804569,15 33.33,15 C30.4331409,15 27.8217147,13.2544352 26.7140712,10.5776986 C25.6064278,7.9009621 26.220842,4.8205354 28.2706617,2.77357863 C30.3204813,0.726621871 33.4017637,0.116513465 36.0769496,1.22789692 Z M19.0125267,1.2385172 C21.6875997,2.36193708 23.4202584,4.98867651 23.4,7.88999997 C23.3725525,11.8209223 20.1810144,14.9946056 16.25,15.0000068 C13.3486085,15.0039815 10.7316307,13.2566139 9.62323585,10.5752805 C8.51484095,7.89394709 9.13416923,4.8087731 11.1915115,2.76294048 C13.2488537,0.717107854 16.3374536,0.115097312 19.0125267,1.2385172 Z M16.25,2.68999036 C13.4041418,2.68457027 11.0911687,4.98424853 11.0801543,7.83009076 C11.0692182,10.675933 13.364385,12.9933829 16.2102004,13.0099924 C19.0560159,13.0264243 21.3779339,10.7357778 21.4,7.88999997 C21.4,5.04411133 19.0958833,2.73551524 16.25,2.72999996 L16.25,2.68999036 Z M33.33,2.68999996 C31.2429748,2.68999996 29.3614516,3.9471936 28.5627816,5.87535345 C27.7641117,7.80351331 28.2055794,10.0229213 29.681329,11.498671 C31.1570787,12.9744206 33.3764867,13.4158883 35.3046465,12.6172184 C37.2328064,11.8185484 38.49,9.93702515 38.49,7.84999997 C38.4680292,5.01584398 36.1642412,2.7299148 33.33,2.72999996 L33.33,2.68999996 Z" id="coverage-individual-spouse-50" fill="#000000"></path>
    </g>
</svg>