<svg width="50px" height="50px" viewBox="0 0 50 50" version="1.1" xmlns="http://www.w3.org/2000/svg" xmlns:xlink="http://www.w3.org/1999/xlink">
    <!-- Generator: Sketch 55.2 (78181) - https://sketchapp.com -->
    <title>Icons/Products/Disabled/Accident</title>
    <desc>Created with Sketch.</desc>
    <g id="Icons/Products/Disabled/Accident" stroke="none" stroke-width="1" fill="none" fill-rule="evenodd">
        <g id="accident_Icon" transform="translate(0.000000, 5.000000)">
            <g id="Color" transform="translate(5.000000, 6.666667)"></g>
            <g id="Shape" fill="#000000">
                <path d="M39.1378333,26.603 L39.1378333,26.6031667 C42.1638044,26.6023736 44.6187549,29.0523527 44.6241044,32.0783191 C44.6294365,35.1042856 42.1831497,37.5629153 39.1571947,37.5728338 C36.1312397,37.5826924 33.6689362,35.1401034 33.6545,32.1141667 L19.2156667,32.1141667 L19.2168333,32.0893333 C19.2174112,31.3396317 19.1046367,30.5941514 18.8823333,29.8781667 L34.1256667,29.8781667 C35.0012992,27.8909849 36.9662883,26.606976 39.1378333,26.603 Z M39.1378333,35.338008 L39.138,35.338008 C40.9026221,35.3418727 42.346507,33.9341729 42.3874127,32.1700208 C42.4283184,30.4058686 41.0512313,28.9327585 39.2883261,28.8548379 C37.525421,28.7769172 36.0237346,30.1227851 35.9088333,31.8836667 C35.9133333,31.9523333 35.9275,32.0201667 35.9275,32.0893333 L35.9258333,32.1141667 L35.8908333,32.1141667 C35.9057346,33.8974679 37.3544712,35.335868 39.1378333,35.338008 Z M14,12 L19,12 L19,16 L14,16 L14,20.6666667 L10,20.6666667 L10,16 L5,16 L5,12 L10,12 L10,6.66666667 L14,6.66666667 L14,12 Z M48.5608333,18.9598333 L50,20.6988333 L50,32.1141667 L46.5983333,32.1141667 L46.5995,32.0893333 C46.6000778,31.3396317 46.4873033,30.5941514 46.265,29.8781667 L47.7641667,29.8781667 L47.7641667,21.487 L45.6791667,18.9596667 L33.5693333,18.9596667 L33.5693333,9.13183333 L33.5693333,5.908 L3.0465,5.908 L3.0465,29.878 L6.74433333,29.878 C7.8847816,27.3022414 10.7861734,26.0035511 13.4669008,26.8689155 C16.1476281,27.7342799 17.7420679,30.4842677 17.1612413,33.2406775 C16.5804146,35.9970873 14.0118739,37.8698578 11.2098947,37.5799143 C8.40791549,37.2899707 6.27727383,34.9309377 6.27316667,32.114 L0.8105,32.114 L0.8105,3.672 L24.8293333,3.672 C24.9700738,1.84058364 26.4971838,0.426326114 28.334,0.426326114 C30.1708162,0.426326114 31.6979262,1.84058364 31.8386667,3.672 L35.8053333,3.672 L35.8053333,9.13183333 L40.6941667,9.13183333 L46.7108333,16.7238333 L48.5608333,18.9598333 Z M11.7566667,28.8388333 C9.96238871,28.8403955 8.50822887,30.2945554 8.50666667,32.0888333 C8.50666667,33.8837588 9.96174123,35.3388333 11.7566667,35.3388333 C13.5515921,35.3388333 15.0066667,33.8837588 15.0066667,32.0888333 C15.0066667,30.2939079 13.5515921,28.8388333 11.7566667,28.8388333 Z M28.3333333,2.66216667 C27.734835,2.66779795 27.2200321,3.08716961 27.0935,3.67216667 L29.5731667,3.67216667 C29.4466346,3.08716961 28.9318316,2.66779795 28.3333333,2.66216667 Z M35.8053333,16.7238333 L43.8773333,16.7238333 L39.6,11.3678333 L35.8053333,11.3678333 L35.8053333,16.7238333 Z" id="Combined-Shape"></path>
            </g>
        </g>
    </g>
</svg>