<svg width="50px" height="50px" viewBox="0 0 50 50" version="1.1" xmlns="http://www.w3.org/2000/svg" xmlns:xlink="http://www.w3.org/1999/xlink">
    <!-- Generator: Sketch 55.2 (78181) - https://sketchapp.com -->
    <title>Icons/Products/Accident</title>
    <desc>Created with Sketch.</desc>
    <g id="Icons/Products/Accident" stroke="none" stroke-width="1" fill="none" fill-rule="evenodd">
        <g id="accident_Icon" transform="translate(0.000000, 4.000000)" fill-rule="nonzero">
            <g id="Color" transform="translate(0.000000, 6.666667)" fill="#05536B">
                <path d="M46.1376667,14.5438333 L34.1125,14.5438333 L34.1125,1.4925 L14.2525,1.4925 L14.2525,6.01883333 L19.3038333,6.01883333 L19.3038333,10.1941667 L14.2525,10.1941667 L14.2525,15.2451667 L10.0768333,15.2451667 L10.0768333,10.1943333 L5.02566667,10.1943333 L5.02566667,6.01883333 L10.0768333,6.01883333 L10.0768333,1.4925 L0,1.4925 L0,27.7 L4.45183333,27.7 C4.95966667,25.1963333 9.10516667,21.639 11.7565,21.639 C14.4078333,21.639 16.1368333,25.1955 16.6443333,27.7 L31.8333333,27.7 C32.3406667,25.1963333 36.4861667,21.639 39.1371667,21.639 C41.7881667,21.639 43.5178333,25.1963333 44.0253333,27.7 L48.8975,27.7 L48.8975,15.5593333 L46.1376667,14.5438333 Z" id="Shape"></path>
            </g>
            <g id="Shape" fill="#000000">
                <path d="M39.1378333,27.603 C36.9662883,27.606976 35.0012992,28.8909849 34.1256667,30.8781667 L18.8823333,30.8781667 C19.1046367,31.5941514 19.2174112,32.3396317 19.2168333,33.0893333 L19.2156667,33.1141667 L33.6545,33.1141667 C33.6689362,36.1401034 36.1312397,38.5826924 39.1571947,38.5728338 C42.1831497,38.5629153 44.6294365,36.1042856 44.6241044,33.0783191 C44.6187549,30.0523527 42.1638044,27.6023736 39.1378333,27.6031667 L39.1378333,27.603 Z M39.1378333,36.338008 C37.3544712,36.335868 35.9057346,34.8974679 35.8908333,33.1141667 L35.9258333,33.1141667 L35.9275,33.0893333 C35.9275,33.0201667 35.9133333,32.9523333 35.9088333,32.8836667 C36.0237346,31.1227851 37.525421,29.7769172 39.2883261,29.8548379 C41.0512313,29.9327585 42.4283184,31.4058686 42.3874127,33.1700208 C42.346507,34.9341729 40.9026221,36.3418727 39.138,36.338008 L39.1378333,36.338008 Z"></path>
                <path d="M48.5608333,19.9598333 L46.7108333,17.7238333 L40.6941667,10.1318333 L35.8053333,10.1318333 L35.8053333,4.672 L31.8386667,4.672 C31.6979262,2.84058364 30.1708162,1.42632611 28.334,1.42632611 C26.4971838,1.42632611 24.9700738,2.84058364 24.8293333,4.672 L0.8105,4.672 L0.8105,33.114 L6.27316667,33.114 C6.27727383,35.9309377 8.40791549,38.2899707 11.2098947,38.5799143 C14.0118739,38.8698578 16.5804146,36.9970873 17.1612413,34.2406775 C17.7420679,31.4842677 16.1476281,28.7342799 13.4669008,27.8689155 C10.7861734,27.0035511 7.8847816,28.3022414 6.74433333,30.878 L3.0465,30.878 L3.0465,6.908 L33.5693333,6.908 L33.5693333,10.1318333 L33.5693333,10.1318333 L33.5693333,19.9596667 L45.6791667,19.9596667 L47.7641667,22.487 L47.7641667,30.8781667 L46.265,30.8781667 C46.4873033,31.5941514 46.6000778,32.3396317 46.5995,33.0893333 L46.5983333,33.1141667 L50,33.1141667 L50,21.6988333 L48.5608333,19.9598333 Z M11.7566667,29.8388333 C13.5515921,29.8388333 15.0066667,31.2939079 15.0066667,33.0888333 C15.0066667,34.8837588 13.5515921,36.3388333 11.7566667,36.3388333 C9.96174123,36.3388333 8.50666667,34.8837588 8.50666667,33.0888333 C8.50822887,31.2945554 9.96238871,29.8403955 11.7566667,29.8388333 L11.7566667,29.8388333 Z M28.3333333,3.66216667 C28.9318316,3.66779795 29.4466346,4.08716961 29.5731667,4.67216667 L27.0935,4.67216667 C27.2200321,4.08716961 27.734835,3.66779795 28.3333333,3.66216667 L28.3333333,3.66216667 Z M35.8053333,17.7238333 L35.8053333,12.3678333 L39.6,12.3678333 L43.8773333,17.7238333 L35.8053333,17.7238333 Z"></path>
            </g>
        </g>
    </g>
</svg>