<svg id="Layer_1" data-name="Layer 1" xmlns="http://www.w3.org/2000/svg" viewBox="0 0 112 112"><title>PASS</title><path d="M83.4,74.6a2.56,2.56,0,0,0-1.9.8l.3.5a1.62,1.62,0,0,1,1.4-.7c.7,0,1.2.4,1.2,1V77a2.27,2.27,0,0,0-1.6-.6,1.49,1.49,0,0,0-1.6,1.5,1.52,1.52,0,0,0,1.6,1.6,2.18,2.18,0,0,0,1.6-.7v.6h.8V76.2C85.2,75,84.4,74.6,83.4,74.6Zm1,3.7a1.3,1.3,0,0,1-1.3.5c-.7,0-1.2-.4-1.2-1a1.06,1.06,0,0,1,1.2-1,1.61,1.61,0,0,1,1.3.6Z" transform="translate(-33.7 -16.9)"/><rect x="46.2" y="55.9" width="0.7" height="6.5"/><path d="M77.3,74.3v.4h-.8v.6h.8v4.1h.8v-4h1v-.6h-1v-.4c0-.6.2-.9.7-.9.2,0,.3,0,.4.1l.2-.6a.84.84,0,0,0-.7-.2C77.8,72.8,77.3,73.3,77.3,74.3Z" transform="translate(-33.7 -16.9)"/><path d="M84.7,49.5h10a2.22,2.22,0,0,0,2.2-2.2v-.8a2.09,2.09,0,0,0-1.3-2v1.8a2.22,2.22,0,0,1-2.2,2.2H86a2.22,2.22,0,0,1-2.2-2.2V44.5a2.09,2.09,0,0,0-1.3,2v.8A2.22,2.22,0,0,0,84.7,49.5Z" transform="translate(-33.7 -16.9)"/><path d="M93.7,72.8h-3v6.5H92V77h1.7a2.1,2.1,0,1,0,0-4.2Zm-.2,2.9H92V74h1.5a.92.92,0,0,1,1,.9A.77.77,0,0,1,93.5,75.7Z" transform="translate(-33.7 -16.9)"/><path d="M72.9,72.8l-2.6,6.5h.9l.6-1.4H75l.6,1.4h.9l-2.6-6.5ZM72,77.2l1.4-3.5,1.3,3.5Z" transform="translate(-33.7 -16.9)"/><path d="M88,75.1a1.43,1.43,0,0,1,1.2.6l.5-.4a1.77,1.77,0,0,0-1.7-.8A2.32,2.32,0,0,0,85.7,77,2.1,2.1,0,0,0,88,79.3a2,2,0,0,0,1.7-.8l-.5-.4a1.43,1.43,0,0,1-1.2.6,1.81,1.81,0,0,1,0-3.6Z" transform="translate(-33.7 -16.9)"/><path d="M102.5,75.8c0-.3.3-.5.7-.5a2,2,0,0,1,1.4.5l.5-.8a3.57,3.57,0,0,0-1.9-.6c-1.2,0-1.9.7-1.9,1.5,0,1.9,2.8,1.2,2.8,2,0,.3-.3.5-.8.5a2.58,2.58,0,0,1-1.6-.6l-.5.9a2.24,2.24,0,0,0,2.1.6c1.3,0,2-.6,2-1.5C105.3,75.9,102.5,76.5,102.5,75.8Z" transform="translate(-33.7 -16.9)"/><path d="M89.7,16.9a56,56,0,1,0,56,56A56,56,0,0,0,89.7,16.9ZM112.5,109a4.69,4.69,0,0,1-4.7,4.7H71.5a4.69,4.69,0,0,1-4.7-4.7V45.2a4.69,4.69,0,0,1,4.7-4.7H83.8V33.6H95.6v6.9h12.2a4.57,4.57,0,0,1,4.7,4.7Z" transform="translate(-33.7 -16.9)"/><path d="M107.1,75.8c0-.3.3-.5.7-.5a2,2,0,0,1,1.4.5l.5-.8a3.57,3.57,0,0,0-1.9-.6c-1.2,0-1.9.7-1.9,1.5,0,1.9,2.8,1.2,2.8,2,0,.3-.3.5-.8.5a2.58,2.58,0,0,1-1.6-.6l-.5.9a2.1,2.1,0,0,0,2.1.6c1.3,0,2-.6,2-1.5C109.9,75.9,107.1,76.5,107.1,75.8Z" transform="translate(-33.7 -16.9)"/><path d="M98.4,74.6a3.06,3.06,0,0,0-2,.7l.5.8a2,2,0,0,1,1.4-.6c.6,0,1,.3,1,.8v.6a1.89,1.89,0,0,0-1.5-.6,1.49,1.49,0,0,0-1.6,1.5,1.57,1.57,0,0,0,1.6,1.6,1.89,1.89,0,0,0,1.5-.6v.6h1.1v-3C100.4,75,99.5,74.6,98.4,74.6Zm.9,3.6a1.16,1.16,0,0,1-1,.4.72.72,0,1,1,0-1.4,1.16,1.16,0,0,1,1,.4Z" transform="translate(-33.7 -16.9)"/></svg>