<?xml version="1.0" encoding="UTF-8"?>
<svg width="60px" height="60px" viewBox="0 0 60 60" version="1.1" xmlns="http://www.w3.org/2000/svg" xmlns:xlink="http://www.w3.org/1999/xlink">
    <!-- Generator: Sketch 62 (91390) - https://sketch.com -->
    <title>Icons/60/down</title>
    <desc>Created with Sketch.</desc>
    <g id="Icons/60/down" stroke="none" stroke-width="1" fill="none" fill-rule="evenodd">
        <path d="M43.8328931,5.36748156 C43.8623638,5.77101853 43.7494296,6.16252032 43.5062525,6.48777047 L20.3785062,29.9999172 L43.3725662,53.3541033 C43.6783278,53.8218863 43.8091523,54.259554 43.8091493,54.6455578 C43.8091458,55.0832967 43.644056,55.4610506 43.354752,55.754899 C43.062738,56.0515001 42.6878956,56.2158836 42.3044224,56.2453192 C41.9122882,56.2754196 41.5108534,56.1643964 41.1788457,55.908181 L15.6490932,30.0000756 L41.0139393,4.23711665 C41.392902,3.913941 41.8164756,3.76386845 42.2185615,3.76386845 C42.6411386,3.76386845 43.0432472,3.92870295 43.354752,4.24510097 C43.6564666,4.61050282 43.805683,4.99489883 43.8328931,5.36748156 Z" id="Path" stroke="#000000" stroke-width="0.5" fill="#000000" transform="translate(29.802568, 30.000062) rotate(-90.000000) translate(-29.802568, -30.000062) "></path>
    </g>
</svg>