<svg xmlns="http://www.w3.org/2000/svg" xmlns:xlink="http://www.w3.org/1999/xlink" preserveAspectRatio="xMidYMid" width="32" height="32" viewBox="0 0 32 32">
  <defs>
    <style>
      .cls-1 {
        fill: #6e6e6e;
        fill-rule: evenodd;
      }
    </style>
  </defs>
  <path d="M31.000,28.000 L20.000,28.000 C18.346,28.000 17.000,29.346 17.000,31.000 C17.000,31.553 16.552,32.000 16.000,32.000 C15.448,32.000 15.000,31.553 15.000,31.000 C15.000,29.346 13.654,28.000 12.000,28.000 L1.000,28.000 C0.448,28.000 0.000,27.552 0.000,27.000 L0.000,1.000 C0.000,0.447 0.448,0.000 1.000,0.000 L12.000,0.000 C13.641,0.000 15.088,0.806 16.000,2.031 C16.912,0.806 18.359,0.000 20.000,0.000 L31.000,0.000 C31.552,0.000 32.000,0.447 32.000,1.000 L32.000,27.000 C32.000,27.552 31.552,28.000 31.000,28.000 ZM12.000,2.000 L2.000,2.000 L2.000,26.000 L12.000,26.000 C13.130,26.000 14.162,26.391 15.000,27.026 L15.000,5.000 C15.000,3.346 13.654,2.000 12.000,2.000 ZM30.000,2.000 L20.000,2.000 C18.346,2.000 17.000,3.346 17.000,5.000 L17.000,27.026 C17.838,26.391 18.870,26.000 20.000,26.000 L30.000,26.000 L30.000,2.000 ZM19.000,20.000 C19.000,19.448 19.448,19.000 20.000,19.000 L27.000,19.000 C27.552,19.000 28.000,19.448 28.000,20.000 C28.000,20.552 27.552,21.000 27.000,21.000 L20.000,21.000 C19.448,21.000 19.000,20.552 19.000,20.000 ZM27.000,15.000 L20.000,15.000 C19.448,15.000 19.000,14.552 19.000,14.000 C19.000,13.448 19.448,13.000 20.000,13.000 L27.000,13.000 C27.552,13.000 28.000,13.448 28.000,14.000 C28.000,14.552 27.552,15.000 27.000,15.000 ZM27.000,9.000 L20.000,9.000 C19.448,9.000 19.000,8.553 19.000,8.000 C19.000,7.448 19.448,7.000 20.000,7.000 L27.000,7.000 C27.552,7.000 28.000,7.448 28.000,8.000 C28.000,8.553 27.552,9.000 27.000,9.000 ZM12.000,21.000 L5.000,21.000 C4.448,21.000 4.000,20.552 4.000,20.000 C4.000,19.448 4.448,19.000 5.000,19.000 L12.000,19.000 C12.552,19.000 13.000,19.448 13.000,20.000 C13.000,20.552 12.552,21.000 12.000,21.000 ZM12.000,15.000 L5.000,15.000 C4.448,15.000 4.000,14.552 4.000,14.000 C4.000,13.448 4.448,13.000 5.000,13.000 L12.000,13.000 C12.552,13.000 13.000,13.448 13.000,14.000 C13.000,14.552 12.552,15.000 12.000,15.000 ZM12.000,9.000 L5.000,9.000 C4.448,9.000 4.000,8.553 4.000,8.000 C4.000,7.448 4.448,7.000 5.000,7.000 L12.000,7.000 C12.552,7.000 13.000,7.448 13.000,8.000 C13.000,8.553 12.552,9.000 12.000,9.000 Z" class="cls-1"/>
</svg>
