<svg width="50px" height="50px" viewBox="0 0 50 50" version="1.1" xmlns="http://www.w3.org/2000/svg" xmlns:xlink="http://www.w3.org/1999/xlink">
    <!-- Generator: Sketch 55.2 (78181) - https://sketchapp.com -->
    <title>Icons/Products/Disabled/Cancer</title>
    <desc>Created with Sketch.</desc>
    <g id="Icons/Products/Disabled/Cancer" stroke="none" stroke-width="1" fill="none" fill-rule="evenodd">
        <g id="cancer_Icon" transform="translate(3.000000, 0.000000)" fill="#000000">
            <g id="Shape">
                <path d="M41.4666667,39.3306667 C41.3691667,39.2298333 35.75,33.4261667 30.1681667,27.5306667 C31.1776667,26.4165 32.0275,25.4553333 32.6408333,24.7243333 C37.4771667,18.9608333 35.1811667,14.3323333 35.0808333,14.138 L27.8871667,0.846333333 L27.8871667,0.8445 L27.8871667,0.8445 L27.8815,0.835333333 L27.8815,0.843166667 L26.9728333,0.625166667 C23.4846605,-0.208374386 19.8491729,-0.208374386 16.361,0.625166667 L15.4526667,0.843166667 L15.4526667,0.835333333 L15.4478333,0.8445 L15.4466667,0.8445 L15.4466667,0.846166667 L8.26366667,14.1166667 L8.2525,14.1381667 C8.1525,14.3325 5.85616667,18.961 10.6925,24.7245 C11.3058333,25.4555 12.1558333,26.4166667 13.1651667,27.5308333 C7.58316667,33.4256667 1.96516667,39.2293333 1.86666667,39.3308333 L0.975,40.2511667 L10.5091667,48.2511667 L11.2821667,47.4546667 C11.6543333,47.0713333 16.5468333,42.0243333 21.6655,36.6346667 C26.7853333,42.0243333 31.6773333,47.0705 32.0488333,47.4546667 L32.8218333,48.2511667 L42.356,40.2511667 L41.4666667,39.3306667 Z M29.5023333,8.8745 L31.1438333,11.9078333 L31.1565,11.9008333 L32.9588333,15.231 C33.0766667,15.4821667 34.512,18.7828333 30.8125,23.1916667 C30.2448333,23.8683333 29.4586667,24.7583333 28.5236667,25.7916667 C26.6316667,23.7836667 24.8081667,21.83 23.2768333,20.1566667 C23.9973333,19.3526667 24.6115,18.6511667 25.0836667,18.0888333 C27.2494185,15.400496 28.7619584,12.2463665 29.5023333,8.8745 Z M21.6701667,18.3733333 C21.0615,17.6923333 20.4823333,17.0375 20.0766667,16.5545 C19.1898291,15.4845233 18.4360986,14.3108907 17.832,13.0593333 L17.832,13.0301667 C20.3654951,12.5469186 22.9675049,12.5469186 25.501,13.0301667 L25.501,13.058 C24.8967642,14.3098417 24.1430475,15.4838444 23.2563333,16.5543333 C22.8381667,17.0526667 22.3,17.6691667 21.6701667,18.3733333 Z M17.0308333,2.95783333 L17.8321667,2.748 C20.3656617,2.2647519 22.9676716,2.2647519 25.5011667,2.748 L26.2996667,2.957 L27.655,5.4615 C27.4666551,7.28724449 27.0617537,9.08409576 26.4488333,10.8141667 C23.298406,10.1385463 20.0405686,10.1382055 16.89,10.8131667 C16.2775495,9.08135132 15.8709771,7.28349361 15.6786667,5.45666667 L17.0308333,2.95783333 Z M10.342,44.9956667 L4.471,40.0696667 C6.28333333,38.1935 10.5261667,33.7903333 14.7815,29.2978333 C16.3648333,31.0145 18.1776667,32.9488333 20.0215,34.8988333 C15.935,39.202 11.9691667,43.3126667 10.342,44.9956667 Z M32.992,44.9956667 C31.3646667,43.3123333 27.3985,39.202 23.312,34.899 C22.7637778,34.3218889 22.2153333,33.7431667 21.6666667,33.1628333 C19.8136667,31.2026667 17.9973333,29.2653333 16.425,27.5588333 C15.8501667,26.935 15.3083333,26.3421667 14.8093333,25.791 C13.8743333,24.7576667 13.0881667,23.8683333 12.5205,23.191 C8.78866667,18.7435 10.2818333,15.4233333 10.3705,15.2356667 L12.2466667,11.7711667 L12.2578333,11.7771667 L13.8305,8.87183333 C14.5704923,12.2445685 16.0831163,15.3995532 18.2493333,18.0885 C18.7078333,18.6346667 19.3626667,19.3741667 20.0596667,20.1525 L20.0561667,20.1565 C20.5473333,20.7041667 21.088,21.2998333 21.6666667,21.9318333 C23.2123333,23.6196667 25.0306667,25.5668333 26.9086667,27.5591667 C27.4531111,28.1369444 28.0008333,28.7166667 28.5518333,29.2983333 C32.807,33.7908333 37.05,38.1941667 38.8623333,40.0701667 L32.992,44.9956667 Z"></path>
            </g>
        </g>
    </g>
</svg>