<svg xmlns="http://www.w3.org/2000/svg" xmlns:xlink="http://www.w3.org/1999/xlink" preserveAspectRatio="xMidYMid" width="31.97" height="32" viewBox="0 0 31.97 32">
  <defs>
    <style>
      .cls-1 {
        fill: #000;
        fill-rule: evenodd;
      }
    </style>
  </defs>
  <path d="M31.916,10.272 L27.975,24.272 C27.853,24.703 27.461,25.000 27.013,25.000 L13.928,25.000 C13.928,25.000 13.928,25.000 13.928,25.000 C13.927,25.000 13.927,25.000 13.927,25.000 C13.803,25.000 13.685,24.971 13.572,24.928 C13.534,24.913 13.503,24.892 13.467,24.873 C13.397,24.836 13.332,24.794 13.272,24.741 C13.239,24.711 13.210,24.680 13.180,24.645 C13.132,24.590 13.092,24.529 13.057,24.462 C13.034,24.419 13.013,24.378 12.996,24.332 C12.988,24.309 12.973,24.292 12.966,24.268 L9.134,10.493 C9.048,10.345 8.986,10.183 8.986,10.000 C8.986,9.992 8.990,9.985 8.990,9.977 L7.104,3.196 C6.929,2.570 6.180,2.000 5.532,2.000 L0.997,2.000 C0.445,2.000 -0.002,1.552 -0.002,1.000 C-0.002,0.448 0.445,-0.000 0.997,-0.000 L5.532,-0.000 C7.076,-0.000 8.611,1.168 9.027,2.658 L10.791,9.000 L30.955,9.000 C31.268,9.000 31.562,9.147 31.751,9.397 C31.940,9.646 32.001,9.970 31.916,10.272 ZM11.347,11.000 L14.686,23.000 L26.257,23.000 L29.635,11.000 L11.347,11.000 ZM15.477,27.000 C16.854,27.000 17.973,28.122 17.973,29.500 C17.973,30.878 16.854,32.000 15.477,32.000 C14.100,32.000 12.980,30.878 12.980,29.500 C12.980,28.122 14.100,27.000 15.477,27.000 ZM24.464,27.000 C25.841,27.000 26.960,28.122 26.960,29.500 C26.960,30.878 25.841,32.000 24.464,32.000 C23.087,32.000 21.967,30.878 21.967,29.500 C21.967,28.122 23.087,27.000 24.464,27.000 Z" class="cls-1"/>
</svg>
