<svg id="Art" xmlns="http://www.w3.org/2000/svg" viewBox="0 0 24 24"><defs><style>.cls-1{fill:#536dfe;}.cls-2{fill:#fff;}</style></defs><title>College Assistance</title><path class="cls-1" d="M7.18,13v0l-.09,0Z"/><path class="cls-1" d="M18,7.88v4.65A12.73,12.73,0,0,1,12.34,14a6.6,6.6,0,0,0-5.72-3.3l-.55,0V7.91l5.59,2a1,1,0,0,0,.68,0l5.5-2Z"/><polygon points="18 7.88 18 8.01 17.84 7.94 18 7.88"/><path class="cls-2" d="M7.09,13l.09,0v0Z"/><path d="M23.34,4.06l-11-4a1,1,0,0,0-.68,0l-11,4a1,1,0,0,0,0,1.88l4.41,1.6v3.34a6.62,6.62,0,1,0,8.17,6.43A6.48,6.48,0,0,0,12.81,15a13.65,13.65,0,0,0,5.66-1.56,1,1,0,0,0,.53-.88V8.42l.07,0A1.49,1.49,0,0,1,20,9.84v4.73a2,2,0,0,0-.68,3.54L18,21.31a.49.49,0,0,0,.27.65.46.46,0,0,0,.19,0,.49.49,0,0,0,.46-.31l1-2.6V21.5a.5.5,0,0,0,1,0V19.09l1,2.6a.49.49,0,0,0,.46.31.46.46,0,0,0,.19,0,.49.49,0,0,0,.27-.65l-1.28-3.2A2,2,0,0,0,21,14.57V9.84a2.49,2.49,0,0,0-1.55-2.31l-.23-.09,4.12-1.5a1,1,0,0,0,0-1.88ZM20.5,15.5a1,1,0,0,1,.5.14,1,1,0,0,1,.28,1.48.81.81,0,0,1-.28.24l-.13.07a.86.86,0,0,1-.23.06h-.28a.86.86,0,0,1-.23-.06L20,17.36a.81.81,0,0,1-.28-.24A1,1,0,0,1,20,15.64,1,1,0,0,1,20.5,15.5ZM6.62,22.93a5.62,5.62,0,0,1-1.55-11,4.05,4.05,0,0,1,.5-.12,4,4,0,0,1,.5-.07,4.93,4.93,0,0,1,.55,0A5.54,5.54,0,0,1,11.12,14a3,3,0,0,1,.35.52,3.4,3.4,0,0,1,.26.5,5.47,5.47,0,0,1,.51,2.32A5.62,5.62,0,0,1,6.62,22.93ZM18,12.53A12.73,12.73,0,0,1,12.34,14a6.6,6.6,0,0,0-5.72-3.3l-.55,0V7.91l5.59,2a1,1,0,0,0,.68,0l5.5-2L18,7.88Zm1-6.06-.48.17L18,6.82l-.15,0-.39-.16-1.22-.5L15,5.71l-.37-.15A1.09,1.09,0,0,0,14.81,5c0-.94-1.21-1.65-2.81-1.65S9.19,4.06,9.19,5a1.11,1.11,0,0,0,.26.71,1.82,1.82,0,0,0,.61.5A4.09,4.09,0,0,0,12,6.65a4.21,4.21,0,0,0,1.8-.37l1,.43,1.61.67L12,9,6.07,6.84l-.5-.18L5.1,6.49,1,5,12,1,23,5ZM13.81,5a.23.23,0,0,1-.11.16,2.33,2.33,0,0,1-1.46.48H12c-1.17,0-1.81-.46-1.81-.65s.64-.65,1.81-.65S13.81,4.81,13.81,5Z"/><path class="cls-1" d="M23,5,19,6.47l-.48.17L18,6.82l-.15,0-.39-.16-1.22-.5L15,5.71l-.37-.15A1.09,1.09,0,0,0,14.81,5c0-.94-1.21-1.65-2.81-1.65S9.19,4.06,9.19,5a1.11,1.11,0,0,0,.26.71,1.82,1.82,0,0,0,.61.5A4.09,4.09,0,0,0,12,6.65a4.21,4.21,0,0,0,1.8-.37l1,.43,1.61.67L12,9,6.07,6.84l-.5-.18L5.1,6.49,1,5,12,1Z"/><path class="cls-1" d="M18,7.88v4.65A12.73,12.73,0,0,1,12.34,14a6.6,6.6,0,0,0-5.72-3.3l-.55,0V7.91l5.59,2a1,1,0,0,0,.68,0l5.5-2Z"/><path class="cls-1" d="M21.5,16.5a1,1,0,0,1-.22.62.81.81,0,0,1-.28.24l-.13.07a.86.86,0,0,1-.23.06h-.28a.86.86,0,0,1-.23-.06L20,17.36a.81.81,0,0,1-.28-.24A1,1,0,0,1,20,15.64a1,1,0,0,1,1,0A1,1,0,0,1,21.5,16.5Z"/><path class="cls-1" d="M7.09,13l.09,0v0Z"/><path class="cls-1" d="M9.27,18.48c0,1.09-.72,1.93-2.2,2.05v1.11H6.16V20.52a3.49,3.49,0,0,1-2.19-1l.74-1a2.85,2.85,0,0,0,1.45.8,2.9,2.9,0,0,0,.6.07,1.48,1.48,0,0,0,.31,0c.54-.08.81-.38.81-.69s-.33-.51-.81-.64c-.27-.08-.59-.15-.91-.23-1-.25-2-.63-2-1.9a2,2,0,0,1,2-1.92V13h.91v.91a3.36,3.36,0,0,1,2,.87l-.76,1a2.73,2.73,0,0,0-1.29-.65,2.86,2.86,0,0,0-.58-.06,1.11,1.11,0,0,0-.33,0c-.38.08-.59.31-.59.61s.23.41.59.53.58.16.91.24C8.1,16.76,9.27,17.13,9.27,18.48Z"/></svg>