<?xml version="1.0" encoding="UTF-8"?>
<svg width="50px" height="50px" viewBox="0 0 50 50" version="1.1" xmlns="http://www.w3.org/2000/svg" xmlns:xlink="http://www.w3.org/1999/xlink">
    <!-- Generator: Sketch 55.2 (78181) - https://sketchapp.com -->
    <title>Icons/Products/Critical Illness</title>
    <desc>Created with Sketch.</desc>
    <g id="Icons/Products/Critical-Illness" stroke="none" stroke-width="1" fill="none" fill-rule="evenodd">
        <g id="criticalillness_Icon" transform="translate(1.000000, 0.000000)">
            <g id="Color" transform="translate(4.000000, 23.071429)"></g>
            <g id="Shape" fill="#000000">
                <path d="M43.9301786,4.50910714 C39.0971434,-0.312637396 31.2732137,-0.312637396 26.4401786,4.50910714 L15.2557143,15.6935714 L4.06982143,26.8794643 C-0.728273103,31.7140677 -0.713483574,39.518395 4.10289999,44.3347786 C8.91928354,49.1511621 16.7236109,49.1659517 21.5582143,44.3678571 L32.7433929,33.1826786 L32.7433929,33.1826786 L43.9292857,21.9967857 C48.7508135,17.1647112 48.7512129,9.34167397 43.9301786,4.50910714 Z M42.255,20.3225 L32.9978571,29.5796429 L22.39875,18.9805357 C22.0995082,18.6812939 21.6633537,18.5644266 21.2545817,18.6739567 C20.8458098,18.7834868 20.5265225,19.1027741 20.4169924,19.511546 C20.3074623,19.920318 20.4243296,20.3564725 20.7235714,20.6557143 L31.3217857,31.2539286 L19.8832143,42.6928571 C15.9790542,46.5970172 9.64916007,46.5970172 5.745,42.6928571 C1.84083993,38.7886971 1.84083993,32.4588029 5.745,28.5546429 L16.9308929,17.36875 L28.1153571,6.18428571 C30.6409059,3.6584498 34.3221265,2.6718454 37.7723389,3.59611684 C41.2225514,4.52038828 43.9175861,7.21511674 44.8422497,10.6652241 C45.7669134,14.1153314 44.7807274,17.7966642 42.2551786,20.3225 L42.255,20.3225 Z M7.06214286,36.8485714 C6.93399089,36.985709 6.77775718,37.0935803 6.60410714,37.1648214 C6.42466692,37.2409291 6.23132075,37.2787591 6.03642857,37.2758929 C5.65480127,37.2784085 5.28893057,37.1238853 5.02464286,36.8485714 C4.88350217,36.7242581 4.77539441,36.5668822 4.71,36.3905357 C4.63317334,36.2108145 4.59531745,36.0168487 4.59892857,35.8214286 C4.59714143,35.6316584 4.63497142,35.4436033 4.71,35.2692857 C4.78105073,35.0959343 4.88832726,34.9397684 5.02464286,34.81125 C5.15235493,34.665833 5.31621661,34.5567356 5.49964286,34.495 C5.85411587,34.3530563 6.24963413,34.3530563 6.60410714,34.495 C6.77745246,34.5668021 6.93357433,34.6745962 7.06214286,34.81125 C7.19943065,34.9392723 7.30732621,35.0955411 7.37839286,35.2692857 C7.60428205,35.8110676 7.47921326,36.4357054 7.06214286,36.84875 L7.06214286,36.8485714 Z M16.9739286,25.81375 L10.0191071,32.7678571 C9.4520439,33.3192109 8.54727751,33.3128569 7.98801386,32.7535933 C7.4287502,32.1943296 7.42239626,31.2895632 7.97375,30.7225 L14.9285714,23.7678571 C15.2921825,23.3938859 15.8289786,23.2446509 16.3334328,23.3772909 C16.8378871,23.5099309 17.2318548,23.9038986 17.3644948,24.4083529 C17.4971348,24.9128072 17.3478998,25.4496033 16.9739286,25.8132143 L16.9739286,25.81375 Z"></path>
            </g>
        </g>
    </g>
</svg>