<?xml version="1.0" encoding="UTF-8"?>
<svg width="50px" height="50px" viewBox="0 0 50 50" version="1.1" xmlns="http://www.w3.org/2000/svg" xmlns:xlink="http://www.w3.org/1999/xlink">
    <!-- Generator: Sketch 55.2 (78181) - https://sketchapp.com -->
    <title>Icons/Products/Disabled/Life</title>
    <desc>Created with Sketch.</desc>
    <g id="Icons/Products/Disabled/Life" stroke="none" stroke-width="1" fill="none" fill-rule="evenodd">
        <g id="Shape" transform="translate(0.000000, 1.000000)" fill="#000000">
            <path d="M46.9185,5.99033333 C43.8200239,2.43358296 39.2851406,0.460470733 34.5706667,0.617833333 L34.4683333,0.617833333 C30.8330309,0.630244871 27.4209531,2.3732027 25.2801667,5.31133333 C23.1266163,2.41208155 19.7282369,0.702785903 16.1166667,0.702333333 C11.355847,0.553571894 6.78279493,2.56429366 3.67416667,6.17316667 C1.6985,8.63616667 -0.3345,13.0596667 1.199,20.1456667 C1.74366685,22.4161263 2.71533192,24.5622284 4.06216667,26.4695 L4.31216667,26.4695 C4.94033333,26.4695 5.52666667,25.8185 6.05683333,25.1681667 C4.87145394,23.5026912 4.01272252,21.6274964 3.52616667,19.642 C1.015,8.03866667 8.68116667,3.12483333 16.06,3.08333333 L16.1166667,3.08333333 C23.164,3.08333333 25.3025,10.3295 25.3025,10.3295 C25.3025,10.3295 27.3916667,3.02533333 34.481,2.999 L34.5705,2.999 C41.9216667,2.999 49.5705,7.857 47.172,19.4303333 C46.0643333,24.8088333 41.0976667,29.5396667 37.2445,33.5815 C33.5637286,37.4381611 29.6303107,41.0455249 25.4703333,44.3796667 C25.4703333,44.3796667 22.0398333,41.7651667 17.5966667,37.6065 C17.7302353,37.7378212 17.2743465,37.3047101 16.229,36.3071667 C15.3725,35.4808333 14.4925,34.6108333 13.598,33.692 C12.5888333,32.6575 11.5076667,31.5753333 10.4368333,30.4505 L8.965,28.8585 C8.38166667,28.205 6.59283333,25.8503333 6.05683333,25.1681667 C5.55231725,25.7979363 4.80387198,26.1516643 4.06216667,26.4695 C5.77082572,28.570693 8.92432465,32.3998043 10.8561667,34.2978333 L11.8936667,35.3545 C15.6890131,39.2625893 19.7430615,42.910832 24.0283333,46.2745 L25.4843333,47.3825 L26.9298333,46.261 C31.1849414,42.8570735 35.206087,39.1705733 38.966,35.2265 C39.3163333,34.8590556 39.6732778,34.4872778 40.0368333,34.1111667 C43.9368333,30.0626667 48.3585,25.474 49.5043333,19.9111667 C50.9705,12.8333333 48.9076667,8.43333333 46.9185,5.99033333 Z"></path>
        </g>
    </g>
</svg>