<svg width="50px" height="50px" viewBox="0 0 50 50" version="1.1" xmlns="http://www.w3.org/2000/svg" xmlns:xlink="http://www.w3.org/1999/xlink">
    <!-- Generator: Sketch 55.2 (78181) - https://sketchapp.com -->
    <title>Icons/Products/Disabled/Dental</title>
    <desc>Created with Sketch.</desc>
    <g id="Icons/Products/Disabled/Dental" stroke="none" stroke-width="1" fill="none" fill-rule="evenodd">
        <g id="dental_Icon" transform="translate(2.000000, 0.000000)" fill="#000000">
            <g id="Shape">
                <path d="M43.1822482,13.7491377 C43.1719363,13.5892861 43.1222795,12.0388575 43.1108929,11.93375 C42.975658,8.78016854 38.892252,4.35518094 37.1878498,3.9119422 L37.1875,3.91446429 C36.4937947,3.706647 35.774468,3.59671647 35.0503571,3.58785714 C33.0435722,3.63724581 31.0904075,4.24579311 29.4107143,5.345 C28.4585714,5.93464286 27.5505357,6.59642857 26.63375,7.24446429 C25.2589286,8.6425 22.1092857,11.6442857 19.9046429,12.1633929 L19.3380357,9.755 C21.3182136,8.77820163 23.0962857,7.43651419 24.5789286,5.80035714 C22.8483929,5.59357143 21.2598214,5.47428571 19.7276786,5.15285714 C18.4783929,4.89089286 17.3048214,4.28678571 16.0741071,3.91303571 C14.9285462,3.55747802 13.7367695,3.3729891 12.5373214,3.36553571 C10.0895024,3.31500047 7.72788505,4.26966159 6.00281572,6.00704682 C4.27774639,7.74443205 3.33990968,10.112781 3.40785714,12.5601786 C3.46517579,15.3634861 3.92616328,18.1439052 4.77660714,20.8157143 C6.05446429,25.7919643 7.5375,30.7171429 8.99285714,35.6457143 C9.56736125,37.9619086 10.3336369,40.2262714 11.28375,42.4153571 C11.9660714,43.8116071 12.8973214,44.5046429 13.8616071,44.5046429 C15.005522,44.3766626 16.0045582,43.6726216 16.5098214,42.6383929 C17.44403,41.055869 18.2444312,39.398083 18.9026786,37.6823214 C19.3207257,36.6042166 19.9032907,35.597393 20.6296429,34.6976786 C20.7285714,34.5739286 20.8316071,34.4521429 20.9451786,34.3271429 C20.9907143,34.2808929 21.0366071,34.2310714 21.0832143,34.1864286 C22.9585484,32.4529182 25.0521247,30.9715967 27.3108929,29.78 L28.4860714,31.9566071 C27.2337496,32.6397965 26.0220752,33.3949912 24.8571429,34.2183929 C25.9470565,34.592602 26.7997326,35.4542606 27.1625,36.5480357 C28.0941127,38.7483399 29.1627564,40.8880726 30.3621429,42.9546429 C30.798712,43.8381415 31.6648188,44.4296505 32.6466071,44.5148214 C33.6265994,44.4298781 34.4921258,43.8419964 34.9323214,42.9623214 C35.7948227,41.4832674 36.4524403,39.8939196 36.8871429,38.2378571 C38.7614286,31.90125 40.6414286,25.5619643 42.3035714,19.1691071 C42.7963276,17.4010017 43.089818,15.583338 43.1785714,13.75 L43.1822482,13.7491377 Z M45.6443661,13.1716698 L45.6476786,13.1708929 C45.6473453,13.1960537 45.6469754,13.2212129 45.6465688,13.2463704 C45.6469505,13.2593704 45.6473203,13.2719821 45.6476786,13.2841797 L45.6459244,13.2845161 C45.6071227,15.4849307 45.2880317,17.6715873 44.69625,19.7916071 C43.0594643,26.0885714 41.1875,32.4164286 39.3776786,38.535 L39.2576786,38.9398214 C38.7597463,40.814029 38.0079664,42.6113794 37.0232143,44.2819643 C36.1341729,45.8837395 34.476668,46.9084711 32.6464286,46.9878571 C30.8108675,46.9083892 29.1499444,45.8764816 28.2655357,44.2660714 C27.201236,42.4827009 26.2564808,40.630654 25.4375,38.7221429 L24.9175,37.5851786 C24.4307143,36.5316071 24.3017857,36.5316071 23.6807143,36.5316071 L23.5507143,36.5341071 L22.3091071,36.5785714 L22.3033929,36.5864286 L22.2901786,36.5791071 L22.2478571,36.5807143 C21.8180959,37.2256116 21.4610973,37.9161323 21.1833929,38.6396429 L21.0694643,38.9105357 C20.3906986,40.662141 19.5640223,42.3527712 18.5983929,43.9641071 C17.6723963,45.7432772 15.8665903,46.8923336 13.8626786,46.9775 C11.7202826,46.8596523 9.84421588,45.5011549 9.06375,43.5025 C8.19388234,41.5934289 7.49565158,39.6107261 6.97732143,37.5778571 C6.85928571,37.1657143 6.74178571,36.7544643 6.62107143,36.3457143 L6.11196429,34.6232143 C4.83857143,30.3198214 3.52178571,25.8701786 2.38160714,21.4310714 L2.23875,20.87625 C1.38958831,18.1493356 0.951033421,15.3112168 0.9375,12.4551786 C0.896467917,9.36963952 2.10671374,6.39899973 4.29229237,4.22058725 C6.47787101,2.04217478 9.45246949,0.841691706 12.5378571,0.892857143 C13.9806673,0.900169946 15.4145023,1.12033875 16.7930357,1.54625 C17.3791071,1.72482143 17.9192857,1.93357143 18.4416071,2.13553571 C19.023477,2.38021154 19.6232758,2.57984599 20.2357143,2.73267857 C21.245,2.94410714 22.3389286,3.06267857 23.4967857,3.18767857 C24.0557143,3.24803571 24.6271429,3.30982143 25.2164286,3.38410714 L27.4525,3.66517857 C27.6671429,3.52160714 27.886369,3.38059524 28.1101786,3.24214286 C30.1820316,1.90368914 32.5850416,1.16724996 35.0510714,1.115 C35.8878079,1.11678583 36.7212514,1.21985701 37.5332143,1.42196429 L37.5323824,1.42796209 C41.8696482,2.94593835 45.3643986,7.07316264 45.56875,11.66375 C45.6085284,12.0248533 45.6317862,12.7478335 45.6443661,13.1716698 Z" id="Combined-Shape"></path>
            </g>
        </g>
    </g>
</svg>