<svg width="50px" height="50px" viewBox="0 0 50 50" version="1.1" xmlns="http://www.w3.org/2000/svg" xmlns:xlink="http://www.w3.org/1999/xlink">
    <!-- Generator: Sketch 55.2 (78181) - https://sketchapp.com -->
    <title>Icons/Products/Dental</title>
    <desc>Created with Sketch.</desc>
    <g id="Icons/Products/Dental" stroke="none" stroke-width="1" fill="none" fill-rule="evenodd">
        <g id="dental_Icon" transform="translate(2.000000, 0.000000)" fill-rule="nonzero">
            <g id="Color" transform="translate(0.000000, 5.357143)" fill="#FFC60B">
                <path d="M39.405,6.02714286 L42.3871429,6.72767857 C41.8241395,4.66038859 40.5531295,2.85641505 38.7958929,1.63053571 L39.405,6.02714286 Z" id="Shape"></path>
                <path d="M42.7857143,8.48589286 L39.405,9.28 L37.7785714,21.0121429 L36.1521429,9.28 L29.2294643,7.65357143 L36.1523214,6.02714286 L36.8844643,0.7525 C36.0711508,0.48117768 35.2203736,0.338859277 34.3630357,0.330714286 C32.234339,0.383254461 30.1625601,1.02890735 28.3808929,2.195 C27.11,2.98196429 25.9246429,3.90928571 24.6830357,4.74375 C23.0603571,6.31946429 20.24625,8.81517857 18.2625,9.28321429 L17.7296429,7.02035714 C19.8943701,5.95838542 21.8355596,4.49146103 23.4482143,2.69892857 C21.5316071,2.46357143 19.7933929,2.34392857 18.1075,1.99035714 C16.7826786,1.7125 15.5378571,1.07160714 14.2325,0.675357143 C13.0170929,0.2979906 11.7526183,0.10218778 10.48,0.0942857143 C7.88254769,0.0400073744 5.37634818,1.05264997 3.54569364,2.89612728 C1.71503911,4.7396046 0.719914328,7.25281126 0.792321429,9.84982143 C0.853331869,12.823473 1.34221764,15.7728452 2.24392857,18.6071429 C3.59982143,23.8864286 5.1725,29.1108929 6.71732143,34.3401786 C7.32721632,36.7976513 8.1405586,39.200108 9.14892857,41.5226786 C9.8725,43.0033929 10.8614286,43.7383929 11.88375,43.7383929 C13.0973814,43.6029324 14.1572922,42.8558539 14.6928571,41.7583929 C15.684084,40.0798405 16.5334616,38.3214734 17.2321429,36.5016071 C17.6198822,35.5202572 18.1219794,34.588048 18.7280357,33.7242857 C18.8117857,33.6055357 18.91,33.4857143 19.0085714,33.3657143 C19.0310714,33.3385714 19.0525,33.3082143 19.0753571,33.2816071 C21.1315619,31.2770219 23.4683314,29.5820865 26.0123214,28.25 L27.1171429,30.2957143 C25.7645919,31.0341093 24.457001,31.852032 23.20125,32.7451786 C24.5211689,33.0368026 25.5854468,34.0100822 25.9935714,35.29875 C26.9818879,37.633186 28.1157231,39.9033018 29.3883929,42.0957143 C29.8513574,43.0331464 30.770326,43.6606884 31.8119643,43.7507143 C32.8514771,43.6605265 33.7695352,43.0368799 34.2364286,42.10375 C35.1513188,40.5344979 35.8489956,38.8483354 36.3103571,37.0914286 C38.2989286,30.3691071 40.2935714,23.645 42.0567857,16.8616071 C42.7953424,14.3739108 43.0855759,11.7746884 42.9139286,9.18535714 C42.88625,8.93857143 42.8235714,8.72285714 42.7857143,8.48589286 Z" id="Shape"></path>
            </g>
            <g id="Shape" fill="#000000">
                <path d="M42.3035714,19.1691071 C40.6414286,25.5619643 38.7614286,31.90125 36.8871429,38.2378571 C36.4524403,39.8939196 35.7948227,41.4832674 34.9323214,42.9623214 C34.4921258,43.8419964 33.6265994,44.4298781 32.6466071,44.5148214 C31.6648188,44.4296505 30.798712,43.8381415 30.3621429,42.9546429 C29.1627564,40.8880726 28.0941127,38.7483399 27.1625,36.5480357 C26.7997326,35.4542606 25.9470565,34.592602 24.8571429,34.2183929 C26.0220752,33.3949912 27.2337496,32.6397965 28.4860714,31.9566071 L27.3108929,29.78 C25.0521247,30.9715967 22.9585484,32.4529182 21.0832143,34.1864286 C21.0366071,34.2310714 20.9907143,34.2808929 20.9451786,34.3271429 C20.8316071,34.4521429 20.7285714,34.5739286 20.6296429,34.6976786 C19.9032907,35.597393 19.3207257,36.6042166 18.9026786,37.6823214 C18.2444312,39.398083 17.44403,41.055869 16.5098214,42.6383929 C16.0045582,43.6726216 15.005522,44.3766626 13.8616071,44.5046429 C12.8973214,44.5046429 11.9660714,43.8116071 11.28375,42.4153571 C10.3336369,40.2262714 9.56736125,37.9619086 8.99285714,35.6457143 C7.5375,30.7171429 6.05446429,25.7919643 4.77660714,20.8157143 C3.92616328,18.1439052 3.46517579,15.3634861 3.40785714,12.5601786 C3.33990968,10.112781 4.27774639,7.74443205 6.00281572,6.00704682 C7.72788505,4.26966159 10.0895024,3.31500047 12.5373214,3.36553571 C13.7367695,3.3729891 14.9285462,3.55747802 16.0741071,3.91303571 C17.3048214,4.28678571 18.4783929,4.89089286 19.7276786,5.15285714 C21.2598214,5.47428571 22.8483929,5.59357143 24.5789286,5.80035714 C23.0962857,7.43651419 21.3182136,8.77820163 19.3380357,9.755 L19.9046429,12.1633929 C22.1092857,11.6442857 25.2589286,8.6425 26.63375,7.24446429 C27.5505357,6.59642857 28.4585714,5.93464286 29.4107143,5.345 C31.0904075,4.24579311 33.0435722,3.63724581 35.0503571,3.58785714 C35.774468,3.59671647 36.4937947,3.706647 37.1875,3.91446429 L37.5332143,1.42196429 C36.7212514,1.21985701 35.8878079,1.11678583 35.0510714,1.115 C32.5850416,1.16724996 30.1820316,1.90368914 28.1101786,3.24214286 C27.886369,3.38059524 27.6671429,3.52160714 27.4525,3.66517857 L25.2164286,3.38410714 C24.6271429,3.30982143 24.0557143,3.24803571 23.4967857,3.18767857 C22.3389286,3.06267857 21.245,2.94410714 20.2357143,2.73267857 C19.6232758,2.57984599 19.023477,2.38021154 18.4416071,2.13553571 C17.9192857,1.93357143 17.3791071,1.72482143 16.7930357,1.54625 C15.4145023,1.12033875 13.9806673,0.900169946 12.5378571,0.892857143 L12.5378571,0.892857143 C9.45246949,0.841691706 6.47787101,2.04217478 4.29229237,4.22058725 C2.10671374,6.39899973 0.896467917,9.36963952 0.9375,12.4551786 C0.951033421,15.3112168 1.38958831,18.1493356 2.23875,20.87625 L2.38160714,21.4310714 C3.52178571,25.8701786 4.83857143,30.3198214 6.11196429,34.6232143 L6.62107143,36.3457143 C6.74178571,36.7544643 6.85928571,37.1657143 6.97732143,37.5778571 C7.49565158,39.6107261 8.19388234,41.5934289 9.06375,43.5025 C9.84421588,45.5011549 11.7202826,46.8596523 13.8626786,46.9775 C15.8665903,46.8923336 17.6723963,45.7432772 18.5983929,43.9641071 C19.5640223,42.3527712 20.3906986,40.662141 21.0694643,38.9105357 L21.1833929,38.6396429 C21.4610973,37.9161323 21.8180959,37.2256116 22.2478571,36.5807143 L22.2901786,36.5791071 L22.3033929,36.5864286 L22.3091071,36.5785714 L23.5507143,36.5341071 L23.6807143,36.5316071 C24.3017857,36.5316071 24.4307143,36.5316071 24.9175,37.5851786 L25.4375,38.7221429 C26.2564808,40.630654 27.201236,42.4827009 28.2655357,44.2660714 C29.1499444,45.8764816 30.8108675,46.9083892 32.6464286,46.9878571 C34.476668,46.9084711 36.1341729,45.8837395 37.0232143,44.2819643 C38.0079664,42.6113794 38.7597463,40.814029 39.2576786,38.9398214 L39.3776786,38.535 C41.1875,32.4164286 43.0594643,26.0885714 44.69625,19.7916071 C45.2982166,17.6351006 45.6180255,15.4096436 45.6476786,13.1708929 L43.1785714,13.75 C43.089818,15.583338 42.7963276,17.4010017 42.3035714,19.1691071 Z"></path>
                <path d="M43.1108929,11.93375 C43.1225,12.0408929 43.1144643,12.1508929 43.1233929,12.2578571 L45.6480357,12.8508929 C45.6364286,12.4557143 45.6123214,12.0592857 45.56875,11.66375 C45.3642526,7.06988351 42.3829958,3.06354345 38.0414286,1.54821429 L38.4353571,4.39142857 C41.2033575,5.91726682 42.9754773,8.7759547 43.1108929,11.93375 L43.1108929,11.93375 Z"></path>
            </g>
        </g>
    </g>
</svg>