<svg xmlns="http://www.w3.org/2000/svg" xmlns:xlink="http://www.w3.org/1999/xlink" preserveAspectRatio="xMidYMid" width="31.88" height="31.91" viewBox="0 0 31.88 31.91">
  <defs>
    <style>
      .cls-1 {
        fill: #000;
        fill-rule: evenodd;
      }
    </style>
  </defs>
  <path d="M31.869,10.013 C31.867,10.049 31.853,10.080 31.848,10.116 C31.828,10.249 31.785,10.370 31.717,10.480 C31.704,10.502 31.707,10.529 31.692,10.550 L16.746,31.490 C16.744,31.493 16.741,31.494 16.739,31.496 C16.657,31.609 16.548,31.695 16.428,31.765 C16.399,31.782 16.371,31.796 16.341,31.809 C16.214,31.867 16.080,31.908 15.934,31.908 C15.789,31.908 15.655,31.867 15.528,31.809 C15.497,31.796 15.470,31.782 15.441,31.765 C15.321,31.695 15.212,31.609 15.130,31.496 C15.128,31.494 15.125,31.493 15.123,31.490 L0.176,10.550 C0.162,10.529 0.165,10.503 0.153,10.482 C0.080,10.364 0.034,10.234 0.016,10.091 C0.012,10.061 -0.001,10.035 -0.002,10.004 C-0.002,9.992 -0.008,9.983 -0.008,9.971 C-0.008,9.800 0.040,9.653 0.109,9.520 C0.115,9.510 0.111,9.497 0.117,9.486 L5.099,0.541 C5.110,0.521 5.133,0.512 5.146,0.493 C5.216,0.385 5.305,0.294 5.414,0.219 C5.456,0.190 5.496,0.168 5.542,0.146 C5.581,0.126 5.612,0.095 5.655,0.081 C5.732,0.055 5.809,0.059 5.886,0.052 C5.915,0.049 5.940,0.029 5.970,0.029 L26.223,0.009 C26.224,0.009 26.224,0.009 26.225,0.009 C26.596,0.009 26.938,0.216 27.109,0.546 L31.765,9.512 C31.768,9.518 31.766,9.525 31.769,9.531 C31.833,9.662 31.877,9.805 31.877,9.971 C31.877,9.986 31.869,9.998 31.869,10.013 ZM28.945,10.967 L23.634,10.967 L18.978,24.933 L28.945,10.967 ZM15.934,2.648 L10.970,9.030 L20.899,9.030 L15.934,2.648 ZM15.934,27.761 L21.534,10.967 L10.335,10.967 L15.934,27.761 ZM12.891,24.933 L8.235,10.967 L2.924,10.967 L12.891,24.933 ZM5.741,3.486 L2.653,9.030 L7.589,9.030 L5.741,3.486 ZM7.352,2.021 L9.316,7.911 L13.903,2.014 L7.352,2.021 ZM17.963,2.010 L22.553,7.911 L24.523,2.004 L17.963,2.010 ZM26.231,3.178 L24.280,9.030 L29.269,9.030 L26.231,3.178 Z" class="cls-1"/>
</svg>
