<?xml version="1.0" encoding="UTF-8"?>
<svg width="30px" height="30px" viewBox="0 0 30 30" version="1.1" xmlns="http://www.w3.org/2000/svg" xmlns:xlink="http://www.w3.org/1999/xlink">
    <!-- Generator: Sketch 61 (89581) - https://sketch.com -->
    <title>Icons/30/folder</title>
    <desc>Created with Sketch.</desc>
    <g id="Icons/30/folder" stroke="none" stroke-width="1" fill="none" fill-rule="evenodd">
        <path d="M29.38,12 C29.0629059,11.6357673 28.6029169,11.4276771 28.12,11.43 L27.55,11.43 L27.55,6.18999997 C27.55,5.63771522 27.1022848,5.18999997 26.55,5.18999997 L13.68,5.18999997 C12.82,5.18999997 12.74,4.97999997 12.48,4.24999996 C12.2541455,3.12356219 11.2587856,2.31719464 10.11,2.32984959 L0.99999995,2.32984959 C0.447715202,2.32984959 -5.00000006e-08,2.77771521 -5.00000006e-08,3.32999996 L-5.00000006e-08,26.67 C-5.00000006e-08,27.2222848 0.447715202,27.67 0.99999995,27.67 L25.8,27.67 C26.7180255,27.6557989 27.4975234,26.9936447 27.66,26.09 L29.74,13.34 C29.825591,12.862008 29.6936096,12.3707441 29.38,12 Z M10.11,4.32999996 C10.38,4.32999996 10.38,4.32999996 10.6,4.92999997 C10.9306784,6.33859493 12.2370871,7.29719356 13.68,7.18999997 L25.55,7.18999997 L25.55,11.44 L5.71999997,11.44 C4.82642516,11.448275 4.04676913,12.0483244 3.80999996,12.91 L1.99999996,19.69 L1.99999996,4.32999996 L10.11,4.32999996 Z M25.7,25.67 L2.46999996,25.67 L5.71999997,13.44 L27.72,13.44 L25.7,25.67 Z" id="folder-30" fill="#000000"></path>
    </g>
</svg>