<svg width="50px" height="50px" viewBox="0 0 50 50" version="1.1" xmlns="http://www.w3.org/2000/svg" xmlns:xlink="http://www.w3.org/1999/xlink">
    <!-- Generator: Sketch 55.2 (78181) - https://sketchapp.com -->
    <title>Icons/Products/Fraud Protection</title>
    <desc>Created with Sketch.</desc>
    <g id="Icons/Products/Fraud-Protection" stroke="none" stroke-width="1" fill="none" fill-rule="evenodd">
        <g id="fraudprotection_Icon" transform="translate(3.000000, 0.000000)">
            <g id="Color" transform="translate(16.000000, 10.333333)"></g>
            <g id="Shape" transform="translate(0.333333, 0.000000)" fill="#000000">
                <path d="M28.3536667,20.5698333 C28.3389709,20.8207086 28.1251972,21.0130826 27.8741667,21.0013333 C28.1251972,20.989584 28.3389709,21.181958 28.3536667,21.4328333 L28.3536667,23.1045 C28.3389709,23.3553753 28.1251972,23.5477493 27.8741667,23.536 C28.1251972,23.5242507 28.3389709,23.7166247 28.3536667,23.9675 L28.3536667,25.6391667 C28.3389709,25.890042 28.1251972,26.082416 27.8741667,26.0706667 L16.4638333,26.0706667 C16.21277,26.0825079 15.9989412,25.8900843 15.9843333,25.6391667 L15.9843333,23.9666667 C15.9989412,23.7157491 16.21277,23.5233255 16.4638333,23.5351667 C16.21277,23.5470079 15.9989412,23.3545843 15.9843333,23.1036667 L15.9843333,21.4333333 C15.9989412,21.1824157 16.21277,20.9899921 16.4638333,21.0018333 C16.2127371,21.0137666 15.9988531,20.8212933 15.9843333,20.5703333 L15.9843333,18.8983333 C15.9988531,18.6473734 16.2127371,18.4549001 16.4638333,18.4668333 L17.5026667,18.4668333 L17.5026667,15.7045 C17.5056056,13.1903375 19.5430041,11.1529389 22.0571667,11.15 L22.2806667,11.15 C24.7949593,11.1528473 26.832486,13.1903741 26.8353333,15.7046667 L26.8353333,18.4666667 L27.8741667,18.4666667 C28.1251972,18.4549174 28.3389709,18.6472914 28.3536667,18.8981667 L28.3536667,20.5698333 Z M22.1686667,19.4611667 C21.1009162,19.4611667 20.2353333,20.3267495 20.2353333,21.3945 L20.2353333,22.3525 C21.1216667,22.874 21.5565,23.5208333 21.202,23.79 L21.202,24.211 C21.202,24.7448753 21.6347914,25.1776667 22.1686667,25.1776667 C22.7025419,25.1776667 23.1353333,24.7448753 23.1353333,24.211 L23.1353333,23.79 C22.7803333,23.5208333 23.2155,22.8733333 24.102,22.3525 L24.102,21.3945 C24.102,20.3267495 23.2364172,19.4611667 22.1686667,19.4611667 Z M22.2806667,13.0666667 L22.0571667,13.0666667 C20.6014771,13.0683199 19.4218199,14.2479771 19.4201667,15.7036667 L19.4201667,18.4666667 L24.9175,18.4666667 L24.9175,15.7045 C24.9163061,14.24855 23.7366161,13.0684126 22.2806667,13.0666667 Z M9.68333333,48.5405 C9.02241832,48.5387599 8.48707344,48.003415 8.48533333,47.3425 L8.48533333,36.1363333 L1.452,36.1363333 C0.79036287,36.1363333 0.254,35.5999705 0.254,34.9383333 L0.254,1.198 C0.254,0.536558083 0.79005814,7.46069873e-14 1.4515,7.46069873e-14 L44.2126667,7.46069873e-14 C44.8743038,7.46069873e-14 45.4106667,0.53636287 45.4106667,1.198 L45.4106667,34.9383333 C45.4106667,35.2560627 45.2844492,35.5607787 45.0597806,35.7854473 C44.835112,36.0101158 44.530396,36.1363333 44.2126667,36.1363333 L23.0901667,36.1363333 L10.5123333,48.2063333 C10.2896388,48.4207779 9.9924924,48.5405 9.68333333,48.5405 Z M2.65,33.7405 L9.68333333,33.7405 C10.3449705,33.7405 10.8813333,34.2768629 10.8813333,34.9385 L10.8813333,44.5333333 L21.78,34.074 C22.0028296,33.8600734 22.2997692,33.7406287 22.6086667,33.7406667 L43.0146667,33.7406667 L43.0146667,2.396 L2.65,2.396 L2.65,33.7405 Z" id="Combined-Shape"></path>
            </g>
        </g>
    </g>
</svg>