<?xml version="1.0" encoding="UTF-8"?>
<svg width="30px" height="30px" viewBox="0 0 30 30" version="1.1" xmlns="http://www.w3.org/2000/svg" xmlns:xlink="http://www.w3.org/1999/xlink">
    <!-- Generator: Sketch 61 (89581) - https://sketch.com -->
    <title>Icons/30/help</title>
    <desc>Created with Sketch.</desc>
    <g id="Icons/30/help" stroke="none" stroke-width="1" fill="none" fill-rule="evenodd">
        <path d="M15,0.999999953 C22.7319865,0.999999953 29,7.26801348 29,15 C29,22.7319865 22.7319865,29 15,29 C7.26801348,29 0.999999953,22.7319865 0.999999953,15 C0.999999953,7.26801348 7.26801348,0.999999953 15,0.999999953 Z M15,2.99999996 C8.37258298,2.99999996 2.99999996,8.37258298 2.99999996,15 C2.99999996,21.627417 8.37258298,27 15,27 C21.627417,27 27,21.627417 27,15 C27,11.8174021 25.735718,8.76515515 23.4852814,6.5147186 C21.2348449,4.26428205 18.1825979,2.99999996 15,2.99999996 Z M14.9433085,20.7500372 C15.6820615,20.7518654 16.28,21.3512447 16.28,22.09 C16.2691446,22.829409 15.6694692,23.4246423 14.93,23.43 C14.1912653,23.4244869 13.596348,22.8221293 13.5999996,22.0833831 C13.6036851,21.3446369 14.2045554,20.7482174 14.9433085,20.7500372 Z M15.27,7.05999997 C18.38,7.05999997 20.27,9.17999998 20.27,11.23 C20.27,13.57 19.07,14.47 17.91,15.34 C16.75,16.21 15.91,16.87 15.91,18.57 L15.83,18.8 L13.83,18.8 L13.83,18.57 C13.8673683,16.5742728 14.9441813,14.7429323 16.67,13.74 C17.67,12.96 18.23,12.57 18.23,11.23 C18.23,10.16 17.12,9.05999998 15.23,9.05999998 C13.8166501,8.93772943 12.5108521,9.82216765 12.1,11.18 L10.2,10.7 C10.8322741,8.45134158 12.9372208,6.9400978 15.27,7.05999997 Z" id="help-30" fill="#000000"></path>
    </g>
</svg>