<svg width="50px" height="50px" viewBox="0 0 50 50" version="1.1" xmlns="http://www.w3.org/2000/svg" xmlns:xlink="http://www.w3.org/1999/xlink">
    <!-- Generator: Sketch 55.2 (78181) - https://sketchapp.com -->
    <title>Icons/Products/Hospital Indemnity</title>
    <desc>Created with Sketch.</desc>
    <g id="Icons/Products/Hospital-Indemnity" stroke="none" stroke-width="1" fill="none" fill-rule="evenodd">
        <g id="hospitalindemnity_Icon-(1)" fill-rule="nonzero">
            <g id="Color" transform="translate(0.000000, 5.357143)" fill="#5D2584">
                <path d="M45.81875,17.5398214 L38.0866071,4.14785714 L31.0875,8.18892857 L31.0875,0.107142857 L15.6232143,0.107142857 L15.6232143,8.18892857 L8.625,4.14785714 L0.892857143,17.5398214 L7.89196429,21.5808929 L0.892857143,25.6219643 L8.625,39.0139286 L15.6241071,34.9728571 L15.6241071,43.0548214 L31.0883929,43.0548214 L31.0883929,34.9728571 L38.0875,39.0139286 L45.8196429,25.6219643 L38.8205357,21.5808929 L45.81875,17.5398214 Z M24.9921429,32.8991071 C24.9851414,33.4010824 24.5762205,33.8043395 24.0741964,33.8043395 C23.5721723,33.8043395 23.1632515,33.4010824 23.15625,32.8991071 L23.15625,30.8008929 L24.9921429,30.8008929 L24.9921429,32.8991071 Z M29.7064286,15.8258929 C29.6659307,15.8373847 29.6246228,15.8458015 29.5828571,15.8510714 L19.4844643,15.8510714 L19.4844643,17.5558929 L23.15625,17.5558929 L23.15625,16.6382143 L24.9921429,16.6382143 L24.9921429,21.0967857 L27.74625,21.0967857 L27.74625,19.3919643 L25.77875,19.3919643 L25.77875,17.5558929 L28.1392857,17.5558929 C28.935659,17.5566802 29.5810784,18.2020196 29.5819643,18.9983929 L29.5819643,21.4901786 C29.58098,22.2864821 28.9355894,22.9317129 28.1392857,22.9325 L21.3203571,22.9325 L21.3203571,24.6373214 L23.15625,24.6373214 L23.15625,23.7192857 L24.9921429,23.7192857 L24.9921429,28.1785714 L25.9107143,28.1785714 L25.9107143,26.47375 L25.7796429,26.47375 L25.7796429,24.6375 L26.3035714,24.6375 C27.099904,24.6383855 27.7452659,25.2836675 27.74625,26.08 L27.74625,28.5714286 C27.7452659,29.367761 27.099904,30.0130431 26.3035714,30.0140182 L21.9760714,30.0140182 C21.6450696,30.0185453 21.3372164,29.8446025 21.1703683,29.5586912 C21.0035203,29.2727799 21.0035203,28.9191844 21.1703683,28.6332731 C21.3372164,28.3473618 21.6450696,28.1734189 21.9760714,28.1780357 L23.15625,28.1780357 L23.15625,26.4732143 L20.9267857,26.4732143 C20.1305807,26.4723286 19.48535,25.8270978 19.4844643,25.0308929 L19.4844643,22.5391071 C19.48535,21.7429022 20.1305807,21.0976714 20.9267857,21.0967857 L23.15625,21.0967857 L23.15625,19.3919643 L19.0908929,19.3919643 C18.2945603,19.3910788 17.6491984,18.7457968 17.6482143,17.9494643 L17.6482143,15.4575 C17.6493949,14.661278 18.2946706,14.016162 19.0908929,14.0151786 L23.15625,14.0151786 L23.15625,10.5616071 C22.2479878,10.132118 21.7589415,9.1302673 21.9790319,8.1499809 C22.1991224,7.16969451 23.0695068,6.47305835 24.0741964,6.47305835 C25.078886,6.47305835 25.9492705,7.16969451 26.1693609,8.1499809 C26.3894513,9.1302673 25.9004051,10.132118 24.9921429,10.5616071 L24.9921429,14.0151786 L26.1071429,14.0151786 C26.1071429,14.0151786 26.9625,12.0482143 28.6642857,12.0482143 C30.2231659,12.3496995 31.6857132,13.0246318 32.9266071,14.0151786 C32.92625,15.0585714 31.2771429,15.70625 29.7057143,15.8260714 L29.7064286,15.8258929 Z" id="Shape"></path>
                <path d="M29.9564286,14.0116071 C30.1937875,13.7376549 30.1937875,13.3309165 29.9564286,13.0569643 C29.8489862,12.9315614 29.6920999,12.8593838 29.5269643,12.8593838 C29.3618287,12.8593838 29.2049424,12.9315614 29.0975,13.0569643 C28.860525,13.3310596 28.860525,13.7375118 29.0975,14.0116071 C29.2049424,14.1370101 29.3618287,14.2091876 29.5269643,14.2091876 C29.6920999,14.2091876 29.8489862,14.1370101 29.9564286,14.0116071 Z" id="Shape"></path>
            </g>
            <g id="Shape" fill="#000000">
                <path d="M33.9560714,46.8308929 L16.1975,46.8308929 L16.1975,39.5892857 L9.92589286,43.21 L1.04660714,27.8305357 L7.31821429,24.2094643 L1.04660714,20.5892857 L9.92589286,5.20910714 L16.1976786,8.83017857 L16.1976786,1.58803571 L33.95625,1.58803571 L33.95625,8.83017857 L40.2278571,5.20910714 L49.1071429,20.5892857 L42.8353571,24.2101786 L49.1071429,27.8305357 L40.2278571,43.21 L33.9560714,39.5892857 L33.9560714,46.8308929 Z M18.4917857,44.5358929 L31.6607143,44.5358929 L31.6607143,35.6141071 L39.3873214,40.075 L45.9717857,28.6707143 L38.245,24.2096429 L45.9717857,19.74875 L39.3878571,8.34410714 L31.6607143,12.805 L31.6607143,3.88303571 L18.4925,3.88303571 L18.4925,12.805 L10.7657143,8.34410714 L4.18142857,19.7483929 L11.9080357,24.2092857 L4.18142857,28.6705357 L10.7657143,40.075 L18.4925,35.6141071 L18.4917857,44.5358929 Z"></path>
            </g>
        </g>
    </g>
</svg>