<svg width="50px" height="50px" viewBox="0 0 50 50" version="1.1" xmlns="http://www.w3.org/2000/svg" xmlns:xlink="http://www.w3.org/1999/xlink">
    <!-- Generator: Sketch 55.2 (78181) - https://sketchapp.com -->
    <title>Icons/Products/Disabled/Hospital Indemnity</title>
    <desc>Created with Sketch.</desc>
    <g id="Icons/Products/Disabled/Hospital-Indemnity" stroke="none" stroke-width="1" fill="none" fill-rule="evenodd">
        <g id="hospitalindemnity_Icon-(1)" transform="translate(1.000000, 1.000000)">
            <g id="Color" transform="translate(16.000000, 10.357143)"></g>
            <g id="Shape" fill="#000000">
                <path d="M32.9560714,45.8308929 L15.1975,45.8308929 L15.1975,38.5892857 L8.92589286,42.21 L0.0466071429,26.8305357 L6.31821429,23.2094643 L0.0466071429,19.5892857 L8.92589286,4.20910714 L15.1976786,7.83017857 L15.1976786,0.588035714 L32.95625,0.588035714 L32.95625,7.83017857 L39.2278571,4.20910714 L48.1071429,19.5892857 L41.8353571,23.2101786 L48.1071429,26.8305357 L39.2278571,42.21 L32.9560714,38.5892857 L32.9560714,45.8308929 Z M17.4917857,43.5358929 L30.6607143,43.5358929 L30.6607143,34.6141071 L38.3873214,39.075 L44.9717857,27.6707143 L37.245,23.2096429 L44.9717857,18.74875 L38.3878571,7.34410714 L30.6607143,11.805 L30.6607143,2.88303571 L17.4925,2.88303571 L17.4925,11.805 L9.76571429,7.34410714 L3.18142857,18.7483929 L10.9080357,23.2092857 L3.18142857,27.6705357 L9.76571429,39.075 L17.4925,34.6141071 L17.4917857,43.5358929 Z M23.9921429,37.25625 C23.9851414,37.7582253 23.5762205,38.1614823 23.0741964,38.1614823 C22.5721723,38.1614823 22.1632515,37.7582253 22.15625,37.25625 L22.15625,35.1580357 L23.9921429,35.1580357 L23.9921429,37.25625 Z M28.7064286,20.1830357 C28.6659307,20.1945276 28.6246228,20.2029444 28.5828571,20.2082143 L18.4844643,20.2082143 L18.4844643,21.9130357 L22.15625,21.9130357 L22.15625,20.9953571 L23.9921429,20.9953571 L23.9921429,25.4539286 L26.74625,25.4539286 L26.74625,23.7491071 L24.77875,23.7491071 L24.77875,21.9130357 L27.1392857,21.9130357 C27.935659,21.913823 28.5810784,22.5591625 28.5819643,23.3555357 L28.5819643,25.8473214 C28.58098,26.6436249 27.9355894,27.2888557 27.1392857,27.2896429 L20.3203571,27.2896429 L20.3203571,28.9944643 L22.15625,28.9944643 L22.15625,28.0764286 L23.9921429,28.0764286 L23.9921429,32.5357143 L24.9107143,32.5357143 L24.9107143,30.8308929 L24.7796429,30.8308929 L24.7796429,28.9946429 L25.3035714,28.9946429 C26.099904,28.9955284 26.7452659,29.6408104 26.74625,30.4371429 L26.74625,32.9285714 C26.7452659,33.7249039 26.099904,34.3701859 25.3035714,34.3711611 L20.9760714,34.3711611 C20.6450696,34.3756882 20.3372164,34.2017453 20.1703683,33.915834 C20.0035203,33.6299227 20.0035203,33.2763273 20.1703683,32.990416 C20.3372164,32.7045047 20.6450696,32.5305618 20.9760714,32.5351786 L22.15625,32.5351786 L22.15625,30.8303571 L19.9267857,30.8303571 C19.1305807,30.8294714 18.48535,30.1842407 18.4844643,29.3880357 L18.4844643,26.89625 C18.48535,26.100045 19.1305807,25.4548143 19.9267857,25.4539286 L22.15625,25.4539286 L22.15625,23.7491071 L18.0908929,23.7491071 C17.2945603,23.7482216 16.6491984,23.1029396 16.6482143,22.3066071 L16.6482143,19.8146429 C16.6493949,19.0184209 17.2946706,18.3733049 18.0908929,18.3723214 L22.15625,18.3723214 L22.15625,14.91875 C21.2479878,14.4892609 20.7589415,13.4874102 20.9790319,12.5071238 C21.1991224,11.5268374 22.0695068,10.8302012 23.0741964,10.8302012 C24.078886,10.8302012 24.9492705,11.5268374 25.1693609,12.5071238 C25.3894513,13.4874102 24.9004051,14.4892609 23.9921429,14.91875 L23.9921429,18.3723214 L25.1071429,18.3723214 C25.1071429,18.3723214 25.9625,16.4053571 27.6642857,16.4053571 C29.2231659,16.7068424 30.6857132,17.3817747 31.9266071,18.3723214 C31.92625,19.4157143 30.2771429,20.0633929 28.7057143,20.1832143 L28.7064286,20.1830357 Z M28.9564286,18.36875 C29.1937875,18.0947978 29.1937875,17.6880594 28.9564286,17.4141071 C28.8489862,17.2887042 28.6920999,17.2165267 28.5269643,17.2165267 C28.3618287,17.2165267 28.2049424,17.2887042 28.0975,17.4141071 C27.860525,17.6882025 27.860525,18.0946547 28.0975,18.36875 C28.2049424,18.4941529 28.3618287,18.5663305 28.5269643,18.5663305 C28.6920999,18.5663305 28.8489862,18.4941529 28.9564286,18.36875 Z"></path>
            </g>
        </g>
    </g>
</svg>