<svg xmlns="http://www.w3.org/2000/svg" preserveAspectRatio="xMidYMid"
     width="32" height="32" viewBox="0 0 32 32">
  <defs>
    <style>
      .cls-1 {
      fill: #000;
      fill-rule: evenodd;
      }
    </style>
  </defs>
  <path
    d="M27.321,27.314 C24.296,30.336 20.274,32.000 15.996,32.000 C11.718,32.000 7.696,30.336 4.671,27.314 C-1.573,21.075 -1.573,10.925 4.671,4.686 C7.696,1.664 11.718,-0.000 15.996,-0.000 C20.274,-0.000 24.296,1.664 27.321,4.686 C30.347,7.708 32.013,11.726 32.013,16.000 C32.013,20.274 30.347,24.292 27.321,27.314 ZM25.905,6.100 C23.259,3.456 19.740,2.000 15.996,2.000 C12.253,2.000 8.734,3.456 6.087,6.100 C0.623,11.559 0.623,20.441 6.087,25.900 C8.734,28.544 12.253,30.000 15.996,30.000 C19.740,30.000 23.259,28.544 25.905,25.900 C28.553,23.255 30.011,19.739 30.011,16.000 C30.011,12.260 28.553,8.745 25.905,6.100 ZM18.083,25.000 L16.057,25.000 L14.032,25.000 C13.473,25.000 13.019,24.553 13.019,24.000 C13.019,23.448 13.473,23.000 14.032,23.000 L15.045,23.000 L15.045,15.001 L14.032,15.001 C13.473,15.001 13.019,14.553 13.019,14.001 C13.019,13.448 13.473,13.001 14.032,13.001 L16.057,13.001 C16.616,13.001 17.070,13.448 17.070,14.001 L17.070,23.000 L18.083,23.000 C18.642,23.000 19.095,23.448 19.095,24.000 C19.095,24.553 18.642,25.000 18.083,25.000 ZM16.057,11.001 C14.940,11.001 14.032,10.103 14.032,9.001 C14.032,7.898 14.940,7.001 16.057,7.001 C17.174,7.001 18.083,7.898 18.083,9.001 C18.083,10.103 17.174,11.001 16.057,11.001 Z"
    class="cls-1"/>
</svg>
