<svg width="50px" height="50px" viewBox="0 0 50 50" version="1.1" xmlns="http://www.w3.org/2000/svg" xmlns:xlink="http://www.w3.org/1999/xlink">
    <!-- Generator: Sketch 55.2 (78181) - https://sketchapp.com -->
    <title>Icons/Products/Disability</title>
    <desc>Created with Sketch.</desc>
    <g id="Icons/Products/Disability" stroke="none" stroke-width="1" fill="none" fill-rule="evenodd">
        <g id="disability_Icon" transform="translate(2.000000, 0.000000)" fill-rule="nonzero">
            <g id="Color" transform="translate(0.000000, 5.357143)" fill="#FF9900">
                <path d="M35.3928571,22.37375 L43.975,13.7916071 C45.6002288,12.1569455 45.6002288,9.51662592 43.975,7.88196429 L37.7071429,1.61410714 C36.0724812,-0.011121632 33.4321616,-0.011121632 31.7975,1.61410714 L23.2142857,10.1964286 L14.6321429,1.61428571 C12.9974812,-0.0109430606 10.3571616,-0.0109430606 8.7225,1.61428571 L2.45464286,7.88214286 C0.829414082,9.51680449 0.829414082,12.1571241 2.45464286,13.7917857 L11.0371429,22.3739286 L2.45464286,30.9560714 C0.829393373,32.5907942 0.829393373,35.2311701 2.45464286,36.8658929 L8.7225,43.13375 C10.3571616,44.7589788 12.9974812,44.7589788 14.6321429,43.13375 L23.2142857,34.5517857 L31.7964286,43.1339286 C33.4310902,44.7591573 36.0714098,44.7591573 37.7060714,43.1339286 L43.9739286,36.8660714 C45.5991781,35.2313487 45.5991781,32.5909727 43.9739286,30.95625 L35.3928571,22.37375 Z M18.0803571,18.7985714 C17.9407189,18.9615936 17.7367939,19.0554273 17.5221429,19.0554273 C17.3074918,19.0554273 17.1035669,18.9615936 16.9639286,18.7985714 C16.6558612,18.442505 16.6558612,17.9142807 16.9639286,17.5582143 C17.1035669,17.3951921 17.3074918,17.3013584 17.5221429,17.3013584 C17.7367939,17.3013584 17.9407189,17.3951921 18.0803571,17.5582143 C18.3882196,17.914458 18.3879154,18.4426825 18.0796429,18.7985714 L18.0803571,18.7985714 Z M20.9266071,21.96125 C20.7870359,22.1242578 20.583168,22.2180893 20.3685714,22.2180893 C20.1539749,22.2180893 19.9501069,22.1242578 19.8105357,21.96125 C19.5018529,21.6054131 19.5018529,21.0767297 19.8105357,20.7208929 C19.9501069,20.557885 20.1539749,20.4640536 20.3685714,20.4640536 C20.583168,20.4640536 20.7870359,20.557885 20.9266071,20.7208929 C21.2350851,21.0769075 21.2347806,21.6055909 20.9258929,21.96125 L20.9266071,21.96125 Z M20.9266071,15.6355357 C20.7871017,15.7986543 20.5832094,15.8925671 20.3685714,15.8925671 C20.1539335,15.8925671 19.9500412,15.7986543 19.8105357,15.6355357 C19.5018529,15.2796988 19.5018529,14.7510155 19.8105357,14.3951786 C19.9501397,14.2322261 20.1539956,14.1384352 20.3685714,14.1384352 C20.5831473,14.1384352 20.7870031,14.2322261 20.9266071,14.3951786 C21.2351884,14.7512225 21.2348839,15.280026 20.9258929,15.6357143 L20.9266071,15.6355357 Z M23.7725,25.125 C23.6327962,25.2879116 23.4288955,25.3816642 23.2142857,25.3816642 C22.999676,25.3816642 22.7957752,25.2879116 22.6560714,25.125 C22.348004,24.7689336 22.348004,24.2407092 22.6560714,23.8846429 C22.7956769,23.7215654 22.999614,23.627691 23.2142857,23.627691 C23.4289575,23.627691 23.6328945,23.7215654 23.7725,23.8846429 C24.0805674,24.2407092 24.0805674,24.7689336 23.7725,25.125 Z M23.7725,18.7992857 C23.6328617,18.9623079 23.4289368,19.0561416 23.2142857,19.0561416 C22.9996347,19.0561416 22.7957097,18.9623079 22.6560714,18.7992857 C22.348004,18.4432193 22.348004,17.914995 22.6560714,17.5589286 C22.7957097,17.3959064 22.9996347,17.3020727 23.2142857,17.3020727 C23.4289368,17.3020727 23.6328617,17.3959064 23.7725,17.5589286 C24.0801556,17.9148772 24.0801556,18.4426228 23.7725,18.7985714 L23.7725,18.7992857 Z M23.7725,12.4735714 C23.6328945,12.6366489 23.4289575,12.7305233 23.2142857,12.7305233 C22.999614,12.7305233 22.7956769,12.6366489 22.6560714,12.4735714 C22.348004,12.117505 22.348004,11.5892807 22.6560714,11.2332143 C22.7957097,11.0701921 22.9996347,10.9763584 23.2142857,10.9763584 C23.4289368,10.9763584 23.6328617,11.0701921 23.7725,11.2332143 C24.0801556,11.5891629 24.0801556,12.1169085 23.7725,12.4728571 L23.7725,12.4735714 Z M26.6191071,21.9619643 C26.4794689,22.1249864 26.2755439,22.2188202 26.0608929,22.2188202 C25.8462418,22.2188202 25.6423169,22.1249864 25.5026786,21.9619643 C25.1939958,21.6061274 25.1939958,21.077444 25.5026786,20.7216071 C25.6423169,20.558585 25.8462418,20.4647513 26.0608929,20.4647513 C26.2755439,20.4647513 26.4794689,20.558585 26.6191071,20.7216071 C26.9267627,21.0775558 26.9267627,21.6053014 26.6191071,21.96125 L26.6191071,21.9619643 Z M26.6191071,15.63625 C26.4795017,15.7993275 26.2755646,15.8932018 26.0608929,15.8932018 C25.8462211,15.8932018 25.6422841,15.7993275 25.5026786,15.63625 C25.1939958,15.2804131 25.1939958,14.7517297 25.5026786,14.3958929 C25.6423824,14.2329812 25.8462831,14.1392287 26.0608929,14.1392287 C26.2755026,14.1392287 26.4794034,14.2329812 26.6191071,14.3958929 C26.9268657,14.7518709 26.9268657,15.2797362 26.6191071,15.6357143 L26.6191071,15.63625 Z M29.4653571,18.7991071 C29.3257859,18.962115 29.121918,19.0559464 28.9073214,19.0559464 C28.6927249,19.0559464 28.4888569,18.962115 28.3492857,18.7991071 C28.0406029,18.4432703 28.0406029,17.9145869 28.3492857,17.55875 C28.4888569,17.3957422 28.6927249,17.3019107 28.9073214,17.3019107 C29.121918,17.3019107 29.3257859,17.3957422 29.4653571,17.55875 C29.7737302,17.914499 29.7737302,18.4428224 29.4653571,18.7985714 L29.4653571,18.7991071 Z" id="Shape"></path>
            </g>
            <g id="Shape" fill="#000000">
                <rect id="Rectangle-path" transform="translate(16.273089, 17.722228) rotate(-45.000100) translate(-16.273089, -17.722228) " x="10.0600538" y="16.5292818" width="12.4260714" height="2.38589286"></rect>
                <polygon id="Rectangle-path" transform="translate(30.155307, 28.195929) rotate(-45.000000) translate(-30.155307, -28.195929) " points="23.9422712 27.0029827 36.3683426 27.0029827 36.3683426 29.3888755 23.9422712 29.3888755"></polygon>
                <path d="M14.6503571,42.0139286 C13.0048401,43.6476243 10.3494456,43.6476243 8.70392857,42.0139286 L4.15946429,37.4691071 C2.52586592,35.82355 2.52586592,33.1682357 4.15946429,31.5226786 L11.0357143,24.6464286 L9.34857143,22.9592857 L2.47178571,29.83625 C-0.0977788046,32.4116563 -0.0977788046,36.5810223 2.47178571,39.1564286 L7.01785714,43.70125 C9.59328347,46.2705975 13.7624308,46.2705975 16.3378571,43.70125 L23.2142857,36.8242857 L21.5271429,35.1371429 L14.6503571,42.0139286 Z"></path>
                <path d="M31.7782143,3.90446429 C33.4213891,2.26509479 36.081468,2.26509479 37.7246429,3.90446429 L42.2694643,8.44964286 C43.9032575,10.0951197 43.9032575,12.7505945 42.2694643,14.3960714 L35.3928571,21.2721429 L37.08,22.9592857 L43.9567857,16.0823214 C46.5217994,13.5051742 46.5217994,9.33964727 43.9567857,6.7625 L39.4107143,2.21714286 C36.8352473,-0.352106436 32.6661812,-0.352106436 30.0907143,2.21714286 L23.2142857,9.09410714 L24.9014286,10.78125 L31.7782143,3.90446429 Z"></path>
                <path d="M4.15946429,14.3951786 C2.52586592,12.7496214 2.52586592,10.0943072 4.15946429,8.44875 L8.70428571,3.90446429 C10.3474199,2.26499655 13.0075801,2.26499655 14.6507143,3.90446429 L21.5275,10.78125 L23.2142857,9.09410714 L16.3373214,2.21714286 C13.7618951,-0.352204657 9.59274775,-0.352204657 7.01732143,2.21714286 L2.47232143,6.76232143 C-0.0925172904,9.3396106 -0.0925172904,13.5050323 2.47232143,16.0823214 L9.34910714,22.9592857 L11.03625,21.2721429 L4.15946429,14.3951786 Z"></path>
                <polygon id="Rectangle-path" transform="translate(28.451258, 16.018093) rotate(-44.999900) translate(-28.451258, -16.018093) " points="27.2583112 9.80505723 29.6442041 9.80505723 29.6442041 22.2311287 27.2583112 22.2311287"></polygon>
                <path d="M43.95625,29.8360714 L37.0794643,22.9591071 L35.3923214,24.64625 L42.2692857,31.5232143 C43.9029815,33.1687313 43.9029815,35.8241258 42.2692857,37.4696429 L37.7244643,42.0144643 C36.0789473,43.6481601 33.4235527,43.6481601 31.7780357,42.0144643 L24.90125,35.1376786 L23.2142857,36.8242857 L30.09125,43.70125 C32.6666763,46.2705975 36.8358237,46.2705975 39.41125,43.70125 L43.9560714,39.1564286 C46.5258041,36.5810509 46.525884,32.4115475 43.95625,29.8360714 L43.95625,29.8360714 Z"></path>
                <rect id="Rectangle-path" transform="translate(17.977270, 29.900188) rotate(-44.999900) translate(-17.977270, -29.900188) " x="16.784324" y="23.6871522" width="2.38589286" height="12.4260714"></rect>
                <polygon id="Rectangle-path" transform="translate(23.214172, 35.137150) rotate(-45.000000) translate(-23.214172, -35.137150) " points="22.0212259 33.9442032 24.4071188 33.9442032 24.4071188 36.330096 22.0212259 36.330096"></polygon>
                <polygon id="Rectangle-path" transform="translate(35.392156, 22.959218) rotate(-45.000000) translate(-35.392156, -22.959218) " points="34.1992093 21.7662719 36.5851022 21.7662719 36.5851022 24.1521647 34.1992093 24.1521647"></polygon>
                <polygon id="Rectangle-path" transform="translate(11.036367, 22.959292) rotate(-45.000000) translate(-11.036367, -22.959292) " points="9.84342088 21.766346 12.2293137 21.766346 12.2293137 24.1522389 9.84342088 24.1522389"></polygon>
                <rect id="Rectangle-path" transform="translate(23.214224, 10.781309) rotate(-45.000000) translate(-23.214224, -10.781309) " x="22.021278" y="9.58836244" width="2.38589286" height="2.38589286"></rect>
            </g>
        </g>
    </g>
</svg>