<svg xmlns="http://www.w3.org/2000/svg" xmlns:xlink="http://www.w3.org/1999/xlink" preserveAspectRatio="xMidYMid" width="31.906" height="32" viewBox="0 0 31.906 32">
  <defs>
    <style>
      .cls-1 {
        fill: #000;
        fill-rule: evenodd;
      }
    </style>
  </defs>
  <path d="M31.609,31.707 C31.415,31.903 31.159,32.000 30.904,32.000 C30.649,32.000 30.394,31.903 30.199,31.707 L19.677,21.154 C17.592,22.926 14.899,24.000 11.959,24.000 C5.361,24.000 -0.007,18.616 -0.007,12.000 C-0.007,5.383 5.361,0.000 11.959,0.000 C18.557,0.000 23.924,5.383 23.924,12.000 C23.924,14.949 22.853,17.649 21.087,19.740 L31.609,30.293 C31.999,30.683 31.999,31.317 31.609,31.707 ZM11.959,2.000 C6.460,2.000 1.988,6.486 1.988,12.000 C1.988,17.514 6.460,22.000 11.959,22.000 C17.457,22.000 21.930,17.514 21.930,12.000 C21.930,6.486 17.457,2.000 11.959,2.000 Z" class="cls-1"/>
</svg>
