<svg width="50px" height="50px" viewBox="0 0 50 50" version="1.1" xmlns="http://www.w3.org/2000/svg" xmlns:xlink="http://www.w3.org/1999/xlink">
    <!-- Generator: Sketch 55.2 (78181) - https://sketchapp.com -->
    <title>Icons/Products/Medical</title>
    <desc>Created with Sketch.</desc>
    <g id="Icons/Products/Medical" stroke="none" stroke-width="1" fill="none" fill-rule="evenodd">
        <g id="medical_Icon" fill-rule="nonzero">
            <g id="Color" transform="translate(0.000000, 3.333333)" fill="#FF3333">
                <path d="M31.4558333,15.6791667 L31.4558333,1.60416667 L14.543,1.60416667 L14.543,15.6791667 L0.468166667,15.6791667 L0.468166667,32.5918333 L14.543,32.5918333 L14.543,46.6666667 L31.4558333,46.6666667 L31.4558333,32.5916667 L45.5305,32.5916667 L45.5305,15.6791667 L31.4558333,15.6791667 Z M32.8861667,21.6403333 C32.287748,23.2735549 31.2720557,24.7215888 29.9401667,25.8403333 C28.8480605,26.9848417 27.6809207,28.055323 26.4465,29.0446667 C25.2031124,28.0667626 24.0261788,27.0071995 22.9235,25.873 C21.5798416,24.7685349 20.5493388,23.3309916 19.9348333,21.7038333 C19.5125591,20.5338318 19.7107224,19.2296375 20.461463,18.2378674 C21.2122035,17.2460973 22.4136358,16.7013479 23.6543333,16.7901667 C24.9319836,16.8526084 26.0312131,17.7143563 26.3968333,18.9401667 C26.7519412,17.7110286 27.8434307,16.839333 29.1206667,16.7648333 C30.3601572,16.663268 31.5668326,17.1959262 32.3270071,18.180196 C33.0871815,19.1644658 33.2975531,20.4665925 32.886,21.6401667 L32.8861667,21.6403333 Z" id="Shape"></path>
            </g>
            <g id="Shape" transform="translate(1.666667, 0.000000)" fill="#000000">
                <path d="M33.7901667,47.4461667 L14.4938333,47.4461667 L14.4938333,33.3711667 L0.418833333,33.3711667 L0.418833333,14.075 L14.4938333,14.075 L14.4938333,0 L33.7901667,0 L33.7901667,14.075 L47.8651667,14.075 L47.8651667,33.3713333 L33.7901667,33.3713333 L33.7901667,47.4461667 Z M16.8775,45.0628333 L31.4065,45.0628333 L31.4065,30.9878333 L45.4815,30.9878333 L45.4815,16.4586667 L31.4065,16.4586667 L31.4065,2.38333333 L16.8775,2.38333333 L16.8775,16.4583333 L2.8025,16.4583333 L2.8025,30.9873333 L16.8775,30.9873333 L16.8775,45.0628333 Z"></path>
            </g>
        </g>
    </g>
</svg>