<svg width="50px" height="50px" viewBox="0 0 50 50" version="1.1" xmlns="http://www.w3.org/2000/svg" xmlns:xlink="http://www.w3.org/1999/xlink">
    <!-- Generator: Sketch 55.2 (78181) - https://sketchapp.com -->
    <title>Icons/Products/Disabled/Medical</title>
    <desc>Created with Sketch.</desc>
    <g id="Icons/Products/Disabled/Medical" stroke="none" stroke-width="1" fill="none" fill-rule="evenodd">
        <g id="medical_Icon" transform="translate(1.000000, 0.000000)">
            <g id="Color" transform="translate(18.000000, 19.333333)"></g>
            <g id="Shape" transform="translate(0.666667, 0.000000)" fill="#000000">
                <path d="M33.7901667,47.4461667 L14.4938333,47.4461667 L14.4938333,33.3711667 L0.418833333,33.3711667 L0.418833333,14.075 L14.4938333,14.075 L14.4938333,0 L33.7901667,0 L33.7901667,14.075 L47.8651667,14.075 L47.8651667,33.3713333 L33.7901667,33.3713333 L33.7901667,47.4461667 Z M16.8775,45.0628333 L31.4065,45.0628333 L31.4065,30.9878333 L45.4815,30.9878333 L45.4815,16.4586667 L31.4065,16.4586667 L31.4065,2.38333333 L16.8775,2.38333333 L16.8775,16.4583333 L2.8025,16.4583333 L2.8025,30.9873333 L16.8775,30.9873333 L16.8775,45.0628333 Z M31.2195,24.9736667 C30.6210813,26.6068883 29.605389,28.0549221 28.2735,29.1736667 C27.1813938,30.318175 26.014254,31.3886564 24.7798333,32.378 C23.5364457,31.400096 22.3595121,30.3405328 21.2568333,29.2063333 C19.9131749,28.1018682 18.8826722,26.664325 18.2681667,25.0371667 C17.8458924,23.8671651 18.0440558,22.5629708 18.7947963,21.5712007 C19.5455368,20.5794307 20.7469691,20.0346812 21.9876667,20.1235 C23.2653169,20.1859418 24.3645465,21.0476896 24.7301667,22.2735 C25.0852745,21.0443619 26.176764,20.1726663 27.454,20.0981667 C28.6934905,19.9966014 29.9001659,20.5292595 30.6603404,21.5135293 C31.4205149,22.4977991 31.6308865,23.7999259 31.2193333,24.9735 L31.2195,24.9736667 Z"></path>
            </g>
        </g>
    </g>
</svg>