<svg xmlns="http://www.w3.org/2000/svg" preserveAspectRatio="xMidYMid"
     width="32" height="8" viewBox="0 0 32 8">
  <defs>
    <style>
      .cls-1 {
      fill: #000;
      fill-rule: evenodd;
      }
    </style>
  </defs>
  <path
    d="M28.000,8.000 C25.794,8.000 24.000,6.206 24.000,4.000 C24.000,1.795 25.794,-0.000 28.000,-0.000 C30.206,-0.000 32.000,1.795 32.000,4.000 C32.000,6.206 30.206,8.000 28.000,8.000 ZM28.000,2.000 C26.897,2.000 26.000,2.897 26.000,4.000 C26.000,5.103 26.897,6.000 28.000,6.000 C29.103,6.000 30.000,5.103 30.000,4.000 C30.000,2.897 29.103,2.000 28.000,2.000 ZM16.000,8.000 C13.794,8.000 12.000,6.206 12.000,4.000 C12.000,1.795 13.794,-0.000 16.000,-0.000 C18.206,-0.000 20.000,1.795 20.000,4.000 C20.000,6.206 18.206,8.000 16.000,8.000 ZM16.000,2.000 C14.897,2.000 14.000,2.897 14.000,4.000 C14.000,5.103 14.897,6.000 16.000,6.000 C17.103,6.000 18.000,5.103 18.000,4.000 C18.000,2.897 17.103,2.000 16.000,2.000 ZM4.000,8.000 C1.794,8.000 -0.000,6.206 -0.000,4.000 C-0.000,1.795 1.794,-0.000 4.000,-0.000 C6.206,-0.000 8.000,1.795 8.000,4.000 C8.000,6.206 6.206,8.000 4.000,8.000 ZM4.000,2.000 C2.897,2.000 2.000,2.897 2.000,4.000 C2.000,5.103 2.897,6.000 4.000,6.000 C5.103,6.000 6.000,5.103 6.000,4.000 C6.000,2.897 5.103,2.000 4.000,2.000 Z"
    class="cls-1"/>
</svg>
