<?xml version="1.0" encoding="UTF-8"?>
<svg width="28px" height="31px" viewBox="0 0 28 31" version="1.1" xmlns="http://www.w3.org/2000/svg" xmlns:xlink="http://www.w3.org/1999/xlink">
    <!-- Generator: sketchtool 59.1 (101010) - https://sketch.com -->
    <title>1B2CB3F2-A6CA-42AB-9B8F-B76673F8B767@1.00x</title>
    <desc>Created with sketchtool.</desc>
    <g id="Workshop" stroke="none" stroke-width="1" fill="none" fill-rule="evenodd">
        <g id="Icons---30px" transform="translate(-21.000000, -20.000000)" fill="#000000">
            <g id="Icons/MMP/Medium/Benefit-1" transform="translate(20.000000, 20.000000)">
                <path d="M15,0.32 C15.3130453,0.309675068 15.6128444,0.446620329 15.81,0.69 C18.619032,4.06170843 22.7249501,6.08559901 27.11,6.26 C27.6186257,6.25632612 28.0489766,6.63503494 28.11,7.14 C28.2364426,8.1283011 28.3,9.12364325 28.3,10.12 C28.3,18.32 23.27,26.11 15.47,29.99 C15.3298347,30.0579235 15.1757409,30.0921666 15.02,30.0900968 C14.8676302,30.0906236 14.7171327,30.0564197 14.58,29.99 C6.75,26.14 1.75,18.34 1.75,10.14 C1.75400563,9.1371244 1.81745021,8.13536781 1.94,7.14 C2.0010234,6.63503494 2.43137433,6.25632612 2.94,6.26 C7.32056797,6.07908742 11.4208968,4.05616167 14.23,0.69 C14.41842,0.457723016 14.7009167,0.321977842 15,0.32 Z M15,2.83 C12.0450946,5.90051757 8.09118654,7.81541473 3.85,8.23 C3.79,8.87 3.76,9.5 3.76,10.12 C3.91879835,17.6979143 8.23999107,24.57184 15,28 C21.7747481,24.5834322 26.1098053,17.7058081 26.27,10.12 C26.27,9.51 26.25,8.87 26.19,8.23 C21.9358574,7.82035107 17.9677083,5.90542655 15,2.83 Z M15,9 C15.5522847,9 16,9.44771525 16,10 L16,10 L16,14 L20,14 C20.5522847,14 21,14.4477153 21,15 C21,15.5522847 20.5522847,16 20,16 L20,16 L16,16 L16,20 C16,20.5522847 15.5522847,21 15,21 C14.4477153,21 14,20.5522847 14,20 L14,20 L14,16 L10,16 C9.44771525,16 9,15.5522847 9,15 C9,14.4477153 9.44771525,14 10,14 L10,14 L14,14 L14,10 C14,9.44771525 14.4477153,9 15,9 Z" id="Combined-Shape"></path>
            </g>
        </g>
    </g>
</svg>