<?xml version="1.0" encoding="UTF-8"?>
<svg width="28px" height="28px" viewBox="0 0 28 28" version="1.1" xmlns="http://www.w3.org/2000/svg" xmlns:xlink="http://www.w3.org/1999/xlink">
    <!-- Generator: sketchtool 59.1 (101010) - https://sketch.com -->
    <title>4FB14F1B-D7D4-4D75-A74C-8A36E2595DA8@1.00x</title>
    <desc>Created with sketchtool.</desc>
    <g id="Workshop" stroke="none" stroke-width="1" fill="none" fill-rule="evenodd">
        <g id="Icons---30px" transform="translate(-21.000000, -72.000000)" fill="#000000">
            <g id="Icons/MMP/Medium/Household" transform="translate(20.000000, 71.000000)">
                <path d="M27.24,1 C27.706781,1 28.1544439,1.18542804 28.4845079,1.51549207 C28.814572,1.84555609 29,2.29321898 29,2.76 L29,2.76 L29,27.24 C29,27.706781 28.814572,28.1544439 28.4845079,28.4845079 C28.1544439,28.814572 27.706781,29 27.24,29 L27.24,29 L2.76,29 C2.29321898,29 1.84555609,28.814572 1.51549207,28.4845079 C1.18542804,28.1544439 1,27.706781 1,27.24 L1,27.24 L1,2.76 C1,1.78797884 1.78797884,1 2.76,1 L2.76,1 Z M15.36,17.74 C14.2584667,17.4691593 13.1220537,17.3679949 11.99,17.44 C6.62,17.44 6.18,19.01 6.18,20.62 L6.18060996,22.7778991 C6.19006428,24.0357208 6.34606061,24.1666667 8.92,24.58 C9.18790558,24.6245676 9.4261611,24.7761848 9.58,25 L9.58,25 C9.75854527,25.2333112 9.81773957,25.536682 9.74,25.82 L9.74,25.82 L9.51,27.03 L12.42,27.03 L12.42,24.03 C12.42,20.54 15.84,20 18,19.92 C16.8422924,19.6168094 15.8766964,18.8194612 15.36,17.74 Z M18.99,21.87 C14.37,21.87 14.37,23.21 14.37,24 L14.37,24 L14.37,27 L23.58,27 L23.61,24 C23.61,23.21 23.61,21.87 18.99,21.87 Z M27,3 L3,3 L3,27 L7.47,27 L7.62,26.38 C5.42,25.95 4.21,25.28 4.21,22.52 L4.21,22.52 L4.21,20.62 C4.21,16.03 8.38,15.44 12.02,15.44 C13.0226659,15.4133049 14.0258614,15.4668086 15.02,15.6 C15.2337311,13.5896273 16.9139429,12.0547862 18.9354008,12.023357 C20.9568586,11.9919278 22.6839735,13.4737924 22.9601,15.4765489 C23.2362264,17.4793055 21.9745444,19.3732451 20.02,19.89 C22.18,20 25.61,20.51 25.61,24 L25.61,24 L25.61,27 L27,27 L27,3 Z M18.9725019,14.0502745 C17.8746681,14.032088 16.9674497,14.9023587 16.94,16 C16.9265197,16.5390423 17.1312672,17.0606904 17.507811,17.4466478 C17.8843548,17.8326052 18.4007892,18.0501685 18.94,18.0499945 C20.0379844,18.0496568 20.9303869,17.1641998 20.9393089,16.0662516 C20.9482308,14.9683034 20.0703357,14.0684609 18.9725019,14.0502745 Z M11.9866738,5.00001064 C14.5755856,4.99817574 16.6763172,7.09443772 16.6800001,9.68334755 C16.6836734,12.2722574 14.5889066,14.3744799 12,14.38 C9.40816191,14.38 7.30551455,12.2818322 7.3,9.69 C7.3,7.10108756 9.39776199,5.00184794 11.9866738,5.00001064 Z M12,7 C10.5127277,7 9.30550842,8.20273791 9.3,9.69 C9.3,11.174342 10.5023382,12.3781469 11.9866791,12.3799815 C13.4710199,12.3818119 14.6763165,11.1809793 14.6800002,9.69664189 C14.683667,8.21230447 13.4843317,7.005518 12,7 Z" id="Combined-Shape"></path>
            </g>
        </g>
    </g>
</svg>