<?xml version="1.0" encoding="UTF-8"?>
<svg width="30px" height="22px" viewBox="0 0 30 22" version="1.1" xmlns="http://www.w3.org/2000/svg" xmlns:xlink="http://www.w3.org/1999/xlink">
    <!-- Generator: sketchtool 59.1 (101010) - https://sketch.com -->
    <title>BE1CC0F7-9547-46B8-A203-5D71900953C1@1.00x</title>
    <desc>Created with sketchtool.</desc>
    <g id="Workshop" stroke="none" stroke-width="1" fill="none" fill-rule="evenodd">
        <g id="Icons---30px" transform="translate(-120.000000, -24.000000)" fill="#000000">
            <g id="Icons/MMP/Medium/Message" transform="translate(120.000000, 20.000000)">
                <path d="M29.85,6.06 C29.85,5.09350169 29.0664983,4.31 28.1,4.31 L1.91,4.31 C0.943501688,4.31 0.16,5.09350169 0.16,6.06 L0.16,23.94 C0.162957544,24.0891906 0.186513594,24.2372572 0.23,24.38 C0.108919995,24.7248361 0.185604583,25.108259 0.43,25.38 C0.618471783,25.5832232 0.882834938,25.6991084 1.16,25.7 C1.26900374,25.6955519 1.37678889,25.6753421 1.48,25.64 C1.62073141,25.6755444 1.76491407,25.695663 1.91,25.7 L28.1,25.7 C28.2450859,25.695663 28.3892686,25.6755444 28.53,25.64 C28.6332111,25.6753421 28.7409963,25.6955519 28.85,25.7 C29.1271651,25.6991084 29.3915282,25.5832232 29.58,25.38 C29.8243954,25.108259 29.90108,24.7248361 29.78,24.38 C29.8234864,24.2372572 29.8470425,24.0891906 29.85,23.94 L29.85,6.06 Z M23.16,18 C22.8991961,17.7552731 22.5276431,17.6682733 22.1853014,17.7717726 C21.8429598,17.8752719 21.5818392,18.1535463 21.5003014,18.5017726 C21.4187636,18.8499988 21.5291961,19.2152731 21.79,19.46 L26.31,23.69 L3.7,23.69 L8.22,19.46 C8.48080389,19.2152731 8.59123636,18.8499988 8.50969857,18.5017726 C8.42816077,18.1535463 8.16704024,17.8752719 7.82469856,17.7717726 C7.48235687,17.6682733 7.11080388,17.7552731 6.85,18 L2.16,22.38 L2.16,7.54 L12.94,17.11 C14.1196658,18.151546 15.8903342,18.151546 17.07,17.11 L27.85,7.54 L27.85,22.38 L23.16,18 Z M26.22,6.31 L15.74,15.62 C15.3125348,15.9700975 14.6974652,15.9700975 14.27,15.62 L3.79,6.31 L26.22,6.31 Z" id="Shape"></path>
            </g>
        </g>
    </g>
</svg>