<?xml version="1.0" encoding="UTF-8"?>
<svg width="30px" height="26px" viewBox="0 0 30 26" version="1.1" xmlns="http://www.w3.org/2000/svg" xmlns:xlink="http://www.w3.org/1999/xlink">
    <!-- Generator: sketchtool 59.1 (101010) - https://sketch.com -->
    <title>2A86BD28-3538-469F-B8B2-823B48528BBE@1.00x</title>
    <desc>Created with sketchtool.</desc>
    <g id="Workshop" stroke="none" stroke-width="1" fill="none" fill-rule="evenodd">
        <g id="Icons---30px" transform="translate(-170.000000, -22.000000)" fill="#000000">
            <g id="Icons/MMP/Medium/Resources" transform="translate(170.000000, 20.000000)">
                <path d="M29.38,12 C29.0629059,11.6357673 28.6029169,11.4276771 28.12,11.43 L27.55,11.43 L27.55,6.19 C27.55,5.63771525 27.1022847,5.19 26.55,5.19 L13.68,5.19 C12.82,5.19 12.74,4.98 12.48,4.25 C12.2541455,3.12356223 11.2587856,2.31719468 10.11,2.32984963 L1,2.32984963 C0.44771525,2.32984963 0,2.77771525 0,3.33 L0,26.67 C0,27.2222847 0.44771525,27.67 1,27.67 L25.8,27.67 C26.7180254,27.6557989 27.4975234,26.9936447 27.66,26.09 L29.74,13.34 C29.8255909,12.862008 29.6936096,12.3707441 29.38,12 Z M10.11,4.33 C10.38,4.33 10.38,4.33 10.6,4.93 C10.9306784,6.33859496 12.2370871,7.29719358 13.68,7.19 L25.55,7.19 L25.55,11.44 L5.72,11.44 C4.82642519,11.448275 4.04676916,12.0483244 3.81,12.91 L2,19.69 L2,4.33 L10.11,4.33 Z M25.7,25.67 L2.47,25.67 L5.72,13.44 L27.72,13.44 L25.7,25.67 Z" id="Shape"></path>
            </g>
        </g>
    </g>
</svg>