<?xml version="1.0" encoding="UTF-8"?>
<svg width="30px" height="30px" viewBox="0 0 30 30" version="1.1" xmlns="http://www.w3.org/2000/svg" xmlns:xlink="http://www.w3.org/1999/xlink">
    <!-- Generator: sketchtool 59.1 (101010) - https://sketch.com -->
    <title>2C70A080-EA56-4AF4-97C2-7D160E71D791@1.00x</title>
    <desc>Created with sketchtool.</desc>
    <g id="Workshop" stroke="none" stroke-width="1" fill="none" fill-rule="evenodd">
        <g id="Icons---30px" transform="translate(-70.000000, -20.000000)" fill="#000000">
            <g id="Icons/MMP/Medium/Help" transform="translate(70.000000, 20.000000)">
                <path d="M15,0 C18.9782473,0 22.793556,1.58035261 25.6066017,4.39339828 C28.4196474,7.20644396 30,11.0217527 30,15 C30,23.2842712 23.2842712,30 15,30 C6.71572875,30 0,23.2842712 0,15 C0,6.71572875 6.71572875,0 15,0 Z M15,2 C7.82029825,2 2,7.82029825 2,15 C2,22.1797017 7.82029825,28 15,28 C18.4478144,28 21.7544152,26.6303611 24.1923882,24.1923882 C26.6303611,21.7544152 28,18.4478144 28,15 C28,7.82029825 22.1797017,2 15,2 Z M14.93,20.75 C15.6694692,20.7553577 16.2691446,21.350591 16.28,22.09 C16.28,22.8287553 15.6820615,23.4281346 14.9433085,23.4299628 C14.2045555,23.4317826 13.6036851,22.8353631 13.5999996,22.0966169 C13.596348,21.3578708 14.1912653,20.7555131 14.93,20.75 Z M15.0384825,7.05541153 L15.27,7.06 C18.38,7.06 20.23,9.18 20.23,11.23 C20.23,13.57 18.87,14.56 17.87,15.34 C16.87,16.12 15.87,16.87 15.87,18.57 L15.87,18.57 L15.87,18.8 L13.87,18.8 L13.87,18.57 C13.9073683,16.5742728 14.9841813,14.7429323 16.71,13.74 C17.75,12.96 18.27,12.57 18.27,11.23 C18.27,10.16 17.12,9.06 15.27,9.06 C13.8566501,8.93772945 12.5508521,9.82216767 12.14,11.18 L12.14,11.18 L10.2,10.69 C10.8550925,8.45873297 12.9466528,6.96122535 15.27,7.06 Z" id="Combined-Shape"></path>
            </g>
        </g>
    </g>
</svg>