<?xml version="1.0" encoding="UTF-8"?>
<svg width="30px" height="30px" viewBox="0 0 30 30" version="1.1" xmlns="http://www.w3.org/2000/svg" xmlns:xlink="http://www.w3.org/1999/xlink">
    <!-- Generator: Sketch 61 (89581) - https://sketch.com -->
    <title>Icons/30/people-family-circle</title>
    <desc>Created with Sketch.</desc>
    <g id="Icons/30/people-family-circle" stroke="none" stroke-width="1" fill="none" fill-rule="evenodd">
        <path d="M15,0.999999953 C22.7319865,0.999999953 29,7.26801348 29,15 C29,18.803201 27.4834864,22.2522013 25.0221764,24.7752836 C24.9869799,24.8186311 24.9476223,24.859084 24.9045171,24.8963092 C22.3696314,27.4313673 18.8680026,29 15,29 C7.26801348,29 0.999999953,22.7319865 0.999999953,15 C0.999999953,7.26801348 7.26801348,0.999999953 15,0.999999953 Z M19.64,23.66 C16.5456987,23.66 15.7557591,24.1048786 15.7119688,25.5279229 L15.7103496,26.9793234 C18.4096899,26.8217431 20.8694174,25.7719063 22.7989037,24.1204413 C22.2456432,23.8415745 21.3287518,23.6805826 19.922574,23.6618441 L19.64,23.66 Z M15,2.99999996 C8.37258298,2.99999996 2.99999996,8.37258298 2.99999996,15 C2.99999996,16.8732234 3.42921378,18.6461985 4.19466009,20.2259441 C4.69165637,17.1956505 7.16522151,16 12.43,16 C12.9822847,16 13.43,16.4477153 13.43,17 C13.43,17.5522848 12.9822847,18 12.43,18 L11.8266605,18.0045677 C7.44066377,18.073569 6.15558334,18.9352478 6.10178305,21.3281937 L6.09975154,23.0490882 C8.02457305,25.1761359 10.7012262,26.6100215 13.7104908,26.9315249 L13.71,25.66 C13.71,22.7897407 15.4848897,21.66 19.64,21.66 C21.7844371,21.66 23.2756508,21.9544876 24.2394962,22.6571047 C25.9633192,20.5803133 27,17.9112215 27,15 C27,8.37258298 21.627417,2.99999996 15,2.99999996 Z M19.64,12.82 C21.8104791,12.82 23.57,14.5795209 23.57,16.75 C23.57,18.9204791 21.8104791,20.68 19.64,20.68 C17.4695209,20.68 15.71,18.9204791 15.71,16.75 C15.71,14.5795209 17.4695209,12.82 19.64,12.82 Z M19.64,14.82 C18.5740904,14.82 17.71,15.6840904 17.71,16.75 C17.71,17.8159096 18.5740904,18.68 19.64,18.68 C20.7059096,18.68 21.57,17.8159096 21.57,16.75 C21.57,15.6840904 20.7059096,14.82 19.64,14.82 Z M11.37,5.99999997 C13.7834844,5.99999997 15.74,7.95651562 15.74,10.37 C15.74,12.7834843 13.7834844,14.74 11.37,14.74 C8.95651562,14.74 6.99999997,12.7834843 6.99999997,10.37 C6.99999997,7.95651562 8.95651562,5.99999997 11.37,5.99999997 Z M11.37,7.99999998 C10.0610851,7.99999998 8.99999998,9.06108512 8.99999998,10.37 C8.99999998,11.6789148 10.0610851,12.74 11.37,12.74 C12.6789148,12.74 13.74,11.6789148 13.74,10.37 C13.74,9.06108512 12.6789148,7.99999998 11.37,7.99999998 Z" id="people-family-circle-30" fill="#000000"></path>
    </g>
</svg>