<?xml version="1.0" encoding="UTF-8"?>
<svg width="52px" height="50px" viewBox="0 0 52 50" version="1.1" xmlns="http://www.w3.org/2000/svg" xmlns:xlink="http://www.w3.org/1999/xlink">
    <!-- Generator: sketchtool 59.1 (101010) - https://sketch.com -->    
    <g id="Workshop" stroke="none" stroke-width="1" fill="none" fill-rule="evenodd">
        <g id="Icons---60px" transform="translate(-29.000000, -115.000000)" fill="#000000">
            <g id="Icons/Producer-account/Large/Comission" transform="translate(25.000000, 110.000000)">
                <path d="M35.1563108,38.2163829 C38.0022713,33.9537928 43.4636022,32.2961342 48.1987462,34.2576582 C52.9338902,36.2191822 55.6231965,41.2532262 54.6211924,46.2796716 C53.6191883,51.306117 49.2051251,54.9241293 44.0797814,54.9200035 C41.2364794,54.9210018 38.5094728,53.7913447 36.4997814,51.78 C32.8729092,48.1585412 32.3103504,42.478973 35.1563108,38.2163829 Z M53.5245931,5 C53.7133127,5.00077525 53.9000922,5.03813114 54.0745931,5.11 L54.0745931,5.11 L54.2089651,5.17569829 C54.5137929,5.34317865 54.7557553,5.60803229 54.8945931,5.93 L54.8945931,5.93 L54.8945931,5.95 C54.966462,6.12450091 55.0038179,6.31128036 55.0045931,6.5 L55.0045931,6.5 L55.0045931,19.62 C55.0045931,20.4484271 54.3330202,21.12 53.5045931,21.12 C52.676166,21.12 52.0045931,20.4484271 52.0045931,19.62 L52.0045931,19.62 L52.0045931,10.12 L10.3545931,51.78 C10.0741863,52.0623219 9.69250398,52.2207561 9.2945931,52.2200027 C8.89613946,52.2137672 8.51584015,52.0523194 8.2345931,51.77 C7.65513563,51.1821202 7.65513563,50.2378798 8.2345931,49.65 L8.2345931,49.65 L49.8845931,8 L40.3845931,8 C39.556166,8 38.8845931,7.32842711 38.8845931,6.5 C38.8845931,5.67157289 39.556166,5 40.3845931,5 L40.3845931,5 Z M48.3799569,37.7683618 C45.3159784,35.7171997 41.2298332,36.1156077 38.6197814,38.72 C37.1650809,40.1684258 36.3480677,42.1371756 36.3497787,44.19 C36.348892,47.8771708 38.9523071,51.0516853 42.5683044,51.772652 C46.1843017,52.4936188 49.8061279,50.5603089 51.2194063,47.1547438 C52.6326847,43.7491787 51.4439353,39.8195238 48.3799569,37.7683618 Z M8.06978138,8.18 C11.139322,5.10291517 15.760854,4.17921188 19.7773536,5.84001341 C23.7938531,7.50081495 26.4134236,11.4186762 26.4134236,15.765 C26.4134236,20.1113238 23.7938531,24.029185 19.7773536,25.6899866 C15.760854,27.3507881 11.139322,26.4270848 8.06978138,23.35 C6.04158417,21.3471469 4.9,18.6154393 4.9,15.765 C4.9,12.9145607 6.04158417,10.1828531 8.06978138,8.18 Z M18.6141839,8.67315814 C15.7253561,7.47685604 12.4003378,8.13868695 10.1897814,10.35 L10.1897814,10.35 L10.1897814,10.3 C8.71532998,11.746196 7.88457478,13.7246938 7.88457478,15.79 C7.88457478,17.8553062 8.71532998,19.833804 10.1897814,21.28 C12.4003378,23.4913131 15.7253561,24.153144 18.6141839,22.9568419 C21.5030118,21.7605398 23.3866521,18.9417339 23.3866521,15.815 C23.3866521,12.6882661 21.5030118,9.86946024 18.6141839,8.67315814 Z" id="Combined-Shape"></path>
            </g>
        </g>
    </g>
</svg>