<?xml version="1.0" encoding="UTF-8"?>
<svg width="60px" height="61px" viewBox="0 0 60 61" version="1.1" xmlns="http://www.w3.org/2000/svg" xmlns:xlink="http://www.w3.org/1999/xlink">
    <!-- Generator: sketchtool 59.1 (101010) - https://sketch.com -->    
    <g id="Workshop" stroke="none" stroke-width="1" fill="none" fill-rule="evenodd">
        <g id="Icons---60px" transform="translate(-195.000000, -110.000000)" fill="#000000">
            <g id="Icons/Producer-account/Large/Profile" transform="translate(195.000000, 110.000000)">
                <path d="M1.82,57.15 C0.991572875,57.15 0.32,57.8215729 0.32,58.65 C0.32,59.4784271 0.991572875,60.15 1.82,60.15 L58.24,60.15 C59.0684271,60.15 59.74,59.4784271 59.74,58.65 C59.74,57.8215729 59.0684271,57.15 58.24,57.15 L54.34,57.15 L54.34,20.83 L54.34,20.83 C55.1684271,20.83 55.84,20.1584271 55.84,19.33 C55.84,18.5015729 55.1684271,17.83 54.34,17.83 L44.34,17.83 L44.34,3 L44.34,3 C45.1684271,3 45.84,2.32842712 45.84,1.5 C45.84,0.671572875 45.1684271,0 44.34,0 L15.62,0 C14.7915729,0 14.12,0.671572875 14.12,1.5 C14.12,2.32842712 14.7915729,3 15.62,3 L15.62,3 L15.62,17.8 L5.62,17.8 C4.79157288,17.8 4.12,18.4715729 4.12,19.3 C4.12,20.1284271 4.79157288,20.8 5.62,20.8 L5.62,20.8 L5.62,57.15 L1.82,57.15 Z M51.34,20.83 L51.34,57 L44.41,57 L44.41,20.83 L51.34,20.83 L51.34,20.83 Z M28.53,3 L28.53,38.69 C28.53,39.5184271 29.2015729,40.19 30.03,40.19 C30.8584271,40.19 31.53,39.5184271 31.53,38.69 L31.53,3 L41.41,3 L41.41,57 L31.53,57 L31.53,49.64 C31.53,48.8115729 30.8584271,48.14 30.03,48.14 C29.2015729,48.14 28.53,48.8115729 28.53,49.64 L28.53,57 L18.65,57 L18.65,3 L28.53,3 Z M15.62,20.83 L15.62,20.83 L15.62,57 L8.72,57 L8.72,20.83 L15.62,20.83 Z" id="Shape"></path>
            </g>
        </g>
    </g>
</svg>