<?xml version="1.0" encoding="UTF-8"?>
<svg width="45px" height="60px" viewBox="0 0 45 60" version="1.1" xmlns="http://www.w3.org/2000/svg" xmlns:xlink="http://www.w3.org/1999/xlink">
    <!-- Generator: sketchtool 59.1 (101010) - https://sketch.com -->   
    <g id="Workshop" stroke="none" stroke-width="1" fill="none" fill-rule="evenodd">
        <g id="Icons---60px" transform="translate(-33.000000, -25.000000)" fill="#000000">
            <g id="Icons/Producer-account/Large/AAOD" transform="translate(25.000000, 25.000000)">
                <path d="M29.985,7.10542736e-14 C32.977455,7.10542736e-14 35.5781944,2.05516592 36.27,4.96655599 L36.27,4.96655599 L38.76,4.96655599 C39.6727541,4.97575385 40.554908,5.29685787 41.26,5.87655599 L41.26,5.87655599 L48.51,5.87655599 C50.4390981,5.87654812 52.0044883,7.43746576 52.01,9.36655599 L52.01,9.36655599 L52.01,56.296556 C52.01,58.2295526 50.4429966,59.796556 48.51,59.796556 L48.51,59.796556 L11.5,59.796556 C9.56700338,59.796556 8,58.2295526 8,56.296556 L8,56.296556 L8,9.36655599 C8.00526165,7.45681328 9.54044481,5.90383089 11.45,5.87655599 L11.45,5.87655599 L18.71,5.87655599 C19.415092,5.29685787 20.2972459,4.97575385 21.21,4.96655599 L21.21,4.96655599 L23.7,4.96655599 C24.3918056,2.05516592 26.992545,7.10542736e-14 29.985,7.10542736e-14 Z M17.24,8.86655599 L11.45,8.86655599 C11.1760915,8.8718761 10.9553201,9.09264754 10.95,9.36655599 L10.95,9.36655599 L10.95,56.296556 C10.9553201,56.5704644 11.1760915,56.7912359 11.45,56.796556 L11.45,56.796556 L48.5,56.796556 C48.7739085,56.7912359 48.9946799,56.5704644 49,56.296556 L49,56.296556 L49.02,9.37655599 C49.0146799,9.10264754 48.7939085,8.8818761 48.52,8.87655599 L48.52,8.87655599 L42.74,8.87655599 L42.74,8.87655599 L42.74,14.846556 L17.24,14.846556 L17.24,8.86655599 Z M31.87,40.926556 C32.6984271,40.926556 33.37,41.5981289 33.37,42.426556 C33.37,43.2549831 32.6984271,43.926556 31.87,43.926556 L31.87,43.926556 L20.73,43.926556 C19.9015729,43.926556 19.23,43.2549831 19.23,42.426556 C19.23,41.5981289 19.9015729,40.926556 20.73,40.926556 L20.73,40.926556 Z M38.87,32.896556 C39.6984271,32.896556 40.37,33.5681289 40.37,34.396556 C40.37,35.2249831 39.6984271,35.896556 38.87,35.896556 L38.87,35.896556 L20.73,35.896556 C19.9015729,35.896556 19.23,35.2249831 19.23,34.396556 C19.23,33.5681289 19.9015729,32.896556 20.73,32.896556 L20.73,32.896556 Z M38.87,24.856556 C39.6984271,24.856556 40.37,25.5281289 40.37,26.356556 C40.37,27.1849831 39.6984271,27.856556 38.87,27.856556 L38.87,27.856556 L20.73,27.856556 C19.9015729,27.856556 19.23,27.1849831 19.23,26.356556 C19.23,25.5281289 19.9015729,24.856556 20.73,24.856556 L20.73,24.856556 Z M30.01,3.0065561 C28.0990948,3.0065561 26.5500001,4.5556508 26.55,6.46655599 L26.55,6.46655599 L26.55,7.94655599 L21.23,7.94655599 C20.6777153,7.94655599 20.23,8.39427124 20.23,8.94655599 L20.23,8.94655599 L20.23,11.876556 L39.78,11.876556 L39.78,8.96655599 C39.78,8.41427124 39.3322847,7.96655599 38.78,7.96655599 L38.78,7.96655599 L33.47,7.96655599 L33.47,6.46655599 C33.4699999,4.5556508 31.9209052,3.0065561 30.01,3.0065561 Z M30,4.75652655 C30.9382278,4.76745086 31.6946081,5.52828042 31.7,6.46655599 C31.7,7.15909389 31.2822697,7.78324527 30.642058,8.04732414 C30.0018462,8.31140301 29.2655668,8.16326046 28.7773067,7.67212826 C28.2890466,7.18099607 28.145225,6.44386043 28.4130542,5.80520852 C28.6808834,5.16655662 29.3074739,4.75250606 30,4.75652655 Z" id="Combined-Shape"></path>
            </g>
        </g>
    </g>
</svg>