<?xml version="1.0" encoding="UTF-8"?>
<svg width="58px" height="61px" viewBox="0 0 58 61" version="1.1" xmlns="http://www.w3.org/2000/svg" xmlns:xlink="http://www.w3.org/1999/xlink">
    <!-- Generator: sketchtool 59.1 (101010) - https://sketch.com -->    
    <g id="Workshop" stroke="none" stroke-width="1" fill="none" fill-rule="evenodd">
        <g id="Icons---60px" transform="translate(-111.000000, -110.000000)" fill="#000000">
            <g id="Icons/Producer-account/Large/employees" transform="translate(110.000000, 110.000000)">
                <path d="M30.0911713,27.1905663 C36.1304673,27.2180991 42.94,28.2746575 42.94,35.81 L42.94,35.81 L42.94,39.05 C42.94,43.55 41.1,44.69 36.94,45.49 C37.24,49.11 37.94,58.76 37.94,58.76 C37.9675991,59.1757704 37.8221638,59.5844651 37.5381217,59.889337 C37.2540796,60.1942088 36.8566813,60.3681555 36.44,60.37 L36.44,60.37 L23.29,60.37 C22.8733187,60.3681555 22.4759204,60.1942088 22.1918783,59.889337 C21.9078362,59.5844651 21.7624009,59.1757704 21.79,58.76 C21.79,58.76 22.53,49.12 22.79,45.5 C18.56,44.7 16.79,43.59 16.79,39.05 L16.79,39.05 L16.79,35.81 C16.79,28.17 23.74,27.19 29.84,27.19 Z M29.89,30.19 C20.57,30.19 19.79,33.09 19.79,35.81 L19.79,35.81 L19.83,39.05 C19.83,41.65 19.83,41.99 24.68,42.77 C25.4082563,42.8837686 25.943886,43.512921 25.94,44.25 C25.94,44.3 25.94,44.31 25,57.37 L25,57.37 L34.84,57.37 C33.89,44.3 33.89,44.3 33.89,44.24 C33.8944554,43.5059927 34.4261069,42.8815131 35.15,42.76 C39.806,42.0016 39.99224,41.667136 39.9996896,39.3501261 L39.9995082,35.6949719 C39.9760544,33.0088851 39.0787324,30.19 29.89,30.19 Z M14.48,17.69 C15.3084271,17.69 15.98,18.3615729 15.98,19.19 C15.98,20.0184271 15.3084271,20.69 14.48,20.69 L14.48,20.69 L13.04,20.69 C4.79,20.69 4.1,23.12 4.1,25.6 L4.1,25.6 L4.1,28.52 C4.1,30.84 4.1,31 8.33,31.71 C9.06158292,31.8277751 9.59960487,32.4589977 9.6,33.2 C9.6,33.25 9.6,33.25 8.76,44.86 L8.76,44.86 L10.68,44.86 C11.5084271,44.86 12.18,45.5315729 12.18,46.36 C12.18,47.1884271 11.5084271,47.86 10.68,47.86 L10.68,47.86 L7.15,47.86 C6.73276482,47.8588452 6.33460362,47.6851021 6.05,47.38 C5.76435042,47.075942 5.61925769,46.6660551 5.65,46.25 C5.65,46.25 6.26,37.8 6.5,34.44 C2.76,33.72 1.1,32.64 1.1,28.52 L1.1,28.52 L1.1,25.6 C1.1,18.59 7.48,17.69 13,17.69 Z M46.9958032,17.6906069 C52.4962673,17.7180817 58.69,18.7029412 58.69,25.6 L58.69,25.6 L58.69,28.52 C58.69,32.64 57.02,33.72 53.28,34.44 C53.52,37.8 54.14,46.25 54.14,46.25 C54.1675991,46.6657704 54.0221638,47.0744651 53.7381217,47.379337 C53.4540796,47.6842088 53.0566813,47.8581555 52.64,47.86 L52.64,47.86 L49.11,47.86 C48.2815729,47.86 47.61,47.1884271 47.61,46.36 C47.61,45.5315729 48.2815729,44.86 49.11,44.86 L49.11,44.86 L51.01,44.86 C50.1993023,33.6067442 50.1710222,33.2141888 50.1700357,33.200495 L50.1753755,33.0627308 C50.2330166,32.3836431 50.7458067,31.8208859 51.43,31.71 C55.67,31.03 55.67,30.84 55.67,28.52 L55.67,28.52 L55.67,25.6 C55.67,23.12 54.98,20.69 46.73,20.69 L46.73,20.69 L45.28,20.69 C44.4515729,20.69 43.78,20.0184271 43.78,19.19 C43.78,18.3615729 44.4515729,17.69 45.28,17.69 L45.28,17.69 Z M29.89,7.97 C34.1922982,7.97 37.68,11.4577018 37.68,15.76 C37.6744907,20.0600141 34.1900141,23.5444907 29.89,23.55 C25.5877018,23.55 22.1,20.0622982 22.1,15.76 C22.1,11.4577018 25.5877018,7.97 29.89,7.97 Z M33.2905789,12.37651 C31.9214385,11.0045054 29.8603919,10.5928571 28.0692635,11.3336684 C26.2781352,12.0744796 25.11,13.8217167 25.11,15.76 C25.11,18.4015436 27.2484621,20.5444853 29.89,20.5500105 C31.828279,20.5540465 33.5779536,19.3895696 34.3225064,17.5999933 C35.0670592,15.8104171 34.6597192,13.7485147 33.2905789,12.37651 Z M13,0.449929479 C16.6373338,0.4333624 19.6024822,3.36273226 19.63,7 C19.6502088,9.67117107 18.0582956,12.0911318 15.5974112,13.1301751 C13.1365268,14.1692185 10.291984,13.6224341 8.39169676,11.7450764 C6.49140954,9.86771876 5.91013502,7.03002302 6.91922877,4.55670681 C7.92832253,2.0833906 10.3287804,0.462218478 13,0.449929479 Z M46.75,0.449992656 C50.3717423,0.455383593 53.3125665,3.37835755 53.34,7 C53.3602614,9.67481726 51.7640491,12.0973575 49.298239,13.1341017 C46.832429,14.1708459 43.9846975,13.6167516 42.0875129,11.7310825 C40.1903282,9.84541333 39.6189066,7.00110815 40.6406192,4.52903184 C41.6623318,2.05695553 44.075109,0.446023868 46.75,0.449992656 Z M13.0135466,3.44012605 C11.0344946,3.4493336 9.43395365,5.0542837 9.4302235,7.03335345 C9.42650637,9.01242319 11.0209965,10.6233848 13,10.64 C13.9669404,10.6481182 14.8964941,10.2669015 15.5793071,9.58220739 C16.2621202,8.89751328 16.6407782,7.96691445 16.63,7 C16.6079405,5.0210497 14.9925986,3.4309974 13.0135466,3.44012605 Z M46.7102874,3.44013774 C44.7260658,3.45663763 43.1293325,5.0756096 43.1402212,7.05986963 C43.1512218,9.04412967 44.7657171,10.6453893 46.75,10.6400136 C47.7091809,10.6347191 48.6268254,10.2479242 49.3003723,9.56499635 C49.9739193,8.88206852 50.3479857,7.95916222 50.34,7 C50.317945,5.01583236 48.6945091,3.42363785 46.7102874,3.44013774 Z" id="Combined-Shape"></path>
            </g>
        </g>
    </g>
</svg>