<?xml version="1.0" encoding="UTF-8"?>
<svg width="60px" height="59px" viewBox="0 0 60 59" version="1.1" xmlns="http://www.w3.org/2000/svg" xmlns:xlink="http://www.w3.org/1999/xlink">
    <!-- Generator: sketchtool 59.1 (101010) - https://sketch.com -->    
    <g id="Workshop" stroke="none" stroke-width="1" fill="none" fill-rule="evenodd">
        <g id="Icons---60px" transform="translate(-110.000000, -26.000000)" fill="#000000">
            <g id="Icons/Producer-account/Large/Benefits-A" transform="translate(110.000000, 25.000000)">
                <path d="M41.71,1.21 C47.1713908,1.06127237 52.4144565,3.35648853 56.01,7.47 C58.55,10.47 61.2,16.1 59.39,25.47 C58,32.56 52.56,38.63 47.74,44 L47.74,44 L46.36,45.53 C42.185404,50.3213627 37.6882611,54.8218467 32.9,59 C31.3229547,60.2455948 29.0970453,60.2455948 27.52,59 C22.6956621,54.877598 18.1584425,50.4305883 13.94,45.69 L13.94,45.69 L12.61,44.24 C7.72,38.92 2.16,32.88 0.72,25.77 C-1.17,16.42 1.43,10.78 3.94,7.69 C7.49894117,3.53865395 12.733385,1.20407733 18.2,1.33 L18.2,1.33 L18.3,1.33 C23.1602422,1.17484783 27.6905054,3.7807172 30,8.06 C32.2817812,3.73435434 36.8211802,1.07894159 41.71,1.21 Z M53.74,9.38 C50.7096588,5.96090047 46.3052395,4.0816816 41.74,4.26 C37.3665049,4.08798745 33.4102012,6.83984367 32.05,11 C31.61,12.73 30.61,13 30.05,13 C29.49,13 28.48,12.74 28,11 C26.6414945,6.83862659 22.6617119,4.10483151 18.29,4.33 L18.29,4.33 L18.2,4.33 C13.6378376,4.20540601 9.25996532,6.1319634 6.27,9.58 C3.25,13.29 2.35,18.68 3.68,25.25 C4.96,31.5 10.21,37.25 14.84,42.25 L14.84,42.25 L16.18,43.71 C20.3090881,48.3270302 24.7351651,52.6695963 29.43,56.71 C29.9032334,57.0338454 30.5267666,57.0338454 31,56.71 C35.656178,52.6075898 40.0388773,48.2048477 44.12,43.53 L44.12,43.53 L45.51,41.99 C50.07,36.9 55.24,31.17 56.45,24.9 C57.71,18.39 56.76,13 53.74,9.38 Z M30,18.92 C30.8284271,18.92 31.5,19.5915729 31.5,20.42 L31.5,20.42 L31.5,27.92 L39,27.92 C39.8284271,27.92 40.5,28.5915729 40.5,29.42 C40.5,30.2484271 39.8284271,30.92 39,30.92 L39,30.92 L31.5,30.92 L31.5,38.42 C31.5,39.2484271 30.8284271,39.92 30,39.92 C29.1715729,39.92 28.5,39.2484271 28.5,38.42 L28.5,38.42 L28.5,30.92 L21,30.92 C20.1715729,30.92 19.5,30.2484271 19.5,29.42 C19.5,28.5915729 20.1715729,27.92 21,27.92 L21,27.92 L28.5,27.92 L28.5,20.42 C28.5,19.5915729 29.1715729,18.92 30,18.92 Z" id="Combined-Shape"></path>
            </g>
        </g>
    </g>
</svg>