<?xml version="1.0" encoding="UTF-8"?>
<svg width="47px" height="60px" viewBox="0 0 47 60" version="1.1" xmlns="http://www.w3.org/2000/svg" xmlns:xlink="http://www.w3.org/1999/xlink">
    <!-- Generator: sketchtool 59.1 (101010) - https://sketch.com -->    
    <g id="Workshop" stroke="none" stroke-width="1" fill="none" fill-rule="evenodd">
        <g id="Icons---60px" transform="translate(-203.000000, -25.000000)" fill="#000000">
            <g id="Icons/Producer-account/Large/Business" transform="translate(195.000000, 25.000000)">
                <path d="M41.35,1.77635684e-14 C42.6438211,0.0551289986 43.8490937,0.67237468 44.65,1.69 L44.65,1.69 L52.37,9.41 C53.3828184,10.2137011 53.9960033,11.4181715 54.05,12.71 L54.05,12.71 L54.05,56.46 C54.0445072,58.3907168 52.4807168,59.9545072 50.55,59.96 L50.55,59.96 L11.5,59.96 C9.56700338,59.96 7.99994089,58.3929966 7.99994089,56.46 L7.99994089,56.46 L7.99994089,3.52 C7.9889056,1.59086689 9.54090558,0.0165037986 11.47,1.77635684e-14 L11.47,1.77635684e-14 Z M38.47,3.02 L11.47,3.02 C11.1938576,3.02 10.97,3.24385763 10.97,3.52 L10.97,3.52 L10.97,56.5 C10.97,56.7761424 11.1938576,57 11.47,57 L11.47,57 L50.55,57 C50.6888781,56.9975183 50.8207359,56.9384991 50.9151059,56.8365795 C51.0094758,56.7346599 51.0581928,56.5986584 51.05,56.46 L51.05,56.46 L51.05,15.59 L41.29,14.97 C40.1162683,14.8756589 39.1843411,13.9437317 39.09,12.77 L39.09,12.77 L38.47,3.02 Z M32.73,13.64 L32.73,18.35 C35.1986896,18.744529 37.49903,19.8495263 39.35,21.53 L39.35,21.53 L37.25,23.67 C35.5175121,22.1394183 33.3010137,21.2683982 30.99,21.21 C27.93,21.21 26.3,23.38 26.3,24.94 C26.3,27.41 27.96,28.09 31.76,29.09 C35,29.93 39.46,31.09 39.48,36.14 C39.48,40.14 36.88,42.85 32.75,43.32 L32.75,43.32 L32.75,47.82 L29.75,47.82 L29.75,43.22 C26.6978289,42.7218858 23.8503385,41.3657729 21.54,39.31 L21.54,39.31 L23.6,37.13 C25.783056,39.0571559 28.552323,40.1916394 31.46,40.35 C34.63,40.35 36.46,38.79 36.46,36.09 C36.46,33.61 34.8,32.94 31,31.94 C27.75,31.15 23.3,29.94 23.3,24.94 C23.5083865,21.443782 26.2418024,18.6253453 29.73,18.31 L29.73,18.31 L29.73,13.64 L32.73,13.64 Z M41.45,3.01 L42.03,12.01 L51.03,12.59 C51,12.33 50.85,12.13 50.26,11.54 L50.26,11.54 L50.07,11.36 L42.5,3.78 C41.91,3.19 41.71,3.01 41.45,3.01 L41.45,3.01 Z" id="Combined-Shape"></path>
            </g>
        </g>
    </g>
</svg>