<?xml version="1.0" encoding="UTF-8"?>
<svg width="50px" height="50px" viewBox="0 0 50 50" version="1.1" xmlns="http://www.w3.org/2000/svg" xmlns:xlink="http://www.w3.org/1999/xlink">
    <!-- Generator: Sketch 55.2 (78181) - https://sketchapp.com -->
    <title>Icons/Products/Disabled/Disability</title>
    <desc>Created with Sketch.</desc>
    <g id="Icons/Products/Disabled/Disability" stroke="none" stroke-width="1" fill="none" fill-rule="evenodd">
        <g id="disability_Icon" transform="translate(2.000000, 0.000000)">
            <g id="Color" transform="translate(16.000000, 15.357143)"></g>
            <g id="Shape" fill="#000000">
                <path d="M22.9335579,9.37489441 L23.2142244,9.09422785 L24.9013055,10.7813089 L23.2142244,12.4683899 L21.5271434,10.7813089 L22.9335579,9.37489441 L21.5275,10.78125 L14.6507143,3.90446429 C13.0075801,2.26499655 10.3474199,2.26499655 8.70428571,3.90446429 L4.15946429,8.44875 C2.52586592,10.0943072 2.52586592,12.7496214 4.15946429,14.3951786 L11.03625,21.2721429 L9.34910714,22.9592857 L2.47232143,16.0823214 C-0.0925172904,13.5050323 -0.0925172904,9.3396106 2.47232143,6.76232143 L7.01732143,2.21714286 C9.59274775,-0.352204657 13.7618951,-0.352204657 16.3373214,2.21714286 L23.2142857,9.09410714 L22.9335579,9.37489441 Z M11.0362755,21.2719766 L19.8228195,12.4854019 L21.5099035,14.1724799 L12.7233594,22.9590546 L11.0362755,21.2719766 Z M24.9184867,31.7456683 L33.7050461,22.9591089 L35.3921271,24.6461899 L26.6055677,33.4327493 L24.9184867,31.7456683 Z M14.6503571,42.0139286 L21.5271429,35.1371429 L23.2142857,36.8242857 L16.3378571,43.70125 C13.7624308,46.2705975 9.59328347,46.2705975 7.01785714,43.70125 L2.47178571,39.1564286 C-0.0977788046,36.5810223 -0.0977788046,32.4116563 2.47178571,29.83625 L9.34857143,22.9592857 L11.0357143,24.6464286 L4.15946429,31.5226786 C2.52586592,33.1682357 2.52586592,35.82355 4.15946429,37.4691071 L8.70392857,42.0139286 C10.3494456,43.6476243 13.0048401,43.6476243 14.6503571,42.0139286 Z M31.7782143,3.90446429 L24.9014286,10.78125 L23.2142857,9.09410714 L30.0907143,2.21714286 C32.6661812,-0.352106436 36.8352473,-0.352106436 39.4107143,2.21714286 L43.9567857,6.7625 C46.5217994,9.33964727 46.5217994,13.5051742 43.9567857,16.0823214 L37.08,22.9592857 L35.3928571,21.2721429 L42.2694643,14.3960714 C43.9032575,12.7505945 43.9032575,10.0951197 42.2694643,8.44964286 L37.7246429,3.90446429 C36.081468,2.26509479 33.4213891,2.26509479 31.7782143,3.90446429 Z M23.2144436,12.4683446 L24.9015276,10.7812665 L33.6880716,19.5678413 L32.0009877,21.2549193 L23.2144436,12.4683446 Z M43.95625,29.8360714 C46.525884,32.4115475 46.5258041,36.5810509 43.9560714,39.1564286 L39.41125,43.70125 C36.8358237,46.2705975 32.6666763,46.2705975 30.09125,43.70125 L23.2142857,36.8242857 L24.90125,35.1376786 L31.7780357,42.0144643 C33.4235527,43.6481601 36.0789473,43.6481601 37.7244643,42.0144643 L42.2692857,37.4696429 C43.9029815,35.8241258 43.9029815,33.1687313 42.2692857,31.5232143 L35.3923214,24.64625 L37.0794643,22.9591071 L43.95625,29.8360714 Z M12.7404564,26.3504396 L14.4275404,24.6633615 L23.2140844,33.4499362 L21.5270005,35.1370143 L12.7404564,26.3504396 Z M21.5270913,35.1371496 L23.2141723,33.4500686 L24.9012533,35.1371496 L23.2141723,36.8242306 L21.5270913,35.1371496 Z M33.7050747,22.9592183 L35.3921557,21.2721373 L37.0792368,22.9592183 L35.3921557,24.6462993 L33.7050747,22.9592183 Z M9.34928629,22.9592925 L11.0363673,21.2722114 L12.7234483,22.9592925 L11.0363673,24.6463735 L9.34928629,22.9592925 Z M18.0803571,24.1557143 C17.9407189,24.3187364 17.7367939,24.4125702 17.5221429,24.4125702 C17.3074918,24.4125702 17.1035669,24.3187364 16.9639286,24.1557143 C16.6558612,23.7996479 16.6558612,23.2714235 16.9639286,22.9153571 C17.1035669,22.752335 17.3074918,22.6585013 17.5221429,22.6585013 C17.7367939,22.6585013 17.9407189,22.752335 18.0803571,22.9153571 C18.3882196,23.2716009 18.3879154,23.7998253 18.0796429,24.1557143 L18.0803571,24.1557143 Z M20.9266071,27.3183929 C20.7870359,27.4814007 20.583168,27.5752321 20.3685714,27.5752321 C20.1539749,27.5752321 19.9501069,27.4814007 19.8105357,27.3183929 C19.5018529,26.962556 19.5018529,26.4338726 19.8105357,26.0780357 C19.9501069,25.9150279 20.1539749,25.8211964 20.3685714,25.8211964 C20.583168,25.8211964 20.7870359,25.9150279 20.9266071,26.0780357 C21.2350851,26.4340503 21.2347806,26.9627338 20.9258929,27.3183929 L20.9266071,27.3183929 Z M20.9266071,20.9926786 C20.7871017,21.1557972 20.5832094,21.24971 20.3685714,21.24971 C20.1539335,21.24971 19.9500412,21.1557972 19.8105357,20.9926786 C19.5018529,20.6368417 19.5018529,20.1081583 19.8105357,19.7523214 C19.9501397,19.5893689 20.1539956,19.4955781 20.3685714,19.4955781 C20.5831473,19.4955781 20.7870031,19.5893689 20.9266071,19.7523214 C21.2351884,20.1083653 21.2348839,20.6371688 20.9258929,20.9928571 L20.9266071,20.9926786 Z M23.7725,30.4821429 C23.6327962,30.6450545 23.4288955,30.7388071 23.2142857,30.7388071 C22.999676,30.7388071 22.7957752,30.6450545 22.6560714,30.4821429 C22.348004,30.1260765 22.348004,29.5978521 22.6560714,29.2417857 C22.7956769,29.0787082 22.999614,28.9848339 23.2142857,28.9848339 C23.4289575,28.9848339 23.6328945,29.0787082 23.7725,29.2417857 C24.0805674,29.5978521 24.0805674,30.1260765 23.7725,30.4821429 Z M23.7725,24.1564286 C23.6328617,24.3194507 23.4289368,24.4132844 23.2142857,24.4132844 C22.9996347,24.4132844 22.7957097,24.3194507 22.6560714,24.1564286 C22.348004,23.8003622 22.348004,23.2721378 22.6560714,22.9160714 C22.7957097,22.7530493 22.9996347,22.6592156 23.2142857,22.6592156 C23.4289368,22.6592156 23.6328617,22.7530493 23.7725,22.9160714 C24.0801556,23.27202 24.0801556,23.7997657 23.7725,24.1557143 L23.7725,24.1564286 Z M23.7725,17.8307143 C23.6328945,17.9937918 23.4289575,18.0876661 23.2142857,18.0876661 C22.999614,18.0876661 22.7956769,17.9937918 22.6560714,17.8307143 C22.348004,17.4746479 22.348004,16.9464235 22.6560714,16.5903571 C22.7957097,16.427335 22.9996347,16.3335013 23.2142857,16.3335013 C23.4289368,16.3335013 23.6328617,16.427335 23.7725,16.5903571 C24.0801556,16.9463058 24.0801556,17.4740514 23.7725,17.83 L23.7725,17.8307143 Z M26.6191071,27.3191071 C26.4794689,27.4821293 26.2755439,27.575963 26.0608929,27.575963 C25.8462418,27.575963 25.6423169,27.4821293 25.5026786,27.3191071 C25.1939958,26.9632703 25.1939958,26.4345869 25.5026786,26.07875 C25.6423169,25.9157278 25.8462418,25.8218941 26.0608929,25.8218941 C26.2755439,25.8218941 26.4794689,25.9157278 26.6191071,26.07875 C26.9267627,26.4346986 26.9267627,26.9624442 26.6191071,27.3183929 L26.6191071,27.3191071 Z M26.6191071,20.9933929 C26.4795017,21.1564703 26.2755646,21.2503447 26.0608929,21.2503447 C25.8462211,21.2503447 25.6422841,21.1564703 25.5026786,20.9933929 C25.1939958,20.637556 25.1939958,20.1088726 25.5026786,19.7530357 C25.6423824,19.5901241 25.8462831,19.4963715 26.0608929,19.4963715 C26.2755026,19.4963715 26.4794034,19.5901241 26.6191071,19.7530357 C26.9268657,20.1090138 26.9268657,20.6368791 26.6191071,20.9928571 L26.6191071,20.9933929 Z M29.4653571,24.15625 C29.3257859,24.3192578 29.121918,24.4130893 28.9073214,24.4130893 C28.6927249,24.4130893 28.4888569,24.3192578 28.3492857,24.15625 C28.0406029,23.8004131 28.0406029,23.2717297 28.3492857,22.9158929 C28.4888569,22.752885 28.6927249,22.6590536 28.9073214,22.6590536 C29.121918,22.6590536 29.3257859,22.752885 29.4653571,22.9158929 C29.7737302,23.2716419 29.7737302,23.7999653 29.4653571,24.1557143 L29.4653571,24.15625 Z" id="Combined-Shape"></path>
            </g>
        </g>
    </g>
</svg>