<svg width="50px" height="50px" viewBox="0 0 50 50" version="1.1" xmlns="http://www.w3.org/2000/svg" xmlns:xlink="http://www.w3.org/1999/xlink">
    <!-- Generator: Sketch 55.2 (78181) - https://sketchapp.com -->
    <title>Icons/Products/Telemedicine</title>
    <desc>Created with Sketch.</desc>
    <g id="Icons/Products/Telemedicine" stroke="none" stroke-width="1" fill="none" fill-rule="evenodd">
        <g id="telemedicine_Icon" transform="translate(7.000000, 0.000000)" fill-rule="nonzero">
            <g id="Color" transform="translate(0.000000, 3.333333)" fill="#F76716">
                <path d="M30.2778333,0 L3.05533333,0 C1.82812966,0 0.833333333,0.99496299 0.833333333,2.22216667 L0.833333333,44.4445 C0.833333333,45.6717037 1.82812966,46.6666667 3.05533333,46.6666667 L30.2778333,46.6666667 C30.8671886,46.6666667 31.4324054,46.4325462 31.8491425,46.0158091 C32.2658795,45.599072 32.5,45.0338552 32.5,44.4445 L32.5,2.22216667 C32.5,1.63281142 32.2658795,1.06759464 31.8491425,0.650857548 C31.4324054,0.234120459 30.8671886,0 30.2778333,0 L30.2778333,0 Z M17.8991667,42.8591667 C16.671963,42.8589826 15.6772413,41.864037 15.6773333,40.6368334 C15.6774254,39.4096297 16.6722963,38.4148334 17.8995,38.4148334 C19.1267037,38.4148334 20.1215746,39.4096297 20.1216667,40.6368333 C20.1216667,41.2262617 19.8875058,41.7915461 19.4707014,42.2083192 C19.053897,42.6250924 18.488595,42.8591667 17.8991667,42.8591667 Z M28.0553333,36.6666667 L5.27783333,36.6666667 L5.27783333,5 L28.0553333,5 L28.0553333,36.6666667 Z" id="Shape"></path>
                <polygon id="Shape" points="20.695 12.43 17.9166667 12.43 17.9166667 9.65333333 13.75 9.65333333 13.75 12.43 10.9716667 12.43 10.9716667 16.5966667 13.75 16.5966667 13.75 19.375 17.9166667 19.375 17.9166667 16.5966667 20.695 16.5966667"></polygon>
            </g>
            <g id="Shape" transform="translate(1.666667, 0.000000)" fill="#000000">
                <path d="M30.8333333,48.8888333 L3.61116667,48.8888333 C1.77105519,48.8868125 0.279854123,47.3956115 0.277833333,45.5555 L0.277833333,3.33333333 C0.279854123,1.49322186 1.77105519,0.00202079015 3.61116667,2e-16 L30.8333333,2e-16 C32.6734448,0.00202079015 34.1646459,1.49322186 34.1666667,3.33333333 L34.1666667,45.5555 C34.1646459,47.3956115 32.6734448,48.8868125 30.8333333,48.8888333 Z M3.61116667,2.22216667 C2.99771478,2.222718 2.50055134,2.71988144 2.5,3.33333333 L2.5,45.5555 C2.50055134,46.1689519 2.99771478,46.6661153 3.61116667,46.6666667 L30.8333333,46.6666667 C31.4467852,46.6661153 31.9439487,46.1689519 31.9445,45.5555 L31.9445,3.33333333 C31.9439487,2.71988144 31.4467852,2.222718 30.8333333,2.22216667 L3.61116667,2.22216667 Z"></path>
                <path d="M28.6543333,38.5795 L5.79133333,38.5795 C5.14700113,38.5795 4.62466667,38.0571655 4.62466667,37.4128333 L4.62466667,6.47516667 C4.62466667,5.83083446 5.14700113,5.3085 5.79133333,5.3085 L28.6543333,5.3085 C29.2986655,5.3085 29.821,5.83083446 29.821,6.47516667 L29.821,37.4126667 C29.821,37.7221148 29.6981474,38.0189038 29.4793502,38.2377323 C29.2605529,38.4565608 28.9637815,38.5795 28.6543333,38.5795 Z M6.95833333,36.2461667 L27.4873333,36.2461667 L27.4873333,7.642 L6.95833333,7.642 L6.95833333,36.2461667 Z"></path>
            </g>
        </g>
    </g>
</svg>