<svg width="50px" height="50px" viewBox="0 0 50 50" version="1.1" xmlns="http://www.w3.org/2000/svg" xmlns:xlink="http://www.w3.org/1999/xlink">
    <!-- Generator: Sketch 55.2 (78181) - https://sketchapp.com -->
    <title>Icons/Products/Disabled/Telemedicine</title>
    <desc>Created with Sketch.</desc>
    <g id="Icons/Products/Disabled/Telemedicine" stroke="none" stroke-width="1" fill="none" fill-rule="evenodd">
        <g id="telemedicine_Icon" transform="translate(8.000000, 0.000000)" fill="#000000">
            <g id="Shape" transform="translate(0.666667, 0.000000)">
                <path d="M17.2325,45.1925 C16.0052963,45.1923159 15.0105746,44.1973704 15.0106667,42.9701667 C15.0107587,41.742963 16.0056297,40.7481667 17.2328333,40.7481667 C18.460037,40.7481667 19.4549079,41.742963 19.455,42.9701667 C19.455,43.559595 19.2208391,44.1248794 18.8040347,44.5416526 C18.3872303,44.9584257 17.8219283,45.1925 17.2325,45.1925 Z M19.0283333,15.7633333 L19.0283333,19.93 L16.25,19.93 L16.25,22.7083333 L12.0833333,22.7083333 L12.0833333,19.93 L9.305,19.93 L9.305,15.7633333 L12.0833333,15.7633333 L12.0833333,12.9866667 L16.25,12.9866667 L16.25,15.7633333 L19.0283333,15.7633333 Z M30.8333333,48.8888333 L3.61116667,48.8888333 C1.77105519,48.8868125 0.279854123,47.3956115 0.277833333,45.5555 L0.277833333,3.33333333 C0.279854123,1.49322186 1.77105519,0.00202079015 3.61116667,4.26325641e-14 L30.8333333,4.26325641e-14 C32.6734448,0.00202079015 34.1646459,1.49322186 34.1666667,3.33333333 L34.1666667,45.5555 C34.1646459,47.3956115 32.6734448,48.8868125 30.8333333,48.8888333 Z M3.61116667,2.22216667 C2.99771478,2.222718 2.50055134,2.71988144 2.5,3.33333333 L2.5,45.5555 C2.50055134,46.1689519 2.99771478,46.6661153 3.61116667,46.6666667 L30.8333333,46.6666667 C31.4467852,46.6661153 31.9439487,46.1689519 31.9445,45.5555 L31.9445,3.33333333 C31.9439487,2.71988144 31.4467852,2.222718 30.8333333,2.22216667 L3.61116667,2.22216667 Z M28.6543333,38.5795 L5.79133333,38.5795 C5.14700113,38.5795 4.62466667,38.0571655 4.62466667,37.4128333 L4.62466667,6.47516667 C4.62466667,5.83083446 5.14700113,5.3085 5.79133333,5.3085 L28.6543333,5.3085 C29.2986655,5.3085 29.821,5.83083446 29.821,6.47516667 L29.821,37.4126667 C29.821,37.7221148 29.6981474,38.0189038 29.4793502,38.2377323 C29.2605529,38.4565608 28.9637815,38.5795 28.6543333,38.5795 Z M6.95833333,36.2461667 L27.4873333,36.2461667 L27.4873333,7.642 L6.95833333,7.642 L6.95833333,36.2461667 Z" id="Combined-Shape"></path>
            </g>
        </g>
    </g>
</svg>