<svg width="50px" height="50px" viewBox="0 0 50 50" version="1.1" xmlns="http://www.w3.org/2000/svg" xmlns:xlink="http://www.w3.org/1999/xlink">
    <!-- Generator: Sketch 55.2 (78181) - https://sketchapp.com -->
    <title>Icons/Products/Disabled/Vision</title>
    <desc>Created with Sketch.</desc>
    <g id="Icons/Products/Disabled/Vision" stroke="none" stroke-width="1" fill="none" fill-rule="evenodd">
        <g id="vision_Icon" transform="translate(0.000000, 8.000000)" fill="#000000" fill-rule="nonzero">
            <g id="Shape">
                <path d="M49.7566932,15.9505723 C43.0345318,6.99480083 32.8527162,0.740592641 24.9975014,0.740592641 C17.1422865,0.740592641 6.96047093,6.99480083 0.238309513,15.9505723 C-0.0794088172,16.3739343 -0.0794088172,16.9562342 0.238309513,17.3795962 C6.96213743,26.3353676 17.1437864,32.5894092 24.9975014,32.5894092 C32.8512164,32.5894092 43.0328653,26.3353676 49.7566932,17.3795962 C50.0744116,16.9562342 50.0744116,16.3739343 49.7566932,15.9505723 Z M24.9975014,30.2009813 C17.5218996,30.2009813 11.4616877,24.1408249 11.4616877,16.6652231 C11.4616877,9.18962133 17.5217885,3.12935387 24.9973903,3.12935387 C32.4729921,3.12935387 38.5333151,9.18939913 38.5333151,16.6650009 C38.5244995,24.1369968 32.4694972,30.1920737 24.9975014,30.2009813 Z M2.69039775,16.6650009 C5.20669055,13.4621265 8.17148955,10.6386554 11.4933512,8.2816722 C8.27683582,13.4073439 8.27638258,19.9213771 11.4921846,25.0474964 C8.17101399,22.6904129 5.2066511,19.8672636 2.69039775,16.6650009 Z M38.5034847,25.0474964 C41.7189382,19.9215776 41.718485,13.4079767 38.5023182,8.28250546 C41.823886,10.639284 44.7884551,13.4624694 47.304605,16.6650009 C44.7883516,19.8672636 41.8239888,22.6904129 38.5028181,25.0474964 L38.5034847,25.0474964 Z M24.9975014,11.952472 C27.6000021,11.952656 29.7095304,14.0625001 29.7095304,16.6650009 C29.7095304,19.2675017 27.5996688,21.3771966 24.9971681,21.3771966 C22.3946673,21.3771966 20.2848058,19.2675017 20.2848058,16.6650009 C20.2905032,16.1457104 20.3828755,15.6310164 20.5581118,15.1421531 C20.9017713,15.394977 21.314812,15.5361089 21.7413268,15.5464461 C22.3080361,15.5464903 22.8515446,15.3213741 23.2522529,14.9206345 C23.6529612,14.519895 23.878035,13.9763689 23.8779466,13.4096596 C23.8678618,12.9831265 23.7267683,12.570028 23.4738203,12.2264446 C23.9629094,12.0508929 24.4778932,11.9582938 24.9975014,11.952472 Z"></path>
            </g>
        </g>
    </g>
</svg>