<svg width="50px" height="50px" viewBox="0 0 50 50" version="1.1" xmlns="http://www.w3.org/2000/svg" xmlns:xlink="http://www.w3.org/1999/xlink">
    <!-- Generator: Sketch 55.2 (78181) - https://sketchapp.com -->
    <title>Icons/Products/Vision</title>
    <desc>Created with Sketch.</desc>
    <g id="Icons/Products/Vision" stroke="none" stroke-width="1" fill="none" fill-rule="evenodd">
        <g id="vision_Icon" transform="translate(0.000000, 8.000000)" fill-rule="nonzero">
            <g id="Color" transform="translate(9.999001, 3.333000)" fill="#B2D235">
                <path d="M13.7911215,1.01189886 C8.32130122,1.01189886 3.39003718,4.30671983 1.29678087,9.3601555 C-0.796475436,14.4135912 0.36050937,20.2303807 4.22823256,24.0981516 C8.09595575,27.9659224 13.912731,29.1229789 18.9661925,27.0297849 C24.019654,24.9365908 27.3146031,20.0053674 27.3146031,14.5355471 C27.3146031,7.06674561 21.259923,1.01189886 13.7911215,1.01189886 Z M11.7413264,12.2127793 C10.8770618,12.2128467 10.0978608,11.6922781 9.76707434,10.8938211 C9.4362879,10.0953641 9.61906113,9.17626681 10.2301647,8.56511562 C10.8412682,7.95396443 11.7603512,7.77111951 12.558834,8.10184368 C13.3573168,8.43256785 13.8779462,9.21172826 13.8779462,10.0759929 C13.8780382,11.2558202 12.9218203,12.2124112 11.741993,12.2127793 L11.7413264,12.2127793 Z" id="Shape"></path>
            </g>
            <g id="Shape" fill="#000000">
                <path d="M49.7566932,15.9505723 C43.0345318,6.99480083 32.8527162,0.740592641 24.9975014,0.740592641 C17.1422865,0.740592641 6.96047093,6.99480083 0.238309513,15.9505723 C-0.0794088172,16.3739343 -0.0794088172,16.9562342 0.238309513,17.3795962 C6.96213743,26.3353676 17.1437864,32.5894092 24.9975014,32.5894092 C32.8512164,32.5894092 43.0328653,26.3353676 49.7566932,17.3795962 C50.0744116,16.9562342 50.0744116,16.3739343 49.7566932,15.9505723 Z M24.9975014,30.2009813 C17.5218996,30.2009813 11.4616877,24.1408249 11.4616877,16.6652231 C11.4616877,9.18962133 17.5217885,3.12935387 24.9973903,3.12935387 C32.4729921,3.12935387 38.5333151,9.18939913 38.5333151,16.6650009 C38.5244995,24.1369968 32.4694972,30.1920737 24.9975014,30.2009813 Z M2.69039775,16.6650009 C5.20669055,13.4621265 8.17148955,10.6386554 11.4933512,8.2816722 C8.27683582,13.4073439 8.27638258,19.9213771 11.4921846,25.0474964 C8.17101399,22.6904129 5.2066511,19.8672636 2.69039775,16.6650009 Z M38.5034847,25.0474964 C41.7189382,19.9215776 41.718485,13.4079767 38.5023182,8.28250546 C41.823886,10.639284 44.7884551,13.4624694 47.304605,16.6650009 C44.7883516,19.8672636 41.8239888,22.6904129 38.5028181,25.0474964 L38.5034847,25.0474964 Z"></path>
                <path d="M24.9975014,11.952472 C24.4778932,11.9582938 23.9629094,12.0508929 23.4738203,12.2264446 C23.7267683,12.570028 23.8678618,12.9831265 23.8779466,13.4096596 C23.878035,13.9763689 23.6529612,14.519895 23.2522529,14.9206345 C22.8515446,15.3213741 22.3080361,15.5464903 21.7413268,15.5464461 C21.314812,15.5361089 20.9017713,15.394977 20.5581118,15.1421531 C20.3828755,15.6310164 20.2905032,16.1457104 20.2848058,16.6650009 C20.2848058,19.2675017 22.3946673,21.3771966 24.9971681,21.3771966 C27.5996688,21.3771966 29.7095304,19.2675017 29.7095304,16.6650009 C29.7095304,14.0625001 27.6000021,11.952656 24.9975014,11.952472 L24.9975014,11.952472 Z"></path>
            </g>
        </g>
    </g>
</svg>