<svg xmlns="http://www.w3.org/2000/svg" xmlns:xlink="http://www.w3.org/1999/xlink" preserveAspectRatio="xMidYMid" width="31.938" height="29.844" viewBox="0 0 31.938 29.844">
  <defs>
    <style>
      .cls-1 {
        fill: #000;
        fill-rule: evenodd;
      }
    </style>
  </defs>
  <path d="M30.941,29.838 C30.935,29.838 30.928,29.838 30.921,29.838 L0.980,29.838 C0.630,29.838 0.305,29.655 0.124,29.354 C-0.056,29.053 -0.065,28.680 0.101,28.371 L15.071,0.478 C15.418,-0.169 16.483,-0.169 16.830,0.478 L31.717,28.216 C31.856,28.386 31.939,28.605 31.939,28.842 C31.939,29.392 31.492,29.838 30.941,29.838 ZM15.951,3.058 L2.647,27.846 L29.254,27.846 L15.951,3.058 ZM15.951,10.910 C16.502,10.910 16.949,11.356 16.949,11.907 L16.949,19.876 C16.949,20.426 16.502,20.873 15.951,20.873 C15.400,20.873 14.953,20.426 14.953,19.876 L14.953,11.907 C14.953,11.356 15.400,10.910 15.951,10.910 ZM16.659,23.154 C16.839,23.343 16.949,23.602 16.949,23.861 C16.949,24.120 16.839,24.379 16.659,24.568 C16.470,24.747 16.210,24.857 15.951,24.857 C15.691,24.857 15.432,24.747 15.242,24.568 C15.062,24.379 14.953,24.120 14.953,23.861 C14.953,23.602 15.062,23.343 15.242,23.154 C15.621,22.785 16.290,22.785 16.659,23.154 Z" class="cls-1"/>
</svg>
