<svg xmlns="http://www.w3.org/2000/svg" preserveAspectRatio="xMidYMid"
     width="95.814" height="84" viewBox="0 0 47.907 42">
  <defs>
    <style>
      .cls-1 {
      fill: #000;
      fill-rule: evenodd;
      }
    </style>
  </defs>
  <path
    d="M47.762,21.498 L36.282,41.498 C36.104,41.808 35.774,42.000 35.417,42.000 L12.458,42.000 C12.100,42.000 11.770,41.808 11.592,41.498 L0.113,21.498 C-0.065,21.190 -0.065,20.810 0.113,20.501 L11.592,0.501 C11.770,0.191 12.100,-0.001 12.458,-0.001 L35.417,-0.001 C35.774,-0.001 36.104,0.191 36.282,0.501 L47.762,20.501 C47.939,20.810 47.939,21.190 47.762,21.498 ZM34.839,2.000 L13.035,2.000 L2.129,20.999 L13.035,39.999 L34.839,39.999 L45.745,20.999 L34.839,2.000 ZM23.937,30.999 C23.677,30.999 23.418,30.890 23.228,30.709 C23.049,30.520 22.939,30.259 22.939,30.000 C22.939,29.730 23.049,29.480 23.228,29.289 C23.598,28.919 24.266,28.919 24.646,29.289 C24.825,29.480 24.935,29.730 24.935,30.000 C24.935,30.259 24.825,30.520 24.646,30.709 C24.456,30.890 24.196,30.999 23.937,30.999 ZM23.937,25.000 C23.386,25.000 22.939,24.552 22.939,24.000 L22.939,12.000 C22.939,11.448 23.386,10.999 23.937,10.999 C24.488,10.999 24.935,11.448 24.935,12.000 L24.935,24.000 C24.935,24.552 24.488,25.000 23.937,25.000 Z"
    class="cls-1"/>
</svg>
