<svg width="50px" height="50px" viewBox="0 0 50 50" version="1.1" xmlns="http://www.w3.org/2000/svg" xmlns:xlink="http://www.w3.org/1999/xlink">
    <!-- Generator: Sketch 55.2 (78181) - https://sketchapp.com -->
    <title>Icons/Products/Life</title>
    <desc>Created with Sketch.</desc>
    <g id="Icons/Products/Life" stroke="none" stroke-width="1" fill="none" fill-rule="evenodd">
        <g id="Color" transform="translate(0.000000, 5.000000)" fill="#BF2626" fill-rule="nonzero">
            <path d="M31.4413333,1.28975473 C24.352,1.31633333 22.2628333,8.6205 22.2628333,8.6205 C22.2628333,8.6205 20.1128333,1.3355 13.0203333,1.3745 C5.6415,1.41566667 -2.02483333,6.32966667 0.4865,17.9333333 C0.864872379,19.5389154 1.50432389,21.0714707 2.37933333,22.4698333 L4.31266667,22.4698333 C5.01466667,22.4698333 5.66816667,21.6575 6.24516667,20.9411667 C6.8705,20.1645 7.46066667,19.4303333 8.3655,19.4303333 C9.6155,19.4303333 9.9635,20.8501667 10.3321667,22.3531667 C10.4246667,22.7301667 10.5606667,23.2851667 10.7106667,23.7493333 C11.1885,21.8841667 11.6971667,17.9946667 12.0286667,15.466 C12.9483333,8.43883333 13.1378333,7.27233333 14.4453333,7.27233333 C15.762,7.27233333 15.9146667,7.6365 16.9748333,20.36 C17.1776667,22.797 17.421,25.715 17.6625,28.0343333 C17.7851667,27.2793333 17.902,26.5205 18.0033333,25.8625 C18.93,19.8396667 19.1991667,18.4178333 20.5245,18.4178333 C21.8221667,18.4178333 22.1931667,19.902 22.5206667,21.212 C22.58,21.4495 22.6601667,21.77 22.7433333,22.05 C23.3390364,21.0462322 24.4233145,20.4346874 25.5905,20.4441667 C26.1501025,20.4441667 26.60375,20.8978141 26.60375,21.4574167 C26.60375,22.0170192 26.1501025,22.4706667 25.5905,22.4706667 C24.9563333,22.4706667 24.7346667,22.7446667 24.3318333,23.3136667 C23.9811285,23.988108 23.3084776,24.4350312 22.5508333,24.497 C21.3991667,24.497 20.9771667,23.3275 20.6675,22.149 C20.4341667,23.3918333 20.1925,24.9541667 20.0055,26.1711667 C19.0788333,32.194 18.8096667,33.6158333 17.4843333,33.6158333 C16.1676667,33.6158333 16.015,33.2516667 14.9548333,20.5281667 C14.7696667,18.3118333 14.552,15.7 14.3323333,13.5 C14.2285,14.2608333 14.128,15.0286667 14.0365,15.7273333 C12.8916667,24.4773333 12.4646667,26.5223333 10.898,26.5223333 C9.26633333,26.5223333 8.7865,24.5631667 8.363,22.8346667 C8.29183333,22.5438333 8.20116667,22.1736667 8.11016667,21.86 C8.00916667,21.9796667 7.90833333,22.1053333 7.82316667,22.2113333 C7.07012924,23.4759157 5.77322706,24.3197917 4.312,24.496 L3.74266667,24.496 C5.84875967,27.1378631 8.12557432,29.6389909 10.5585,31.9833333 C14.2742377,35.8054357 18.2403433,39.3758884 22.4305,42.671 C26.5905226,39.336911 30.523944,35.7295441 34.2046667,31.8728333 C38.058,27.831 43.0246667,23.1 44.1323333,17.7215 C46.5403333,6.1 38.8198333,1.25 31.4413333,1.28975473 Z" id="Shape"></path>
        </g>
        <g id="Shape" fill="#000000" fill-rule="nonzero">
            <path d="M46.9185,6.99033333 C43.8200239,3.43358296 39.2851406,1.46047073 34.5706667,1.61783333 L34.4683333,1.61783333 C30.8330309,1.63024487 27.4209531,3.3732027 25.2801667,6.31133333 C23.1266163,3.41208155 19.7282369,1.7027859 16.1166667,1.70233333 C11.355847,1.55357189 6.78279493,3.56429366 3.67416667,7.17316667 C1.6985,9.63616667 -0.3345,14.0596667 1.199,21.1456667 C1.74366685,23.4161263 2.71533192,25.5622284 4.06216667,27.4695 L4.31216667,27.4695 C4.94033333,27.4695 5.52666667,26.8185 6.05683333,26.1681667 C4.87145394,24.5026912 4.01272252,22.6274964 3.52616667,20.642 C1.015,9.03866667 8.68116667,4.12483333 16.06,4.08333333 L16.1166667,4.08333333 C23.164,4.08333333 25.3025,11.3295 25.3025,11.3295 C25.3025,11.3295 27.3916667,4.02533333 34.481,3.999 L34.5705,3.999 C41.9216667,3.999 49.5705,8.857 47.172,20.4303333 C46.0643333,25.8088333 41.0976667,30.5396667 37.2445,34.5815 C33.5637286,38.4381611 29.6303107,42.0455249 25.4703333,45.3796667 C25.4703333,45.3796667 22.0398333,42.7651667 17.5966667,38.6065 C17.559,38.6091667 17.5235,38.6148333 17.4838333,38.6148333 C16.894,38.6148333 16.5381667,38.5315 16.229,37.3071667 C15.3725,36.4808333 14.4925,35.6108333 13.598,34.692 C12.5888333,33.6575 11.5076667,32.5753333 10.4368333,31.4505 C9.72171023,31.1829835 9.17568515,30.5923787 8.965,29.8585 C8.38166667,29.205 7.82533333,28.5331667 7.28933333,27.851 C6.78481725,28.4807697 6.13287198,28.9764976 5.39116667,29.2943333 C7.09982572,31.3955263 8.92432465,33.3998043 10.8561667,35.2978333 L11.8936667,36.3545 C15.6890131,40.2625893 19.7430615,43.910832 24.0283333,47.2745 L25.4843333,48.3825 L26.9298333,47.261 C31.1849414,43.8570735 35.206087,40.1705733 38.966,36.2265 C39.3163333,35.8590556 39.6732778,35.4872778 40.0368333,35.1111667 C43.9368333,31.0626667 48.3585,26.474 49.5043333,20.9111667 C50.9705,13.8333333 48.9076667,9.43333333 46.9185,6.99033333 Z"></path>
        </g>
    </g>
</svg>